<?xml version="1.0" encoding="UTF-8"?>
<svg id="Layer_1" xmlns="http://www.w3.org/2000/svg" version="1.1" xmlns:xlink="http://www.w3.org/1999/xlink" viewBox="0 0 427.5 203">
  <!-- Generator: Adobe Illustrator 29.5.0, SVG Export Plug-In . SVG Version: 2.1.0 Build 137)  -->
  <defs>
    <style>
      .st0 {
        fill: #7fc0e9;
      }

      .st1 {
        fill: #a6d7f4;
      }

      .st2 {
        fill: url(#linear-gradient1);
      }

      .st3 {
        fill: #cdeefc;
      }

      .st4 {
        fill: #61ade1;
      }

      .st5 {
        fill: #e2e1df;
      }

      .st6 {
        fill: url(#linear-gradient);
      }
    </style>
    <linearGradient id="linear-gradient" x1="147.33" y1="40.41" x2="316.85" y2="153.87" gradientUnits="userSpaceOnUse">
      <stop offset=".1" stop-color="#94d7f6"/>
      <stop offset="1" stop-color="#6bb4e5"/>
    </linearGradient>
    <linearGradient id="linear-gradient1" x1="219.82" y1="70.99" x2="234.05" y2="173.3" gradientUnits="userSpaceOnUse">
      <stop offset="0" stop-color="#b5e0f7"/>
      <stop offset="1" stop-color="#6db4e4"/>
    </linearGradient>
  </defs>
  <g id="Generative_Object">
    <path class="st5" d="M19.07,160.94c10.75,6.61,26.56,10.59,38.84,6.51,1.27-.42,4.08-3.04,4.34-3.04s3.19,3.41,3.91,3.91c8.11,5.57,20.54,9.21,29.51,3.47.61-.39,3.93-3.48,4.12-3.91,12.9,22.68,46.38,28.77,69.66,20.83,4.86-1.66,10.53-4.77,13.45-9.11,20.21,17.66,51.37,18.07,74,4.77,5.13-2.68,12.19-7.62,14.76-13.02l1.95-2.6c18.76,20.33,59.18,13.78,75.08-6.94,29.18,22.23,78.55,1.15,62.71-39.06,8.78,11.61,14,19.69,8.25,34.94-9.05,23.99-45.44,27.21-64.45,13.24-17.81,21.35-54.21,25.82-75.52,6.94-17.82,28.25-65.41,32.94-89.84,10.42-6.49,8.38-19.81,11.91-29.95,12.59-21.33,1.42-41.09-6.67-54.25-23.44-9.09,9.36-21.62,6.26-31.68.43-1.13-.65-4.87-4.3-5.21-4.34-.67-.08-2.62,1.89-3.47,2.17-19.07,6.19-33.99-.44-46.22-14.76Z"/>
    <path class="st0" d="M411.41,122.75c15.84,40.21-33.53,61.29-62.71,39.06-15.91,20.73-56.33,27.28-75.08,6.94l-1.95,2.6c.24-.5,1.62-4.42,1.09-4.77-13.57,19.71-39.33,27.94-62.5,24.3-2.25,1.13,6.81,2.12,7.38,2.17,12.79,1.06,28-2.78,39.28-8.68-22.63,13.29-53.79,12.89-74-4.77-2.93,4.34-8.6,7.46-13.45,9.11-23.27,7.94-56.76,1.85-69.66-20.83.04-.1.02-2.06,0-2.17,2.66,3.67,6.27,9.33,9.77,12.15,5.34,4.32,12.94,6.17,18.66,7.38,2.69.57,16.99,3.27,18.66,3.04s1.05-.28,1.09-1.74c9.77-.22,20.11-1.38,27.34-8.46.67-.65,2.22-3.78,2.6-4.12,5.45-4.9,6.12.33,9.98,3.47,7.57,6.16,10.57,6.45,19.75,8.68.43.1,0,1.2.43,1.3,4.73,1.12,17.06.62,22.13,0,14.26-1.75,28.2-9.42,35.37-22.13,1.59-.6,7.01-3.32,8.03-3.04.44.12,4.71,5.79,5.64,6.51,2.2,1.7,6.35,2.67,8.25,3.47.45.19-.01,1.13.43,1.3,17.4,6.87,48.97.16,59.68-16.49,1.84,3.74,7.51,7.45,11.5,8.25.55.11,2.66.38,2.39-.87,17.29,7.52,46.72-4.22,49.91-24.09,2.02-12.6-5.73-27.56-17.58-32.33-2.42-.97-6.03-.85-8.03-2.6,13.56,1.67,18.01,7.32,25.61,17.36Z"/>
    <path class="st4" d="M39.9,116.24c-1.45,3.78-2.21.51-3.69.43-19.37-1.01-21.28,30.3-5.21,38.63,3.1,1.61,4.92-3.87,8.25-4.77,2.5,1.72,16.45,6.22,18.66,5.64,2.92-.76,4.69-6.79,6.08-9.11-3.04,14.71,16.85,9.22,25.61,9.98-1.07-2.83-7.92-5.03-3.04-7.81,4.06-2.31,7.4,1.93,2.82,4.56,0,1.55,8.46,4.69,9.98,4.99,2.94,4.21,5.68,9.49,9.11,13.24,9.85,10.76,25.28,14.87,39.49,14.54-.03,1.45.5,1.51-1.09,1.74-1.67.24-15.98-2.47-18.66-3.04-5.72-1.21-13.32-3.06-18.66-7.38-3.49-2.82-7.11-8.48-9.77-12.15-.04-.26-.54-1.74-.65-1.74-3.93,4.39-9.89,9.53-16.06,9.11-4.9-.33-13.77-4.88-17.79-7.81-1.06-.77-3.62-4.31-3.91-4.34-.19-.02-1.72,1.92-2.17,2.17-7.12,3.98-13.85,2.95-20.83,2.17-.94-.1-1.27.57-2.17.43-1.81-.27-4.7-2.31-6.51-1.74l-16.71-10.42c-12.65-18.81,4.7-46.84,26.91-37.32Z"/>
    <path class="st4" d="M380.17,104.95c2.03-.09,3.67.19,5.64.43,2,1.76,5.61,1.63,8.03,2.6,11.85,4.77,19.6,19.73,17.58,32.33-3.19,19.87-32.62,31.61-49.91,24.09-3.9-1.7-9.43-6.11-11.28-9.98-.39-.82-.72-1.7-.87-2.6,5.87-.15,10.82-2.06,14.76-6.51,5.65,1.47.96,3.71-.65,6.51,12.61.28,34.1-11.49,36.67-24.52,3-15.2-16.17-16.07-25.61-18.01-.21-1.82-1.92-.82-.87-3.04,2.12-.84,4.22-1.2,6.51-1.3Z"/>
    <path class="st0" d="M301.18,37.68l7.81,24.3c4.86-.43,9.6-2.84,14.54-3.04,17.67-.71,38.45,11.77,43.18,29.3.18.65,1,2.76-.22,2.82-6.04-24.18-36.93-37.42-60.33-25.17.16-1.53-.29-4.89-.65-6.29-.56-2.15-2.15-4.35-1.74-6.29-10.78-39.7-62.87-50.84-90.06-23-.34-.26-.62-.85-1.09-.87-19.14-21.4-47.69-22.78-69.66-4.34-7.2,6.05-11.6,12.8-15.41,21.27-1.71,3.8-3.57,7-4.34,11.72-.74-.74.06,1.04-1.74,0,1.79-46.41,61.37-69.71,92.23-32.55,20.56-22.56,59.52-19.61,79.64,1.95,2.81,3.01,5.28,6.9,7.81,10.2Z"/>
    <path class="st0" d="M99.8,165.72c.02.11.04,2.07,0,2.17-.19.43-3.51,3.52-4.12,3.91-8.97,5.74-21.4,2.09-29.51-3.47-.72-.49-3.63-3.91-3.91-3.91s-3.07,2.62-4.34,3.04c-12.28,4.08-28.09.1-38.84-6.51-1.98-2.32-4.39-4.87-6.08-7.38l16.71,10.42c1.81-.57,4.7,1.46,6.51,1.74.9.13,1.23-.54,2.17-.43,6.99.78,13.71,1.81,20.83-2.17.45-.25,1.98-2.19,2.17-2.17.29.03,2.85,3.57,3.91,4.34,4.02,2.93,12.89,7.48,17.79,7.81,6.16.42,12.12-4.73,16.06-9.11.11,0,.61,1.48.65,1.74Z"/>
    <path class="st6" d="M371.92,107.99c-.02.59-1.74,1.68-1.74,1.95,0,.54,4.52,6.79,5.21,9.55.62,2.49.86,6.71.65,9.33.79-18.77-19.53-34.4-36.46-24.3-.21-2.24-3.96-3.86-4.12-4.12-.72-1.13-.95-4.67-3.04-7.38-6.69-8.67-26.34-13.75-36.89-13.67-6.14.04-10.91.75-16.28,3.91-11.12-33.23-61.34-47.73-82.9-15.62-23.99-10.6-58.18-2.52-64.45,26.04-4.74,1.06-13.05,5.74-16.06,9.55-1.97.23-5.36,1.37-7.16,1.3-1.27-.04-10.5-2.55-10.2-3.69,9.97-5.47,18.73-13.68,23.87-23.87,4.1-8.13,5.45-17.49,12.37-24.09,16.7-15.92,38.7-3.7,59.03-6.51,12.96-1.79,22.76-10.98,35.15-14.32,29.81-8.04,64.28,4.82,74.22,35.59,19.34,1.06,35.76,4.08,49.69,18.45,5.98,6.16,12.23,17.82,19.1,21.92Z"/>
    <path class="st1" d="M212.64,29.44c.46.02.74.61,1.09.87,27.19-27.84,79.28-16.7,90.06,23l-7.6-14.32c-3.02-.7-6.87,4.49-8.25,4.34-.48-.05-6.27-4.83-7.81-5.64-18.58-9.74-35.24-12.02-55.55-5.21-11.12,3.73-18.08,10.91-30.81,13.02-19.09,3.16-37.67-8.05-55.12,3.47-16.23,10.73-13.62,33.96-34.72,47.74-10.49,6.85-9.05,2.18-19.1,3.47-1.61.21-4.1,2.19-4.34,2.17-.77-.07-3.62-4.41-4.34-4.77-.48-.24-9.97-.57-10.85-.43-11,1.69-18.86,11.12-22.13,21.27-.57-1-.42-1.78-.22-2.82.99-5.2,10.73-15.71,14.54-17.58,5.36-2.63,12.76-3.9,18.23-1.3l1.09-.65c-.6-2.51-.68-6.13-.43-8.68,1.04-10.78,8-23.94,19.75-29.73,9.38-4.62,19.7-2.63,26.47,5.21,1.91-.76.31-2.69.65-4.77.77-4.72,2.63-7.92,4.34-11.72.51,2.83,3.3-4.28,3.47-4.56,15.27-24.26,43.83-35.43,69.66-20.18,2.44,1.44,9.96,8.22,11.28,8.68.28.1.02-.89.65-.87Z"/>
    <path class="st4" d="M295.53,79.35c10.55-.08,30.2,5,36.89,13.67,2.09,2.71,2.32,6.25,3.04,7.38.17.26,3.92,1.89,4.12,4.12,16.93-10.1,37.25,5.54,36.46,24.3.21-2.62-.03-6.84-.65-9.33-.69-2.76-5.21-9-5.21-9.55,0-.27,1.71-1.36,1.74-1.95.87.52,1.54,1.08,2.6,1.3,9.44,1.94,28.61,2.81,25.61,18.01-2.57,13.03-24.06,24.8-36.67,24.52,1.61-2.8,6.3-5.04.65-6.51,7.33-8.3,7.26-21.65.43-30.16-.99-1.24-4.12-4.22-5.43-4.99-4.05-2.38-12.23-4.87-13.67-.22.69.85,6.06-.81,6.51,1.52-1.87-.44-3.52-.57-5.43-.43l1.09,1.3c-6.67-.14-8.8,2.79-13.02,6.51-1.5-2.42-1.98-5.53-3.04-8.25-8.32-21.43-39.04-31.63-56.2-13.89.06-1.56.46-4.89.22-6.29-.69-3.97-4.87-12.62-7.38-15.84,6.36-1.33,8.32,9.32,9.77,13.89,3.99-1.61,7.8-4.45,12.15-5.21,12.84-2.23,28.6,2.94,37.32,12.59-6.74-9.74-20.66-13.53-32.12-13.45l.22-3.04Z"/>
    <path class="st0" d="M189.2,146.19c-1.21,3.75-3.08,7.59-5.86,10.42-8.02,8.16-35.02,12.68-39.93-2.17-1.91,2.49,2.17,7.74,4.34,9.11,1.65,1.05,6.99,1.9,7.38,2.17.09.06-.06,1.88.43,2.17.63.38,13.75.11,14.76,0,.58-.06,9.41-2.84,10.63-3.47.32,2.88-1.54,6.5-3.91,8.25-11.64,8.6-39.45,4.02-51.86-2.17-5.21-2.6-9.96-7.34-14.97-9.98-.63-.85-1.72-2.19,0-2.17,6.44-.04,20.32-7.91,23-13.89l-.65,3.91,6.08-5.64.22,5.43c.57,2.28,5.69-4.29,7.6-3.69-.3,2.81,1.42.08,2.6-.43.91.17.73,5.88,1.09,7.16,3.24,11.58,18.45,11.85,27.13,6.73,4.41-2.61,9.16-8.11,10.85-13.02.9-.06.41.59,1.09,1.3Z"/>
    <path class="st4" d="M110.21,160.51c5.01,2.64,9.76,7.38,14.97,9.98,12.41,6.19,40.22,10.77,51.86,2.17l.87,1.3c-.39.35-1.94,3.47-2.6,4.12-7.24,7.08-17.57,8.24-27.34,8.46-14.22.33-29.65-3.78-39.49-14.54-3.43-3.75-6.17-9.03-9.11-13.24,4.79.94,5.37-1.15,10.85,1.74Z"/>
    <path class="st0" d="M141.03,98.88c-10.11-1.61-20.64,5.53-24.74,14.54-.75,1.65-3.4,8.87-1.74,9.77-.24.41-.22,1.34-1.09,1.74-6.03-4.25-12.23-5.53-18.66-1.3-1.24.82-3.27,3.84-4.12,4.34-1.99,1.15-4.43.43-5.21-1.52-.02-2.51,11.12-11.46,13.67-12.37,6.12-2.19,8.6,1.33,13.67-4.99,1.2-1.5,1.97-4.51,3.04-5.86,3.01-3.81,11.32-8.48,16.06-9.55.9-.2,5.58.54,5.86.43.59-.22.57-2.41.87-2.6.41-.27,4.01,1.87,4.34,1.74.21-.08,1.63-2.94,2.39-3.91-1.79,2.71-2.13,6.4-3.04,8.9-.06.17-1.26.54-1.3.65Z"/>
    <path class="st4" d="M133.21,144.45c-2.68,5.98-16.56,13.85-23,13.89-1.78.01-3.64-.35-3.69-2.6,8.61-.05,19.13-3.54,24.52-10.63.61-.8,1.9-3.39,1.74-4.56,2.47-.04,1.13,2.35.43,3.91Z"/>
    <g>
      <path class="st0" d="M303.78,53.31c-.42,1.94,1.18,4.14,1.74,6.29.36,1.4.81,4.76.65,6.29,23.4-12.25,54.29,1,60.33,25.17,1.22-.06.39-2.17.22-2.82-4.74-17.53-25.51-30.01-43.18-29.3-4.94.2-9.68,2.61-14.54,3.04,1.17-1.17,3.75-2.89,5.21-3.47,19.17-7.69,43.12,2.45,52.95,19.96,4.59,8.18,7.23,18.56,5.64,27.99l.87-.22c-1.05,2.22.66,1.21.87,3.04-1.06-.22-1.73-.78-2.6-1.3-6.87-4.1-13.12-15.75-19.1-21.92-13.93-14.37-30.35-17.39-49.69-18.45-9.94-30.77-44.41-43.63-74.22-35.59-12.39,3.34-22.19,12.53-35.15,14.32-20.33,2.81-42.33-9.41-59.03,6.51-6.92,6.6-8.27,15.96-12.37,24.09-5.14,10.19-13.9,18.4-23.87,23.87-.3,1.14,8.93,3.64,10.2,3.69,1.8.06,5.19-1.08,7.16-1.3-1.07,1.35-1.84,4.36-3.04,5.86-5.07,6.33-7.55,2.8-13.67,4.99-2.55.91-13.69,9.86-13.67,12.37.78,1.95,3.22,2.67,5.21,1.52-1.43,2.29-3.93,6.57-3.47,9.33.36,2.14,6.78,9.62,9.33,10.63,7.66,3.04,24.39-.23,31.68-3.91.86-.43,3.79-3.46,4.56-3.47.17,1.16-1.13,3.76-1.74,4.56-5.39,7.1-15.92,10.58-24.52,10.63.05,2.26,1.91,2.62,3.69,2.6-1.72-.02-.63,1.32,0,2.17-5.48-2.89-6.06-.8-10.85-1.74-1.52-.3-9.98-3.44-9.98-4.99,4.58-2.63,1.24-6.86-2.82-4.56-4.89,2.78,1.97,4.98,3.04,7.81-8.76-.76-28.65,4.72-25.61-9.98-1.39,2.32-3.16,8.35-6.08,9.11-2.21.58-16.16-3.92-18.66-5.64-3.32.9-5.15,6.38-8.25,4.77-16.07-8.32-14.16-39.63,5.21-38.63,1.48.08,2.24,3.34,3.69-.43.64-1.66.37-3.5.87-4.99,4.86-14.63,19.59-22.69,34.29-16.93-8.59-22.39,14.63-48.82,37.98-41.45,3.02.95,5.91,3.73,8.46,5.21,1.8,1.04.99-.74,1.74,0-.34,2.08,1.26,4.01-.65,4.77-6.78-7.84-17.1-9.83-26.47-5.21-11.75,5.79-18.71,18.95-19.75,29.73-.25,2.55-.17,6.17.43,8.68l-1.09.65c-5.47-2.6-12.87-1.32-18.23,1.3-3.81,1.87-13.55,12.37-14.54,17.58-.2,1.04-.36,1.83.22,2.82,3.28-10.15,11.14-19.58,22.13-21.27.88-.14,10.37.19,10.85.43.72.37,3.57,4.7,4.34,4.77.24.02,2.73-1.96,4.34-2.17,10.04-1.29,8.61,3.38,19.1-3.47,21.1-13.78,18.49-37.02,34.72-47.74,17.45-11.53,36.03-.31,55.12-3.47,12.73-2.11,19.69-9.29,30.81-13.02,20.31-6.81,36.98-4.54,55.55,5.21,1.54.81,7.33,5.59,7.81,5.64,1.38.15,5.23-5.04,8.25-4.34l7.6,14.32Z"/>
      <path class="st4" d="M92.63,151.39c1.5-.31,5.43,2.86,6.94,3.47,1.92.77,6.06-.39,7.16,3.26-2.5.51-15.78-1.52-16.06-4.34-.05-.51,1.73-2.34,1.95-2.39Z"/>
    </g>
    <path class="st0" d="M271.66,171.36c-2.56,5.4-9.63,10.34-14.76,13.02-11.28,5.9-26.49,9.74-39.28,8.68-.57-.05-9.63-1.04-7.38-2.17,23.16,3.64,48.93-4.6,62.5-24.3.53.35-.85,4.27-1.09,4.77Z"/>
    <path class="st4" d="M344.14,153.56c.76-.13,1.77-1.07,2.17-1.74.45.05,2.47.01,3.04,0,.15.9.48,1.79.87,2.6-2.09-.51-1.7,1.21-2.6,2.6-10.71,16.65-42.28,23.36-59.68,16.49-.44-.18.01-1.11-.43-1.3-1.9-.81-6.04-1.77-8.25-3.47-.93-.72-5.21-6.39-5.64-6.51-1.02-.29-6.44,2.43-8.03,3.04-.05.02.25-1.11-.65-.87-.33.09-3.33,3.86-4.77,4.77-19.02,12.09-39.36,13.53-60.76,7.81-1.68-.45-6.02-2.97-7.38-3.04-1.24-.06-6.38,1.45-4.12,3.47-3.86-3.14-4.53-8.37-9.98-3.47l-.87-1.3c2.37-1.75,4.22-5.37,3.91-8.25,1.74-.89,5.37-3.86,6.51-5.43,2.15-2.95,4.38-10,1.74-12.8.1-.32.49-5.46,1.3-4.99.21,7.69.84,13.23,8.03,17.58,12.32,7.45,53.61,8.13,64.88-1.3,1.28-1.07,2.28-1.28,2.17-3.47,13.17,5.32,41.26.87,43.4-16.49.43-3.49-.48-7.95-2.17-11.07,1.55-1.57,5.11,7.56,5.21,8.25,2.16,14.57-13.15,22.9-25.39,24.52-.62.84-.06,1.18.43,1.74,1.29,1.47,16.11,5.85,18.66,6.08,13.5,1.19,29.86-2.32,38.41-13.45Z"/>
    <path class="st4" d="M265.59,165.28c-7.17,12.72-21.11,20.39-35.37,22.13-5.08.62-17.4,1.12-22.13,0-.43-.1,0-1.2-.43-1.3-9.18-2.23-12.18-2.52-19.75-8.68-2.26-2.02,2.88-3.53,4.12-3.47,1.36.07,5.69,2.59,7.38,3.04,21.4,5.72,41.74,4.28,60.76-7.81,1.44-.92,4.45-4.69,4.77-4.77.91-.24.6.89.65.87Z"/>
    <path class="st0" d="M350.22,154.43c1.85,3.87,7.38,8.29,11.28,9.98.27,1.25-1.84.98-2.39.87-3.99-.8-9.66-4.51-11.5-8.25.9-1.4.51-3.11,2.6-2.6Z"/>
    <path class="st3" d="M212.64,29.44c-.63-.02-.37.96-.65.87-1.32-.46-8.85-7.24-11.28-8.68-25.82-15.25-54.39-4.08-69.66,20.18-.17.28-2.96,7.39-3.47,4.56,3.81-8.47,8.21-15.22,15.41-21.27,21.97-18.44,50.52-17.06,69.66,4.34Z"/>
    <path class="st1" d="M268.19,74.57c2.51,3.22,6.69,11.88,7.38,15.84.24,1.4-.16,4.73-.22,6.29,17.17-17.74,47.89-7.54,56.2,13.89l.65,5.64c-2.56-4.88-5.13-9.49-9.11-13.45-11.49-11.42-28.69-14.77-43.18-6.08-2.32.77-3.37,2.72-5.64,1.95-.2-.75-.35-4.96-.43-5.21-.35-1.04-2.03-5.56-2.17-5.86l.87-.22c-14.55-28.86-48.5-33.43-67.71-5.86-3.55,1.5.12-5.01.87-6.29,13.46-23.15,47.2-20.28,62.5-.65Z"/>
    <path class="st0" d="M214.37,130.13c-.31,2.74.25,4.92,1.3,7.38l-1.74-.65c2.39,14.47,25.88,20.72,35.15,9.98.08-.09,1.32-3.08-.43-2.39.2-.18.65-1.07.87-1.3.61-.64,1.15-1.36,1.52-2.17l11.94,9.11c-3.27.67,1.84,3.6,2.6,3.91.11,2.19-.89,2.4-2.17,3.47l-12.37-10.42c-1.18-.04-4.03,4.91-5.64,6.08-11.94,8.61-29.49-1.12-34.5-13.24-.18-.44-1.16,0-1.3-.43-.32-.96-.61-7.98-.43-9.11.31-2,6.92-13.15,8.68-10.42,1.15,1.8-2.06,2.86-2.17,3.04-.04.07,1.09.66.87,1.3-.71,2.06-1.88,3.24-2.17,5.86Z"/>
    <path class="st1" d="M203.96,82.39c-.47.68-1.02,4-2.39,3.91-16.32-18.87-44.4-11.33-55.77,8.9-.64,1.14-2.38,4.1-1.74,5.43-1.18,2.05-1.51,4.18-3.26,6.08-12.88-4.27-21.29,5.94-25.39,16.71-.19.35-.54-.04-.87-.22,1.01-1.73,2.2-5.84,3.04-7.16,4.91-7.74,12.83-13.16,22.35-11.07,1.14-1.11.47-4.27,1.09-6.08.04-.11,1.24-.48,1.3-.65.91-2.49,1.24-6.19,3.04-8.9,12.26-15.59,31.58-25.56,50.13-13.02,1.85,1.25,5.63,5.92,6.29,6.29.78.44,1.25-.5,2.17-.22Z"/>
    <path class="st3" d="M271.66,87.59c-13.19-28.8-56.59-29.5-69.66,0-15.1-15.66-41.81-10.99-54.03,5.86-1.59,2.2-2.57,4.84-3.91,7.16-.65-1.32,1.1-4.29,1.74-5.43,11.37-20.23,39.45-27.76,55.77-8.9,1.36.09,1.91-3.23,2.39-3.91.04-.05.51-.36.87-.87,19.21-27.57,53.15-23,67.71,5.86l-.87.22Z"/>
    <path class="st0" d="M216.11,131.43c-1.02,3,4.13,7.91,6.29,9.55,7.27,5.5,18.73,5.77,26.26.43.36.11,1.05-.22,1.3.22.04.07-1.25,1.31-.43,1.52-.22.23-.67,1.12-.87,1.3-10.08,9.19-27.6,5.58-32.98-6.94-1.06-2.46-1.61-4.64-1.3-7.38,1.98-.65.78-.06,1.74,1.3Z"/>
    <path class="st3" d="M331.56,110.6c1.05,2.72,1.54,5.83,3.04,8.25-2.33,2.05-.78-.62-1.3-1.09-.46-.42-1.35.48-2.17-.43-.29-.32-3.1-6.8-3.91-7.81-11.94-15.04-29.36-18.8-47.31-12.8,14.49-8.7,31.69-5.34,43.18,6.08,3.99,3.96,6.55,8.58,9.11,13.45l-.65-5.64Z"/>
    <path class="st4" d="M308.99,137.51c-2.14,17.36-30.23,21.81-43.4,16.49-.77-.31-5.87-3.23-2.6-3.91l9.77,3.91c12.27,1.7,28.29-2.52,34.5-14.11.09-.16-.88-2.74,1.74-2.39Z"/>
    <path class="st1" d="M248.66,141.41c-7.53,5.33-18.98,5.07-26.26-.43-2.16-1.64-7.31-6.55-6.29-9.55,4.43,6.33,11.37,11.54,18.88,12.15,2.51.2,12.56-2.51,13.67-2.17Z"/>
    <g>
      <path class="st2" d="M271.66,87.59c.14.3,1.82,4.82,2.17,5.86.08.25.24,4.46.43,5.21,2.28.77,3.32-1.18,5.64-1.95,17.95-6,35.37-2.24,47.31,12.8.81,1.02,3.61,7.49,3.91,7.81.82.91,1.71.02,2.17.43.52.47-1.03,3.14,1.3,1.09,4.22-3.72,6.35-6.65,13.02-6.51,13.8.28,24.27,24.35,7.6,30.38-9.55,3.46-21.86.24-25.17-9.98-2.41,1.59-.1,1.66.22,2.39,7.07,16.44,33.24,17.02,35.59-2.6,1.06-8.82-4.98-18.94-13.89-21.05-.45-2.33-5.82-.67-6.51-1.52,1.44-4.66,9.62-2.16,13.67.22,1.31.77,4.43,3.75,5.43,4.99,6.83,8.51,6.89,21.87-.43,30.16-3.93,4.45-8.89,6.36-14.76,6.51-.57.01-2.59.05-3.04,0-.33-.04-5.79-1.92-6.29-2.17-3.26-1.61-7.03-5.18-9.98-7.38-1.87,6.28,8.61,12.19,14.11,11.28-8.55,11.13-24.91,14.64-38.41,13.45-2.55-.22-17.37-4.6-18.66-6.08-.49-.56-1.06-.89-.43-1.74,12.24-1.62,27.55-9.95,25.39-24.52-.1-.69-3.66-9.81-5.21-8.25,1.69,3.12,2.6,7.58,2.17,11.07-2.62-.35-1.65,2.23-1.74,2.39-6.21,11.59-22.24,15.81-34.5,14.11l-9.77-3.91-11.94-9.11c-.37.81-.91,1.53-1.52,2.17-.82-.21.47-1.45.43-1.52-.25-.44-.94-.11-1.3-.22-1.11-.34-11.16,2.37-13.67,2.17-7.51-.61-14.45-5.82-18.88-12.15-.95-1.36.25-1.96-1.74-1.3.29-2.62,1.46-3.8,2.17-5.86.22-.64-.91-1.23-.87-1.3.11-.18,3.32-1.24,2.17-3.04-1.76-2.73-8.37,8.42-8.68,10.42-.18,1.14.12,8.16.43,9.11.15.44,1.12-.01,1.3.43,5.01,12.11,22.56,21.85,34.5,13.24,1.61-1.16,4.46-6.11,5.64-6.08l12.37,10.42c-11.28,9.43-52.56,8.75-64.88,1.3-7.19-4.35-7.82-9.88-8.03-17.58-.82-.47-1.2,4.67-1.3,4.99-.67-.71-.18-1.36-1.09-1.3-1.69,4.91-6.44,10.41-10.85,13.02-8.68,5.12-23.88,4.85-27.13-6.73-.36-1.28-.18-6.99-1.09-7.16-1.18.51-2.9,3.24-2.6.43-1.9-.6-7.03,5.96-7.6,3.69l-.22-5.43-6.08,5.64.65-3.91c.7-1.56,2.04-3.94-.43-3.91-.77.01-3.7,3.04-4.56,3.47-7.29,3.68-24.02,6.95-31.68,3.91-2.55-1.01-8.97-8.49-9.33-10.63-.46-2.76,2.04-7.04,3.47-9.33.86-.5,2.88-3.52,4.12-4.34,6.43-4.23,12.63-2.95,18.66,1.3.87-.39.85-1.33,1.09-1.74.33.18.67.57.87.22,4.1-10.77,12.5-20.98,25.39-16.71,1.74-1.9,2.08-4.03,3.26-6.08,1.34-2.33,2.31-4.96,3.91-7.16,12.22-16.85,38.93-21.52,54.03-5.86,13.07-29.5,56.47-28.8,69.66,0Z"/>
      <path class="st1" d="M351.95,111.46c8.91,2.11,14.95,12.23,13.89,21.05-2.35,19.63-28.52,19.04-35.59,2.6-.31-.73-2.62-.8-.22-2.39,3.31,10.22,15.62,13.44,25.17,9.98,16.67-6.04,6.2-30.1-7.6-30.38l-1.09-1.3c1.91-.14,3.56,0,5.43.43Z"/>
      <path class="st0" d="M303.56,132.3c-4.16,19.4-27.32,20.91-41.88,11.5,1.8-1.45,3.69,1.02,5.43,1.52.38.11,4.09.3,4.77.43.19.04.37,1.22.87,1.3,12.76,2.14,25.41-2.48,30.81-14.76Z"/>
      <path class="st4" d="M346.31,151.83c-.4.66-1.41,1.61-2.17,1.74-5.49.91-15.98-5-14.11-11.28,2.95,2.2,6.72,5.77,9.98,7.38.51.25,5.96,2.13,6.29,2.17Z"/>
    </g>
    <path class="st0" d="M295.53,79.35l-.22,3.04c11.46-.08,25.37,3.71,32.12,13.45-8.73-9.65-24.48-14.81-37.32-12.59-4.35.75-8.16,3.59-12.15,5.21-1.44-4.57-3.41-15.22-9.77-13.89-15.3-19.63-49.04-22.5-62.5.65-.75,1.29-4.42,7.79-.87,6.29-.36.51-.83.82-.87.87-.92-.28-1.39.66-2.17.22-.66-.37-4.45-5.05-6.29-6.29-18.55-12.54-37.87-2.57-50.13,13.02-.76.96-2.17,3.82-2.39,3.91-.33.13-3.93-2-4.34-1.74-.3.2-.28,2.38-.87,2.6-.27.1-4.96-.64-5.86-.43,6.27-28.56,40.46-36.64,64.45-26.04,21.55-32.1,71.78-17.6,82.9,15.62,5.37-3.15,10.14-3.86,16.28-3.91Z"/>
    <path class="st4" d="M180.96,164.41c-1.23.63-10.06,3.41-10.63,3.47-1.01.11-14.12.38-14.76,0-.5-.29-.34-2.11-.43-2.17-.39-.27-5.73-1.12-7.38-2.17-2.17-1.38-6.25-6.62-4.34-9.11,4.9,14.85,31.91,10.33,39.93,2.17,2.78-2.83,4.65-6.66,5.86-10.42,2.65,2.8.42,9.85-1.74,12.8-1.14,1.57-4.77,4.54-6.51,5.43Z"/>
    <path class="st0" d="M141.03,98.88c-.62,1.81.05,4.96-1.09,6.08-9.53-2.09-17.44,3.32-22.35,11.07-.84,1.33-2.03,5.43-3.04,7.16-1.66-.89.98-8.11,1.74-9.77,4.1-9.01,14.63-16.15,24.74-14.54Z"/>
    <path class="st4" d="M215.68,137.51c5.38,12.52,22.9,16.14,32.98,6.94,1.75-.69.51,2.3.43,2.39-9.27,10.74-32.76,4.49-35.15-9.98l1.74.65Z"/>
  </g>
</svg>