<?xml version="1.0" encoding="UTF-8"?>
<svg id="Layer_1" xmlns="http://www.w3.org/2000/svg" version="1.1" xmlns:xlink="http://www.w3.org/1999/xlink" viewBox="0 0 354.5 334">
  <!-- Generator: Adobe Illustrator 29.5.0, SVG Export Plug-In . SVG Version: 2.1.0 Build 137)  -->
  <defs>
    <style>
      .st0 {
        fill: #fdbe15;
      }

      .st1 {
        fill: #fff;
      }

      .st2 {
        fill: #f89e11;
      }

      .st3 {
        fill: #d65018;
      }

      .st4 {
        fill: #fee663;
      }

      .st5 {
        fill: url(#linear-gradient);
      }

      .st6 {
        fill: #eb6213;
      }
    </style>
    <linearGradient id="linear-gradient" x1="249.74" y1="82.51" x2="88.5" y2="275.84" gradientUnits="userSpaceOnUse">
      <stop offset="0" stop-color="#fcc319"/>
      <stop offset="1" stop-color="#f7921f"/>
    </linearGradient>
  </defs>
  <g id="Generative_Object">
    <g>
      <path class="st2" d="M320.04,214.74c-2.48,2.13-3.2-2.36-8.14-2.22,6.69-22.39,7.78-45.9,3.7-68.86C288.5-8.97,64.97-14.07,31.28,137.74c-4.02,18.11-4.73,36.38-2.22,54.79-.6-2.32-1.85-11.7-2.22-12.22-1.02-1.44-7.13,1.64-5.92-2.96l-1.48,1.11c-2.56-59.52,29.57-116.33,82.56-143.64,120.14-61.92,255.92,50.32,218.05,179.92Z"/>
      <path class="st6" d="M29.06,192.53c1.94,7.54,3.42,14.79,5.92,22.21,5.85,17.35,12.44,29.33,23.69,43.68,57.75,73.66,167.11,73.95,226.57,2.22,11.87-14.32,21.28-30.14,26.65-48.13,4.95-.14,5.66,4.35,8.14,2.22C272.4,377.78,26.75,348.37,19.43,178.46l1.48-1.11c-1.21,4.6,4.9,1.52,5.92,2.96.37.52,1.62,9.9,2.22,12.22Z"/>
      <path class="st4" d="M315.59,143.66c-2.72-.32-2.23.45-2.22,2.59.01,5.37.94,10.77.74,16.29-.05,1.35.66,3.32-1.48,1.85C305.26,18.24,89.92-11.8,40.9,125.52c-3.28,9.18-4.03,19.45-8.14,27.77l-1.48.37c-.9-4.75,1.32-9.37,1.85-13.7.28-2.3.89-2.38-1.85-2.22C64.97-14.07,288.5-8.97,315.59,143.66Z"/>
      <path class="st0" d="M315.59,143.66c4.08,22.96,2.99,46.47-3.7,68.86-5.38,17.99-14.78,33.8-26.65,48.13,17.71-28.07,29.09-62.65,27.4-96.25,2.14,1.47,1.43-.5,1.48-1.85.2-5.52-.73-10.91-.74-16.29,0-2.15-.5-2.91,2.22-2.59Z"/>
      <path class="st0" d="M32.76,153.29c.74,2.07-.72,5.27-.74,6.66-.32,18.6-.85,36.49,2.96,54.79-2.5-7.43-3.98-14.67-5.92-22.21-2.51-18.42-1.8-36.68,2.22-54.79,2.74-.16,2.13-.08,1.85,2.22-.53,4.33-2.75,8.94-1.85,13.7l1.48-.37Z"/>
      <path class="st2" d="M58.67,258.42c-11.25-14.35-17.85-26.34-23.69-43.68-3.81-18.3-3.29-36.19-2.96-54.79,2.71-.32,2.24.44,2.22,2.59-.12,17.86-.12,29.84,4.44,47.39s13.84,32.03,19.99,48.5Z"/>
      <g>
        <path class="st5" d="M312.63,164.39c1.7,33.61-9.68,68.19-27.4,96.25-59.45,71.73-168.82,71.44-226.57-2.22-6.15-16.47-15.52-31.29-19.99-48.5s-4.56-29.53-4.44-47.39c.01-2.15.49-2.91-2.22-2.59.02-1.4,1.48-4.59.74-6.66,4.11-8.31,4.87-18.59,8.14-27.77C89.92-11.8,305.26,18.24,312.63,164.39Z"/>
        <path class="st1" d="M192.69,242.88c13.39,22.29-12.56,45.5-33.69,31.84-10.67-6.9-12.4-22.24-6.29-32.58,11.12-12.62,30.53-14.99,39.98.74Z"/>
        <path class="st3" d="M192.69,242.88c14.07,11.36,8.56,36.76-6.29,45.17-27.88,15.76-55.98-20.61-33.69-45.91-6.1,10.34-4.38,25.68,6.29,32.58,21.13,13.66,47.08-9.55,33.69-31.84Z"/>
        <g>
          <path class="st3" d="M168.62,54.81c21.64-2.28,34.59,14.04,33.69,34.43-1.79,40.43-14.66,85.48-16.29,126.61-4.13,14.74-23.4,13.87-26.65-.74-1.53-41.01-14.73-86.34-16.29-126.61-.63-16.11,8.08-31.85,25.54-33.69Z"/>
          <path class="st1" d="M170.1,58.51c12.73-.92,23.75,8.12,26.28,20.36-6.27,38.55-4.6,85.38-12.59,122.91-2.87,13.47-14.39,16.61-21.47,4.44-1.58-38.36-12.02-79.84-13.33-117.73-.47-13.78,5.11-28.83,21.1-29.99Z"/>
        </g>
      </g>
    </g>
  </g>
</svg>