<?xml version="1.0" encoding="UTF-8"?>
<svg id="Layer_1" xmlns="http://www.w3.org/2000/svg" version="1.1" xmlns:xlink="http://www.w3.org/1999/xlink" viewBox="0 0 525.5 341">
  <!-- Generator: Adobe Illustrator 29.5.0, SVG Export Plug-In . SVG Version: 2.1.0 Build 137)  -->
  <defs>
    <style>
      .st0 {
        fill: #c1ba2f;
      }

      .st1 {
        fill: #e7e4db;
      }

      .st2 {
        fill: #2d6d96;
      }

      .st3 {
        fill: #caa18d;
      }

      .st4 {
        fill: #979516;
      }

      .st5 {
        fill: #c76a2a;
      }

      .st6 {
        fill: #b75d25;
      }

      .st7 {
        fill: #61a9cb;
      }

      .st8 {
        fill: #31748e;
      }

      .st9 {
        fill: #d56b43;
      }

      .st10 {
        fill: #fe874b;
      }

      .st11 {
        fill: #fff;
      }

      .st12 {
        fill: #a41002;
      }

      .st13 {
        fill: #8db937;
      }

      .st14 {
        fill: #559631;
      }

      .st15 {
        fill: #6c463a;
      }

      .st16 {
        fill: #3e81a5;
      }

      .st17 {
        fill: #5498ba;
      }

      .st18 {
        fill: #e25423;
      }

      .st19 {
        fill: #c7532f;
      }

      .st20 {
        fill: #c17c64;
      }

      .st21 {
        fill: #607f1a;
      }

      .st22 {
        fill: #c5bcb3;
      }

      .st23 {
        fill: #cf9177;
      }

      .st24 {
        fill: #73c5db;
      }

      .st25 {
        fill: #e5bba3;
      }

      .st26 {
        fill: #fef4e9;
      }

      .st27 {
        fill: #faa979;
      }

      .st28 {
        fill: #d13914;
      }

      .st29 {
        fill: #fee7d7;
      }

      .st30 {
        fill: #6a1404;
      }

      .st31 {
        fill: #4f8ea2;
      }

      .st32 {
        fill: #80a72b;
      }

      .st33 {
        fill: #49721b;
      }

      .st34 {
        fill: #abc84e;
      }

      .st35 {
        fill: #d1b8aa;
      }

      .st36 {
        fill: url(#linear-gradient);
      }

      .st37 {
        fill: #b8d93f;
      }

      .st38 {
        fill: #677413;
      }

      .st39 {
        fill: #75972b;
      }

      .st40 {
        fill: #f2732c;
      }

      .st41 {
        fill: #9dac29;
      }

      .st42 {
        fill: #97421b;
      }
    </style>
    <linearGradient id="linear-gradient" x1="218.82" y1="297.1" x2="173.39" y2="186.26" gradientTransform="translate(0 342) scale(1 -1)" gradientUnits="userSpaceOnUse">
      <stop offset="0" stop-color="#fea653"/>
      <stop offset="1" stop-color="#ed752a"/>
    </linearGradient>
  </defs>
  <g id="Generative_Object">
    <g>
      <path class="st34" d="M243.56,278.06c-.38.44-2.03,3.33-2.21,3.86l-2.76-.83c3.35,1.62,1.29,2.72.83,5.8-6.43-4-9.37-2.87-14.63,1.66-4.32,3.72-7.16,6.72-5.52,12.7l-3.31-.83c.42,1.94-.28,5.47,0,7.18.26,1.55,1.86.76,2.21,1.66.03.08-1.14,1.03-1.1,1.1,1.24,2.43,4.19,6.07,7.18,6.9l-1.93,2.76-5.8-2.21c-19.12-10.88-38.37-21.55-57.41-32.57l43.61-26.5,2.48-.55c9.26,5.45,18.53,11.82,28.15,16.56,2.65,1.31,7.22,3.27,10.21,3.31h0Z"/>
      <path class="st34" d="M167.38,265.91c5.12,1.12,11.05-.61,16.28-1.1l.83,1.66c-9.44,5.59-18.89,11.23-28.15,17.11-6.23-3.62-12.73-6.81-18.77-10.76l16.01-10.76c5.52,2.94,7.71,5.93,13.8,3.86h0Z"/>
      <path class="st34" d="M150.82,260.94c-2.86,1.28-14.74,9.98-16.84,9.94-1.29-.03-19.39-11.05-22.36-12.7l16.56-10.49c7.51,4.21,15.67,9.42,22.63,13.25h0Z"/>
      <path class="st13" d="M45.94,220.65c-3.33-1.93-6.75-3.9-9.94-6.07,6.21,2.21,2.9,1.26,6.62-1.66,1.64-.17,3.41,2.31,3.59,2.21.58-.33-.03-1.41.55-1.66,2.17-.92,4.88-.48,6.9-2.21.69.82,2.05,5.02,1.66,5.8-3.34,1.83-7.08,1.34-10.76,1.38l1.38,2.21Z"/>
      <path class="st34" d="M140.89,223.41v.55c-.86-.04-.42.79-.55,1.1-3.81-3.67-36.46-18.06-36.43-20.15,0-.17,2.48-2.44,1.38-3.04l-18.77-.55c.02,3.38,3.72,4.24,4.69,7.73-2.37-.16-5.65-6.52-6.9-7.18-2.57-1.36-8.63-.42-11.32.55-.68-1.54-.35-1.41-1.93-1.66-1.24-.19-6.49-.57-7.45.55-3.09-4.11-5.12-1.01-8.28-.55-.71.1-1.5-.09-2.21,0-1.31-2.47,1.63-3.46,3.31-5.24.16-.17-.47-1.35.83-2.48s2.12.07,2.21,0c4.67-3.41,10.81-6.49,16.28-9.38,1.5-.79,3.36-1.02,4.69-2.21.77.8-.49,1.19-.28,2.21-13.48,8.34,11.04,8.45,12.14,6.35.92-1.76-1.19-5.15-.83-5.8.53-.96,15.51-8.99,17.66-10.49-.16,5.53,3.06,11.75-4.69,10.76,0,.71,4.45-.18,4.97.55.62.88-.54,18.9,0,21.53l31.46,16.84h.02Z"/>
      <path class="st13" d="M63.61,201.33c2.36,3.13-.05,2.84,0,3.04.22.81,2.33.79,2.21,2.21-.27,3.15-12.88,1.84-13.25-.55-.2-1.25,5.22-4.34,2.76-5.24,3.16-.46,5.19-3.56,8.28.55h0Z"/>
      <path class="st34" d="M53.67,211.26c-2.02,1.73-4.73,1.29-6.9,2.21-.58.25.03,1.32-.55,1.66-.18.1-1.95-2.38-3.59-2.21,3.71-2.9,7.01-6.46,11.04-1.66Z"/>
      <g>
        <path class="st13" d="M91.21,209.06c.96,3.43-.64,7.07-.55,7.45.05.21,3.08,1.8,3.31,2.76,1.48,6.06-11.22,6.39-14.9,6.35,1-3.3-5.68-1.81-7.45-2.76-1.3-.7-2.75-3.53-1.38-4.97.71.3,1.19,1.28,1.66.83,2-5.29-3.4-4.31-3.31-7.73l-2.21-1.93c1.08-3.06,3.54-5.51,6.62-6.62,2.69-.97,8.75-1.91,11.32-.55,1.25.66,4.53,7.02,6.9,7.18h-.01Z"/>
        <path class="st32" d="M70.23,217.89c-.09-.04-1.58-1.04-1.66-1.1-3.75-3.28-3.85-3.07-2.21-7.73l2.21,1.93c-.08,3.41,5.32,2.44,3.31,7.73-.47.45-.95-.53-1.66-.83h.01Z"/>
      </g>
      <g>
        <path class="st34" d="M28.28,170.42c-1.82-.07-6.52,6.58-6.62,7.45-.33,2.75,2.96.34,2.21,4.14-3.81-.87-5,3.72-3.04,4.42,1.94-1.06,4.09-.25,6.07-.55.46-.07.22-1.09.28-1.1.39-.08.2.45,1.66,0l2.21,3.31c-4.21-.04-12.95-4.96-9.94,4.69.14.45,1.69-.02,2.21,1.1.06.13-.81,1.65,0,2.76,2.79,3.83,4.28,1.79,7.73,1.93,2.48.1,3.77-.45,5.52,1.1-1.06.46-3.04-.13-3.86.83.07,4.37,17.55.65,20.42.28.71-.09,1.5.1,2.21,0,2.46.91-2.96,3.99-2.76,5.24.37,2.39,12.97,3.71,13.25.55.12-1.42-1.99-1.4-2.21-2.21-.05-.2,2.36.09,0-3.04.97-1.13,6.22-.75,7.45-.55,1.58.25,1.25.12,1.93,1.66-3.08,1.11-5.54,3.56-6.62,6.62-1.64,4.65-1.55,4.45,2.21,7.73l-3.04,4.97c3.67,2.96,8.72,3.8,13.52,3.86,3.69.05,16.38-.29,14.9-6.35-.24-.96-3.27-2.55-3.31-2.76-.08-.38,1.51-4.02.55-7.45s-4.67-4.34-4.69-7.73l18.77.55c1.1.59-1.38,2.87-1.38,3.04-.03,2.09,32.62,16.48,36.43,20.15-.13.3-.4.92-.55,1.1-.91,1.13-3,1.75-3.86,2.76-.74.85-.53,1.57-1.1,2.21-1.06,1.19-2.2,2.08-3.31,3.31-.82.9-1.35,1.86-1.66,2.21-.79.89-1.98,1.31-2.76,2.21-1.13,1.31-1.32,2.34-1.66,2.76-.42.52-3.34,2.25-3.31,2.48.99.73,2.3.74,3.31,1.38l-16.01,11.04c-21.22-11.84-42.47-23.67-63.48-35.88l-1.38-2.21c3.68-.04,7.43.45,10.76-1.38.39-.78-.97-4.97-1.66-5.8-4.03-4.8-7.33-1.25-11.04,1.66s-.42,3.86-6.62,1.66c-9.2-3.27-19.82-11.72-28.7-16.28,1.35-1.66,13.04-6.99,13.25-7.73.22-.8-1.65-4.18-1.66-4.42-.14-6.22,4.1-14.13,9.38-17.39.08.51-.14,1.29,0,1.66h0Z"/>
        <path class="st13" d="M101.42,218.99c2.59-.56,7.34.29,9.11,2.48,2.67,3.31-.04,6.05,2.21,8.83-.58,5.33-18.16,2.96-18.77,1.1-1.31-4.02,3.6-11.59,7.45-12.42h0Z"/>
        <path class="st39" d="M70.23,217.89c-1.37,1.44.08,4.27,1.38,4.97,1.77.95,8.45-.54,7.45,2.76-4.81-.06-9.86-.9-13.52-3.86l3.04-4.97c.07.07,1.56,1.07,1.66,1.1h0Z"/>
        <path class="st13" d="M23.86,182.01c.21.05,2.55,2.61,3.31,2.76-.06,0,.19,1.03-.28,1.1-1.98.31-4.13-.5-6.07.55-1.96-.69-.78-5.29,3.04-4.42h0Z"/>
      </g>
      <path class="st13" d="M208.23,257.08c8.68,5.13,17.3,10.72,26.5,14.9.2.09,1.6,2.12,2.76,1.66l.83.55c1.21-.98,2.77-2.09,4.14-2.76,3.31-1.63,6.72-3.67,9.94-5.52l-6.35,6.07c3.76-1.53,8.32-3.28,12.42-1.66-2.68-.02-6.91,1.3-7.73,3.86-1.23-.11-1.29.78-2.21,1.1-1.03.37-4.36,2.05-4.97,2.76-2.99-.04-7.56-2-10.21-3.31-9.62-4.74-18.9-11.11-28.15-16.56l-2.48.55c.16-3.27,2.04-1,2.76-2.76.87.53,2.25.8,2.76,1.1v.02Z"/>
      <path class="st39" d="M109.97,189.74c0,2.8-.6,12.61.83,14.35l32.84,17.66c-.76.4-1.75,1.42-2.76,1.66l-31.46-16.84c-.54-2.63.62-20.65,0-21.53-.52-.74-4.97.16-4.97-.55,7.75.99,4.53-5.24,4.69-10.76-2.16,1.5-17.13,9.52-17.66,10.49-.36.65,1.75,4.04.83,5.8-1.11,2.1-25.62,1.99-12.14-6.35,1.22,5.73,3.14,2.16,3.59,2.21,1.08.1,4.59,2.29,6.07,0,1.88-2.92-3.41-3.97-4.69-5.52,3.95-1.82,10.38-7.39,14.35-9.94,3.36-2.15,7.13-3.88,10.49-6.07.01,8.45,0,16.94,0,25.39h-.01Z"/>
      <path class="st39" d="M107.77,147.23c1.4,1.4,1.81,9.95.55,11.87-.33.5-9.02,4.83-10.49,5.8l-6.07-3.86c1.78-4.5,4.26-5.35,8.28-7.18.18-.05.41.06.55,0,5.13-2.31,1.58-7.71,7.18-6.62h0Z"/>
      <path class="st13" d="M81.27,175.38c-.82,1.1-.17.87,0,1.66.51,2.35-.7,2.93.28,4.42,1.12-.45,2.5-.6,3.59-1.1,1.28,1.55,6.58,2.6,4.69,5.52-1.48,2.29-5,.1-6.07,0-.45-.04-2.37,3.53-3.59-2.21-.22-1.02,1.05-1.4.28-2.21-1.33,1.19-3.19,1.41-4.69,2.21-1.65-7.98,1.11-5.59,5.52-8.28h0Z"/>
      <path class="st34" d="M99.49,170.42c-3.98,2.55-10.41,8.11-14.35,9.94-1.09.5-2.47.65-3.59,1.1-.98-1.48.23-2.07-.28-4.42,6.26-1.13,12.19-6.58,18.22-6.62h0Z"/>
      <g>
        <path class="st39" d="M77.96,167.1c1.1-.36,6.05-3.73,6.07-4.14.05-.71-3.09-.6-.55-3.04,1.34.4,1.92.88,2.76,1.1,1.47.39,3.04,1.55,5.52,0l6.07,3.86c-5.48,3.61-10.96,7.07-16.56,10.49-4.41,2.69-7.17.3-5.52,8.28-5.47,2.9-11.62,5.97-16.28,9.38-.09.07-.94-1.11-2.21,0s-.66,2.31-.83,2.48c-1.68,1.79-4.62,2.78-3.31,5.24-2.87.38-20.36,4.1-20.42-.28.83-.96,2.8-.37,3.86-.83,2.69-1.15,6.47-2.11,4.97-5.52,1.91-.03,7.73-1.26,7.73-3.59,0-.23-1.66-1.43-1.66-1.66.02-.82,11.7-4.65,14.35-7.18,1.27-1.21-.87-3.61,2.76-2.76l.28-1.93c-2.39,1.1-6.4-2.05-7.45-2.21-.23-5.28-9.62.94-6.62-5.52.14-.29,2.99-2.26,3.31-3.04.49-1.17.46-4.94.55-5.24,2.04-6.68,3.05-1.95,4.14-1.66,2.66.71,2.53-3.61,6.07-1.1,2.18,1.54,2.1,6.93,2.76,9.38.61-1.16.23-7.4,2.76-5.52,2.7,2.01.42,4.92-.28,6.35-.56,1.16.95,5.19-2.48-.28l-2.48,3.04c10.96,8.47,6.75-2.71,9.66-4.69.86-.58,2.89.6,3.04.55v.04Z"/>
        <g>
          <path class="st39" d="M108.32,127.91c.92,1.53,1.05,17.02.55,17.94-.13.24-4.75-1.12-5.52.28-3.44-1.13-1.84-2.77-1.93-5.52-3.31,1.97-4.12,4.11-8.56,4.42,0-.09-1.39-.41-1.1-1.38.07-.24,1.93-2.25,2.76-3.59,1.88-3.04,3.75-3.09,4.97-7.73.39-1.47-1.05-2.9-.28-3.86,1.35-1.68,3.47,1.36,4.97,1.1.25-.04,1.56-1.77,2.48-2.21-.44,1.24.95,1.08,1.66.55h0Z"/>
          <path class="st21" d="M103.35,146.13c1.8.59,2.33-.98,4.42,1.1-5.6-1.09-2.05,4.31-7.18,6.62.14-2.59-3.83-.85-4.69-1.66-.75-.7.42-1.17.28-2.21-.07-.51.83-.74.55-1.38-.55-.76-.94-.96-1.66-.28-.98.94-.2,3.33-2.21,2.48-.63-2.13-.07-3.93,0-5.8,4.43-.31,5.24-2.45,8.56-4.42.1,2.75-1.51,4.39,1.93,5.52v.03Z"/>
          <path class="st34" d="M99.49,132.33c-1.22,4.63-3.09,4.68-4.97,7.73-1.03-2.28-10.56-5.88-6.62-9.11,1.39-1.14,3.74-.11,4.69-.28.68-.12-.72-1.44,1.66-1.66.31-.03,4.95,2.15,5.24,3.31h0Z"/>
        </g>
        <path class="st34" d="M54.77,161.03c-.09.31-.06,4.08-.55,5.24-.33.77-3.18,2.74-3.31,3.04-2.55-4.92-1.95-1.34-3.59-1.66-1.4-.28-4.93-2.82-4.69-3.59.54-1.71,4.57-1.63,5.52-3.31.64-1.13-1.41-2.84.83-3.59,1.16,3.03,3.09,2.68,5.8,3.86h-.01Z"/>
        <g>
          <path class="st39" d="M89,146.13c.56,1.5.86,4.57.55,6.07-.27,1.32-2.84,2.36-2.21,3.59.7,1.36,4.57-.19-1.1,5.24-.84-.23-1.42-.7-2.76-1.1-5-1.49-7.35-4.63-11.04,2.21-2.62-1.79-2.31-2.72-2.76-4.97,8.51-.91,15.56-4.48,16.56-13.8.05,0-.21-1.54.55-.83-.77,1.9,1.8,2.5,2.21,3.59Z"/>
          <path class="st37" d="M72.99,138.95c5.18,2.49,3.17,5.87,2.21,10.49-.52.38-1.12.74-1.66,1.1-3.44-.83-5.99-.28-9.94-3.04.31-2.74,1.71-3.18,3.86-3.86-3.63.04,2.12-5.73,2.48-5.8.7-.13,2.26.73,3.04,1.1h.01Z"/>
          <path class="st13" d="M86.24,143.37c-1,9.32-8.05,12.89-16.56,13.8-.16-.8-1.25-1.03-1.1-1.93.06-.34,4.69-4.5,4.97-4.69.53-.36,1.13-.73,1.66-1.1,1.9-1.38,7.01-.85,8.28-6.62.98-.1,1.84.32,2.76.55h-.01Z"/>
          <path class="st34" d="M83.48,142.82c-1.27,5.78-6.38,5.24-8.28,6.62.96-4.61,2.97-8-2.21-10.49-4.7-5.15,7.32-4.77,9.94-1.38-.84,1-4.11-.63-4.69-.28-3.67,2.2,2.07,7.04,4.97,2.76,1.32.91.54,1.55.28,2.76h-.01Z"/>
          <path class="st21" d="M83.48,159.93c-2.54,2.43.6,2.33.55,3.04-.03.41-4.98,3.78-6.07,4.14-.68-1.65-2.01-1.25-3.31-3.04-.1-.14,1.91-.91.28-1.93-1.16-.72-2.15.23-2.48,0,3.69-6.84,6.04-3.7,11.04-2.21h-.01Z"/>
        </g>
        <path class="st13" d="M91.76,153.86c1.37.28,7.11.36,8.28,0-4.02,1.82-6.5,2.68-8.28,7.18-2.48,1.55-4.05.39-5.52,0,5.68-5.43,1.81-3.88,1.1-5.24-.64-1.23,1.94-2.27,2.21-3.59-.07,1.92,1.11,1.43,2.21,1.66h0Z"/>
        <g>
          <path class="st21" d="M57.53,174.83c1.05.16,5.06,3.31,7.45,2.21l-.28,1.93c-3.63-.85-1.49,1.55-2.76,2.76-2.66,2.52-14.34,6.36-14.35,7.18,0,.22,1.66,1.43,1.66,1.66,0,2.32-5.82,3.56-7.73,3.59-1.41.02-4.89-2.06-7.45-1.1-.55.2-.75,4.76-3.04,5.52-3.45-.14-4.94,1.9-7.73-1.93-.81-1.11.06-2.63,0-2.76-.52-1.12-2.07-.65-2.21-1.1-3.01-9.65,5.72-4.74,9.94-4.69,4.81.05,4.34-1.13,7.73-2.21,2.62-.83,5.6-2.01,7.45-2.21-1.35-1.6-.29-2.29-.28-3.31,0-.51-.7-4.51-.55-4.69,5.56-1.1,4.67,4.49,7.45,6.9,3.64-.75-5.15-9.21,4.69-7.73v-.02Z"/>
          <path class="st34" d="M28.28,170.42c.77,2.05,3.42,2.36,4.69,3.86l.55-1.1c11.02,4.55,2.59,9.37-4.69,11.59-1.46.45-1.27-.08-1.66,0-.76-.15-3.1-2.71-3.31-2.76.75-3.8-2.54-1.39-2.21-4.14.11-.87,4.8-7.52,6.62-7.45h.01Z"/>
          <path class="st21" d="M41.53,194.15c1.5,3.41-2.27,4.37-4.97,5.52-1.75-1.55-3.04-1-5.52-1.1,2.29-.76,2.49-5.32,3.04-5.52,2.56-.95,6.04,1.12,7.45,1.1Z"/>
          <path class="st39" d="M45.94,180.35c-.02,1.02-1.07,1.72.28,3.31-1.86.19-4.83,1.38-7.45,2.21,1.69-3.51,4.16-6.35,4.14-10.49l3.04,4.97h0Z"/>
        </g>
        <g>
          <path class="st13" d="M109.42,124.6c.04.7,1.02,1.83,1.1,3.86.47,11.95-.57,23.97-.55,35.88-3.35,2.19-7.13,3.92-10.49,6.07-6.02.04-11.95,5.5-18.22,6.62-.17-.78-.82-.56,0-1.66,5.6-3.42,11.08-6.88,16.56-10.49,1.47-.97,10.16-5.3,10.49-5.8,1.26-1.92.84-10.47-.55-11.87-2.09-2.09-2.62-.51-4.42-1.1.77-1.4,5.39-.03,5.52-.28.5-.92.37-16.41-.55-17.94.01-1.89-.7-1.01-1.66-.55s-2.23,2.16-2.48,2.21c-1.5.26-3.62-2.78-4.97-1.1-.77.96.66,2.39.28,3.86-.3-1.16-4.94-3.34-5.24-3.31-2.37.22-.98,1.54-1.66,1.66-.95.17-3.31-.86-4.69.28-3.93,3.22,5.6,6.83,6.62,9.11-.83,1.34-2.69,3.35-2.76,3.59-.29.97,1.11,1.29,1.1,1.38-.07,1.87-.63,3.66,0,5.8,2.01.84,1.23-1.54,2.21-2.48l1.1,1.66c.14,1.04-1.03,1.51-.28,2.21.86.8,4.83-.93,4.69,1.66-.14.06-.37-.05-.55,0-1.17.36-6.91.28-8.28,0l-.55-9.11-2.21,1.38c-.41-1.09-2.97-1.68-2.21-3.59-.77-.71-.5.84-.55.83-.92-.23-1.78-.66-2.76-.55.26-1.21,1.04-1.85-.28-2.76-2.89,4.28-8.64-.56-4.97-2.76.59-.35,3.85,1.27,4.69.28-2.61-3.39-14.63-3.77-9.94,1.38-.77-.37-2.34-1.23-3.04-1.1-.37.07-6.11,5.84-2.48,5.8-2.16.68-3.56,1.12-3.86,3.86,3.94,2.75,6.49,2.21,9.94,3.04-.28.19-4.91,4.35-4.97,4.69-.15.9.95,1.13,1.1,1.93.45,2.25.14,3.18,2.76,4.97.33.23,1.32-.72,2.48,0,1.63,1.02-.38,1.79-.28,1.93,1.3,1.79,2.63,1.39,3.31,3.04-.15.05-2.18-1.14-3.04-.55-2.91,1.99,1.3,13.16-9.66,4.69l2.48-3.04c3.43,5.47,1.92,1.44,2.48.28.69-1.43,2.97-4.34.28-6.35-2.53-1.88-2.15,4.36-2.76,5.52-.66-2.45-.58-7.84-2.76-9.38-3.54-2.51-3.41,1.81-6.07,1.1-1.09-.29-2.1-5.02-4.14,1.66-2.71-1.19-4.63-.83-5.8-3.86-2.24.75-.18,2.45-.83,3.59-.95,1.68-4.98,1.6-5.52,3.31-.24.77,3.29,3.31,4.69,3.59,1.64.32,1.04-3.26,3.59,1.66-3,6.46,6.39.24,6.62,5.52-9.85-1.48-1.05,6.98-4.69,7.73-2.79-2.41-1.89-8-7.45-6.9-.15.19.56,4.18.55,4.69l-3.04-4.97c.02,4.14-2.45,6.98-4.14,10.49-3.39,1.07-2.92,2.26-7.73,2.21l-2.21-3.31c7.28-2.22,15.72-7.04,4.69-11.59l-.55,1.1c-1.27-1.5-3.92-1.81-4.69-3.86-.14-.37.08-1.15,0-1.66,7.43-4.57,10.76.37,11.87,0s4.25-17.29,14.35-18.22c1.28-.12,6.36,1.31,6.62,1.1.54-.4.53-3.52.83-4.14,4.15-8.59,12.51-18.66,22.36-10.76,4.21-12.59,12.03-19.82,25.12-12.14l.05-.04Z"/>
          <path class="st34" d="M54.5,151.65c.86-.09,5.73.62,5.8,1.93-4.45,2.34-5.43,5.25-8.83,0-.23-1.17,2.53-1.88,3.04-1.93h-.01Z"/>
          <path class="st38" d="M91.76,153.86c-1.1-.23-2.28.27-2.21-1.66.31-1.5,0-4.57-.55-6.07l2.21-1.38.55,9.11h0Z"/>
          <path class="st4" d="M96.17,149.99l-1.1-1.66c.72-.69,1.11-.48,1.66.28.28.64-.62.87-.55,1.38h-.01Z"/>
          <path class="st34" d="M108.32,127.91c-.7.53-2.1.69-1.66-.55.96-.46,1.67-1.34,1.66.55Z"/>
        </g>
      </g>
      <path class="st13" d="M200.5,257.08c-5.38,3.02-10.7,6.24-16.01,9.38l-.83-1.66c-5.24.5-11.17,2.22-16.28,1.1,7.04-2.39,20.51-11.4,27.88-12.14,1.98-.2,6.58.54,5.24,3.31h0Z"/>
      <g>
        <path class="st25" d="M194.98,238.31c.09,2.79-.8,8.93,0,11.32.44,1.31,7.28,4.28,8.83,5.24-.64,1.32-2.18,1.57-3.31,2.21,1.34-2.77-3.26-3.51-5.24-3.31-7.37.74-20.83,9.75-27.88,12.14-6.09,2.07-8.28-.92-13.8-3.86-1.02-.55-2.41-.91-2.76-1.1-6.96-3.83-15.12-9.04-22.63-13.25-.51-.28-2.11-1.8-2.76-2.21-1.01-.64-2.32-.65-3.31-1.38-.03-.24,2.89-1.96,3.31-2.48,1.7.93,3.38,1.03,3.59,3.31l.55-1.1c.38,2.24,3.46,2.15,4.42,2.76.57.37-.02,1.3.55,1.66.09.06.61-.98,2.21,0,.57.35-.02,1.31.55,1.66,1.18.72,1.93-.17,2.21,0,.31.19,2.06,2.67,2.21,2.76,1.75,1.03,4.71,2.78,6.62,3.86s8.95,5.35,10.49,6.07c3.77,1.78,10.44-1.13,10.21-5.52,4.97-3.84,9.95-8.92,15.46-12.42-.05-2.19-4.74.49-5.24,1.38-2.33-1.11,9.28-6.6,9.94-7.18,1.79-1.55,1.43-3.17,3.04-4.42,1.45,3.79,2.64.21,2.76,3.86h-.02Z"/>
        <path class="st29" d="M165.73,257.63c-1.27,1.44-2.19,2.37-3.86,3.31-11.11-5.12-24.15-15.5-34.78-22.08.78-.9,1.97-1.32,2.76-2.21l35.88,20.98Z"/>
        <path class="st29" d="M175.11,246.59c-1.55,1.66-3.14,2.51-3.86,3.31l-35.33-20.98c.87-1.01,2.95-1.63,3.86-2.76l35.33,20.42h0Z"/>
        <path class="st29" d="M170.14,252.66c-1.26,1.5-2.32,1.6-3.31,2.76l-35.33-20.98c1.11-1.23,2.25-2.12,3.31-3.31l35.33,21.53Z"/>
        <path class="st25" d="M161.86,260.94c.05.02-.18,1.07.28,1.1,2.39-1.57,4.64-3.22,6.9-4.97.23,4.39-6.44,7.3-10.21,5.52-1.54-.73-8.52-4.96-10.49-6.07s-4.87-2.83-6.62-3.86c-.15-.09-1.9-2.57-2.21-2.76-.28-.17-1.03.72-2.21,0-.57-.35.02-1.3-.55-1.66-1.59-.98-2.11.06-2.21,0-.57-.35.02-1.29-.55-1.66-.96-.61-4.04-.52-4.42-2.76l-.55,1.1c-.21-2.29-1.89-2.38-3.59-3.31.34-.42.52-1.45,1.66-2.76,10.62,6.58,23.67,16.96,34.78,22.08h0Z"/>
        <path class="st25" d="M171.25,249.9c-.58.65-.98,2.61-1.1,2.76l-35.33-21.53c.57-.64.37-1.35,1.1-2.21l35.33,20.98h0Z"/>
        <path class="st25" d="M166.83,255.42c-.49.58-.6,1.64-1.1,2.21l-35.88-20.98c.31-.35.84-1.3,1.66-2.21l35.33,20.98h0Z"/>
        <path class="st25" d="M175.66,244.38c-.08.08.09,1.53-.55,2.21l-35.33-20.42c.15-.18.43-.81.55-1.1.13-.32-.31-1.14.55-1.1l34.78,20.42h0Z"/>
        <path class="st20" d="M192.22,233.9v.55c-1.6,1.24-1.24,2.86-3.04,4.42-.66.57-12.26,6.06-9.94,7.18.5-.89,5.19-3.57,5.24-1.38-5.5,3.5-10.48,8.58-15.46,12.42-2.26,1.74-4.51,3.4-6.9,4.97-.45-.03-.22-1.08-.28-1.1,1.68-.94,2.59-1.88,3.86-3.31.5-.57.61-1.63,1.1-2.21.99-1.16,2.06-1.26,3.31-2.76.13-.15.52-2.11,1.1-2.76.72-.8,2.32-1.66,3.86-3.31.64-.68.47-2.13.55-2.21,3.49-3.34,12.1-7.88,16.56-10.49h.04Z"/>
        <path class="st29" d="M192.22,233.9c-4.46,2.61-13.07,7.15-16.56,10.49l-34.78-20.42v-.55c1.01-.24,2-1.25,2.76-1.66s1.43-.66,2.21-1.1c3.57-2.02,5.16-2.31,7.73-5.52.61-.76.56-.22,1.1-1.66.02-.06.99.2,1.1-.28.74-3.1-.99-8.14.55-11.32.04,2.62.24,6.87.55,9.38.25,1.99-.63,3.01.83,4.97,2.53,3.39,26.75,12.63,31.46,16.56,1.7-.54.58-33.74.28-35.6-.18-1.13-2.63-5.53-3.31-6.9-.45-.91-.98-3.96-1.1-4.14-.9-1.29-3.63-2.24-4.97-3.04l-20.42-12.7c.98-.41,1.96-1.3,3.04-1.66l31.19,15.18c-1.02,5.96,1.79,49.05-.28,50.51-.52.37-1.04-.75-1.38-.55h0Z"/>
      </g>
      <g>
        <path class="st39" d="M273.92,297.93c4.16.2,5.4,1.16,9.94-.55l-49.4,29.26c-2.3,1.21-4.76-.07-6.9-1.1-3.03-1.46-7.54-5.74-11.04-7.73l5.8,2.21,1.93-2.76c1.18.33,8.09.83,9.11.55,1.15-.31,5.64-5.74,7.45-6.62,1.64.15,1.42.43,3.31,0,4.68-1.06,3.79-3.21,6.35-4.42,3.5-1.66,8.94-2.12,13.8-4.97,2.45-1.44,3.22-4.88,6.62-4.97.19,0,.41.98,3.04,1.1h-.01Z"/>
        <path class="st39" d="M323.05,262.05c-1.41,1.63-7.34,13.37-5.8,14.35l3.04-.55c-7.96,4.65-15.64,9.9-23.74,14.35l6.07-5.8-6.07-2.48c2.09-1.49,4.05-4.29,7.18-4.69-.02-1.47-2.86.27-3.31-1.1-.15-.46,1.84-6.08.28-6.35-3.35-.58-.31,5.09-2.21,6.62-.07.05-.98-1.08-1.66-.55-.99.78-3.71,4.32-4.69,5.52-3.45-3.88,1.13-3.18.55-7.45-.06-.44-1.06-.12-1.1-.55-.11-1.19-1.21-7.62-1.1-8,.21-.72.95-.94,1.1-1.66,1.61.86,1.85.37,2.48.55.38.11,1.69,3.2,5.24,0,1.25,3.63,3.36,1.03,3.59,1.1,2.41.79,3.19,2.68,4.97,3.31.9.32,3.21-.23,4.42,0s.18,1.62.55,1.66,5.21-3.82,5.8-4.42c1.2-1.23,1.49-6.34,4.42-3.86h-.01Z"/>
        <path class="st39" d="M296.55,290.2c-3.99,2.2-8.56,5.62-12.7,7.18-4.54,1.71-5.78.75-9.94.55.11-1.53,1.33-2.99,2.48-3.86.94-.71,4.79-1.49,4.14-2.76,1.17-.2,3.44-2.08,4.97-2.76,3.57-1.58,7.07-3.81,11.04-6.62l6.07,2.48-6.07,5.8h0Z"/>
        <path class="st39" d="M414.68,213.47c-7.96,1.77-18.87,10.7-26.5,13.25-.88-3.1,3.08-3.68,3.31-4.14.12-.25-.53-3.85.83-5.24.61-.71,4.96,2.26,6.07,2.21,1.57-.07,9.15-8.95,11.87-9.38.33-.05,5.5,1.29,4.42,3.31h0Z"/>
        <path class="st39" d="M267.29,288.54c1.7,2.75,10.28,3.28,13.25,2.76.65,1.27-3.2,2.05-4.14,2.76-1.15.87-2.38,2.33-2.48,3.86-2.63-.12-2.84-1.11-3.04-1.1-3.4.09-4.17,3.53-6.62,4.97-4.86,2.85-10.3,3.31-13.8,4.97-2.55,1.21-1.67,3.35-6.35,4.42-3.71-2.07,3.03-5.85,4.97-6.62,1.14-.45,1.12-.68,2.76-1.1,1.13-.3,2.57.98,4.14.55,1.7-.47,9.75-6.96,10.76-9.38,1.99-4.73-4.94-3.26.55-6.07v-.02Z"/>
        <g>
          <path class="st21" d="M421.3,215.68c-33.74,19.92-67.17,40.4-101.02,60.17l-3.04.55c-1.55-.99,4.38-12.72,5.8-14.35.7-.81,2.9-1.1,3.31-2.76,2.27-1.23,1.52,1.79,4.69.55,2.01-.79,5.33-4.92,6.9-6.62,1-.15,4.7-1.61,5.52-2.21,1.28-.93.79-1.23.55-2.21-.36-1.48-3.26-1.44-3.31-3.31.53-.23,4.29-4.31,4.69-4.42,1.3-.36,2.1.57,2.48.55,1.99,4.19-.89,4.74-1.66,8.56,8.29,1.78,8.36-6.65,13.25-9.66.25-.15,1.79-.91,2.21-1.1,3.37-1.58,7.52.29,4.42-5.24l2.21.55c-1.88-2.56.07-1.69.55-4.14,2.28-.36,2.92-.21,3.86-3.31,3.46,4.89,5.02.02,6.07,0l.28,2.76c.47-.18.76-1.08.83-1.1,1.86-.76,3.89-2.74,4.14-2.76,1.79-.18-.12,1.98,4.14.55,7.63-2.55,18.54-11.48,26.5-13.25,2.87-.64,6.08-1.48,6.62,2.21h.01Z"/>
          <path class="st4" d="M343.47,251.01c-1.75-.59-.77-1.53.55-2.21.24.98.72,1.28-.55,2.21Z"/>
          <path class="st41" d="M376.31,230.03c1.59.22.73,4.8-.55,3.86-.83-.6-.6-4.02.55-3.86Z"/>
          <path class="st4" d="M379.9,228.93c-.06.03-.36.93-.83,1.1l-.28-2.76c.68,0,1.29.96,1.1,1.66h0Z"/>
        </g>
      </g>
      <g>
        <path class="st14" d="M378.8,187.53c2.25,1,5.53,5.17,8.83,4.97-.7,1.34-3.64,8.42-4.69,8.83-.66.26-9.26.09-12.14,1.1-4.83,1.69-8.22,8.16-8.83,8.28-.92.18-4.76-1.21-5.52-1.1-2.66.36-7.72,7.8-8.28,7.73-.86-.11.48-1.45,0-1.66-.8-.35-13.09,7.08-15.18,8.28-4.39,2.52-8.54,5.83-12.97,8.28-.51.28-6.39.59-2.48,2.21-.92.48-2.12,2.34-.55,2.76-.97.23-7.08,4.96-5.8,6.07,4.96,1.02,11.06-4.84,13.25,0,.81-1.83.74-3.94-1.38-4.97,2.22-1.79,4.13.42,5.8,1.66.05.04.71-.97,1.1-.55.5.52-.22,6.41,3.04,5.52-.87.56-6.66,4.29-6.62,4.69.29,2.98,4.86-.22,5.24-.28.15-.02,2.62,1.14,2.76,1.1,1.13-.31,3.6-3.5,3.59-4.97.75-.15,2.24.23,2.76,0,.06,1.88,2.95,1.84,3.31,3.31-1.32.67-2.3,1.62-.55,2.21-.82.6-4.52,2.06-5.52,2.21-6.47.98-11.3-4.84-15.46,2.76-3.75-2.14-8.52-4.18-7.73,2.21-.94-2.91-1.99-5.29-1.93-7.18-2.94,1.7-3.26,4.65-6.35,6.62l2.76-5.24c-1.73-1.3-5.69-1.75-3.86-4.42,1.33-1.95,3.2.66,4.42-1.66-5.8-5.66-13.8-1.43-18.22,4.14.27-1.68-1.08-.64-1.66-.28-3.69,2.33-7.63,4.75-11.04,7.45-5.49-.36-5.31,2.02-9.11,4.97-.78.61-3.72.97-3.86,1.1-.96.92-.66,4.1-.83,5.52-1.8-.02-3.05,2.09-4.42,3.31-.29-.51-1.88-2.08-2.21-2.21-4.1-1.63-8.66.13-12.42,1.66l6.35-6.07c33.11-19.04,64.86-41.08,97.7-60.44v-8c0-.83-1.11-3.62-1.1-3.86,0-.36-.03-.74,0-1.1.08-.98,1.41-5.15,2.48-5.52,1.13-.4,22.04-.73,24.01-.55,1.4.13,2.09.56,3.31,1.1h0Z"/>
        <path class="st14" d="M375.49,186.42c-1.97-.18-22.88.16-24.01.55-1.07.37-2.41,4.54-2.48,5.52-1.05-7.16.07-14.42,0-21.53l26.5,15.46h0Z"/>
        <path class="st13" d="M345.68,225.06c1.54.84,1.62,2.24-.28,2.76-.1.03-1.56-1.12-1.66-1.1-1.33.18-.65,1.08-1.1,1.1-.4.02-.15-1.11-.55-1.1-2.22.02-11.52.13-11.32,3.59.23,3.87,8.11,0,9.66.28.34.06,4.73,3.99,6.07,3.31.94-.47.91-3.37-1.38-3.04,1.07-2.82,4.89.76,4.97,2.48,0,.16-1.35,2.41-1.66,2.76-.74-.64-2.36-.32-2.21,1.1-3.05,1.29-7.1.94-7.45,1.1-1.36.65.03,3.83-1.93,5.52-.07.06-1.05.16-1.66.55,2.55-1.75-2.61-7.89-3.59-8.28-.42-.17-1.6,1-2.76.55-3.33-1.29-7.62-4.15-11.32-2.21-3.9-1.62,1.97-1.93,2.48-2.21,4.43-2.45,8.58-5.76,12.97-8.28,4.33-.74,8.72-1.05,12.7,1.1l.02.02Z"/>
        <path class="st32" d="M291.58,250.46c-1.01,1.27-2.24,3.42-2.76,4.97-2.26.51-1.14,2.76-2.76,4.42-1.96-1.1-5-2.06-7.18-2.21,3.41-2.7,7.35-5.13,11.04-7.45.58-.37,1.92-1.41,1.66.28h0Z"/>
        <g>
          <path class="st34" d="M335.19,244.38c-.22.14-1.99.41-2.21.55-3.25.89-2.54-5-3.04-5.52-.4-.42-1.05.59-1.1.55-1.67-1.24-3.58-3.44-5.8-1.66-.48-.23-5.41-1.26-6.07-1.1-1.56-.42-.36-2.28.55-2.76,3.7-1.95,7.99.92,11.32,2.21,1.16.45,2.34-.72,2.76-.55.98.39,6.14,6.53,3.59,8.28Z"/>
          <path class="st21" d="M322.49,255.98c2,1.14,1.04,3.52,3.86,3.31-.41,1.66-2.61,1.95-3.31,2.76-2.93-2.48-3.21,2.63-4.42,3.86-6.95-1.7-2.22-3.79-2.21-4.14.04-1.24-1.44-2.92-1.66-3.59-.79-6.39,3.97-4.35,7.73-2.21h.01Z"/>
          <path class="st33" d="M337.95,253.22c-1.57,1.7-4.89,5.84-6.9,6.62-3.17,1.24-2.42-1.78-4.69-.55-2.82.21-1.86-2.17-3.86-3.31,4.15-7.6,8.98-1.78,15.46-2.76h-.01Z"/>
          <path class="st37" d="M323.05,238.31c2.12,1.02,2.19,3.14,1.38,4.97-2.19-4.84-8.29,1.02-13.25,0-1.28-1.11,4.83-5.84,5.8-6.07.66-.15,5.6.87,6.07,1.1Z"/>
          <path class="st39" d="M336.85,243.83c.03.71,1.1.96,1.1,1.66,0,1.47-2.46,4.65-3.59,4.97-.14.04-2.61-1.12-2.76-1.1-.38.05-4.95,3.25-5.24.28-.04-.4,5.76-4.13,6.62-4.69.22-.14,1.99-.41,2.21-.55.6-.39,1.59-.49,1.66-.55v-.02Z"/>
        </g>
        <g>
          <path class="st13" d="M373.28,173.18c.42,4.2,8.82,6.05,12.7,7.18.9.87-.74,1.16-.55,1.38,1.59,1.83,3.1,2.04,4.42,4.69-4.14,2.2-7.76-3.75-11.04,1.1-1.22-.54-1.91-.97-3.31-1.1l-26.5-15.46c-.03-2.63-.54-5.52-.55-8.28,4.8.65,8.4,4.84,12.42,6.62,2.45,1.09,9.29,2.53,12.42,3.86h-.01Z"/>
          <path class="st39" d="M389.84,186.42c.05.1,1.54-.6,1.1,1.93-.22,1.3-3,3.53-3.31,4.14-3.3.2-6.58-3.97-8.83-4.97,3.28-4.86,6.9,1.09,11.04-1.1h0Z"/>
          <path class="st34" d="M377.69,174.83c2.08,1,6.66,3.94,8.28,5.52-3.88-1.12-12.27-2.98-12.7-7.18,1.84.78,2.21.6,4.42,1.66h0Z"/>
        </g>
        <g>
          <path class="st34" d="M233.62,299.03c-3.67,2.36-8.07,3.74-11.04,7.18-1.47-1.78-2.57-2.25-3.31-4.97-1.64-5.97,1.2-8.97,5.52-12.7,6.12.95,6.52,5.59,6.07,10.76l2.76-.28h0Z"/>
          <path class="st13" d="M239.69,294.62c7.89,4.26-2.33,11.31-4.97,15.46-2.82-.3-7.88.57-9.66,0-.93-.3-2.21-3.53-2.48-3.86,2.97-3.43,7.37-4.82,11.04-7.18,2.66-1.71,3.69-2.62,6.07-4.42Z"/>
          <g>
            <path class="st21" d="M219.27,301.24c.74,2.72,1.84,3.19,3.31,4.97.28.34,1.55,3.57,2.48,3.86,1.78.57,6.84-.3,9.66,0,2.25.24,4.56.96,6.07,1.1-1.81.89-6.3,6.31-7.45,6.62-1.02.28-7.92-.22-9.11-.55-2.98-.83-5.94-4.47-7.18-6.9-.04-.07,1.14-1.02,1.1-1.1-.35-.89-1.95-.11-2.21-1.66-.28-1.7.42-5.24,0-7.18l3.31.83h.02Z"/>
            <path class="st4" d="M227.83,312.28c1.45-.1,2.1,3.08,1.66,3.31-1.25.65-3.63-3.17-1.66-3.31Z"/>
          </g>
          <g>
            <path class="st34" d="M241.35,281.92c-1.58,4.63-1.55,7.74,2.21,11.04-3.35-.14-2.03.27-3.86,1.66-2.38,1.8-3.41,2.7-6.07,4.42l-2.76.28c.45-5.17.05-9.81-6.07-10.76,5.26-4.52,8.2-5.66,14.63-1.66.46-3.07,2.53-4.17-.83-5.8l2.76.83h0Z"/>
            <path class="st37" d="M233.35,289.65c.86-.24,5.31.34,5.24,1.93-.22,4.97-10.47-.45-5.24-1.93Z"/>
          </g>
        </g>
        <path class="st21" d="M359.48,240.52c-4.89,3.01-4.95,11.44-13.25,9.66.77-3.82,3.65-4.36,1.66-8.56,4.77-.25,5.18,2.15,7.45-4.42l4.14,3.31h0Z"/>
        <g>
          <path class="st39" d="M373.28,223.96c-.23,1-.35,2.67-.55,3.31-.95,3.1-1.58,2.95-3.86,3.31-3.21.5-8.97-3.31-10.49.83-1.37,3.75,2.86,4.95,3.31,8-.42.2-1.96.95-2.21,1.1l-4.14-3.31c-2.27,6.57-2.68,4.17-7.45,4.42-.39.02-1.18-.91-2.48-.55-.4.11-4.17,4.19-4.69,4.42s-2.01-.15-2.76,0c0-.7-1.08-.94-1.1-1.66,1.96-1.69.57-4.87,1.93-5.52.35-.17,4.4.19,7.45-1.1,1.19-.5,1.04.23,2.21-1.1.31-.35,1.66-2.6,1.66-2.76,5.39-1.15,4.19-2.79,1.66-6.07,1.93,1.15,2.41-.99,3.04-1.1,2.29-.41,5.03,1.36,7.73.55,2.28-.68,5.92-6.2,7.73-6.07,1.61.11,1.41,2.52,3.04,3.31h-.03Z"/>
          <path class="st33" d="M368.86,230.58c-.48,2.45-2.43,1.58-.55,4.14l-2.21-.55c3.1,5.53-1.04,3.66-4.42,5.24-.45-3.05-4.69-4.26-3.31-8,1.52-4.14,7.28-.33,10.49-.83Z"/>
        </g>
        <path class="st13" d="M296.55,281.92c-3.97,2.82-7.47,5.04-11.04,6.62,2.79-2.87-2-1.82.55-4.42,1.64.52,2.61-2.03,3.04,1.1,2.18-.74,2.37-3.05,3.04-3.86.98-1.2,3.7-4.74,4.69-5.52.67-.53,1.59.61,1.66.55,1.9-1.53-1.15-7.2,2.21-6.62,1.56.27-.43,5.89-.28,6.35.46,1.37,3.29-.37,3.31,1.1-3.13.41-5.08,3.2-7.18,4.69h0Z"/>
        <path class="st34" d="M351.75,227.27c2.54,3.28,3.73,4.92-1.66,6.07-.08-1.73-3.89-5.31-4.97-2.48,2.29-.34,2.32,2.56,1.38,3.04-1.34.68-5.73-3.25-6.07-3.31-1.55-.28-9.43,3.6-9.66-.28-.21-3.46,9.1-3.56,11.32-3.59.41,0,.15,1.13.55,1.1.46-.03-.22-.92,1.1-1.1.1,0,1.56,1.13,1.66,1.1,1.9-.52,1.82-1.92.28-2.76l1.38-6.62-.83,4.69c2.04.95,4.15,2.37,5.52,4.14h0Z"/>
        <g>
          <path class="st21" d="M410.26,209.61v.55c-2.72.43-10.3,9.31-11.87,9.38-1.11.05-5.46-2.92-6.07-2.21-1.36,1.39-.7,4.99-.83,5.24-.23.46-4.19,1.04-3.31,4.14-4.26,1.43-2.35-.73-4.14-.55-.25.02-2.28,2-4.14,2.76.19-.69-.42-1.67-1.1-1.66-1.05.02-2.61,4.89-6.07,0,.2-.64.32-2.31.55-3.31,4.42,2.16,10.22-1.6,13.25-4.42.1-.09,2.3-.84,2.48-1.1,2.31-3.28.62-6.31,1.38-8,.13-.3,5.09-2.57,5.8-3.04.94-.63,2.54-3.3,2.76-3.31,1.96-.08,1.11,5.42,3.31,6.07,3.81,1.12,5.99-3.41,8-.55h0Z"/>
          <path class="st39" d="M386.53,219.54c-3.03,2.82-8.83,6.58-13.25,4.42.19-.84-1.27-2.21-.28-3.31.9-1,3.7-.45,3.86-.55,4.99-3.15,2.69-5.66,9.66-.55h.01Z"/>
        </g>
        <g>
          <path class="st39" d="M452.77,196.91c-9.89,7.23-20.96,12.57-31.46,18.77-.55-3.69-3.76-2.85-6.62-2.21,1.08-2.02-4.09-3.36-4.42-3.31v-.55l4.42-6.07c1.21,1.93,11.76,2.67,13.52,2.21.59-.15,4.04-3.9,4.69-4.42.19-.15-.27.85,1.66-1.1.64-.65.7-1.18,1.1-1.66,1.19-1.42,6.43-3.99,1.1-5.24,4.56-1.81-.5-13.45-3.04-14.08-1.39-.34-2.06,1.14-2.21,1.1-1.88-.41-1.82-1.09-1.93-1.1,4.5-.47,5.84-4.63.55-3.86-2.94-6.83-11.9,1.37-13.8-.83-2.29-2.65,10.41-7.18,4.97-12.97-4.51-4.8-5.13,1.87-5.8,1.66-.59-2.88,2.36-3.53.28-6.07l2.76-.28c-3.88-3.74-7-3.69-12.14-3.59,2.26-.34,3.53-1.65,6.9-1.1,4.47.73,11.94,8.8,13.52,12.97.6,1.58.36,6.35.55,6.62.78,1.09,10.71,3.1,13.25,7.73,2.34,4.26.43,9.34,1.1,11.04.27.69,9.56,5.76,11.04,6.35h0Z"/>
          <path class="st13" d="M360.03,120.74l-2.76-.28c-.13,4.98-2.12,6.95-.55,12.42l-2.21,1.38c3.87,2.8-3.02,7.7-6.07,4.69-.04-7.85.76-15.99.55-23.74,3.82.67,9,2.09,11.04,5.52h0Z"/>
          <path class="st39" d="M360.03,120.74c1.7,2.85,1.51,5.73,1.1,8.83-1.71.96-2.44,3.27-4.14,4.42l-.28-1.1c-1.57-5.47.42-7.44.55-12.42l2.76.28h.01Z"/>
          <path class="st39" d="M363.34,161.58c1.47.74,3.03,2.5,4.69,3.31,1.5.73,4.57.25,5.24.55.07.03,1.06,1.04,1.1,1.1.14.24.2,3.98.55,4.69,1.16,2.36,3.32.31,2.76,3.59-2.2-1.06-2.58-.87-4.42-1.66-3.13-1.33-9.97-2.77-12.42-3.86-4.02-1.79-7.62-5.98-12.42-6.62v-5.52c7.9-4.17,6.73,1.33,10.21,3.31.85.49,2.45-.03,4.69,1.1h.02Z"/>
          <path class="st21" d="M352.3,148.34l1.38,6.07c3.31-3.37,11.03-2.23,15.18-1.1,2.97.8,5.23,1.12,4.97,4.42-.51.35-2.51,3.26-3.04,3.31-1.88.19-2-6.23-7.45.55-2.24-1.13-3.84-.62-4.69-1.1-3.48-1.98-2.32-7.48-10.21-3.31-.01-3.12,0-6.26,0-9.38,1.28.23,2.57.37,3.86.55h0Z"/>
          <g>
            <path class="st34" d="M415.78,157.17c-2.05-2.5-8.04-.68-9.94,1.1-.15-1-1.08-2.65-1.1-3.86.1-.02.9-.99,1.66-1.1,5.14-.1,8.27-.16,12.14,3.59l-2.76.28h0Z"/>
            <path class="st34" d="M415.78,157.17c2.09,2.54-.87,3.19-.28,6.07.66.21,1.29-6.46,5.8-1.66-2.63,1.58-4.28,4.29-6.9,6.07-1.5,1.02-3,.81-3.59,1.1l-5.52-2.76c.74-3.86,1.24-3.14.55-7.73,1.89-1.78,7.89-3.6,9.94-1.1h0Z"/>
          </g>
          <path class="st39" d="M376.59,157.72c-1.96,1.8-1.86,5.48-3.31,7.73-.67-.31-3.75.18-5.24-.55-1.66-.81-3.22-2.57-4.69-3.31,5.45-6.78,5.57-.36,7.45-.55.53-.05,2.53-2.96,3.04-3.31.72-.5,1.99-.4,2.76,0h-.01Z"/>
          <g>
            <path class="st21" d="M403.64,154.41c.32-.08.77.07,1.1,0,.03,1.22.95,2.87,1.1,3.86-1.59,1.49-1.81,5.53-2.21,6.35-.57,1.19-1.6-.34-1.66-.28l-.55-9.94c.11-.02,1.11.27,2.21,0h0Z"/>
            <path class="st39" d="M401.43,154.41l.55,9.94c-2.04,2.41-.15,3.03-4.69,3.86-5.68,1.04-9.58-.7-14.08-1.66,5.5.1,11.21-10.05,13.8-11.59,1.72-1.02,2.96-.23,4.42-.55Z"/>
            <path class="st34" d="M383.77,156.62c1.16-.05,3.96-.28,4.97-.55.45-.12.65-.39,1.1-.55,1.83,7.05-12.28,4.81-8.28,9.94-1.43-.42-7.07-1.42-7.18,1.1-.04-.07-1.03-1.07-1.1-1.1,1.45-2.25,1.36-5.93,3.31-7.73,3.72-3.42,2.64-.91,7.18-1.1h0Z"/>
            <path class="st34" d="M397.01,154.96c-2.59,1.54-8.3,11.69-13.8,11.59-.73-.16-1.56-1.08-1.66-1.1-4-5.12,10.11-2.89,8.28-9.94,2.57-.94,5.58-1.75,6.35-4.97,3-.11-.43,2.69.83,4.42h0Z"/>
            <path class="st37" d="M387.08,151.65c.72.74,1.96,3.21,1.66,4.42-1.01.28-3.81.5-4.97.55l-4.42-1.93c1.1-1.73,2.04-3.62,3.31-5.24.97.42,3.87,1.66,4.42,2.21h0Z"/>
          </g>
          <g>
            <path class="st39" d="M369.41,152.2c-1.33-.27-2.9-1.45-3.86-1.66,2.06-3.09-.73-.56-2.21-2.48,2.47-3.11,6.22-4.8,8.83-7.73.79-.88.98-3.7,1.1-3.86.49-.64,7.41-2.38,7.18,1.1-.12,1.71-3,.36-2.76,1.66.37,2.02,1.45.81,1.1,5.52-.04.48,3.33.43-2.21,2.21-.27.82,6.36,4.05.28,6.9-.67.31-6.21-1.4-7.45-1.66h0Z"/>
            <path class="st21" d="M365.55,150.54c.97.21,2.54,1.39,3.86,1.66l-.55,1.1c-4.15-1.12-11.87-2.27-15.18,1.1l-1.38-6.07c4.35.6,6.97,2.03,10.21,2.76,1.39.31,2.89-.58,3.04-.55Z"/>
            <g>
              <path class="st13" d="M403.64,154.41c-1.1.27-2.1-.02-2.21,0-1.45.33-2.69-.47-4.42.55-1.26-1.72,2.17-4.53-.83-4.42-.77,3.22-3.78,4.02-6.35,4.97-.45.17-.65.43-1.1.55.3-1.21-.93-3.68-1.66-4.42,2.68-.83,3.63-4.09,6.9-2.21,3.04-1.57-6.65-5.19-10.49-2.21-1.25.97-.67,2.01-.83,2.21-1.27,1.62-2.21,3.51-3.31,5.24l4.42,1.93c-4.54.2-3.46-2.32-7.18,1.1-.77-.4-2.04-.5-2.76,0,.26-3.3-2-3.61-4.97-4.42l.55-1.1c1.24.25,6.78,1.97,7.45,1.66,6.08-2.85-.54-6.08-.28-6.9,5.54-1.78,2.17-1.73,2.21-2.21.34-4.71-.74-3.5-1.1-5.52-.24-1.3,2.64.06,2.76-1.66.24-3.49-6.68-1.75-7.18-1.1-.12.16-.32,2.98-1.1,3.86-2.61,2.93-6.36,4.62-8.83,7.73,1.47,1.93,4.27-.61,2.21,2.48-.15-.03-1.65.86-3.04.55-3.24-.73-5.86-2.16-10.21-2.76-1.29-.18-2.58-.33-3.86-.55,0-2.94.01-5.88,0-8.83,3.05,3,9.94-1.89,6.07-4.69l2.21-1.38.28,1.1c1.7-1.14,2.43-3.46,4.14-4.42,9.16-5.16,25.89,5.52,21.8,17.11,8.74-5.31,14.53,2.55,20.7,7.73v.03Z"/>
              <path class="st34" d="M366.1,137.85c1.27,1.38,1.64,3.17.28,4.97-2.08,2.74-9.08,1.34-10.76-1.38.35-5.3,3.22-3.15,4.14-3.59.11-.06.9-1.29,1.93-1.66s3.7.88,4.42,1.66h-.01Z"/>
              <path class="st34" d="M387.08,151.65c-.54-.55-3.45-1.79-4.42-2.21.15-.2-.42-1.24.83-2.21,3.84-2.98,13.53.63,10.49,2.21-3.27-1.88-4.22,1.37-6.9,2.21h0Z"/>
              <path class="st37" d="M366.1,137.85c-.71-.78-3.34-2.04-4.42-1.66l-3.31-1.38c2.93-6.24,10.32-1.84,7.73,3.04h0Z"/>
            </g>
          </g>
          <g>
            <path class="st13" d="M405.29,166c-.07.37-1.59,1.35-1.1,3.04,1.3,4.54,5.13.46,6.62-.28.59-.29,2.09-.08,3.59-1.1,2.62-1.78,4.27-4.49,6.9-6.07,5.44,5.79-7.26,10.32-4.97,12.97,1.9,2.2,10.86-6,13.8.83-1.83.26-3,1.76-4.69,2.21-1.4.37-7.7-1.55-6.9,3.31-1.66.2-2.82-.33-3.86,1.38-4.97,8.11,5.8,4.92,6.35,5.24.11.07,1.32,2.09,1.38,2.21.6,1.16-.62,2.37-.55,2.48,1.03,1.79,4.41,1.76,6.07.83-.19.74.13,1.92,0,2.76-2.46-.97-6.73,1.34-7.45,1.1-.99-.33-4.6-6.39-8.28-4.42-1.55.9,1.88,3.9,1.93,4.14.32,1.36-.32,5.5.55,6.9l-4.42,6.07c-2.01-2.86-4.19,1.67-8,.55-2.21-.65-1.35-6.15-3.31-6.07-.22,0-1.82,2.68-2.76,3.31-.7.47-5.66,2.74-5.8,3.04-.76,1.7.93,4.73-1.38,8-.19.27-2.38,1.01-2.48,1.1-6.97-5.11-4.67-2.6-9.66.55-.17.1-2.96-.45-3.86.55-1,1.1.47,2.47.28,3.31-1.62-.79-1.43-3.2-3.04-3.31-1.81-.13-5.45,5.39-7.73,6.07-2.7.81-5.44-.96-7.73-.55-.63.11-1.1,2.25-3.04,1.1-1.37-1.77-3.48-3.19-5.52-4.14l.83-4.69-1.38,6.62c-3.97-2.15-8.37-1.84-12.7-1.1,2.09-1.2,14.38-8.63,15.18-8.28.48.21-.86,1.54,0,1.66.56.07,5.62-7.36,8.28-7.73.76-.1,4.6,1.28,5.52,1.1.61-.12,4-6.59,8.83-8.28,2.88-1.01,11.48-.84,12.14-1.1,1.05-.42,4-7.49,4.69-8.83.32-.61,3.09-2.84,3.31-4.14.44-2.53-1.05-1.83-1.1-1.93-1.32-2.65-2.83-2.86-4.42-4.69-.19-.22,1.45-.51.55-1.38-1.62-1.58-6.2-4.52-8.28-5.52.56-3.27-1.6-1.23-2.76-3.59-.35-.71-.41-4.45-.55-4.69.11-2.53,5.75-1.52,7.18-1.1.1.03.93.95,1.66,1.1,4.49.96,8.4,2.69,14.08,1.66,4.54-.83,2.66-1.46,4.69-3.86.05-.06,1.08,1.46,1.66.28.39-.82.62-4.86,2.21-6.35.69,4.59.19,3.87-.55,7.73h0Z"/>
            <path class="st21" d="M400.05,172.62c.7-.21,12.35,2.7,14.35,2.76l.83.83c-1.8,1.04-.34,3.73-2.21,6.07-2.6,3.27-2.83.77-3.04.83-1.13.29-3.86,1.6-4.97,1.1-.15-.07-.99-2.02-1.66-2.76-.74-.81-2.95,1.59-.83-4.14-3.1,1.6-4-4.23-2.48-4.69h.01Z"/>
            <path class="st34" d="M410.81,168.76c-1.49.74-5.32,4.81-6.62.28-.49-1.69,1.03-2.66,1.1-3.04l5.52,2.76Z"/>
            <path class="st41" d="M380.73,211.82c1.43-.32,1.77,2.04.55,2.21-.78.11-2.19-1.84-.55-2.21Z"/>
          </g>
          <g>
            <path class="st32" d="M429.58,179.25c.11,0,.05.69,1.93,1.1.15.03.82-1.45,2.21-1.1,2.53.63,7.6,12.27,3.04,14.08,5.33,1.26.09,3.83-1.1,5.24l-7.73-2.76c.13-.84-.19-2.02,0-2.76.02-.07.93-.35,1.1-.83-1.59-1.95-.95.74-1.1.83-1.66.94-5.05.96-6.07-.83-.06-.11,1.15-1.32.55-2.48,3.57-1.85,3.09-4.65,3.86-7.73.27-1.09-.57-2.47.83-3.31,1-.12,1.46.43,2.48.55h0Z"/>
            <path class="st21" d="M427.93,195.81l7.73,2.76c-.4.47-.47,1.01-1.1,1.66-1.01-.92-2.7-.49-1.66,1.1-.66.51-4.11,4.26-4.69,4.42-1.76.46-12.32-.27-13.52-2.21-.88-1.4-.23-5.54-.55-6.9-.06-.24-3.48-3.24-1.93-4.14,3.68-1.97,7.29,4.09,8.28,4.42.72.24,5-2.07,7.45-1.1h-.01Z"/>
            <path class="st34" d="M430.13,175.38c5.29-.76,3.95,3.39-.55,3.86-1.02-.12-1.49-.67-2.48-.55-1.4.84-.56,2.23-.83,3.31-3.75-.62-3.86-1.57-7.73-1.1-.8-4.86,5.5-2.94,6.9-3.31,1.69-.45,2.86-1.94,4.69-2.21h0Z"/>
            <path class="st0" d="M434.55,200.22c-1.92,1.95-1.47.96-1.66,1.1-1.05-1.6.64-2.03,1.66-1.1Z"/>
            <path class="st34" d="M426.27,182.01c-.77,3.08-.3,5.88-3.86,7.73-.06-.12-1.27-2.14-1.38-2.21-.55-.32-11.32,2.86-6.35-5.24,1.05-1.71,2.21-1.18,3.86-1.38,3.87-.47,3.98.48,7.73,1.1h0Z"/>
            <path class="st13" d="M427.93,193.05c.15-.09-.49-2.78,1.1-.83-.17.47-1.09.76-1.1.83Z"/>
          </g>
        </g>
        <g>
          <path class="st39" d="M258.46,270.33c.33.13,1.91,1.69,2.21,2.21-.2.18-1.7-.19-1.93,0-.16.13-1.98,3.39-1.93,3.59.06.25,3.33,3.57,3.59,3.59s2.76-1.37,4.69-1.66c.9-.13-.06-1.17,1.93-1.1,3.66.13,3.25,5.85,8,1.1,2.71,2.58,4.98.57,7.45-.55l-.83,3.86c-3.83-.72-4.99,2.09-6.35,2.21-1.49.13-4.56-4.16-8.28-1.1-1.31,1.08-.48,4.84.28,6.07-5.49,2.81,1.44,1.34-.55,6.07-1.51.05-4.98,1.42-6.35.55-.61-.38-.09-1.8-.28-1.93-.32-.22-4.43-.39-5.24-.28-.39.06-5.22,2.23-5.52,2.21-.33-.02-2.79-2.08-5.8-2.21-3.76-3.3-3.79-6.41-2.21-11.04.18-.53,1.83-3.42,2.21-3.86.61-.71,3.94-2.39,4.97-2.76l-2.48,2.76.55,1.1c3.96,1.57,4.27-2.89,8.28,0,1.15-3.04-1.39-4.73-4.14-4.97.82-2.56,5.05-3.88,7.73-3.86h0Z"/>
          <path class="st21" d="M243.56,292.96c3.01.13,5.47,2.19,5.8,2.21.3.02,5.13-2.15,5.52-2.21.81-.12,4.92.06,5.24.28.19.13-.33,1.55.28,1.93,1.36.87,4.84-.5,6.35-.55-1.02,2.43-9.07,8.92-10.76,9.38-1.57.43-3.01-.85-4.14-.55,1.59-12.07-13.75-4.26-2.76,1.1-1.94.77-8.68,4.55-4.97,6.62-1.89.43-1.67.15-3.31,0-1.51-.14-3.82-.87-6.07-1.1,2.64-4.15,12.85-11.2,4.97-15.46,1.83-1.38.51-1.8,3.86-1.66h-.01Z"/>
          <path class="st34" d="M265.09,269.22c-.26,2.18-1.09,2.95-1.1,4.97,0,1.18,1.07,2.63,1.1,3.86-1.93.28-4.44,1.67-4.69,1.66s-3.53-3.34-3.59-3.59c-.04-.2,1.77-3.46,1.93-3.59.23-.19,1.73.18,1.93,0,1.37-1.22,2.62-3.33,4.42-3.31Z"/>
          <path class="st34" d="M250.73,274.19c2.75.24,5.29,1.93,4.14,4.97-4.01-2.89-4.32,1.57-8.28,0l-.55-1.1,2.48-2.76c.92-.33.97-1.21,2.21-1.1h0Z"/>
          <path class="st21" d="M251.84,303.45c-1.64.43-1.62.65-2.76,1.1-10.99-5.37,4.35-13.17,2.76-1.1Z"/>
        </g>
        <path class="st34" d="M348.44,236.1c-1.17,1.33-1.02.6-2.21,1.1-.15-1.42,1.46-1.75,2.21-1.1Z"/>
        <g>
          <path class="st39" d="M314.77,258.18c.22.67,1.7,2.35,1.66,3.59-.01.35-4.74,2.44,2.21,4.14-.58.6-5.43,4.45-5.8,4.42s.64-1.43-.55-1.66-3.51.32-4.42,0c-1.77-.63-2.56-2.52-4.97-3.31-.23-.08-2.34,2.52-3.59-1.1,1.22-1.1,1.42-4.63,3.86-5.52,1.69-.38,1.35-.32,2.76-1.1.14-.08.42.08.55,0,3.09-1.98,3.41-4.92,6.35-6.62-.06,1.89.99,4.27,1.93,7.18v-.02Z"/>
          <path class="st34" d="M306.49,257.63c-.13.08-.41-.08-.55,0-1.84.57-1.84-1.55-2.21-3.31-.42-2.03-.29-5.74-3.04-7.18-1.96-1.02-3.55,1.18-5.24,2.21-1.12.68-4.29,2.96-4.42,4.14-.38,3.57,1.82,2.11,2.21,2.76.92,1.54.12,3.06,2.21,4.69-.26.1-3.82-.87-5.52,0,.41-1.46-1.98-1.4-2.21-1.93-.5-1.2.76-2.57,1.1-3.59.52-1.55,1.75-3.69,2.76-4.97,4.42-5.57,12.41-9.8,18.22-4.14-1.22,2.32-3.09-.29-4.42,1.66-1.83,2.67,2.14,3.12,3.86,4.42l-2.76,5.24h.01Z"/>
          <path class="st13" d="M303.17,258.74c-2.45.89-2.65,4.42-3.86,5.52-3.55,3.2-4.87.11-5.24,0-.64-.19-.88.31-2.48-.55-1.25-.67-5.86-.61-1.66-2.76,1.7-.87,5.26.1,5.52,0,1.22-.46,1.5-2.44,2.48-2.76.34-.11.2,1.16.55,1.1,1.57-.26,3.21-.22,4.69-.55Z"/>
          <path class="st34" d="M295.45,249.35c-2.6,6.48,5.42-.13,8.28,4.97.36,1.76.36,3.88,2.21,3.31-1.41.79-1.07.73-2.76,1.1-1.48.33-3.13.29-4.69.55-.36.06-.21-1.22-.55-1.1-.98.32-1.26,2.3-2.48,2.76-2.09-1.63-1.29-3.16-2.21-4.69-.39-.65-2.59.81-2.21-2.76.13-1.18,3.29-3.46,4.42-4.14h-.01Z"/>
          <path class="st37" d="M303.73,254.32c-2.86-5.09-10.88,1.51-8.28-4.97,1.7-1.02,3.28-3.23,5.24-2.21,2.75,1.43,2.62,5.15,3.04,7.18h0Z"/>
        </g>
        <g>
          <path class="st34" d="M278.89,257.63c2.17.14,5.22,1.11,7.18,2.21-2,2.06-1.9.43-3.59,1.1-.87.34-2.21,2.18-2.76,2.21-1.34.07-4.44-5.62-9.11.83l-2.21,8c-3.67.04-2.57,2.85-4.42,2.21.01-2.02.85-2.78,1.1-4.97.17-1.42-.14-4.6.83-5.52.15-.14,3.08-.5,3.86-1.1,3.8-2.94,3.62-5.33,9.11-4.97h.01Z"/>
          <path class="st32" d="M290.48,265.36c-.11.39.99,6.81,1.1,8,.04.43,1.05.11,1.1.55.57,4.27-4,3.57-.55,7.45-.67.81-.86,3.13-3.04,3.86-.43-3.13-1.4-.59-3.04-1.1-.86-.27-4.16-2.71-4.42-2.76l.83-3.86c-2.47,1.12-4.74,3.14-7.45.55.06-.06.07-1.09.55-1.66.45-.52,2.67-3.11,2.76-3.31,3.85.05,9.65-3.55,7.18-7.73,1.28.05,3.55-.69,4.97,0h.01Z"/>
          <path class="st21" d="M281.65,281.37c.26.05,3.55,2.49,4.42,2.76-2.56,2.6,2.24,1.55-.55,4.42-1.53.68-3.8,2.56-4.97,2.76-2.96.52-11.55,0-13.25-2.76-.76-1.23-1.59-4.99-.28-6.07,3.72-3.06,6.79,1.24,8.28,1.1,1.36-.12,2.51-2.92,6.35-2.21h0Z"/>
          <path class="st13" d="M275.57,276.4c-.48.57-.49,1.59-.55,1.66-4.75,4.75-4.35-.98-8-1.1-2-.07-1.04.97-1.93,1.1-.03-1.24-1.11-2.68-1.1-3.86,1.85.64.75-2.16,4.42-2.21.84-.01,4.41,3.11,4.69-.55l2.48,4.97h-.01Z"/>
          <path class="st34" d="M288.82,255.42c-.34,1.02-1.6,2.39-1.1,3.59.22.54,2.61.47,2.21,1.93-4.21,2.15.4,2.09,1.66,2.76-.15.72-.9.93-1.1,1.66-1.42-.69-3.69.05-4.97,0-.4-.02-1.21.93-2.48.55-.21-.06-1.1-3.78-3.04-1.38.34,3.15-.41,5.72-1.66,8.56-.09.2-2.31,2.79-2.76,3.31l-2.48-4.97c-.29,3.66-3.85.54-4.69.55l2.21-8c4.67-6.45,7.76-.76,9.11-.83.55-.03,1.89-1.87,2.76-2.21,1.69-.67,1.58.95,3.59-1.1,1.62-1.66.5-3.9,2.76-4.42h-.02Z"/>
          <path class="st13" d="M285.51,265.36c2.47,4.17-3.33,7.78-7.18,7.73,1.25-2.84,2-5.41,1.66-8.56,1.94-2.4,2.83,1.32,3.04,1.38,1.27.38,2.08-.57,2.48-.55h0Z"/>
        </g>
      </g>
    </g>
    <g>
      <path class="st3" d="M348.44,107.49c.02.18-.01.37,0,.55l-37.54-4.97-.83,19.87c-.99,0,.25-16.95-.83-19.87-1.39-3.77-3.74-2.82-6.62-1.66-6.4-2.66-9.11,3.08-12.7,7.73-.93,1.2-1.79,1.38-2.76,2.76-.92,1.3-1.52.77-2.21,3.31-2.46,2.04-3.79,6.58-5.52,9.66-12.38,22.11-26.19,43.98-39.47,65.41l-1.93-3.86c15.58-31,36.73-61.13,53.54-91.63l3.59-1.1,53.27,9.66c.08,1.37-.11,2.78,0,4.14h0Z"/>
      <path class="st35" d="M232.52,192.5c.36.21.31,1.68,1.66.55-.33,1.72.24,4.23,0,6.07-.04.02.23.57-.83.55-38-21.79-76.11-43.61-113.99-65.69-1.27-.74-2.62-1.45-3.86-2.21-1.65-1-3.22-2.42-4.97-3.31-.08-2.03-1.07-3.17-1.1-3.86-.04-.79,1.51-.26,1.1-1.66,40.08,24.1,81.66,45.87,121.99,69.55h0Z"/>
      <g>
        <path class="st29" d="M308.14,48.98c.38,1.32,1.21,1.03,2.21,1.1-1.94,1.93-2.07,4.77-2.21,7.73-.32,6.74,1.37,15.07.55,22.08-.63-.09-10.84-5.74-11.04-6.35-.94-2.81.81-6.86-.55-10.21-.18-.44-.49-.67-.55-1.1,1.95-2.34,1.15-8.74,1.1-12.14,2.98-3.75,7.2,1.26,10.49-1.1h0Z"/>
        <path class="st3" d="M319.18,55.05c.01.18-.01.37,0,.55-3.08,1.77-1.77,11.04.55,13.25.13,2.35-.49,4.99.55,7.18-1.75.1-8.3,4.31-11.59,3.86.82-7.01-.87-15.34-.55-22.08,3.35-.24,8.15-4.33,11.04-2.76Z"/>
        <path class="st9" d="M316.97,47.32c1.36-4.24-8.22.98-8.83,1.66-3.29,2.37-7.51-2.65-10.49,1.1-.04-2.93,0-5.92,0-8.83,3.85.53,6.91,5.49,10.49,5.24,1.4-2.2-9.68-6.2-11.04-8.56.34-.44,9.66-4.44,10.21-4.42.72.03,11.66,7.32,11.87,8,.72,2.41-.25,4.86-2.21,5.8h0Z"/>
        <path class="st15" d="M319.18,55.05c-2.89-1.57-7.69,2.52-11.04,2.76.14-2.96.26-5.8,2.21-7.73,3.86.29,5.23-.65,8.56-2.21-.72,2.67.14,4.76.28,7.18h0Z"/>
        <path class="st10" d="M297.65,41.25c0-1.72-1.92-1.52-.55-3.31,1.36,2.36,12.44,6.36,11.04,8.56-3.58.25-6.64-4.71-10.49-5.24h0Z"/>
        <path class="st23" d="M319.18,55.6c.26,4.39.31,8.84.55,13.25-2.32-2.21-3.63-11.48-.55-13.25Z"/>
        <path class="st20" d="M316.97,47.32c-2.22,1.07-4.56.71-6.62,2.76-1-.08-1.83.22-2.21-1.1.62-.68,10.19-5.9,8.83-1.66Z"/>
      </g>
      <path class="st12" d="M350.09,197.46c-4.72-.23-1.3,6.92-5.8,8.83-31.42,17.18-61.34,39.99-92.74,56.86-5.26,2.83-10.72,1.35-9.11,8.28-1.37.67-2.93,1.78-4.14,2.76l-.83-.55c-.52-2.54.7-8.46,0-10.49,1.38-.59,2.64-1.35,3.86-2.21,34.36-24.02,73.3-43.07,107.64-67.34,0,.24,1.11,3.03,1.1,3.86h.02Z"/>
      <path class="st25" d="M310.9,103.07c.91.48,1.04,1.59,1.1,2.48.98,13.16-.68,27.51.55,40.85-.17.57-5.6,4.74-6.62,5.52-.47.36-1.96,1.39-1.66-.28.98-.69,4.66-4.19,4.97-5.24v-43.33c1.08,2.92-.17,19.87.83,19.87l.83-19.87h0Z"/>
      <path class="st29" d="M115.49,131.78l-1.1,24.01c.57,9.39.87,19.22-.55,27.6-.56,3.32,1.82,6.66-3.31,6.35h-.55c0-8.45.01-16.94,0-25.39-.02-11.91,1.02-23.93.55-35.88,1.75.89,3.32,2.32,4.97,3.31h-.01Z"/>
      <path class="st25" d="M302.62,101.42c-3.63,1.46-8.11,7.04-12.7,7.73,3.59-4.65,6.3-10.39,12.7-7.73Z"/>
      <path class="st29" d="M119.36,133.98c-1.66-.24-1.07,1.48-1.1,2.48-.38,13.22.87,26.62.55,39.74-.07,2.89-.31,12.57-1.1,14.63-.08.2-2.74-.93-1.1,2.76-2.02-1.09-3.8-1.03-5.52-2.76-.07-.07-.49-.85-.55-1.1,5.13.31,2.75-3.03,3.31-6.35,1.42-8.38,1.13-18.21.55-27.6l1.1-24.01c1.25.76,2.59,1.47,3.86,2.21Z"/>
      <path class="st42" d="M204.37,243.28c.89.53,1.54,1.59,1.66,1.66-1.22,2.73.66,5.95,1.1,8.56.37,2.14-2.59.65,1.1,3.59-.51-.3-1.89-.58-2.76-1.1-.52-.32-1.1-.76-1.66-1.1-1.56-.97-8.4-3.94-8.83-5.24-.8-2.38.09-8.53,0-11.32,3.2,1.39,6.4,3.18,9.38,4.97v-.02Z"/>
      <g>
        <path class="st3" d="M250.18,17.51c0,6.39.53,12.97.55,19.32,0,.29-1.12,2.81-.55,3.86-3.24.06-6.72,2.33-9.94,2.76-1.05.14-1.21.07-2.21,0,1.04-4.89-1.16-14.02-.55-18.22.02-.13.51-1.58.55-1.66.81-1.56,9.76-7.08,12.14-6.07h.01Z"/>
        <path class="st29" d="M237.49,25.24c-.61,4.19,1.6,13.33.55,18.22-1.26-.09-10.57-3.47-11.04-4.69-.27-.71-.56-13.29-.55-15.18,0-.2.54-2.11.55-3.31l10.49,4.97h0Z"/>
        <path class="st10" d="M238.04,19.72v3.86c-.04.08-.53,1.52-.55,1.66l-10.49-4.97c.03-3-.8-4.36,0-5.52,3.2.94,8.55,5.49,11.04,4.97h0Z"/>
        <path class="st19" d="M250.18,17.51c-2.39-1.01-11.33,4.51-12.14,6.07v-3.86c3.14-.66,9.39-5.27,12.7-6.62.98,1.96-.55,2.74-.55,4.42h0Z"/>
        <g>
          <path class="st27" d="M250.73,13.1c-3.3,1.36-9.56,5.96-12.7,6.62-2.49.52-7.84-4.03-11.04-4.97.85-1.23,11.58-8.25,12.42-8.28.97-.04,10.82,5.64,11.32,6.62h0Z"/>
          <path class="st42" d="M238.31,10.34c1.41-.34,4.97,1.91,6.35,2.48-4,2.25-7.4,6.4-11.04,1.1,1.79-.83,2.8-3.14,4.69-3.59h0Z"/>
        </g>
      </g>
      <path class="st29" d="M208.78,238.31c1.54,3.59,10.1,8.43,13.8,9.94-.23,2.13-2.02.47.28,2.21,2.81,2.13,18.11,7.48,12.97,11.59-.48-.5-1.59-.5-1.66-.55-8.62-6.5-18.92-11.03-28.15-16.56-.11-.07-.77-1.12-1.66-1.66-.36-4.13-.12-5.39,4.42-4.97h0Z"/>
      <path class="st26" d="M117.7,190.84l36.43,21.53.55,1.1c-.54,1.44-.5.9-1.1,1.66-12.4-7.01-24.44-14.76-36.98-21.53-1.63-3.69,1.03-2.56,1.1-2.76h0Z"/>
      <path class="st6" d="M235.83,262.05c.57.6,1.62,1.01,1.66,1.1.7,2.03-.52,7.95,0,10.49-1.16.46-2.56-1.57-2.76-1.66l-.55-10.49c.07.05,1.18.06,1.66.55h-.01Z"/>
      <path class="st30" d="M350.09,197.46v8c-32.84,19.37-64.6,41.4-97.7,60.44-3.21,1.85-6.63,3.89-9.94,5.52-1.61-6.93,3.84-5.45,9.11-8.28,31.39-16.86,61.31-39.67,92.74-56.86,4.49-1.91,1.07-9.07,5.8-8.83h0Z"/>
      <path class="st6" d="M234.17,261.5l.55,10.49c-9.2-4.18-17.82-9.78-26.5-14.9-3.69-2.94-.74-1.45-1.1-3.59-.45-2.61-2.33-5.83-1.1-8.56,9.24,5.53,19.53,10.06,28.15,16.56h0Z"/>
      <g>
        <path class="st6" d="M111.08,190.84c2.95,3.18,1.3,10.6,3.04,12.7,1.6,1.93,24.42,11.98,28.7,14.35.35.2,2.12,2.42,3.04,2.76-.78.44-1.47.71-2.21,1.1l-32.84-17.66c-1.43-1.74-.83-11.55-.83-14.35h.55c.06.25.48,1.03.55,1.1Z"/>
        <path class="st5" d="M116.6,193.6c12.54,6.76,24.58,14.51,36.98,21.53-2.57,3.21-4.16,3.5-7.73,5.52-.92-.34-2.68-2.56-3.04-2.76-4.29-2.38-27.1-12.42-28.7-14.35-1.74-2.09-.08-9.52-3.04-12.7,1.72,1.73,3.5,1.67,5.52,2.76h0Z"/>
      </g>
      <g>
        <path class="st25" d="M348.44,108.04c.18,2.26.49,4.98.55,7.18.21,7.75-.59,15.88-.55,23.74.01,2.95,0,5.89,0,8.83,0,3.12-.01,6.26,0,9.38v5.52c.01,2.76.53,5.65.55,8.28.07,7.1-1.05,14.37,0,21.53-.03.36,0,.74,0,1.1-34.34,24.27-73.28,43.33-107.64,67.34l-1.38-69.55c-.39-.29-4.78,7.25-5.8,7.73.24-1.84-.33-4.35,0-6.07.48-2.47,2.8-4.51,3.86-6.62l1.93,3.86c13.28-21.43,27.08-43.3,39.47-65.41,1.73-3.08,3.06-7.62,5.52-9.66-.71,2.63-.26,39.76.55,41.68,2.41,5.71,10.66-.3,13.8-3.04,1.35-.65,3.74-1.35,4.97-2.21-.3,1.67,1.18.64,1.66.28,1.03-.78,6.45-4.95,6.62-5.52-1.24-13.34.43-27.68-.55-40.85-.07-.9-.19-2.01-1.1-2.48l37.54,4.97h0Z"/>
        <path class="st16" d="M305.93,160.48c2.11-1.63,3.64-2.04,5.52-3.31,2.66,11.06-.74,14.11-9.94,17.39.54-2.53-.73-9.11,0-11.04.09-.25,3.71-2.49,4.42-3.04h0Z"/>
        <path class="st25" d="M261.77,241.62c.82,2.02-11.08,9.41-11.87,9.38-.23,0-3.4-2.2-3.59-2.76,4.77-.52,8.89-5.25,12.97-7.18,1.29-.61,2.37.61,2.48.55h0Z"/>
        <g>
          <path class="st2" d="M261.77,241.62c-.11.06-1.19-1.16-2.48-.55-4.08,1.93-8.21,6.65-12.97,7.18v-51.06l43.33-26.22c1.84.62.21,9.1.83,10.76.25.67,1.69-1.75,2.21,0,2.25,7.68-1.53,28.83.55,38.09-4.06,1.74-8.97,6.75-12.42,8.56-.66.34-1.52-1.16-1.66-1.1-.32.12-.9,3.48-1.38,4.14-3.02,4.18-11.28,7.87-16.01,10.21h0Z"/>
          <path class="st16" d="M256.53,191.94c2.1,9.28-.59,13.11-8.83,17.11-.46-.38-.51-11.32-.28-11.87.21-.48,8.16-3.79,9.11-5.24Z"/>
          <g>
            <path class="st11" d="M275.85,183.66l.83,44.44-16.28,10.76-1.38-43.33c1.13-3.56,13.96-8.54,16.84-11.87h0Z"/>
            <g>
              <path class="st31" d="M274.19,205.19c.52.03,1.06-.2,1.38.28,3.53,5.89-10.72,12.22-14.63,14.63.62-1.83-.89-4.02-.28-5.8.27-.77,12.71-9.15,13.52-9.11h.01Z"/>
              <path class="st31" d="M264.53,210.16c-2.97-1.81.05-5.27-1.66-6.07,2.66-2.67,8.94-6.36,12.7-7.45,2.05,7.15-5.57,10.41-11.04,13.52Z"/>
              <path class="st31" d="M265.09,226.72c-2.07-1.49-1.72-4.89-.55-7.18,2.85-2.44,6.92-4.06,9.94-6.35l1.1.55c2.1,6.29-5.72,10.28-10.49,12.97h0Z"/>
              <path class="st17" d="M269.5,198.02c-2.55,1.88-5.62,4.67-8.83,5.24-1.13-8.68,1.22-8.7,7.73-12.42l1.1,7.18h0Z"/>
              <path class="st31" d="M266.19,233.34c-4.03-6.49.97-2.33,1.1-6.62,2.99-2.17,11.4-9.39,8.28.28-.41,1.27-7.78,5.38-9.38,6.35h0Z"/>
              <path class="st16" d="M269.5,198.02l-1.1-7.18c.82-.47,6.54-4.67,7.18-3.59,1.16,8.28-1.11,7.12-6.07,10.76h0Z"/>
              <path class="st16" d="M267.29,226.72c-.13,4.29-5.13.13-1.1,6.62-.59.36-4.47,3.49-4.69,3.31-2.04-7.61,1.4-6.74,5.8-9.94h0Z"/>
              <path class="st2" d="M265.09,226.72c-1.22.69-2.47,1.35-3.59,2.21-2.24-6.19-.8-6.11,3.04-9.38-1.17,2.28-1.52,5.69.55,7.18h0Z"/>
              <path class="st8" d="M264.53,210.16c-1.02.58-2.04.88-2.76,1.93l-1.1-.55c.03-5.12-.89-4.34,2.21-7.45,1.7.8-1.32,4.26,1.66,6.07h0Z"/>
            </g>
          </g>
        </g>
        <g>
          <path class="st2" d="M305.93,160.48c-.71.55-4.32,2.79-4.42,3.04-.73,1.93.54,8.51,0,11.04,9.2-3.27,12.6-6.33,9.94-17.39,7.35-4.99,13.83-7.54,20.7-11.04,2.57-1.31,6.48-6.1,10.21-6.35l1.1,48.58c-1.51.51-7.49,6.36-8,6.35s-1-1.71-1.1-1.66c-.69.33.01,2.47-.28,3.04-1.23,2.41-12.78,9.34-15.73,10.76-1.17.56-3.19-.86-3.86-.55-2.02.92-12.61,9.22-13.52,6.9l-.55-49.68,5.52-3.04h-.01Z"/>
          <g>
            <path class="st11" d="M331.05,149.99l.83,43.33-16.28,11.32c-2.21-.61-1.1-39.14-1.38-43.88l16.84-10.76h0Z"/>
            <g>
              <path class="st16" d="M329.39,152.75c4.9,9.79-7.53,11.99-13.25,16.56-.32-.26-.51-7.46-.28-8,.31-.74,12.25-6.62,13.52-8.56h.01Z"/>
              <path class="st31" d="M329.95,162.14c-.13,1.09.91,6.04.83,6.35-.22.83-12.7,8.25-14.63,9.11-3.17-9.23,8.29-10.74,13.8-15.46h0Z"/>
              <path class="st8" d="M329.95,170.42c3.82,9.42-8,10.37-13.25,15.46-4.69-8.61,8.61-10.51,13.25-15.46Z"/>
              <path class="st31" d="M329.39,187.53c1.81-.85,1.69,3.63,1.38,4.69-.37,1.25-13.95,10.22-14.63,9.66-2.97-8.48,8.48-9.55,13.25-14.35Z"/>
              <path class="st31" d="M326.36,188.08c-1.97,1.49-4.48,3.22-6.62,4.42l-.55-6.62c1.89-1.56,3.97-2.65,6.07-3.86l1.1,6.07h0Z"/>
              <path class="st31" d="M326.36,188.08l-1.1-6.07c.95-.55,4.93-4.24,5.52-2.48.78,6.89-.48,5.57-4.42,8.56h0Z"/>
              <path class="st8" d="M319.73,192.5c-.96.54-3.33,2.97-3.86,1.38-.52-6.69-.31-5.02,3.31-8l.55,6.62Z"/>
            </g>
          </g>
        </g>
      </g>
      <g>
        <path class="st16" d="M159.65,170.42l20.42,12.7c-1.27-.76-10.67-6.1-11.32-6.07-1.11.05-1.1,1.71-1.66,1.66-2.04-.22-6.41-3.57-8.56.28-.28.5-1.45,9.62-1.66,11.32-.1.87-.54,2.59-.55,2.76l-1.1-19.87c.9-.89,3.17-2.24,4.42-2.76v-.02Z"/>
        <path class="st22" d="M156.34,193.05c-.19,2.85-.05,5.96,0,8.83-1.54,3.17.18,8.22-.55,11.32-.11.47-1.08.22-1.1.28l-.55-1.1-1.1-37.81c.7-.37,1.66-.84,2.21-1.38l1.1,19.87h0Z"/>
        <path class="st2" d="M156.89,211.26l1.1-2.21c4.94,8.68,16.94,10.89,24.56,17.11,3.39-1.35,3.41-3.06,4.14-6.35l-.55-29.53c.68,1.37,3.13,5.77,3.31,6.9.3,1.87,1.42,35.06-.28,35.6-4.71-3.93-28.94-13.17-31.46-16.56-1.45-1.95-.58-2.98-.83-4.97h.01Z"/>
        <g>
          <path class="st7" d="M180.08,183.11c1.34.8,4.07,1.75,4.97,3.04.12.18.65,3.23,1.1,4.14l.55,29.53c-.73,3.28-.75,5-4.14,6.35-7.62-6.22-19.62-8.43-24.56-17.11-.58-4.24-.83-8.69-.55-12.97.04-.62,3.24-5.45-.55-5.8.2-1.69,1.38-10.82,1.66-11.32,2.15-3.84,6.52-.49,8.56-.28.55.06.55-1.6,1.66-1.66.64-.03,10.04,5.31,11.32,6.07h-.02Z"/>
          <path class="st17" d="M158,209.06l-1.1,2.21c-.31-2.51-.51-6.77-.55-9.38-.05-2.87-.19-5.98,0-8.83,0-.17.45-1.89.55-2.76,3.79.35.59,5.17.55,5.8-.27,4.28-.03,8.73.55,12.97h0Z"/>
          <path class="st17" d="M167.11,184.22c1.6,1.36,11.43,5.14,11.87,6.35s.71,24.85-.28,25.67c-1.63-.53-11.63-5.72-11.87-6.35-.51-1.33-1.01-25.26.28-25.67Z"/>
        </g>
      </g>
      <g>
        <path class="st29" d="M119.36,133.98c37.88,22.07,75.98,43.9,113.99,65.69,1.06,0,.78-.53.83-.55,1.01-.48,5.4-8.02,5.8-7.73l1.38,69.55c-1.22.86-2.49,1.62-3.86,2.21-.03-.09-1.08-.5-1.66-1.1,5.14-4.12-10.16-9.47-12.97-11.59-2.3-1.74-.5-.07-.28-2.21,2.41.98,5.85,3.57,7.73-.83.86-2.01,1.08-35,.55-38.64-1.2-8.31-13.09-13.29-20.15-15.73-.51.77-2.18,1.81-2.48,2.48-1.35,2.98-.83,39.56.55,42.78-4.53-.42-4.78.84-4.42,4.97-2.98-1.79-6.19-3.58-9.38-4.97-.12-3.65-1.31-.07-2.76-3.86v-.55c.34-.2.86.92,1.38.55,2.07-1.46-.75-44.55.28-50.51l-31.19-15.18c-1.08.35-2.06,1.25-3.04,1.66-1.25.52-3.51,1.87-4.42,2.76-.55.54-1.51,1.01-2.21,1.38l1.1,37.81-36.43-21.53c.79-2.05,1.03-11.73,1.1-14.63.32-13.13-.93-26.53-.55-39.74.03-1.01-.55-2.73,1.1-2.48h0Z"/>
        <g>
          <path class="st24" d="M124.6,141.71c2.9-.41,19.37,9.84,20.15,12.97,1.25,5.03.99,28.71.55,34.78-.2,2.75-.19,9.96-3.04,10.76-3.91,1.1-20.75-8.11-21.25-13.52,2.51-11.1-1.95-32.25.55-41.95.22-.87,2.19-2.92,3.04-3.04h0Z"/>
          <g>
            <polygon class="st11" points="125.71 146.13 141.44 155.24 140.61 196.36 125.43 187.8 125.71 146.13"/>
            <path class="st24" d="M126.81,165.45c1.65,2.11,12.41,6.87,12.97,8.56.32.96.52,19.53-.28,20.15-1.71-.73-12.7-6.76-12.97-7.45-1.12-2.83.87-17.26.28-21.25h0Z"/>
            <path class="st24" d="M126.81,148.34c1.94,1.55,13,7.06,13.52,8.56.75,2.14-1.31,11.58-.83,14.63-1.42-1.55-12.67-7.3-12.97-8s-.31-14.7.28-15.18h0Z"/>
          </g>
        </g>
      </g>
      <g>
        <path class="st24" d="M222.58,248.25c-3.7-1.5-12.26-6.35-13.8-9.94-1.38-3.22-1.9-39.8-.55-42.78.3-.67,1.98-1.71,2.48-2.48,7.06,2.44,18.95,7.42,20.15,15.73.53,3.64.3,36.63-.55,38.64-1.87,4.4-5.32,1.81-7.73.83h0Z"/>
        <g>
          <path class="st11" d="M211.82,197.46c.73-.59,14.25,7.32,14.63,8.56,2.35,7.69-1.56,30.25-.28,39.47-1.18.97-13.51-7.39-15.18-9.11l.83-38.92h0Z"/>
          <path class="st24" d="M212.92,199.12c1.23,1.74,12.1,7.25,12.42,8,.28.65.26,13.63-.28,14.08-1.65-.79-12.17-6.24-12.42-6.9-.27-.71-.33-14.73.28-15.18Z"/>
          <path class="st24" d="M213.2,228.93c1.51-2.45,2.83-4.35,2.76-7.45l-3.31.28c.04-1.06-.28-5.11.28-5.52,8.68,5.77,15.94,6.42,11.59,19.32-1.66-1.87-10.53-5.28-11.32-6.62h0Z"/>
          <path class="st24" d="M212.37,230.03c3.5,5.47,15.43,5.17,12.7,13.25-5.71-3-14.29-5.36-12.7-13.25Z"/>
          <path class="st7" d="M213.2,228.93c-.93-1.58-.63-5.25-.55-7.18l3.31-.28c.07,3.1-1.25,5-2.76,7.45h0Z"/>
        </g>
      </g>
      <g>
        <path class="st2" d="M309.25,103.07v43.33c-.3,1.06-3.99,4.56-4.97,5.24-1.23.86-3.62,1.56-4.97,2.21-2,.96-4.18,1.68-5.8,3.31l-1.38-1.38c1.3-.27,1.52-1.21,2.21-1.93,2.99-3.14,7.67-5.25,11.04-8l-.28-41.12-15.73,10.76.55,39.47c-1.89-.73-.46-1.34-2.21-1.93.81-13.54,1.14-28.05-.55-41.12.97-1.38,1.83-1.56,2.76-2.76,4.59-.69,9.06-6.26,12.7-7.73,2.89-1.16,5.24-2.11,6.62,1.66h0Z"/>
        <path class="st2" d="M289.93,154.96c2.35.91,1.97-.85,4.42-1.1-.69.72-.9,1.66-2.21,1.93l1.38,1.38c1.62-1.64,3.8-2.35,5.8-3.31-3.14,2.74-11.39,8.74-13.8,3.04-.81-1.92-1.27-39.04-.55-41.68s1.29-2.02,2.21-3.31c1.69,13.07,1.36,27.59.55,41.12,1.75.59.32,1.2,2.21,1.93h-.01Z"/>
        <g>
          <path class="st11" d="M294.34,153.86c-2.45.25-2.06,2.02-4.42,1.1l-.55-39.47,15.73-10.76.28,41.12c-3.37,2.75-8.05,4.86-11.04,8h0Z"/>
          <g>
            <path class="st31" d="M303.45,108.04c4.51,8.56-6.3,11.27-11.59,15.46-3.42-10.2,5.69-9.96,11.59-15.46Z"/>
            <path class="st31" d="M302.62,139.5c-1.68-.24-4.53,2.43-6.07,3.31.44-.7,3.96-5.99,3.86-6.35s-6.13-2.49-4.97-5.24c1.12-.91,7.55-6.63,8.83-4.69-.57,5.11,1.6,8.44-1.66,12.97h.01Z"/>
            <path class="st31" d="M295.45,143.92c1.87-1.43,4.99-1.38,7.18-4.42,2.07.3,2.23,3.56,1.66,5.24-.25.72-12.34,8.96-12.7,8.28-.57-4.84.18-6.31,3.86-9.11h0Z"/>
            <path class="st31" d="M295.45,131.22c-1.16,2.76,4.86,4.87,4.97,5.24s-3.42,5.64-3.86,6.35c-.84.48-1.03,1.07-1.1,1.1-.39.2-3.67,1.77-3.86,1.38.57-2.56-.77-10.33,0-12.14.16-.39,3.4-1.56,3.86-1.93h-.01Z"/>
            <path class="st31" d="M303.17,117.42v6.62c-1.06,1.6-6.36,4.45-8.28,5.52l-2.21-4.97c.73-1.11,9.36-7.03,10.49-7.18h0Z"/>
            <path class="st8" d="M292.69,124.6l2.21,4.97c-.57.32-1.93,2.29-3.31,1.93-.05-3.54-.45-4.55,1.1-6.9h0Z"/>
            <path class="st31" d="M303.17,124.05v-6.62l1.1.28c.04,3.12.46,4-1.1,6.35h0Z"/>
            <path class="st11" d="M302.62,139.5c-2.18,3.04-5.3,2.99-7.18,4.42.07-.04.27-.63,1.1-1.1,1.54-.88,4.39-3.55,6.07-3.31h0Z"/>
          </g>
        </g>
      </g>
      <g>
        <path class="st18" d="M226.45,23.58c0,1.89.28,14.47.55,15.18.47,1.22,9.78,4.6,11.04,4.69,1,.07,1.16.14,2.21,0,1.27,1.42,4.65,1.53,6.35,1.66.91.07,15.58,1.23,13.25-1.1-3.66-.7-5.6-3.39-9.66-3.31-.56-1.05.55-3.58.55-3.86l45.82,25.39c.06.44.37.66.55,1.1-2.12.85-.63,4.41-1.1,5.8s-5.57,3.14-5.52,3.86c9.61,6,20.6,8.61,31.74,10.21,4.65.67,9.05-.09,13.52,1.66,7.12,3.86,15.43,7.64,22.08,12.14l-65.96-11.04.83,3.04c-20.03,34.5-40.72,68.65-60.17,103.5-40.33-23.68-81.91-45.46-121.99-69.55-2.35-1.41-4.23-2.17-6.62-3.86l1.1-2.21,125.03,70.1,57.68-97.7,2.21-2.48-.28-1.38L161.31,8.68c5.64-.23,47.52,6.43,53.27,8.28,3.23,1.04,8.09,5.71,11.87,6.62Z"/>
        <path class="st10" d="M161.31,8.68l128.34,76.73.28,1.38-2.21,2.48L161.59,13.65l-1.38.28c-6.45,12.25-13.55,24.16-20.42,36.16l-2.76-.55c7.84-13.75,14.64-28.26,23.46-41.4.88-.28.78.55.83.55h0Z"/>
        <path class="st12" d="M357.82,97c4.17,2.82,5.19.32,3.31,6.07l-64.86-11.59c-3.27-.05-3.9-.27-4.69,3.31-16.82,30.5-37.96,60.63-53.54,91.63-1.06,2.12-3.38,4.16-3.86,6.62-1.34,1.13-1.3-.34-1.66-.55,19.44-34.85,40.14-69,60.17-103.5l-.83-3.04,65.96,11.04h0Z"/>
        <path class="st40" d="M139.78,50.08c-12.45,21.72-24.28,43.83-36.98,65.41l2.21,1.38-1.1,2.21c-1.37-.97-3.65-.98-4.42-3.59,12.26-22.13,25.01-43.99,37.54-65.96l2.76.55h0Z"/>
        <path class="st25" d="M361.13,103.07c-.1.29.95,1.15.55,1.93-5.29,1.25-13.69-5.73-13.25,2.48-.11-1.36.08-2.77,0-4.14l-53.27-9.66-3.59,1.1c.8-3.59,1.42-3.36,4.69-3.31l64.86,11.59h.01Z"/>
        <path class="st18" d="M297.1,63.33c1.36,3.35-.39,7.4.55,10.21.2.6,10.41,6.26,11.04,6.35,3.29.44,9.84-3.76,11.59-3.86,1.41-.08,13.15,7.58,15.46,8.83-4.47-1.75-8.88-.99-13.52-1.66-11.14-1.6-22.13-4.21-31.74-10.21-.05-.73,5.04-2.45,5.52-3.86s-1.02-4.94,1.1-5.8Z"/>
        <path class="st19" d="M250.18,40.7c4.06-.07,6,2.62,9.66,3.31,2.33,2.34-12.34,1.17-13.25,1.1-1.69-.13-5.08-.24-6.35-1.66,3.22-.43,6.7-2.7,9.94-2.76h0Z"/>
        <g>
          <path class="st36" d="M287.72,89.27l-57.68,97.7-125.03-70.1-2.21-1.38c12.71-21.58,24.53-43.69,36.98-65.41,6.88-12,13.97-23.91,20.42-36.16l1.38-.28,126.13,75.62h0Z"/>
          <g>
            <path class="st40" d="M206.57,144.47v-.55l27.6-40.85c1.11-.64,2.19-1.58,3.31-2.21.82,2.08,5.24,7.61,4.97,10.21l-32.02,46.37-2.21,1.1c.07-4.62-1.57-9.55-1.66-14.08h.01Z"/>
            <g>
              <path class="st18" d="M223.69,60.57c4.83,12.83,8.77,25.78,13.8,38.64l-24.01,9.38c-1.98-.3-13.36-19.81-15.73-22.63,3.99-2.51,21.52-25.89,23.46-26.5,1.68-.53,1.04,1.43,2.48,1.1h0Z"/>
              <path class="st10" d="M220.37,54.5l-24.84,28.15-26.5-9.38c1.98-1.89,48.6-18.84,51.34-18.77Z"/>
              <path class="st12" d="M196.64,84.86c.32.33.94.91,1.1,1.1,2.37,2.82,13.76,22.33,15.73,22.63l24.01-9.38c.15.39-.15,1.27,0,1.66-1.13.63-2.21,1.57-3.31,2.21-1.74,1-3.73,1.82-5.52,2.76-5.09,2.68-10.5,4.85-15.18,8.28-.44-.73-1.39-1.11-1.93-1.66-5.28-5.37-12.05-20.85-17.11-25.39l2.21-2.21h0Z"/>
              <path class="st18" d="M223.69,60.57c-1.44.32-.8-1.63-2.48-1.1-1.94.61-19.47,23.98-23.46,26.5-.16-.19-.78-.78-1.1-1.1-.47-.48-1.2-1.43-1.1-2.21l24.84-28.15c.58.02.72-.89,1.1-.28.68,2.14,1.42,4.25,2.21,6.35h0Z"/>
              <path class="st1" d="M172.9,101.42c.11,1.02,1.34.21,1.66.83.56,1.09-1.58.66-1.66,1.1-2.12,12.2,5.38,13.89,13.8,20.15-.32.93-1.68.22-.55,2.76-4.68-3.66-11.47-6.41-16.56-9.66,0-7.84.67-15.65,1.1-23.46l1.66,1.38,1.1-2.76c.39,2.6-.8,7.38-.55,9.66h0Z"/>
              <path class="st28" d="M169.04,73.26l26.5,9.38c-.09.78.63,1.73,1.1,2.21l-2.21,2.21c-4.14-3.71-17.88-6.53-23.18-9.94-1.24-.8-2.25-2.03-3.31-3.04-.19-1.22.98-.71,1.1-.83h0Z"/>
              <path class="st25" d="M234.17,103.07l-27.6,40.85c0-2.19.99-3.51,1.1-6.07,3.57-5.03,4.72-14.79,7.73-19.6,2.5-3.99,10.55-7.94,13.25-12.42,1.79-.94,3.78-1.76,5.52-2.76Z"/>
              <path class="st29" d="M207.68,137.85c.37-8.1.45-18.19,3.86-25.39.54.55,1.49.93,1.93,1.66,4.68-3.43,10.09-5.6,15.18-8.28-2.69,4.48-10.75,8.43-13.25,12.42-3.01,4.81-4.16,14.57-7.73,19.6h0Z"/>
              <g>
                <path class="st24" d="M186.7,123.5c-8.42-6.26-15.92-7.95-13.8-20.15.08-.44,2.22-.01,1.66-1.1-.32-.62-1.55.19-1.66-.83,2.22.26,1.5-.44,1.66-1.93.56-5.21-2.55-15.8,5.8-11.32.53.29,8.39,7.98,8.56,8.56.79,2.7-1.09,23.54-2.21,26.77h0Z"/>
                <path class="st11" d="M177.59,92.03l9.11,8c-2.08,2.07-3.57-3.07-6.07-2.21,1.72,2.12-.05,7.71.55,9.38.12.34,7.11,5.45,3.04,5.24-.23-.01-1.95-3.74-3.04-3.59-.92,3.97,1.92,6.25,3.04,9.66l-8-6.35,3.31.55c-1.03-4.68.95-12.95,0-17.11-.17-.75-3.16-1.89-1.93-3.59v.02Z"/>
              </g>
              <g>
                <path class="st29" d="M194.43,87.06c5.06,4.54,11.83,20.02,17.11,25.39-3.41,7.2-3.49,17.29-3.86,25.39-.12,2.56-1.12,3.88-1.1,6.07v.55c-2.54-1.94-15.1-8.77-16.28-10.49-1.68-2.44-.23-4.24-.83-5.8-.31-.81-2.54-1.33-3.31-1.93-1.12-2.54.23-1.83.55-2.76,1.12-3.23,2.99-24.08,2.21-26.77-.17-.58-8.02-8.27-8.56-8.56-8.35-4.48-5.23,6.1-5.8,11.32-.16,1.49.56,2.19-1.66,1.93-.25-2.28.94-7.06.55-9.66l-1.1,2.76-1.66-1.38c.3-5.37,1.13-10.61.55-16.01,5.31,3.41,19.05,6.22,23.18,9.94h.01Z"/>
                <g>
                  <path class="st24" d="M194.15,106.38c2.39-1.02,11.85,7.21,12.42,9.11s-1.27,24.73-2.48,25.12l-12.97-10.76c1.38-3.5.92-22.55,3.04-23.46h0Z"/>
                  <g>
                    <path class="st11" d="M195.26,111.35c1.76-.03,9.02,6.87,9.11,7.45.24,1.55-1.51-.36-1.66.55-.58,3.53.33,9.36-.55,13.25-1.24-2.48.5-6.38-3.31-7.18-.92,2.82,3.3,4.66,0,4.97l3.59,5.24-8.56-6.9,3.86.55c-1.93-5.91,1.51-12.92-2.48-17.94h0Z"/>
                    <path class="st24" d="M199.12,115.77c4.54,2.55,2.85,6,2.76,10.49-2.34-.63-3.97-9.56-2.76-10.49Z"/>
                  </g>
                </g>
              </g>
            </g>
          </g>
        </g>
      </g>
    </g>
  </g>
</svg>