<?xml version="1.0" encoding="UTF-8"?>
<svg id="Layer_1" xmlns="http://www.w3.org/2000/svg" version="1.1" viewBox="0 0 1920 1080">
  <!-- Generator: Adobe Illustrator 29.5.0, SVG Export Plug-In . SVG Version: 2.1.0 Build 137)  -->
  <defs>
    <style>
      .st0 {
        fill: #e8a753;
      }

      .st1 {
        fill: #682d08;
      }

      .st2 {
        fill: #a1521e;
      }

      .st3 {
        fill: #f1ca91;
      }

      .st4 {
        fill: #f3bc6e;
      }

      .st5 {
        fill: #fce2a8;
      }

      .st6 {
        fill: #af6329;
      }

      .st7 {
        fill: #cf8a4d;
      }

      .st8 {
        fill: #e19644;
      }

      .st9 {
        fill: #c17a37;
      }
    </style>
  </defs>
  <g id="Generative_Object">
    <g>
      <path class="st4" d="M659.14,587.97l2.46,1.84c-29.65,18.54-59.08,37.53-88.44,56.51,1.92-29.57-2.57-62.34,0-91.51,39.28-2,78.71-3.48,117.92-6.76.57-.05,2.02-1.22,2.15-1.23,10.35-.89,21.12-.09,31.32-2.46l-139.73,88.75,18.12-9.52c18.45-12.33,37.42-23.83,56.2-35.62Z"/>
      <path class="st9" d="M760.48,543.13c-.5,2.48-4.86.75-6.45,1.23-.37.11-5.53,3.73-6.45,4.3l-148.63,89.67-7.37,3.07c-.14-.82.5-1.98-.92-1.84l-13.21,8.6h-3.07c-.04-.1-1.72-.62-1.23-1.84,29.36-18.98,58.8-37.97,88.44-56.51,23.04-14.41,46.44-28.32,69.71-42.38,2.94-3.14,1.04-3.62-2.46-3.07-6.67,1.05-59.5,37.2-69.71,43.61-18.78,11.79-37.75,23.3-56.2,35.62l-18.12,9.52,139.73-88.75c-10.2,2.36-20.97,1.56-31.32,2.46-.13.01-1.58,1.18-2.15,1.23l-46.37-1.23c-.92-1.56.35-1.07,1.23-1.23,4.29-.78,14.22-.41,19.35-.61,31.75-1.27,63.41-1.56,95.2-1.84Z"/>
      <path class="st9" d="M665.28,544.97c-5.13.21-15.06-.16-19.35.61-.88.16-2.15-.33-1.23,1.23l46.37,1.23c-39.21,3.27-78.65,4.76-117.92,6.76.14-1.61-.1-3.3,0-4.91.91.06.46-1.25.92-1.23,21.83.9,43.87-1.92,65.72-1.23l3.07-1.84-72.78,2.46c-.74-.83-.75-1-.61-2.15l2.46-.92h93.36Z"/>
      <path class="st6" d="M577.45,648.16h27.64l-.31,3.69-14.74-.61c-3.67,8.73,21.45.62,18.12,7.06l-15.35,1.23c-1.27,5.73,18.6-.39,18.43,5.22-4.8.11-9.63-.08-14.43,0-1.92,8.66,17.58-1.01,17.5,6.76-6.95.03-14-.3-20.88.61-4.14-4.74-16.98-19.15-19.04-23.95h3.07Z"/>
      <path class="st6" d="M710.73,648.16c87.83,0,177.06-2,264.71,0,2.12.05,4.1-.19,6.14.61-3.83,7.53-13.44,15.34-18.12,22.72-6.44.09-12.91-.12-19.35,0,.84-6.2,16.3-.39,15.97-5.22-.25-3.62-16.5.65-13.21-3.38,2.04-2.49,19.1,2.75,15.97-4.3l-11.67.61c-2.76-7.75,14.13.03,16.89-7.06-.52-1.5-30.14-2.69-31.63-2.15-7.5,2.72,15.96,1.88,16.28,2.76,1.45,4.12-17.63,2.33-18.73,2.76-9.85,3.86,15.52,2.56,15.66,3.99-.39,3.94-23.9.22-20.27,4.91,1.31,1.69,19.16-2.01,17.2,2.46-.49,1.12-15.6,2.02-17.5,1.54-1.17-.29.07-4.32-2.76,3.07-99.26.84-198.61-.16-297.88,0,1.63-10.06-15.45,1.42-14.74-6.76,4.07-.1,8.23.32,12.28-.31,3.42-4.27-18.2-2.62-18.43-3.69,5.01-3.6,9.75-2.79,15.66-2.76l-2.76-9.83h90.29Z"/>
      <path class="st4" d="M863.05,547.43c37.33,2.99,75.88,6.46,113.32,7.37,2.09.05,4.69.4,6.45-1.23,2.94,30-.92,62.48.61,92.74-2.21-.2-4.32-2.4-6.14-3.69.56-2.34-4.11-5.88-1.84-6.45-4.88-2.5-8.85-6.45-13.21-9.52-34.09-24-77.6-48.37-114.24-71.25-2.35-1.47-15.9-8.43-16.58-9.21-.43-.49-.55-1.57,0-1.84,10.47,1.61,21.09,2.23,31.63,3.07Z"/>
      <path class="st9" d="M824.35,546.82c43.53,22.87,94.31,57.66,136.35,84.76,5.59,3.6,11.15,7.21,16.58,11.06,1.82,1.29,3.93,3.49,6.14,3.69.08,1.01-1.77,2.32-1.84,2.46-2.04-.81-4.03-.57-6.14-.61-1.63-2.96-6.14-3.86-9.21-5.53-2.11-1.15-4.08-2.56-6.14-3.69-51.5-27.95-102.05-65.19-153.55-90.9-1.01-.51-4.03-1.85-4.3-3.07l14.13-1.84c.2,0,.41,0,.61,0,.76,2.41,5.2,2.54,7.37,3.69Z"/>
      <path class="st9" d="M874.72,544.97c4.88-.09,9.86-.09,14.74,0-.52,1,1.84,1.8,2.15,1.84,27.77,3.9,62.72-1.38,91.21,2.46.1,1.41-.14,2.9,0,4.3-1.76,1.63-4.36,1.28-6.45,1.23-37.44-.91-75.99-4.38-113.32-7.37-.74-4.01,8.94-2.4,11.67-2.46Z"/>
      <path class="st1" d="M944.12,671.5c-5.92.11-11.89-.05-17.81,0,2.84-7.39,1.59-3.37,2.76-3.07,1.91.48,17.01-.41,17.5-1.54,1.96-4.47-15.89-.76-17.2-2.46-3.63-4.69,19.88-.97,20.27-4.91-.14-1.44-25.51-.13-15.66-3.99,1.1-.43,20.19,1.36,18.73-2.76-.31-.88-23.78-.04-16.28-2.76,1.49-.54,31.12.65,31.63,2.15-2.76,7.09-19.65-.68-16.89,7.06l11.67-.61c3.13,7.05-13.93,1.81-15.97,4.3-3.29,4.03,12.96-.25,13.21,3.38.33,4.83-15.13-.98-15.97,5.22Z"/>
      <path class="st1" d="M611.23,664.74c.82-.02,1.6.02,2.46,0-.71,8.18,16.37-3.3,14.74,6.76-4.7,0-9.43-.02-14.13,0,.08-7.77-19.43,1.9-17.5-6.76,4.81-.08,9.64.11,14.43,0Z"/>
      <path class="st0" d="M661.59,589.81l-2.46-1.84c10.21-6.41,63.04-42.56,69.71-43.61,3.5-.55,5.4-.07,2.46,3.07-23.27,14.05-46.67,27.97-69.71,42.38Z"/>
      <path class="st4" d="M806.54,548.04c51.5,25.71,102.04,62.95,153.55,90.9-36.81-1.4-73.75-.39-110.55,0-83.49.89-166.97.35-250.59-.61l148.63-89.67c17.83-1.92,38.86,2.33,56.2.61,1.58-.16,1.57-.44,2.76-1.23Z"/>
      <path class="st4" d="M598.95,638.33c83.61.97,167.1,1.5,250.59.61.46,2.89-1.15,3.63-2.46,5.53-41.18.33-82.28.21-123.45,0-44.11-.22-88.23-.93-132.36-.61-1.04-.92.38-2.04.31-2.46l7.37-3.07Z"/>
      <path class="st4" d="M591.58,641.4c.07.41-1.35,1.54-.31,2.46,44.13-.31,88.25.39,132.36.61.51,5.65-10.98-.08-12.9,3.69h-133.28l13.21-8.6c1.42-.14.78,1.03.92,1.84Z"/>
      <path class="st1" d="M620.44,648.16l2.76,9.83c-5.91-.02-10.66-.83-15.66,2.76.23,1.06,21.85-.58,18.43,3.69-4.05.63-8.21.21-12.28.31-.85.02-1.64-.02-2.46,0,.17-5.61-19.7.51-18.43-5.22l15.35-1.23c3.34-6.45-21.79,1.67-18.12-7.06l14.74.61.31-3.69h15.35Z"/>
      <path class="st0" d="M975.44,648.16c-87.65-2-176.89,0-264.71,0,1.92-3.77,13.41,1.96,12.9-3.69,41.17.21,82.27.33,123.45,0,37.48-.3,79.61,1.36,116.39-.61,1.17-.06,2.31.34,2.76-1.23,3.07,1.67,7.58,2.56,9.21,5.53Z"/>
      <path class="st9" d="M874.72,544.97c-2.73.05-12.41-1.56-11.67,2.46-10.54-.84-21.16-1.46-31.63-3.07-.55.27-.43,1.35,0,1.84.68.78,14.23,7.74,16.58,9.21,36.64,22.87,80.15,47.24,114.24,71.25,4.35,3.07,8.33,7.02,13.21,9.52-2.27.57,2.4,4.11,1.84,6.45-5.43-3.84-10.99-7.45-16.58-11.06-1.43-2.06.67-2.63.61-2.76-.81-2.01-28.2-16.8-32.24-19.35-31.15-19.61-66.42-46.29-98.88-61.42-.31-.14-3.63-4.67-5.83-1.23-2.17-1.14-6.61-1.27-7.37-3.69,17.31.26,38.18-.84,54.97.61,1,.09,2.24.2,2.76,1.23Z"/>
      <path class="st4" d="M960.09,638.94c2.06,1.12,4.03,2.54,6.14,3.69-.45,1.57-1.59,1.17-2.76,1.23-36.78,1.98-78.9.32-116.39.61,1.31-1.9,2.92-2.64,2.46-5.53,36.8-.39,73.74-1.4,110.55,0Z"/>
      <path class="st0" d="M960.7,631.57c-42.04-27.1-92.82-61.89-136.35-84.76,2.21-3.44,5.52,1.08,5.83,1.23,32.47,15.13,67.73,41.81,98.88,61.42,4.04,2.55,31.44,17.34,32.24,19.35.05.13-2.04.71-.61,2.76Z"/>
    </g>
    <g>
      <path class="st4" d="M575.61,412.31c28.34,19.34,56.78,37.82,85.99,55.89,23.65,14.63,48.78,32.11,73.7,44.22l5.53,3.99c-.28.58-7.27.28-8.6.31l-148.33-94.58c-.34,1.85,4.2,4.57,5.53,5.53,18.54,13.39,39.68,26.76,58.96,39.31,26.51,17.25,53.34,34,80.77,49.75-51.96.59-104.06.07-156-.61v-105.03c.6.78,2.17,1.03,2.46,1.23Z"/>
      <path class="st4" d="M983.43,411.08v105.64c-44.39-4.96-107.56.23-154.16,0,.04-1.52,2.82-2.98,3.99-3.69,32.38-19.39,64.41-39.2,95.81-60.19,6.71-4.48,44.08-28.65,46.37-32.55.56-.96,1.3-2.96,0-3.69,2.68-2,5.78-4.29,7.37-7.37.21.27-.49,1.83.61,1.84Z"/>
      <path class="st9" d="M576.22,408.62l7.98,3.69,171.36,104.41c-11.5.43-10.83.29-20.27-4.3-24.92-12.11-50.05-29.59-73.7-44.22.5-3.7-1.27-4.11-3.99-6.14-18.98-14.2-55.39-37.48-76.16-48.52-1.17-.62-4.59-2.41-5.83-1.23-.28-.19-1.86-.44-2.46-1.23l.31-2.46h2.76Z"/>
      <path class="st6" d="M982.81,409.24c-1.59,3.08-4.69,5.37-7.37,7.37-32.69,24.42-75.18,48.85-110.55,70.02l-.31-3.07,110.86-71.86c2.18-1.03,4.3-.64,3.69-3.69,1.95.26,2.14-.74,3.69,1.23Z"/>
      <path class="st9" d="M661.59,468.2c-29.21-18.07-57.65-36.55-85.99-55.89,1.25-1.18,4.67.61,5.83,1.23,20.77,11.04,57.18,34.32,76.16,48.52,2.72,2.03,4.5,2.44,3.99,6.14Z"/>
      <path class="st9" d="M732.23,516.72c-1.02.02-2.05-.01-3.07,0-27.42-15.75-54.26-32.5-80.77-49.75-19.28-12.55-40.42-25.92-58.96-39.31-1.33-.96-5.87-3.68-5.53-5.53l148.33,94.58Z"/>
      <path class="st4" d="M975.44,420.29l-151.09,96.43c-1.92-.02-9.58.8-7.98-1.23,12.28-4.44,36.09-21.43,48.52-28.87,35.38-21.17,77.87-45.59,110.55-70.02,1.3.72.56,2.73,0,3.69Z"/>
      <path class="st9" d="M975.44,420.29c-2.29,3.91-39.66,28.07-46.37,32.55-31.4,21-63.43,40.8-95.81,60.19-1.17.7-3.96,2.17-3.99,3.69-1.63,0-3.28.02-4.91,0l151.09-96.43Z"/>
      <path class="st8" d="M971.76,412.92c-58.73,29.13-114.02,73.72-172.89,103.18h-7.06c-2.67-.91.65-1.72-1.84-1.84-.02-.2.02-.41,0-.61-.27-2.22-3.63-.64-4.91-.61-3.39.06-4.31.32-7.37.61-.76-.84-2.55-1.13-3.07,0-1.09.11-4.04-.85-6.14,0-3.15,1.28-2.31,2.87-2.76,3.07-.84.38-8.27-.07-10.13,0l-171.36-104.41,387.55.61Z"/>
      <path class="st9" d="M975.44,411.7l-110.86,71.86.31,3.07c-12.43,7.44-36.24,24.42-48.52,28.87-4.28,1.55-20.21,2.1-24.57.61h7.06c58.87-29.46,114.17-74.06,172.89-103.18,1.26-.63,2.53-.68,3.69-1.23Z"/>
      <path class="st9" d="M777.67,513.65c-1,.1-2.07-.1-3.07,0,.53-1.13,2.31-.84,3.07,0Z"/>
    </g>
    <g>
      <path class="st6" d="M573.15,549.89c-.18-.01-2.95-1.71-3.07-1.84l72.78-2.46-3.07,1.84c-21.85-.69-43.89,2.13-65.72,1.23-.46-.02-.01,1.28-.92,1.23Z"/>
      <path class="st5" d="M801.01,540.67l185.48,1.23c-.27,3.22,2.97,6.37-3.07,6.76-27.41,1.74-65.13-3.16-93.97-3.69-4.88-.09-9.86-.09-14.74,0-.53-1.03-1.77-1.14-2.76-1.23-16.79-1.46-37.66-.35-54.97-.61-.2,0-.41,0-.61,0-8.49-.13-17.03.53-25.49-.61-.4-.05-.23,1.35-.61,1.23-7.68-2.37,9.3-5.29,10.75-3.07Z"/>
      <path class="st5" d="M796.1,533.92c20.08-.51,41.47,2.09,61.73,2.46,43.04.78,86.26.34,129.29,0,0,1.21.07,2.48,0,3.69l-152.01-.61c-11.35-.89-22.74-1.63-34.09-2.46-3.54-.26-7.19.19-10.75,0-3.33-5.34,3.25-3,5.83-3.07Z"/>
      <path class="st5" d="M808.38,525.32c59.49,1.39,119.18,2.02,178.73.61.27.92-.09,3.06,0,4.3l-197.15-2.46c.02-.15-1.46-1.95-.31-3.07,6.27,0,12.47.47,18.73.61Z"/>
      <path class="st5" d="M791.8,516.11c4.36,1.49,20.29.93,24.57-.61-1.59,2.03,6.06,1.21,7.98,1.23,1.63.02,3.28,0,4.91,0,46.6.23,109.77-4.96,154.16,0,5.41.6,2.68.91,3.07,3.07l-191.63-.61c-8.16.62-4.52-1.41-4.91-4.91,2.5.13-.83.93,1.84,1.84Z"/>
      <path class="st5" d="M794.87,520.41c6.72-.18,13.85,1.1,20.58,1.23,57.15,1.06,114.58-.29,171.67-.61-.06,1.75.53,2.54-1.23,3.69-59.47-1.33-119.36,2.18-178.73-1.23-2.56-.15-17.3-.78-17.81-1.54.24-2.32,3.58-1.48,5.53-1.54Z"/>
      <path class="st5" d="M987.11,531.46c.06,1.22-.04,2.47,0,3.69-31.97-1.74-64.17.36-96.12,0-29.85-.34-65.59,0-94.89-3.07-4.91-.52-5.1.37-6.14-3.07l197.15,2.46Z"/>
      <path class="st9" d="M987.11,535.15c.01.41,0,.82,0,1.23-43.03.34-86.24.78-129.29,0-20.26-.37-41.65-2.97-61.73-2.46v-1.84c29.3,3.08,65.05,2.73,94.89,3.07,31.95.36,64.15-1.74,96.12,0Z"/>
      <path class="st7" d="M986.5,519.79c.01.07.66-.29.61,1.23-57.08.32-114.51,1.67-171.67.61-6.72-.12-13.85-1.41-20.58-1.23v-1.23l191.63.61Z"/>
      <path class="st7" d="M985.88,524.71c1.59-.23.99.43,1.23,1.23-59.55,1.4-119.24.77-178.73-.61l-1.23-1.84c59.37,3.41,119.26-.1,178.73,1.23Z"/>
      <path class="st9" d="M987.11,530.23c.03.4-.02.82,0,1.23l-197.15-2.46c-.31-1.02-.11-.25,0-1.23l197.15,2.46Z"/>
      <path class="st9" d="M987.11,540.06c-.06,1.15-.57,1.32-.61,1.84l-185.48-1.23c-.36-2.5-10.44-1.28-10.44-2.15l10.44-1.54c11.35.82,22.74,1.56,34.09,2.46l152.01.61Z"/>
      <path class="st2" d="M983.43,548.66l-.61.61c-28.49-3.84-63.44,1.44-91.21-2.46-.3-.04-2.67-.84-2.15-1.84,28.84.53,66.56,5.42,93.97,3.69Z"/>
      <g>
        <path class="st5" d="M755.56,516.72c1.87-.07,9.29.38,10.13,0,.45-.2-.38-1.8,2.76-3.07l.61,29.17c-.84,1.89-7.28.3-8.6.31-31.79.28-63.45.57-95.2,1.84h-93.36v-1.84c1.13.22,8.92-1.22,10.75-1.23,51.7-.33,110.02,2.24,160.92-2.46,7.19-.66,16.22-2.4,23.03-3.99-7.89-1.49-17.3,1.55-25.49,2.15-48.09,3.54-121.01,6.56-168.29,2.46-1-.09-2.24-.2-2.76-1.23.08-.1,2.33-.05,1.84-1.84,64.87-.72,131.82,1.18,195.31-4.61-.08-1.53-1-1.44-2.15-1.54-10.86-.91-30.33,2.67-42.38,3.07-49.41,1.66-99.13.2-148.63,1.23l-2.76-2.76c64.82-2.89,130.5,1.77,195.31-4.3-64.85.93-129.86,3.12-194.7,1.54l.61-2.46c64.82-2.29,130.26,2.01,194.7-3.38l-196.23.92-.92-.92c1.22-.68,1.67.38,1.84-1.54,65.07-1.93,130.33,1.07,195.31-2.15l-196.54-1.54c.36-.8,2.09-1.42,2.46-2.46,51.95.68,104.04,1.2,156,.61,1.02-.01,2.05.02,3.07,0,1.33-.03,8.32.27,8.6-.31l-5.53-3.99c9.44,4.59,8.77,4.73,20.27,4.3Z"/>
        <g>
          <path class="st9" d="M571.92,536.99c-4.17-3.57-4.07-3.75,0-7.37,64.83,1.58,129.85-.61,194.7-1.54-64.81,6.07-130.49,1.41-195.31,4.3l2.76,2.76c49.51-1.03,99.23.43,148.63-1.23,12.05-.41,31.52-3.98,42.38-3.07,1.15.1,2.07,0,2.15,1.54-63.49,5.79-130.44,3.89-195.31,4.61Z"/>
          <path class="st7" d="M571.92,522.25c-.17,1.91-.62.86-1.84,1.54l.92.92,196.23-.92c-64.44,5.39-129.88,1.09-194.7,3.38l-3.69-2.15c-.38-1.76,1.65-3.16,3.07-2.76Z"/>
          <path class="st9" d="M571.92,543.13c-.18-.04-2.34-1.97-3.07-2.15-.24-.66.85-1.68,1.23-2.15.53,1.03,1.77,1.14,2.76,1.23,47.28,4.1,120.2,1.08,168.29-2.46,8.19-.6,17.6-3.64,25.49-2.15-6.81,1.59-15.84,3.33-23.03,3.99-50.9,4.7-109.22,2.13-160.92,2.46-1.83.01-9.61,1.45-10.75,1.23Z"/>
          <path class="st7" d="M571.92,522.25c.14-1.62-2.32-1.23-1.23-3.69l196.54,1.54c-64.98,3.22-130.25.22-195.31,2.15Z"/>
          <path class="st9" d="M762.63,538.83c.81.01,2.88-.28,3.38.31,2.46,2.87-11.73,1.35-12.9,1.23,2.25-.83,7.32-1.56,9.52-1.54Z"/>
        </g>
      </g>
      <path class="st6" d="M789.96,513.65c.02.2-.02.41,0,.61.39,3.5-3.25,5.53,4.91,4.91v1.23c-1.95.05-5.29-.78-5.53,1.54.52.76,15.25,1.39,17.81,1.54l1.23,1.84c-6.26-.15-12.47-.62-18.73-.61-1.15,1.12.32,2.92.31,3.07-.11.98-.31.21,0,1.23,1.04,3.44,1.24,2.56,6.14,3.07v1.84c-2.58.07-9.17-2.27-5.83,3.07,3.56.19,7.21-.26,10.75,0l-10.44,1.54c0,.87,10.08-.35,10.44,2.15-1.45-2.22-18.43.7-10.75,3.07.39.12.21-1.28.61-1.23,8.46,1.15,16.99.49,25.49.61l-14.13,1.84c-4.64-1.64-9.99.26-14.43-.61-.52-.1-.25-1.2-.31-1.23-.09-2.54.12-5.13,0-7.68-.04-.93,0-1.09,0-1.23-.17-5.19-.98-14.16,0-19.04.44-2.18.22-1.53,2.46-1.54Z"/>
      <path class="st3" d="M789.96,513.65c-2.24,0-2.02-.65-2.46,1.54-.98,4.88-.17,13.85,0,19.04,0,.14-.04.3,0,1.23.12,2.55-.09,5.13,0,7.68-.14-.06-2.21,1.62-3.07-.31s1.25-2.32,1.23-2.46c-.07-.49-1.2-.14-1.23-.61-.55-8.34,1.58-18.12.61-26.72,1.28-.02,4.64-1.61,4.91.61Z"/>
      <g>
        <path class="st9" d="M785.05,513.04c.97,8.6-1.17,18.37-.61,26.72.03.48,1.16.13,1.23.61.02.14-2.1.49-1.23,2.46s2.93.25,3.07.31c.06.02-.21,1.13.31,1.23,4.45.87,9.8-1.03,14.43.61.27,1.22,3.29,2.57,4.3,3.07-1.19.79-1.18,1.07-2.76,1.23-17.34,1.71-38.37-2.53-56.2-.61.92-.57,6.08-4.19,6.45-4.3,1.59-.48,5.95,1.25,6.45-1.23,1.32-.01,7.76,1.58,8.6-.31l-.61-29.17c2.1-.85,5.05.11,6.14,0,.46,3.78-.98,29.33.92,30.1.38.15,1.88.11,2.15-.31-.89-4.37,1.99-27.6,0-29.79,3.06-.29,3.98-.55,7.37-.61Z"/>
        <path class="st5" d="M777.67,513.65c1.99,2.18-.89,25.42,0,29.79-.27.42-1.77.46-2.15.31-1.9-.76-.46-26.31-.92-30.1,1-.1,2.07.1,3.07,0Z"/>
        <path class="st5" d="M781.36,542.52v-27.64c.08-.05-.1-2.17,1.54-1.23,1.96,1.13.42,25.16.92,29.17l-2.15.92-.31-1.23Z"/>
        <path class="st5" d="M770,514.88l1.54,13.82-.92,15.05c-.56-9.57-.34-19.27-.61-28.87Z"/>
        <path class="st2" d="M781.36,514.88v27.64l-1.23-27.95c.23-.78.86.54,1.23.31Z"/>
      </g>
    </g>
  </g>
</svg>