<?xml version="1.0" encoding="UTF-8"?>
<svg id="Layer_1" xmlns="http://www.w3.org/2000/svg" version="1.1" xmlns:xlink="http://www.w3.org/1999/xlink" viewBox="0 0 496.5 525">
  <!-- Generator: Adobe Illustrator 29.5.0, SVG Export Plug-In . SVG Version: 2.1.0 Build 137)  -->
  <defs>
    <style>
      .st0 {
        fill: url(#linear-gradient2);
      }

      .st1 {
        fill: #b65c05;
      }

      .st2 {
        fill: #820338;
      }

      .st3 {
        fill: #fd96b9;
      }

      .st4 {
        fill: url(#linear-gradient1);
      }

      .st5 {
        fill: #f22e76;
      }

      .st6 {
        fill: #feefbf;
      }

      .st7 {
        fill: #fecde8;
      }

      .st8 {
        fill: #f65daa;
      }

      .st9 {
        fill: #fdca4b;
      }

      .st10 {
        fill: #fede7d;
      }

      .st11 {
        fill: #fee4a3;
      }

      .st12 {
        fill: #fc6e98;
      }

      .st13 {
        fill: #fb4a8d;
      }

      .st14 {
        fill: #cc802e;
      }

      .st15 {
        fill: #9f5306;
      }

      .st16 {
        fill: url(#linear-gradient3);
      }

      .st17 {
        fill: #b10145;
      }

      .st18 {
        fill: #e69a4d;
      }

      .st19 {
        fill: #c16c1e;
      }

      .st20 {
        fill: #edb75c;
      }

      .st21 {
        fill: #fcacd2;
      }

      .st22 {
        fill: #fd95d5;
      }

      .st23 {
        fill: #d10e58;
      }

      .st24 {
        fill: url(#linear-gradient);
      }

      .st25 {
        fill: #fdf4fc;
      }
    </style>
    <linearGradient id="linear-gradient" x1="-268.15" y1="337.2" x2="-83.86" y2="426.99" gradientTransform="translate(338.07 68.29) scale(.91)" gradientUnits="userSpaceOnUse">
      <stop offset="0" stop-color="#fec74b"/>
      <stop offset="1" stop-color="#e8a538"/>
    </linearGradient>
    <linearGradient id="linear-gradient1" x1="33.68" y1="378.52" x2="-105.35" y2="411.94" gradientTransform="translate(338.07 68.29) scale(.91)" gradientUnits="userSpaceOnUse">
      <stop offset="0" stop-color="#cc7b24"/>
      <stop offset="1" stop-color="#df942f"/>
    </linearGradient>
    <linearGradient id="linear-gradient2" x1="-313.14" y1="246.17" x2="-152.15" y2="341.32" gradientTransform="translate(338.07 68.29) scale(.91)" gradientUnits="userSpaceOnUse">
      <stop offset="0" stop-color="#fcead3"/>
      <stop offset=".82" stop-color="#f8ca64"/>
    </linearGradient>
    <linearGradient id="linear-gradient3" x1="-140" y1="-.77" x2="-42.72" y2="189.85" gradientTransform="translate(338.07 68.29) scale(.91)" gradientUnits="userSpaceOnUse">
      <stop offset="0" stop-color="#fc5c94"/>
      <stop offset="1" stop-color="#e5216c"/>
    </linearGradient>
  </defs>
  <g id="Generative_Object">
    <g>
      <path class="st24" d="M249.05,465.16c.03,15.16-2.18,36.36-.91,50.46.22,2.43-.51,2.45,1.82,4.09-10.32,1.13-110.33-42.78-128.66-50.01-10.67-4.21-24.74-7.01-35.01-11.82-1.58-.74-4.16-1.67-5.46-2.73v-.91c2.22-2.58,1.98-6.41,1.82-9.55-1.1-21.29-4.48-42.87-5.91-64.1l-5,1.82c-.32-1.39.88-3.09-1.82-2.73-.22-2.05.21-5.65,0-7.27,41.84,22.57,87.45,37.3,132.3,52.74l45.01-62.74c-1.05,31.6-1.07,67.05,0,98.66.06,1.66-.92,4.49,1.82,4.09Z"/>
      <path class="st14" d="M249.96,349.68c-2.4,1.57-1.36,1.72-1.82,3.64-.81,3.43-.79,5.66-.91,9.09l-45.01,62.74c-44.85-15.44-90.46-30.17-132.3-52.74-.5-3.81-.95-8.08-1.82-11.82l2.27-4.55,128.21,44.55c14.47-16.31,30.26-31.86,44.1-48.19,1.6-1.89,3.1-3.82,5-5.46.82.32,2.12,2.64,2.27,2.73Z"/>
      <path class="st4" d="M379.98,393.33c-.66,2.52.94,4.64.91,6.82-.74,46.88-86.33,91.43-122.3,111.39l-.45,5.46c-2.76,1.06-5.16,2.4-8.18,2.73-2.33-1.64-1.6-1.66-1.82-4.09-1.27-14.1.94-35.31.91-50.46-.07-34.28-.1-68.47,0-102.75l45.01,62.74c28.89-9.86,57.65-20.39,85.93-31.82Z"/>
      <path class="st6" d="M80.83,454.25c-4.59-23.68-3.73-48.25-9.09-71.83l5-1.82c1.43,21.23,4.81,42.81,5.91,64.1.16,3.14.4,6.97-1.82,9.55Z"/>
      <path class="st20" d="M249.05,362.41c-.1,34.28-.07,68.47,0,102.75-2.74.4-1.76-2.43-1.82-4.09-1.07-31.61-1.05-67.05,0-98.66.11-3.43.1-5.67.91-9.09-.94,2.74.91,7.19.91,9.09Z"/>
      <path class="st1" d="M259.05,357.87c5.66,6.09,34.97,42.56,40.46,42.74l124.11-43.64c2.23-1.95,2.77,7.32,2.73,7.73-.04.45-2.55,6.35-2.73,8.64-13.61,8.73-28.78,13.99-43.64,20-28.28,11.44-57.03,21.97-85.93,31.82l-45.01-62.74c0-1.9-1.85-6.36-.91-9.09.45-1.92-.59-2.07,1.82-3.64,4.31,2.6,5.84,4.68,9.09,8.18Z"/>
      <path class="st19" d="M419.08,423.33c-1.1,10.28-2.12,20.57-2.73,30.92-.79,1.01-1.45.97-2.73,1.82l-155.48,60.92.45-5.46c35.97-19.95,121.55-64.51,122.3-111.39.03-2.18-1.57-4.3-.91-6.82,14.86-6.01,30.04-11.28,43.64-20-1.31,16.5-2.76,33.35-4.55,50.01Z"/>
      <g>
        <path class="st18" d="M490.91,328.77c-1.02.81-1.86.64-2.73.91-3.13-2.17-7.88,1.28-10.91,2.73-57.66,14.19-117.44,40.08-175.49,57.28-16.19-11.2-30.51-28.91-46.37-40.01,37.39-15.51,76.73-26.45,114.57-40.46l-2.27-3.18c-8.99,3.03-19.17,7.5-28.19,10-1.87.52-5.41-.14-5.91,0,24.19-9.45,48.98-17.37,73.65-25.46,6.69-2.19,13.7-4.08,20-7.27,22.4,11.23,43.83,30.23,63.65,45.46Z"/>
        <path class="st20" d="M26.28,315.13c-1.01.87-9.52,8.15-8.64,9.09l114.57,40.01c33.56,13.13,65.46,5.96,97.75-6.36-6.28,5.79-12.54,11.81-19.09,17.28-2.88,2.4-15.34,14.5-17.73,14.55L7.18,326.95c2.41-2.94,10.97-9.42,14.55-10.91,1.22-.51,3.19-.96,4.55-.91Z"/>
        <path class="st20" d="M427.26,283.31c-6.3,3.2-13.32,5.08-20,7.27,4.31-5.02-3.32-4.83-7.27-6.36-21.92-8.53-44.64-15.44-67.29-21.82-.05-.04.12-1.07-.91-.91-.33-5.24-.68-10.19-.91-15.46,30.63,13.53,66.68,22.39,96.38,37.28Z"/>
        <path class="st9" d="M164.48,246.03c-.26,5.68-1.56,10.82-1.82,15.46l-79.11,26.37c-.29-.06-.62.06-.91,0,.1-.33-5.57-3.58-5.91-3.64-.42-.07-7.16.74-7.73.91l.91-2.73c28.92-14.28,64.68-23.32,94.56-36.37Z"/>
        <path class="st1" d="M212.68,377.87c9.85-8.61,19.63-17.46,30.01-25.46-13.84,16.33-29.63,31.88-44.1,48.19l-128.21-44.55-2.27,4.55c-.42-1.82.92-4.06-1.36-5.46-15.7-6.2-32.9-10.15-48.19-17.28-2.56-1.19-13.87-6.26-13.18-9.09,62.96,23.06,126.11,47.09,190.49,65.47,1.97-.48,14.19-14.07,16.82-16.37Z"/>
        <path class="st10" d="M210.86,375.14l1.82,2.73c-2.63,2.3-14.85,15.89-16.82,16.37-64.38-18.38-127.53-42.41-190.49-65.47-.19-1.08,1.66-1.63,1.82-1.82l185.94,62.74c2.39-.04,14.85-12.15,17.73-14.55Z"/>
        <path class="st1" d="M332.7,262.39c3.64,3.37,37.01,14.12,44.1,16.37s15.94,5.01,23.19,5.46c3.96,1.54,11.58,1.35,7.27,6.36-24.67,8.09-49.46,16.01-73.65,25.46-25.8,7.45-51.93,16.57-77.29,25.46l-.91-31.82c12.71-.48,74.36-9.48,78.2-22.28.7-2.34-1.53-21.41-1.82-25.91,1.03-.17.86.87.91.91Z"/>
        <path class="st11" d="M82.65,287.85c-.04.15-2.32-.4-2.73.45,1.75,1.63,2.59-.48,2.73-.45.29.06.62-.06.91,0,49.81,11.21,106.27,42.63,157.3,54.56,2.2.78,4.25,1.72,6.36,2.73,4.82,2.29,3.79,1.48,8.18,4.55,15.87,11.09,30.18,28.8,46.37,40.01l-1.82,4.55-40.92-36.37c-3.25-3.5-4.78-5.59-9.09-8.18-.15-.09-1.45-2.41-2.27-2.73-1.9,1.63-3.4,3.56-5,5.46-10.37,8-20.15,16.85-30.01,25.46l-1.82-2.73c6.56-5.47,12.82-11.48,19.09-17.28,2.97-2.75,7.45-4.95,10-8.64-41.54-14.63-83.11-30.29-125.02-44.1-1.17-.38-1.56,1.29-2.73.91-.51-.17,1.14-1.77-1.82-2.73-13.67-4.44-27.78-7.64-40.92-13.64-4.57-.03-13.88,11.11-19.55,9.09,5.91-4,12.06-11.55,19.09-13.64.57-.17,7.31-.98,7.73-.91.34.06,6.01,3.3,5.91,3.64Z"/>
        <path class="st20" d="M477.27,332.41c-15.8,7.56-35.09,14.52-52.74,20.91-41.06,14.88-82.67,28.63-124.57,40.92l1.82-4.55c58.05-17.2,117.83-43.1,175.49-57.28Z"/>
        <path class="st10" d="M255.41,349.68c-4.39-3.07-3.36-2.25-8.18-4.55,3.37-.23,6.1-2.59,9.09-3.64,25.35-8.89,51.49-18.01,77.29-25.46.5-.14,4.04.52,5.91,0,9.02-2.5,19.19-6.97,28.19-10l2.27,3.18c-37.84,14.02-77.18,24.95-114.57,40.46Z"/>
        <path class="st20" d="M488.18,329.68c-3.77,1.14-7.14,1.8-10.91,2.73,3.03-1.45,7.78-4.9,10.91-2.73Z"/>
        <path class="st19" d="M239.95,309.68l.91,32.73c-51.04-11.93-107.5-43.34-157.3-54.56l79.11-26.37c-.22,3.93-2.1,23.78-1.82,25,3.27,14.31,66.07,22.84,79.11,23.19Z"/>
        <path class="st15" d="M255.41,309.68l.91,31.82c-2.99,1.05-5.73,3.41-9.09,3.64-2.11-1-4.16-1.95-6.36-2.73l-.91-32.73c5.08.14,10.38.19,15.46,0Z"/>
        <path class="st0" d="M229.95,357.87c-32.29,12.33-64.18,19.5-97.75,6.36l-114.57-40.01c-.88-.94,7.63-8.22,8.64-9.09,7.15-6.17,15.83-11.08,23.64-16.37,5.67,2.02,14.98-9.13,19.55-9.09,13.14,6,27.25,9.2,40.92,13.64,2.96.96,1.3,2.56,1.82,2.73,1.17.38,1.56-1.29,2.73-.91,41.91,13.81,83.48,29.47,125.02,44.1-2.55,3.69-7.03,5.89-10,8.64Z"/>
        <path class="st15" d="M399.98,284.22c-7.25-.44-16.21-3.24-23.19-5.46s-40.46-12.99-44.1-16.37c22.65,6.38,45.36,13.29,67.29,21.82Z"/>
        <path class="st1" d="M424.53,353.32l-.91,3.64-124.11,43.64c-5.49-.18-34.8-36.65-40.46-42.74l40.92,36.37c41.9-12.29,83.51-26.03,124.57-40.92Z"/>
        <path class="st9" d="M82.65,287.85c-.14-.03-.98,2.08-2.73.45.41-.85,2.68-.3,2.73-.45Z"/>
      </g>
    </g>
    <g>
      <path class="st2" d="M330.88,246.03c.23,5.26.58,10.21.91,15.46.28,4.5,2.52,23.57,1.82,25.91-3.84,12.8-65.49,21.79-78.2,22.28-5.08.19-10.37.14-15.46,0-13.04-.35-75.84-8.88-79.11-23.19-.28-1.22,1.6-21.08,1.82-25,.26-4.64,1.56-9.78,1.82-15.46,1.93-42.85,1.34-83.5-6.36-125.93l-24.1,24.1c-18.67,1.19-56.07-46.84-51.37-61.38,1.29-4,54.41-42.55,60.47-50.46L213.13,7.8c15.34,18.66,38.7,22.1,59.1,9.09,2.08-1.33,7.87-8.76,9.09-9.09,5.44-1.46,59.23,23.44,70.01,24.55,6.37,7.25,59.54,47.29,60.47,51.37,1.54,6.77-13.23,32.3-18.19,38.19s-26.34,23.8-33.19,22.28c-3.01-.67-19.23-21.99-22.73-25.46-8.38,38.67-10.01,79.71-8.64,119.57.04,1.12,1.77,6.61,1.82,7.73Z"/>
      <g>
        <path class="st16" d="M338.15,32.35l4.55,21.37c4.72,3.41,6.45,5.78,10,11.37-4.24-.76-3.01.95-4.55,2.73-3.34,3.87-2.52,5.5-4.55,9.09-1.72,3.05-3.68,6.05-5.46,9.09-4.44,7.59-31.98,47.55-32.73,50.46-2.67,10.29.51,40.69-.91,54.56-4.22,41.08-21.22,82.9-66.83,89.56-20.51,2.99-47.9,2.4-66.83-6.36,9.67-61.03,3.66-140.2-20-197.31-1.25-3.02-2.47-6.03-3.64-9.09-.7-1.83-1.09-4.13-2.73-5.46,1.64-2.47,4.34-5.48,5.46-7.27,10.15,11.98,28.21,38.19,45.01,40.01,18.92,2.05,12.73-17.53,13.18-29.1,12.69,11.46,32.76,16.62,49.55,13.64,5.3-.94,27.99-10.46,10.46-10,20.6-10.79,31.88-30.09,27.73-53.65,14.28,4.9,28.52,10.2,42.28,16.37Z"/>
        <path class="st17" d="M324.52,201.47c-.21,13.74-.69,29.61,0,43.19.37,7.3,5.11,23.7,4.55,30.01-.7,7.87-28.48,15.33-35.92,16.82-26.71,5.36-101.72,5.1-123.21-11.82.75-1.8.62-3.64.91-5.46,18.93,8.77,46.32,9.36,66.83,6.36,45.61-6.66,62.61-48.48,66.83-89.56,1.42-13.87-1.77-44.27.91-54.56.76-2.91,28.3-42.87,32.73-50.46,2.35-.65,1.18,2.3.91,3.18-6.84,22.14-13.42,45.15-16.37,68.19-.67,5.23-3.63,40.61-2.73,42.74,1.06,2.48,2.67,1.07,4.55,1.36Z"/>
        <path class="st5" d="M352.7,65.08c3.1,4.88,18.29,31.04,22.28,31.82,8.54,1.69,13.25-19.23,9.55-25.46,2.11,1.97,12.57,10.52,12.73,12.28.59,6.39-11.83,27.19-16.37,32.28-4.15,4.66-8.35,7.7-13.64,10.91-21.77-9.74-19.82-29.72-20.91-50.01.71-2.4,1.03-6.44,1.82-9.09,1.53-1.77.31-3.48,4.55-2.73Z"/>
        <path class="st3" d="M149.94,55.08c-1.12,1.79-3.82,4.8-5.46,7.27-10.07,15.21-21.92,33.67-38.19,42.28-.32.75,2.99,6.7,3.64,7.73-3.67-2.92-6.05-6.81-8.18-10.91,1.12-4.15-5.17-14.38-4.55-17.73.45-2.39,32.05-28.99,36.37-32.28,9.8-7.47,12.57-9.15,23.64-14.55.99,5.38-4.32,13.45-7.27,18.19Z"/>
        <path class="st17" d="M169.03,287.85l.91-5.46c10.16,3.19,19.68,7.81,30.46,10,40.1,8.16,90.7,7.49,127.3-11.82,5.7,3.11-1.38,7.97-4.55,10-28.07,18.06-130.71,22-154.12-2.73Z"/>
        <path class="st5" d="M147.21,67.81c-.68.4-1.82,5.17-1.82,5.46-.05,23.14,6.05,38.82-17.28,53.65-6.52-3.97-13.94-7.85-18.19-14.55-.65-1.03-3.96-6.98-3.64-7.73,16.27-8.61,28.11-27.07,38.19-42.28,1.63,1.33,2.03,3.62,2.73,5.46Z"/>
        <path class="st13" d="M338.15,32.35c2.06.92,7.01,1.6,9.09,2.73-1.93,1.55-2.35,1.72-.91,4.09,2.72,4.48,31.53,26.04,38.19,32.28,3.7,6.23-1,27.15-9.55,25.46-3.99-.79-19.18-26.95-22.28-31.82-3.55-5.59-5.28-7.95-10-11.37l-4.55-21.37Z"/>
        <path class="st22" d="M170.85,274.21c-.29,1.81-.16,3.65-.91,5.46-.7-.55-3.81-1.22-4.55-3.18,9.33-66.52,4.75-135.43-14.55-199.58,23.66,57.11,29.68,136.28,20,197.31Z"/>
        <path class="st23" d="M128.11,126.91c23.32-14.83,17.23-30.51,17.28-53.65,2.66-.67,3.03,1.4,3.64,3.18,1.16,3.4,8.54,33.68,8.18,35.46s-15.99,17.96-17.73,21.37c-3.65,1.21-8.67-4.72-11.37-6.36Z"/>
        <path class="st5" d="M231.77,69.63l1.82-6.36c.74.22,1.92-.19,2.73,0,21.38,4.91,44.93-4.6,49.1-26.37,2.13-4.29,3.51-8.83,3.64-13.64,2.46,3.4,2.09,12.41,1.82,16.82-.04.65,1.87.26,1.82.91-.34,4.51-11.9,18.38-15.91,21.37-13.32,9.93-29.45,11.89-45.01,7.27Z"/>
        <path class="st13" d="M268.14,69.63c17.53-.46-5.16,9.06-10.46,10-16.79,2.98-36.86-2.18-49.55-13.64-1.87-1.69-2.23-2.88-3.64-4.55l1.82-8.18c19.37,27.46,37.06,17.02,61.83,16.37Z"/>
        <path class="st23" d="M367.25,126.91c-2.41,1.47-9.55,7.05-12.28,6.36-1.79-3.23-17.44-19.9-17.73-21.37-.54-2.7,7.67-30.16,9.09-35.01,1.09,20.29-.86,40.27,20.91,50.01Z"/>
        <path class="st5" d="M407.26,88.72c-.03,13.61-18.32,35.6-29.1,43.64-2.95-1.76-8.72.22-9.09-4.55,19.2-13.85,23.1-18.53,30.92-40.92l7.27,1.82Z"/>
        <path class="st8" d="M324.52,201.47c-1.88-.29-3.49,1.12-4.55-1.36-.9-2.12,2.06-37.51,2.73-42.74,2.95-23.05,9.52-46.05,16.37-68.19.27-.88,1.44-3.83-.91-3.18,1.78-3.04,3.74-6.04,5.46-9.09-12.26,40.49-18.45,82.27-19.09,124.57Z"/>
        <path class="st22" d="M380.89,116c4.54-5.09,16.95-25.89,16.37-32.28-.16-1.76-10.62-10.3-12.73-12.28-6.66-6.24-35.47-27.8-38.19-32.28-1.44-2.37-1.03-2.54.91-4.09,16.96,9.17,35.89,32.98,52.74,44.1-2.92,13.91-7.83,27.5-19.09,36.83Z"/>
        <path class="st5" d="M111.75,119.64c.89-.17,1.28-.93,1.36-.91,1.44.28,19.92,15.69,24.1,16.82-9.69,14.23-30.99-10.68-37.28-19.55,3.18-1.21,7.58,6.38,8.64,6.36.21,0,.84-2.29,3.18-2.73Z"/>
        <path class="st3" d="M111.75,119.64c-2.35.44-2.97,2.73-3.18,2.73-1.06.01-5.46-7.57-8.64-6.36-6.02-8.49-19.23-28.08-7.73-35.46,3.71,15.34,9.56,27.07,19.55,39.1Z"/>
        <path class="st3" d="M205.4,32.35c.8,5.47,6.91,17.06,10.91,20.91l-3.64,4.55c-1.64-1.69-5.25-5.02-6.36-6.82-5.56-9.01-13.1-34.07-.91-38.64.83,6.38-.93,13.67,0,20Z"/>
        <path class="st17" d="M242.68,27.8l-2.73,8.18c-15.04-1.66-25.84-11.58-30.01-25.91,5.16-1.63,5.03,6.46,7.73,8.64,2.51,2.03,21.58,8.79,25,9.09Z"/>
        <path class="st25" d="M133.57,51.44c-4.32,3.29-35.92,29.89-36.37,32.28-.63,3.35,5.66,13.58,4.55,17.73-1.91-3.67-7.96-19.16-7.27-22.28.51-2.32,31.95-27.01,36.37-30.46l2.73,2.73Z"/>
        <path class="st13" d="M236.32,63.26c-.44-1.66,1.81-2.36,2.73-2.73,3.76-1.53,9.69.64,13.18,0,13.39-2.44,27.02-11.21,33.19-23.64-4.17,21.77-27.72,31.28-49.1,26.37Z"/>
        <path class="st5" d="M206.31,53.26l-1.82,8.18c-10.1-11.95-13.29-21.29-10-37.28.5-2.45.95-5.29,3.64-6.36,1.06,15.27-1.86,21.23,8.18,35.46Z"/>
        <path class="st5" d="M265.41,24.17l.91,7.27c-9.46,4.25-15.67,5.73-26.37,4.55l2.73-8.18c6.9.62,16.2-1.16,22.73-3.64Z"/>
        <path class="st21" d="M198.13,17.8c-2.68,1.07-3.13,3.91-3.64,6.36-1.97-1.11.53-2.77-3.18-2.73-2.71.03-26.38,14.61-32.28,14.55l-1.82-4.55c4.63-1.99,38.3-15.48,40.46-15.46,2.54.03.39.89.45,1.82Z"/>
        <path class="st22" d="M239.04,60.54c-.91.37-3.17,1.07-2.73,2.73-.81-.19-1.99.22-2.73,0-3.36-.99-14.73-7.54-17.28-10-4-3.86-10.11-15.44-10.91-20.91l2.73-1.82c3.13,16.49,15.61,25.44,30.92,30.01Z"/>
        <path class="st12" d="M233.59,63.26l-1.82,6.36c-8.28-2.46-13.11-5.69-19.09-11.82l3.64-4.55c2.55,2.46,13.92,9.02,17.28,10Z"/>
        <path class="st7" d="M159.03,35.99c-.69.13-1.19.6-1.82.91-11.07,5.4-13.84,7.08-23.64,14.55l-2.73-2.73c11.72-9.15,11.82-11,26.37-17.28l1.82,4.55Z"/>
        <path class="st23" d="M378.16,132.37c-6.95,5.19-13.03,13.62-20.91,3.18-.04-.99,10.11-6.49,11.82-7.73.37,4.76,6.15,2.79,9.09,4.55Z"/>
        <path class="st23" d="M266.32,31.44l-.91-7.27c1.83-.7,9.41-6.72,10-6.82l1.82.91c.03,10.04-3.3,9.76-10.91,13.18Z"/>
        <path class="st25" d="M208.13,30.53l-2.73,1.82c-.93-6.33.83-13.63,0-20,1.18-.44,1.8-2.05,2.73-1.36-.93,6.85-1.31,12.64,0,19.55Z"/>
        <path class="st13" d="M289.05,23.26c-.13,4.81-1.51,9.35-3.64,13.64,1.62-8.46,3.29-17.49,0-25.91,3.5-.62,3.7,9.8,3.64,12.28Z"/>
        <path class="st8" d="M407.26,88.72l-7.27-1.82c.44-1.25.55-6,2.27-6.36,3.04,3.21,5.01,3.52,5,8.18Z"/>
        <path class="st22" d="M169.94,282.4l-.91,5.46c-4.02-4.25-7.85-8.21.91-5.46Z"/>
        <path class="st12" d="M194.49,24.17c-3.29,15.99-.1,25.33,10,37.28,1.41,1.67,1.76,2.86,3.64,4.55-.46,11.57,5.74,31.15-13.18,29.1-16.8-1.82-34.86-28.03-45.01-40.01,2.95-4.73,8.27-12.8,7.27-18.19.63-.31,1.13-.78,1.82-.91,5.9.06,29.57-14.52,32.28-14.55,3.72-.04,1.21,1.62,3.18,2.73Z"/>
      </g>
    </g>
  </g>
</svg>