<?xml version="1.0" encoding="UTF-8"?>
<svg id="Layer_1" xmlns="http://www.w3.org/2000/svg" version="1.1" xmlns:xlink="http://www.w3.org/1999/xlink" viewBox="0 0 354.5 334">
  <!-- Generator: Adobe Illustrator 29.5.0, SVG Export Plug-In . SVG Version: 2.1.0 Build 137)  -->
  <defs>
    <style>
      .st0 {
        fill: url(#linear-gradient2);
      }

      .st1 {
        fill: #fff;
      }

      .st2 {
        fill: url(#linear-gradient1);
      }

      .st3 {
        fill: #4a8424;
      }

      .st4 {
        fill: #215b15;
      }

      .st5 {
        fill: #ccdf5b;
      }

      .st6 {
        fill: #664612;
      }

      .st7 {
        fill: #c68443;
      }

      .st8 {
        fill: #763f17;
      }

      .st9 {
        fill: #a2642d;
      }

      .st10 {
        fill: #77571a;
      }

      .st11 {
        fill: #366e1c;
      }

      .st12 {
        fill: url(#linear-gradient);
      }

      .st13 {
        fill: #7f4c1a;
      }
    </style>
    <linearGradient id="linear-gradient" x1="172.24" y1="20.76" x2="172.21" y2="112.06" gradientUnits="userSpaceOnUse">
      <stop offset="0" stop-color="#a3ca33"/>
      <stop offset="1" stop-color="#5f972c"/>
    </linearGradient>
    <linearGradient id="linear-gradient1" x1="162.55" y1="82.24" x2="167.88" y2="160.31" gradientUnits="userSpaceOnUse">
      <stop offset="0" stop-color="#aed03b"/>
      <stop offset="1" stop-color="#6ca837"/>
    </linearGradient>
    <linearGradient id="linear-gradient2" x1="161.35" y1="135.28" x2="178.38" y2="203.61" gradientUnits="userSpaceOnUse">
      <stop offset="0" stop-color="#68a131"/>
      <stop offset="1" stop-color="#498a2b"/>
    </linearGradient>
  </defs>
  <g id="Generative_Object">
    <g>
      <path class="st4" d="M260.23,194.07c.95-6.29,8.26-7.28,11.74-11.74,4.05-3.24,8.77-7.02,9.78-12.39,7.85,4.33,17.98,5.17,23.8-2.61,4.74,15.92,33.49,9.21,19.24-5.87-.88-.93-3.66-1.71-3.26-2.93,6.11-2.19,11.93-7.3,10.43-14.67,3.75,1.25,4.76-4.16,4.56-7.17,4.14,2.17-1.45,6.48-1.3,6.85.36.89,12.64,1.45,14.35,11.09,1.69,9.54-4.15,16.75-12.72,19.89-.96.35-3.54-.52-4.24.33-.54.66,3.73,10.35-2.93,15.98-5.85,4.94-13.24,2.39-18.26-2.61-5.58,26.01-31.89,13.91-41.08-2.61-3.14,4.79-6.17,5.7-10.11,8.48Z"/>
      <path class="st4" d="M101.76,196.68c-11.57,12.42-36.8,10.35-42.06-7.17-12.1,14.86-32.7,7.47-31.63-11.74.43.06,4.2-1.35,5.54-.65-7.79,9.22,6.4,11.73,13.04,7.83,3.61-2.12,4.64-8.29,5.22-8.48.25-.08,3.39,2.47,4.56,2.61,7.69.88,14.32-.99,19.89-6.52,6.11,9.52,15.95,17.78,25.43,24.13Z"/>
      <g>
        <g>
          <path class="st12" d="M296.1,85.82c15.23.52,22.85,20.81,13.69,32.61-2.12.48-2.17,1.95-4.56,1.96-3.32-2.2-11.33-3.32-15-1.96-.98.03-.52-.8-.65-1.3-1.32-5.12-2.72-9.99-7.5-13.04-2.52-1.61-8.54-2.55-8.8-2.93-.78-1.12.89-6.24-3.59-9.46-7.84-5.62-20.52,1.81-21.52,1.3-.46-.23-2.77-7.45-4.24-9.46-10.19-13.88-34.71-18.96-45.32-2.93-12.37-18.04-42.53-17.46-44.34,7.83-7.26-6.51-16.88-7.17-25.43-2.61-2.04,1.08-4.85,5.17-5.22,5.22-.26.04-3-2.47-4.56-2.61-15.89-1.4-22.37,8.23-23.48,22.82-11.37-6.02-28.63-6.75-31.3,9.13-7.08-4.18-15.84-3.54-22.5,1.3-4.41.98-2.97,2.73-7.17-1.3-.91-.87-3.89-5.91-3.91-7.17-.29-15.86,16.76-23.01,29.35-26.41-3.47-15.63,8.22-29.52,24.45-27.06,2.44.37,10.51,5.44,11.09,5.22.41-.16,2.92-5.62,5.22-7.17,5.94-4.03,13.87-2.84,18.91,1.96.85-22.52,14.32-34.56,36.52-26.09,15.63-25.35,54.7-25.24,63.26,5.87,11.2-14.96,35.59-10.15,41.41,6.85.54,1.58-1.06,5.3.33,6.2.27.18,5.38-.29,6.52,0,19.79,4.97,22.79,14.62,19.89,34.24,2.37,1.88,8.03-.99,8.48-.98Z"/>
          <path class="st5" d="M296.1,85.82c-.45-.02-6.11,2.86-8.48.98,2.9-19.61-.1-29.27-19.89-34.24-1.14-.29-6.25.18-6.52,0-1.39-.9.22-4.61-.33-6.2-5.82-17-30.21-21.81-41.41-6.85-8.56-31.1-47.62-31.22-63.26-5.87-22.2-8.48-35.67,3.57-36.52,26.09-5.04-4.8-12.97-5.98-18.91-1.96-2.3,1.56-4.8,7.02-5.22,7.17-.57.22-8.65-4.85-11.09-5.22-16.23-2.46-27.93,11.44-24.45,27.06-12.59,3.4-29.63,10.55-29.35,26.41-7.02-15.35,8.6-31.19,24.13-28.37-8.24-17.01,7.66-39.05,26.41-36.85,4.58.54,10.46,6,11.09,5.87,1.1-.23,1.05-2.91,1.63-3.59,5.44-6.42,13.4-6.56,19.89-1.63-1.88-20.16,26.38-38.56,41.74-22.82,10.74-25.08,57.61-25.99,67.17.65,15.15-14.04,43.71,2.41,42.39,22.17,18.26-7.52,39.04,6.26,34.89,27.06-.68,3.41-4.05,6.74-3.91,10.11Z"/>
        </g>
        <path class="st3" d="M336.53,136.69c.19,3.02-.82,8.42-4.56,7.17-1.41-6.94-14.82-15.1-21.19-9.13-.17-4.73-1.25-11.5-5.54-14.35,2.39,0,2.45-1.48,4.56-1.96,2.96-.67,11.81-1.23,14.02.65,4.51,3.84-.56,7.14-.33,7.5.7,1.05,12.42.49,13.04,10.11Z"/>
        <path class="st3" d="M34.59,120.38c4.2,4.04,2.76,2.29,7.17,1.3-6.12,4.45-9.45,12.61-7.17,20.22-.04.04-.77-.09-.65.65-4.83-3.69-13.07-2.5-17.61,1.3-5.59-13.15,5.24-23.96,18.26-23.48Z"/>
        <g>
          <path class="st2" d="M289.58,117.12c.13.5-.33,1.33.65,1.3-.81.3-2.04,2.07-3.26,2.28,5.82.45,14.6,1.37,18.91,7.17,1.89,2.55,3.05,10.08,3.59,10.11.37.02,1.48-2.47,6.52-1.3,8.64,2,12.53,9.62,8.15,17.28-1.9,3.33-7.27,3.41-1.96,8.8-13.21,3.51-12.54-7.36-14.02-7.83-.45-.14-6.44,2.58-9.13,2.61-12.82.11-18.11-8.27-18.26-20.22-7.32,8.23-21.45,8.67-30,1.96-1.03-.81-3.09-5.2-3.91-5.22-.53,0-5.45,4.65-9.13,5.22-11.55,1.78-37.17-8.1-32.93-23.15-.82-1.29-11.21,5.96-13.37,6.85-12.45,5.09-28.87,6.76-37.82-5.22-1.95,15.22-18.14,19.99-30,11.74-4.53,13.6-19.2,24.1-32.61,14.35-.51,10.63-6.26,11.02-15,7.83,3.8,17.58-32.1,28.67-27.39,5.22-1.88,1.76-1.86,4.63-3.59,6.85-6.19,7.93-14.83,10.06-24.45,6.85l-11.41-7.83c-.89-6.66.81-8.55,3.91-13.69l2.93,5.22c2.15-8.81,11.07-14.24,19.56-9.13.88-.57-1.35-2.39-1.63-2.61-.12-.74.61-.62.65-.65.43-.42,1.36-6.47,2.61-8.8,2.2-4.1,12.87-12.03,17.28-12.72,4.47-.7,10.54,2.12,11.09,1.96s2.39-7.1,5.87-9.13c8.14-4.74,26,.59,27.39,0,.99-.42-.75-1.88-.33-2.93,5.33-13.37,18.74-17.85,31.63-19.24,9.37-1.01,20.38-1.48,28.69,3.26,1.5-5.25,6.98-17.88,13.04-18.91,7.23-1.23,22.41,7.68,27.39,13.04,11.91-22.46,41.6-8.93,47.61,10.43,5.46-5.01,17.65-5.85,21.85.98,1.03,1.68,1.38,6,1.63,6.2.41.32,3.74-2.56,9.78.65l9.46,10.43Z"/>
          <path class="st0" d="M322.18,162.77c.77-.2,2.34-.33,2.61-1.3,14.25,15.08-14.5,21.79-19.24,5.87-5.82,7.78-15.95,6.94-23.8,2.61-.69-.38-2.5-1.21-2.61-1.3-2.53-2.05-4.31-6.32-5.87-9.13.38-1.79.11-3.94,1.3-5.54-1.57-1.27-2.21.79-3.26.98-5.85,1.04-10.33.81-15.65-1.96-.1-.05-1.19-1.88-1.3-1.96-3.04-1.97-5.38,2.61-9.78,2.61-.17,0-3.1-.59-3.26-.65-3.39-1.27-4.56-6.26-4.89-6.52-.5-.39-9.87,1.36-12.72,1.3-1.5-.03-4.33.67-4.56.65-3.44-.33-13.07-5.15-15-5.22-.2,0-.46-.04-.65,0-2.67-3.67-6.97-5.69-7.17-10.76-.55-.56-1.11.65-1.96.98-8.52,3.32-13.04,7.02-23.48,6.52-1.23-.06-4-.39-5.22-.65-2.46-.52-6.02-3.08-8.48-3.91-.08-.03-.57-1.35-.98-1.3-.61.08-3.21,3.72-3.59,3.91-4.76,2.41-10.65,3.32-15.98,2.61-2.4-.32-6.16-3.32-6.52-3.26-1.03.16-1.42,3.01-1.63,3.26-.74.89-1.22,1.87-1.3,1.96-.77.82-2.48,2.58-3.26,3.26-.42.37-1.27.79-1.96,1.3-3.55,2.65-8.98,5.34-13.04,7.17-1,.45-2.22.89-3.26,1.3-8.84,3.56-13.81,7.26-23.15,1.3.72,2.72.07,5.32-.98,7.83-.32.76-2.07,3.76-2.61,4.56-.58.86-1.9,2.56-2.61,3.26-5.57,5.53-12.2,7.4-19.89,6.52-1.18-.13-4.32-2.69-4.56-2.61-.57.19-1.6,6.35-5.22,8.48-6.64,3.9-20.83,1.39-13.04-7.83-1.34-.7-5.11.71-5.54.65-7.82-1.01-17.77-6.52-18.91-15l11.41,7.83c9.62,3.21,18.26,1.08,24.45-6.85,1.73-2.22,1.7-5.09,3.59-6.85-4.71,23.45,31.19,12.36,27.39-5.22,8.73,3.19,14.49,2.81,15-7.83,13.41,9.76,28.07-.74,32.61-14.35,11.86,8.25,28.05,3.48,30-11.74,8.95,11.97,25.38,10.31,37.82,5.22,2.16-.88,12.55-8.14,13.37-6.85-4.24,15.05,21.38,24.93,32.93,23.15,3.68-.57,8.6-5.23,9.13-5.22.82.01,2.88,4.4,3.91,5.22,8.54,6.71,22.67,6.27,30-1.96.14,11.95,5.44,20.33,18.26,20.22,2.69-.02,8.68-2.75,9.13-2.61,1.48.46.81,11.33,14.02,7.83Z"/>
          <path class="st5" d="M33.94,142.56c.28.22,2.51,2.04,1.63,2.61-8.5-5.11-17.41.32-19.56,9.13l-2.93-5.22c1-1.65,1.73-3.93,3.26-5.22,4.53-3.81,12.77-4.99,17.61-1.3Z"/>
          <path class="st5" d="M289.58,117.12l-9.46-10.43c-6.04-3.21-9.37-.34-9.78-.65-.25-.2-.6-4.52-1.63-6.2-4.2-6.82-16.38-5.99-21.85-.98-6-19.36-35.69-32.89-47.61-10.43-4.98-5.36-20.16-14.27-27.39-13.04-6.06,1.03-11.54,13.67-13.04,18.91-8.31-4.74-19.33-4.27-28.69-3.26-12.89,1.39-26.3,5.87-31.63,19.24-.42,1.06,1.31,2.52.33,2.93-1.39.59-19.25-4.74-27.39,0-3.48,2.03-5.34,8.97-5.87,9.13s-6.61-2.66-11.09-1.96c-4.41.69-15.08,8.61-17.28,12.72-1.25,2.34-2.18,8.38-2.61,8.8-2.28-7.61,1.05-15.76,7.17-20.22,6.65-4.84,15.42-5.49,22.5-1.3,2.67-15.88,19.93-15.15,31.3-9.13,1.1-14.59,7.59-24.22,23.48-22.82,1.56.14,4.3,2.65,4.56,2.61.37-.05,3.18-4.13,5.22-5.22,8.55-4.56,18.17-3.9,25.43,2.61,1.82-25.29,31.98-25.87,44.34-7.83,10.61-16.02,35.13-10.95,45.32,2.93,1.47,2.01,3.78,9.22,4.24,9.46,1,.5,13.68-6.92,21.52-1.3,4.48,3.21,2.81,8.33,3.59,9.46.26.38,6.29,1.33,8.8,2.93,4.78,3.05,6.18,7.92,7.5,13.04Z"/>
          <path class="st5" d="M305.23,120.38c4.29,2.85,5.37,9.61,5.54,14.35,6.37-5.97,19.79,2.19,21.19,9.13,1.49,7.37-4.33,12.49-10.43,14.67-.4,1.22,2.38,2,3.26,2.93-.26.97-1.84,1.1-2.61,1.3-5.32-5.39.06-5.48,1.96-8.8,4.38-7.66.48-15.28-8.15-17.28-5.04-1.17-6.15,1.32-6.52,1.3-.54-.03-1.69-7.56-3.59-10.11-4.31-5.81-13.09-6.72-18.91-7.17,1.23-.21,2.45-1.98,3.26-2.28,3.66-1.37,11.68-.25,15,1.96Z"/>
        </g>
      </g>
      <path class="st4" d="M241.32,152.99c-3.08,9.35-8.55,17.22-13.69,25.43-.76.35-1.43.57-1.96,1.3h-7.83c.69-10.31,1.1-23.02,5.87-31.95,2.85.05,12.21-1.7,12.72-1.3.34.26,1.5,5.25,4.89,6.52Z"/>
      <g>
        <path class="st9" d="M179.37,252.77c.04,3.25-.03,6.53,0,9.78l-5.87,41.41-.65-73.69c-4.29,17.23,1.17,42.55-3.26,58.69-.9,3.29-5.55,9.29-7.17,13.04-2.56,5.91-4.07,19.67-12.39,19.24,4.22-11.05,7.39-33.69,9.13-45.98,1.86-13.15,3.24-27.01,3.26-40.11.43.04.87-.02,1.3,0-.78,11.66-1.2,23.24-2.61,34.89-1.08,8.94-6.82,29.43-6.52,36.52.05,1.08-.21,2.24,1.3,1.3,1.08-12.93,7.31-25.15,9.13-37.82,1.16-8.11.48-17.24,1.3-25.43,1.77-17.6,6.82-35.66,1.3-53.15,3.98,4.39,11.15,4.83,12.39,12.06,2.12,12.36-.8,35.29-.65,49.24Z"/>
        <path class="st8" d="M194.37,173.21l.33,2.61c.87-.56.77-1.42,1.63-1.96.14,1.33-.22,2.69-.65,3.91-4.77,13.52-12.47,23.96-7.5,39.78.62-.62,1.5-.96,2.28-1.3-3.92,3.58-2.05,4.48-1.96,8.48.06,2.62-.76,6.33.98,8.48,1.94.27,17.3-18.31,20.22-19.56,2.42-1.04,11.45-1.14,15-1.96,1.5-.35,8.4-2.73,8.15-4.56.13-.03-.62-.51,2.28-1.3.36-.1.09,1.7,1.3,1.3.87-.28.96-1.83,1.3-1.96,12.1-4.48,23.71-14.4,34.24-22.82-3.47,4.46-10.79,5.44-11.74,11.74-13.3,9.4-24,16.23-40.11,20.22-2.46.61-6.87-.51-9.78.65-4.36,1.74-15.59,18.2-21.85,20.54.06,31.14.36,63.68,13.69,92.28-18.58-.08-37.52-.15-56.08,0,.9-1.71,2.47-3.49,3.26-5.22l-.98,5.22c11.49,1.87,19.3-8.12,23.48-17.61l1.63,16.63c1.62,2.28,5.84-3.01,6.52-4.56,3.12-7.1-.54-48.21-.65-59.67-.03-3.25.04-6.53,0-9.78,1.78-1.6,2.5,3.92,2.61,4.89,2.51,21.65-5.73,55.91,15.98,68.15l1.63-2.28-5.22-10.43c-3.35-14.47-5.97-30.73-7.83-44.34-.29-2.09.93-3.52.65-5.22-.1-.64-1.73,0-1.96-.65-1.09-3.21,1.91-3.67,1.96-3.91.66-3.86-.93-11.3,0-15.65l-1.96,2.61c.72-15.18-5.42-34.79-1.96-49.56,1.35-5.75,8.49-14.47,10.43-19.56.19-.51-1.15-1.84-.65-3.26.2-.58,1.28-.25,1.3-.33Z"/>
        <path class="st8" d="M179.37,262.55c.11,11.46,3.77,52.57.65,59.67-.68,1.56-4.9,6.85-6.52,4.56l-1.63-16.63c-4.18,9.49-11.99,19.48-23.48,17.61l.98-5.22c.22-.49.63-1.24.65-1.3,8.32.43,9.83-13.33,12.39-19.24,1.63-3.75,6.27-9.76,7.17-13.04,4.43-16.14-1.03-41.46,3.26-58.69l.65,73.69,5.87-41.41Z"/>
        <path class="st6" d="M155.89,149.08c2.34,7.96,3.93,16.07,5.87,24.13,1.32,5.47.77,11.66,4.56,16.96-.5,15.03-1.6,30.01-2.61,45-.43-.02-.88.04-1.3,0-3.93-.36-18.78-16.39-23.8-19.56-11.15-7.04-24.87-10.9-36.85-18.91-9.48-6.35-19.32-14.61-25.43-24.13.71-.7,2.03-2.4,2.61-3.26,5.04,6.08,8.51,12.27,14.67,17.61,2.32,2.01,9.05,6.79,11.74,8.48,3.57,2.25,32.95,17.1,35.21,17.61,6.6,1.49-.47-2.73,1.63-3.91,4.85,5.72,13.98,10.08,21.52,10.11.82-1.29,1.16-28.15.65-30.65-.29-1.45-4.25-9.45-5.22-12.06-.64-1.72.64-4.04-1.63-6.52-6.67-7.28-23.48-14.33-29.67-24.78-.51-.85-.86-1.55-.65-2.61.08-.09.56-1.06,1.3-1.96l29.67,25.43-2.28-16.96Z"/>
        <path class="st13" d="M203.5,143.21c-1.16.22-2.13,1.26-2.61,2.28-2.96,6.25-4.02,20.31-6.52,27.72-.02.07-1.1-.25-1.3.33-.5,1.42.85,2.75.65,3.26-1.94,5.1-9.09,13.81-10.43,19.56-3.46,14.78,2.68,34.38,1.96,49.56l1.96-2.61c-.93,4.35.66,11.79,0,15.65-.04.24-3.05.7-1.96,3.91.22.65,1.85.02,1.96.65.28,1.69-.94,3.12-.65,5.22,1.86,13.62,4.48,29.87,7.83,44.34l5.22,10.43-1.63,2.28c-21.71-12.24-13.47-46.5-15.98-68.15-.11-.98-.83-6.49-2.61-4.89-.15-13.95,2.77-36.88.65-49.24-1.24-7.23-8.41-7.68-12.39-12.06-.27-.3-1.12-1.05-1.3-1.3-3.8-5.3-3.25-11.49-4.56-16.96,2.99-4.16.85,3.34,3.91,1.3v-35.21c1.22.26,3.99.59,5.22.65-1.64,11.86-2.22,23.57.65,35.21,1.34,5.44,2.99,10.78,7.5,14.35,5.21-2.97,6.6-8.78,8.8-13.69,6.17-13.75,9.34-27.32,6.52-42.39.85-.33,1.41-1.54,1.96-.98.2,5.07,4.51,7.09,7.17,10.76Z"/>
        <path class="st4" d="M127.85,187.55c.16.53-.13,1.38,0,1.96-10.75.31-10.9-8.03-17.61,4.56-14.17-7.57-23.13-12.98-28.69-29.35,1.04-2.5,1.7-5.11.98-7.83,9.34,5.96,14.31,2.25,23.15-1.3,2.3,5.26,6.77,11.61,10.43,15.98,7.02,8.38,7.8,2.52,11.74,15.98Z"/>
        <path class="st6" d="M255.67,152.99c-4.35,11.72-15.1,18.47-22.82,27.39-2.33,2.69-18.23,21.67-18.26,23.15-.02,1.15,0,1.56.98,2.28,12.66.48,30.8-5.78,40.11-14.35,9.92-9.14,10.13-24.83,15.65-36.52,1.05-.19,1.69-2.24,3.26-.98-1.2,1.6-.93,3.75-1.3,5.54-1.33,6.32-5.15,12.94-5.22,19.89l1.3.65,9.78-11.41c.11.09,1.91.92,2.61,1.3-1.01,5.37-5.73,9.15-9.78,12.39-10.53,8.42-22.14,18.35-34.24,22.82-.34.13-.43,1.67-1.3,1.96-1.21.39-.94-1.4-1.3-1.3-2.9.8-2.15,1.27-2.28,1.3-7.23,1.72-12.85,2.63-20.54,1.96,2.68-14.17-4.69,1.65-7.5,4.89-4.06,4.68-9.93,9.67-16.3,10.76-.1-4-1.96-4.9,1.96-8.48.15-.07,1.49-1.01,1.96-1.3,8.68-5.37,18.28-11.95,24.78-19.89,2.74-3.34,7.83-12.48,10.43-16.63,5.15-8.21,10.61-16.09,13.69-25.43.16.06,3.09.65,3.26.65.64,1.9-9.03,18.18-6.2,18.26,7.2-5.35,12.43-12.64,15.98-20.87.12.08,1.2,1.9,1.3,1.96Z"/>
        <path class="st4" d="M187.84,175.82c-2.27-6.41-3.19-.81-6.85,0-2.86.63-6.57-.51-9.46-.65-2.87-11.64-2.3-23.35-.65-35.21,10.44.5,14.95-3.2,23.48-6.52,2.82,15.07-.36,28.64-6.52,42.39Z"/>
        <path class="st4" d="M271.32,154.95c-5.52,11.69-5.73,27.38-15.65,36.52-3.1-1.71-4.72,1.84-9.46,1.3-3.68-.42-7.55-3.74-9.46-6.85-1.23-2,.69-6.02-3.91-5.54,7.73-8.92,18.48-15.67,22.82-27.39,5.32,2.76,9.8,3,15.65,1.96Z"/>
        <path class="st10" d="M127.85,145.17c-.8.09-.98,1.96-.98,2.61.03,10.22,2.63,25.75,4.89,35.87,1.73,7.77,4.74,18.72,10.43,25.43-2.1,1.18,4.97,5.4-1.63,3.91-2.27-.51-31.64-15.36-35.21-17.61-2.68-1.69-9.42-6.47-11.74-8.48-6.16-5.34-9.63-11.52-14.67-17.61.54-.81,2.29-3.81,2.61-4.56,5.57,16.37,14.52,21.77,28.69,29.35,6.17,3.3,11.93,8.05,19.24,8.48,2.68-1.21-1.15-10.97-1.63-13.04-.13-.58.16-1.43,0-1.96,1.78-.82,2.04-1.72,1.96-3.59-.04-.95-3.13-10.12-3.26-11.09-.72-5.39-1.37-13.61-1.96-18.91-.29-2.68-.47-5.46-.65-8.15.78-.68,2.49-2.44,3.26-3.26-.2,1.06.15,1.75.65,2.61Z"/>
        <path class="st6" d="M204.15,143.21l-4.24,24.13c1.73,1.13,20.8-13.8,19.24-18.91.23.02,3.06-.68,4.56-.65-4.77,8.93-5.18,21.65-5.87,31.95-.21,3.15-1.9,7.46.33,10.43,2.94-3.19,5.04-6.99,7.5-10.43.53-.74,1.2-.95,1.96-1.3-2.6,4.15-7.7,13.29-10.43,16.63-6.51,7.94-16.1,14.52-24.78,19.89,2.66-1.7,20.52-18.76,20.87-20.54s-1.07-9.95-.65-13.37c.92-7.45,3.19-14.65,3.59-22.17-6.07,5.8-12.79,10.57-19.89,15-.86.54-.76,1.39-1.63,1.96l-.33-2.61c2.5-7.41,3.57-21.47,6.52-27.72.48-1.02,1.45-2.07,2.61-2.28.19-.04.45,0,.65,0Z"/>
        <path class="st11" d="M152.63,137.99l3.26,11.09,2.28,16.96-29.67-25.43c.21-.25.6-3.1,1.63-3.26.36-.06,4.12,2.94,6.52,3.26,5.32.72,11.21-.2,15.98-2.61Z"/>
        <path class="st4" d="M219.15,148.43c1.56,5.11-17.51,20.04-19.24,18.91l4.24-24.13c1.93.07,11.56,4.89,15,5.22Z"/>
        <path class="st6" d="M127.85,187.55c-3.94-13.46-4.71-7.6-11.74-15.98-3.66-4.37-8.13-10.71-10.43-15.98,1.04-.42,2.26-.85,3.26-1.3,3.94,5.16,8.01,11.27,14.02,14.35,1.8-.76-1.09-18.41-.98-21.52.68-.51,1.54-.93,1.96-1.3.18,2.69.36,5.47.65,8.15.58,5.3,1.24,13.52,1.96,18.91.13.97,3.22,10.13,3.26,11.09.09,1.87-.17,2.77-1.96,3.59Z"/>
        <path class="st11" d="M165.67,139.3v35.21l-8.48-39.13c2.46.83,6.01,3.39,8.48,3.91Z"/>
        <path class="st4" d="M108.94,154.3c4.07-1.83,9.49-4.52,13.04-7.17-.11,3.11,2.77,20.76.98,21.52-6.01-3.08-10.08-9.19-14.02-14.35Z"/>
        <path class="st10" d="M157.19,135.38l8.48,39.13c-3.06,2.04-.93-5.46-3.91-1.3-1.94-8.06-3.53-16.17-5.87-24.13l-3.26-11.09c.38-.19,2.98-3.84,3.59-3.91.4-.05.9,1.28.98,1.3Z"/>
        <path class="st4" d="M254.36,151.03c-3.55,8.23-8.77,15.51-15.98,20.87-2.84-.08,6.83-16.36,6.2-18.26,4.4,0,6.74-4.58,9.78-2.61Z"/>
        <path class="st4" d="M279.14,168.64l-9.78,11.41-1.3-.65c.07-6.95,3.89-13.57,5.22-19.89,1.56,2.81,3.34,7.08,5.87,9.13Z"/>
        <path class="st7" d="M167.63,191.47c5.51,17.49.47,35.55-1.3,53.15-.83,8.19-.14,17.32-1.3,25.43-1.82,12.67-8.05,24.89-9.13,37.82-1.51.94-1.26-.23-1.3-1.3-.3-7.09,5.44-27.57,6.52-36.52,1.41-11.65,1.83-23.23,2.61-34.89,1.01-14.99,2.11-29.97,2.61-45,.19.26,1.03,1,1.3,1.3Z"/>
        <path class="st4" d="M212.63,181.03c-5.33,3.95-15.29,4.39-16.96-3.26.43-1.22.79-2.58.65-3.91,7.1-4.43,13.82-9.2,19.89-15-.4,7.52-2.67,14.72-3.59,22.17Z"/>
        <path class="st6" d="M232.84,207.12c.25,1.83-6.65,4.22-8.15,4.56-3.55.82-12.58.91-15,1.96-2.91,1.25-18.28,19.83-20.22,19.56-1.74-2.15-.92-5.86-.98-8.48,6.38-1.09,12.24-6.08,16.3-10.76,2.81-3.24,10.18-19.06,7.5-4.89,7.69.67,13.31-.23,20.54-1.96Z"/>
        <path class="st4" d="M159.15,176.47c-2.5,7.71-12.61,13.63-20.54,10.43-3.19-1.28-3.94-8.18-6.85-3.26-2.26-10.12-4.86-25.65-4.89-35.87,0-.65.18-2.52.98-2.61,6.19,10.45,23,17.5,29.67,24.78,2.27,2.48.99,4.8,1.63,6.52Z"/>
        <path class="st1" d="M225.67,179.73c-2.46,3.44-4.56,7.24-7.5,10.43-2.23-2.97-.54-7.28-.33-10.43h7.83Z"/>
      </g>
    </g>
  </g>
</svg>