<?xml version="1.0" encoding="UTF-8"?>
<svg id="Layer_1" xmlns="http://www.w3.org/2000/svg" version="1.1" viewBox="0 0 174.5 475">
  <!-- Generator: Adobe Illustrator 29.5.0, SVG Export Plug-In . SVG Version: 2.1.0 Build 137)  -->
  <defs>
    <style>
      .st0 {
        fill: #6c5e66;
      }

      .st1 {
        fill: #4a444c;
      }

      .st2 {
        fill: #d7e3e8;
      }

      .st3 {
        fill: #917584;
      }

      .st4 {
        fill: #a58a79;
      }

      .st5 {
        fill: #45597e;
      }

      .st6 {
        fill: #8eb1c6;
      }

      .st7 {
        fill: #62a5db;
      }

      .st8 {
        fill: #a8bbca;
      }

      .st9 {
        fill: #b6261a;
      }

      .st10 {
        fill: #14486e;
      }

      .st11 {
        fill: #555154;
      }

      .st12 {
        fill: #efaf19;
      }

      .st13 {
        fill: #b07044;
      }

      .st14 {
        fill: #1e2b3a;
      }

      .st15 {
        fill: #70696c;
      }

      .st16 {
        fill: #5085ba;
      }

      .st17 {
        fill: #180c0e;
      }

      .st18 {
        fill: #090808;
      }

      .st19 {
        fill: #ffab99;
      }

      .st20 {
        fill: #26232b;
      }

      .st21 {
        fill: #a59c9c;
      }

      .st22 {
        fill: #f9f1e8;
      }

      .st23 {
        fill: #d9ad8d;
      }

      .st24 {
        fill: #f4e3d5;
      }

      .st25 {
        fill: #fbd39c;
      }

      .st26 {
        fill: #8e6f65;
      }

      .st27 {
        fill: #4e566e;
      }

      .st28 {
        fill: #401a18;
      }

      .st29 {
        fill: #584d49;
      }

      .st30 {
        fill: #b08261;
      }

      .st31 {
        fill: #bca9a7;
      }

      .st32 {
        fill: #236795;
      }

      .st33 {
        fill: #79573c;
      }

      .st34 {
        fill: #1d2e2e;
      }

      .st35 {
        fill: #8d878a;
      }

      .st36 {
        fill: #f8ca22;
      }

      .st37 {
        fill: #594539;
      }

      .st38 {
        fill: #faf8bd;
      }

      .st39 {
        fill: #484843;
      }

      .st40 {
        fill: #d7cbc6;
      }

      .st41 {
        fill: #e4cacb;
      }

      .st42 {
        fill: #fbeed7;
      }

      .st43 {
        fill: #1b3850;
      }

      .st44 {
        fill: #32597a;
      }

      .st45 {
        fill: #694939;
      }

      .st46 {
        display: none;
      }

      .st47 {
        fill: #fefeff;
      }

      .st48 {
        fill: #322a28;
      }

      .st49 {
        fill: #030e1f;
      }

      .st50 {
        fill: #ca312d;
      }

      .st51 {
        fill: #cd9367;
      }

      .st52 {
        fill: #6c5b50;
      }

      .st53 {
        fill: #b8a68d;
      }

      .st54 {
        fill: #3678a7;
      }

      .st55 {
        fill: #4792c7;
      }

      .st56 {
        fill: #d4c1ac;
      }

      .st57 {
        fill: #fc5f3b;
      }

      .st58 {
        fill: #7e6353;
      }

      .st59 {
        fill: #363538;
      }

      .st60 {
        fill: #e94d39;
      }

      .st61 {
        fill: #fb7e69;
      }

      .st62 {
        fill: #374146;
      }

      .st63 {
        fill: #1f2328;
      }

      .st64 {
        fill: #e8c1a6;
      }
    </style>
  </defs>
  <g id="Generative_Object">
    <g class="st46">
      <path class="st8" d="M238.51,299.18c-5.71-.24-17.28-1.27-16.44,4.97.38,1.07,15.56-3.55,16.14-4.03.54-.45.2-.8.3-.94,3.52.15,5.35-1.35,5.49,3.53-3.58.85-22.9,13.17-23.74,14.65-1.28,2.25-.63,7.71-1.82,10.38.84.78,10.38-.39,13.1.69,2.02.81,3.28,4.94,4.58,6.36,2.11,2.32,6.02,2.56,6.1,6.13-5.4,2.09-4.46-6.7-10.67-6.83-.68-.01-7.35,2.72-7.61,3.07-1.53,2.07-.44,8.12-1.82,9.91-1.53,1.98-7.13,1.45-7.31,1.9-2.15,11.11-2,25.79-9.71,35.39-2.97,3.7-9.15,5.58-7.91,11.33l-38.35,30c.36-1.34.4-2.89.6-4.25.57-3.82.95-8.44.6-12.27-.47-5.13.6-6.73-7.93-6.59,1.07-10.03,1.93-20.13,2.4-30.19,1.14-.26,3.16-1.33,4.87-1.42l1.83,1.18-.31-3.54c-1.72-.06-3.47.09-5.18,0,.85-20.42.51-40.89.54-61.32l3.05-.24c-.75-3.17,2.24-8.08-3.06-8.72-.02-18.39-.05-36.8-.06-55.19,5.47-.35,5.46-12.4-.01-12.74-.02-28.14-.03-56.3-.1-84.44l3.05-.24c-.69-2.1,2.09-9.84-3.06-7.78-.04-15.87,0-31.77-.05-47.64,5.65,1.15,5.34-13.32-.02-13.21-.07-21.14-.02-42.3-.07-63.44-.83-1.49-6.4-2.54-7.31-.94l-.2,354.96-.4-350.48c-.02-.31.03-.63,0-.94-.04-.46.1-.97,0-1.42-.06-.3.03-.64,0-.94l-.31-.94c-28.88-.32-57.9.47-86.82.57l.24-59.91,165.41.05.37,317.46,7-5.43c2.51,1.64,2.38,4.52,2.14,6.84-.93,9.23-15.78,11.1-12.16,21.71,1.12,2.35,1.93-.22,3.35-.24,3.43-.05,7.85.97,11.58.46,1.49.49.24,4-.3,4.72Z"/>
      <path class="st18" d="M156.95,366.5c3.03-2.7-1.34-13.66,3.34-12.98,5.72.83,2.51,8.65,2.75,9.2.83,1.88,13.4-1.32,10.36,3.76-.66,1.11-15.8,1.13-16.45.02Z"/>
      <path class="st47" d="M238.51,299.18c-.11.14.23.5-.3.94-.58.48-15.77,5.09-16.14,4.03-.83-6.24,10.73-5.21,16.44-4.97Z"/>
      <path class="st18" d="M156.08,137.96c5.15-2.06,2.37,5.68,3.06,7.78l-3.05.24c0-2.65,0-5.37,0-8.02Z"/>
    </g>
    <g>
      <path class="st57" d="M21.97,78.2c0-.06,1.22-.37,1.22-.71.05-21.23-.1-42.45-.07-63.68,2.79-3.49,6.5-.32,7.92-.24l-.6,4.25.32,282.08c-.13.58.08,1.28,0,1.89-.72,5.74.12,12.92.02,18.87,0,.16,0,.31,0,.47-.2,13.42,2.24,33.3.05,45.76-.09.51-.9.71-.61,1.42-1.48.01-4.04.44-6.09.48.02-.42-.52-.47-.61-.94-2.76-15.12-.66-43.8-.68-60.38v-8.02c-.03-18.67.56-37.44.54-56.13v-12.26c-.05-28.14-.71-57.59-.72-84.91,0-2.54.6-5.36.6-8.02,0-15.71-.68-31.49-.66-47.17,0-4.25-.63-8.51-.62-12.74Z"/>
      <path class="st16" d="M31.04,13.57c9.37.5,20.3,0,29.85-.03,28.92-.11,57.94-.89,86.82-.57l.31.94-115.15.84,115.15.1c.1.45-.04.96,0,1.42l-115.45-.34-1.52,1.89h-.61s.6-4.25.6-4.25Z"/>
      <path class="st18" d="M22.84,299.43v8.02c-2.84.68-2.85-8.69,0-8.02Z"/>
      <path class="st9" d="M148.42,367.69l.2-354.96c.91-1.6,6.48-.55,7.31.94.06,21.15,0,42.3.07,63.44.01,4.36,0,8.82.02,13.21.05,15.87.02,31.77.05,47.64,0,2.65,0,5.36,0,8.02.07,28.14.08,56.3.1,84.44,0,4.23.01,8.53.01,12.74.01,18.39.04,36.8.06,55.19,0,2.96.01,6,.01,8.96-.02,20.44.31,40.9-.54,61.32-3-.16-6.12.06-9.14.01l1.83-.95Z"/>
      <path class="st27" d="M144.68,296.46c0-1.1,0-2.21,0-3.3-.02-27.67-.07-55.36-.1-83.02,0-.31,0-.63,0-.94-.02-19.64-.06-41.67-.07-62.27,0-.47,0-.95,0-1.42,0-.11,1.83-1.54,1.83-1.65,0-.2-1.83-1.22-1.83-1.41-.03-40.96-.11-81.93-.14-122.88l3.65-2.36.4,350.48-1.83.95c-38.22-.57-76.93-.5-115.15-.34l114.84-.6c.53-.63-1.48-1.33-1.53-1.65-2.72-20.38-.07-48.35-.08-69.58Z"/>
      <path class="st7" d="M148.02,16.26c.03.31-.02.63,0,.94l-3.65,2.36h-1.22c-35.94.04-71.96.03-107.84.13-.06-.02-1.03-.39-1.22-.47-.37-.16-.86-.31-1.22-.47-.21-.1-.59-1.32-1.83-.94l1.52-1.89,115.45.34Z"/>
      <path class="st7" d="M148.02,13.91c.03.31-.06.65,0,.94l-115.15-.1,115.15-.84Z"/>
      <path class="st18" d="M156.01,77.1c5.36-.11,5.66,14.36.02,13.21-.01-4.39,0-8.85-.02-13.21Z"/>
      <path class="st18" d="M156.18,230.41c5.47.33,5.49,12.39.01,12.74,0-4.2-.01-8.51-.01-12.74Z"/>
      <path class="st18" d="M156.26,298.34c5.3.64,2.31,5.56,3.06,8.72l-3.05.24c0-2.96,0-6-.01-8.96Z"/>
      <path class="st7" d="M30.83,366.88c.39-.04.91.07,1.22,0,.34-.08,1.77-.42,1.83-.47,2.58-2.48-.04-55.46.54-63.68.09-1.32-.07-2.68,0-4.01.25-.61,3.02-.69,3.65-.71-1.44,1.14.53,2.21,1.53,2.36,7.06,1.03,23.79-.03,31.99-.04v.94c-11.33.31-22.82-.42-34.12.28l.68,61.79,101.44.12,2.13-.71-.07-64.39c.96.05.46-.77.61-.94.18-.21,1.82-1.12,2.44-.95.01,21.23-2.64,49.2.08,69.58.04.32,2.05,1.02,1.53,1.65l-114.84.6c-.39,0-.86,0-1.22,0-.3-.71.52-.91.61-1.42Z"/>
      <path class="st3" d="M30.76,301.78c.08-.61-.13-1.31,0-1.89.3-1.37.76-3.77,2.74-4.25,5.69-1.38,32.05.42,39.91.43l-.3,2.36c-11.54.78-23.59-.8-35.03-.43-.63.02-3.41.1-3.65.71-.07,1.33.1,2.69,0,4.01l-.54,63.68c-.06.06-1.49.4-1.83.47l-1.27-45.75c0-.16,0-.31,0-.47l-.02-18.87Z"/>
      <path class="st31" d="M30.78,321.12l1.27,45.75c-.31.07-.83-.03-1.22,0,2.19-12.46-.25-32.33-.05-45.76Z"/>
      <path class="st31" d="M30.76,301.78l.02,18.87c.09-5.95-.74-13.13-.02-18.87Z"/>
      <path class="st16" d="M144.51,145.52c0,.47,0,.95,0,1.42-.92-.89-2.63.61-3.04,1.42l-104.79-.35c-.75-.41-1.5-.59-2.44-.47.38-1.28-1.03-.81-1.22-.94-.16-.11-.49-1.03-1.22-.94l112.71-.13Z"/>
      <path class="st44" d="M90.46,293.22c16.49.56,33.12.46,49.65.41,6.5-2.18-14.82-2.15-15.23-1.87-.67-1.6,4.28-.92,5.18-.95,1.55-.06,10.79-.24,11.27-.01.65.31-.37,3.14,3.35,2.35,0,1.1,0,2.21,0,3.3-.62-.17-2.25.73-2.44.95-.75-1.31-.39-1.2-2.13-1.41-11.73-1.41-36.4-.34-49.65-.41v-2.36Z"/>
      <path class="st44" d="M38.07,298c11.44-.36,23.49,1.21,35.03.43l.3-2.36c5.66,0,11.48-.52,17.06-.49,13.25.07,37.92-.99,49.65.41,1.75.21,1.38.1,2.13,1.41-.15.17.36.99-.61.94l-61.23.07c-.9.67.67,1.11.31,1.89h-9.14c-8.19.02-24.93,1.08-31.99.05-1-.15-2.97-1.21-1.53-2.36Z"/>
      <path class="st44" d="M141.47,148.35c-.34.66.69,2.43-.61,2.83l-.61-.47c1.21-1.36-.41-.91-1.52-.94-14.63-.4-96.2,1.43-102.05-1.77l104.79.35Z"/>
      <path class="st44" d="M85.58,290.4c-.07-.42.67-.51.61-.94h10.36c10.16,1.43,22.76.72,33.51.42v.94c-.9.03-5.85-.65-5.18.95.42-.28,21.73-.31,15.23,1.87-16.54.05-33.17.14-49.65-.41-.57-.02-14.08.26-10.05-1.4l8.53-.95c.03-.88-2.59-.42-3.35-.47Z"/>
      <path class="st27" d="M33.02,146.59c.19.13,1.6-.34,1.22.94l.68,57.31c-1,.52-.13,1.16-1.22,1.65l-.68-59.91Z"/>
      <path class="st5" d="M34.42,302.72c-.58,8.22,2.04,61.2-.54,63.68l.54-63.68Z"/>
      <g>
        <path class="st59" d="M26,402.73c.56,8.82,2.2,18.06,1.86,26.89-.04,1.17.04,2.36,0,3.54-6.66.62-6.31-4.79-6.71-8.48-.24-2.25-1.11-19.34-.63-20.28.55-1.09,4.21-1.38,5.48-1.66Z"/>
        <path class="st18" d="M152.12,402.59c8.53-.13,7.46,1.47,7.93,6.59-7.01,7.1-8.93,14.08-9.11,22.89,2.23,1.06,6.32-4.41,6.7-5.2.14-.29-.7-7.38,1.82-5.43-.2,1.35-.24,2.91-.6,4.25-1.17,4.34-2.5,8.2-9.74,7.09,1.31-10.11,2-20.69,3.01-30.19Z"/>
        <path class="st57" d="M28.45,414.52c3.59.51,1.16-3.34,1.21-3.54.17-.58,1.79-.74,1.83-.95.35-1.79-.76-4.29.6-5.9.22,7.67-.37,39.6,3.1,44.1.89,1.15,5.09,3.81,6.71,4.47v.47c-12.58-5.1-10.81-14.92-12.21-24.99-.63-4.52-.81-9.14-1.23-13.68Z"/>
        <path class="st48" d="M22.3,363.11c-2.06.19-4,.41-6.09.48-.17-10.5,6.14-15.55,6.09-.48Z"/>
        <path class="st20" d="M61.41,461.18c.28.05,4.89-.12,5.79,0,.24.03.57,1.37,1.22,1.41,2.35.17,4.45-.54,7.01-.48,4.11.1,10.81-.86,14.01.93-5.05.13-10.18-.16-15.23.02-4.64.17-9.51,1.2-14.62.96l1.82-2.83Z"/>
        <path class="st40" d="M26.61,402.26s1.19-.15,1.22.23c.34,4.01.25,7.98.62,12.03.42,4.54.6,9.16,1.23,13.68-2.09-1.13-.45.85-1.83,1.42.34-8.83-1.29-18.06-1.86-26.89.04,0-.1-.56.61-.47Z"/>
        <path class="st9" d="M41.9,452.72c1.92.79,8.02,2.34,10.36,1.87,3.59,1.15,9.27,1.37,12.19,2.34,1.04.35,2.29,1.5.61,1.89-7.62-1.68-16.09-2.77-23.16-5.63v-.47Z"/>
        <path class="st41" d="M89.43,463.04h.61c-5.41.5-10.08,2.24-1.82,2.83v.47c-1.72-.07-5.11.29-6.4,0-.65-.14-2.55-4.24-7.62-3.29,5.05-.18,10.18.12,15.23-.02Z"/>
        <path class="st1" d="M111.37,462.07c1.42-.02,2.19-.45,2.44-.47.39-.05.84.05,1.22,0,1.09-.16,2.51-.67,4.26-.95l1.22,2.83c-2.83.14-5.15.02-7.92,0l-1.22-1.41Z"/>
        <path class="st0" d="M98.57,463.03c1.01,0,2.04,0,3.05,0-.81.63-.4,1.53-.61,1.89-2.02.45-4.03.36-6.09.48l-1.83-2.36c1.8-.09,3.68,0,5.48,0Z"/>
        <path class="st28" d="M107.1,461.13c-.38,1.43,2.69.96,4.27.94l1.22,1.41c-3.64-.02-7.26-.44-10.97-.46-1.01,0-2.04,0-3.05,0,.2-.83,6.58-1.73,8.53-1.9Z"/>
        <path class="st52" d="M21.7,370.66c.66.14,1.69-.1,2.44,0l-.61.94c-.56-.1-1.25.06-1.83,0,.03-.11-3.13-.35,0-.94Z"/>
        <path class="st22" d="M24.14,368.77c2.05-.04,4.61-.46,6.09-.48.36,0,.82,0,1.22,0,38.22-.16,76.93-.23,115.15.34,3.02.04,6.14-.17,9.14-.01,1.7.09,3.46-.07,5.18,0l.31,3.54-1.83-1.18-135.26-.32c-.74-.1-1.77.14-2.44,0-1.13-.24-1.98-1.28-3.05-1.65l.91-.71c1.6.27,2.88.5,4.57.47Z"/>
        <path class="st20" d="M160.05,409.18c.35,3.82-.02,8.45-.6,12.27-2.52-1.95-1.68,5.14-1.82,5.43-.38.78-4.46,6.26-6.7,5.2.18-8.8,2.1-15.79,9.11-22.89Z"/>
        <path class="st9" d="M140.53,391.75c.56,2.18-.5,5.65-1.21,7.78-6.5,19.59-16.54,40.16-29.79,57.58,1.29,2.13,2.48-2.08,3.65-2.36,3.33-4.62,5.8-10.37,9.12-14.87l-8.51,17.93c-3.01.45-5.79,1.66-9.14.72l5.77-11.56c-4.03,4.7-7.67,13.92-16.13,13.7,11.87-7.38,26.48-43,31.62-54.99.33-.77,7.21-20.59,6.69-9.44-.65,13.89-17.82,34.73-20.66,47.67-.08.38-.56,3.21,1.22,2.36,9.68-16.67,16.69-34.34,20.65-52.38,1.81-1.46,4.51-1.36,6.7-2.13Z"/>
        <path class="st20" d="M147.82,376.18c-1.92,1.96-3.87,5.88-6.39,7.55-7.77,5.16-39.67,8.49-50.25,8.55-10.73.06-43.75-2.95-52.1-7.49-3.27-1.78-4.82-4.67-7.01-7.07,1.15-.32.83-1.06,2.44-.71,2.43.53,8.27,3.96,11.89,4.94,25.4,6.86,69.78,6.92,93.82-2.94,1.56-.64,4.94-4.44,7.61-2.84Z"/>
        <path class="st1" d="M30.84,375.37c1.5.38,3.42.21,4.87.47,25.63,4.58,41.16,7.02,68.24,5.58,5.77-.31,35.7-2.96,38.68-5.23.44-.33.72-2.19-.31-2.36,2.82-.37,5.48-1.51,8.53-.95-1.53.87-1.97,2.22-3.04,3.31-2.67-1.6-6.05,2.2-7.61,2.84-24.04,9.85-68.43,9.8-93.82,2.94-3.62-.98-9.46-4.41-11.89-4.94-1.6-.35-1.28.39-2.44.71-.83-.91-.95-2.04-1.22-2.36Z"/>
        <path class="st57" d="M44.33,442.81l7.01.46c2.29-.79-.75-6.37,2.43-5.66,1.21.27,11.16,15.62,11.9,17.2.55,1.18,1.61,2.36-1.22,2.12-2.92-.98-8.6-1.2-12.19-2.34-2.64-.84-5.55-2.03-7.92-3.29.03-2.82-.05-5.67,0-8.49Z"/>
        <path class="st57" d="M36.4,437.63c-1.01,6.1,1.62,10.3,7.94,13.67,2.37,1.27,5.29,2.45,7.92,3.29-2.34.46-8.44-1.09-10.36-1.87-1.62-.67-5.82-3.32-6.71-4.47-3.46-4.51-2.88-36.43-3.1-44.1-.02-.56-1.32-14.04,1.21-10.14l3.1,43.63Z"/>
        <path class="st47" d="M36.4,437.63c.17-1-.54-2.09.91-2.83,9.72-.44,7.1,2.63,7.02,8.01-.04,2.82.04,5.67,0,8.49-6.31-3.37-8.94-7.57-7.94-13.67Z"/>
        <path class="st2" d="M90.04,463.04c.2-.02.41.01.61,0,.79-.06,1.64.04,2.44,0l1.83,2.36c-1.62.09-5.65.56-6.7.48-8.25-.59-3.59-2.33,1.82-2.83Z"/>
        <path class="st47" d="M29.62,373.48c1.71-1.05,3.92.28,5.48.47l.61,1.89c-1.45-.26-3.38-.09-4.87-.47-.45-.53-1.12-1.81-1.22-1.89Z"/>
        <path class="st60" d="M122.31,439.89c1.71-2.31,2.27-5.01,6.09-5.2-2.16.97-3.03,4.24-1.82,6.13.37.59.47.38.61.47,4.12,2.7,6.76.91,6.09-3.31l1.83-.47c-.54,2.68-.12,8.13.01,11.09.04.86-.61,2.33,1.22,2.12-.95.71-3.45,1.9-1.83,2.36-5.63,1.88-14.65,3.84-20.71,4.74l8.51-17.93Z"/>
        <path class="st57" d="M135.1,437.51c.67-3.35,3.87-3.22,7.92-2.37-1.5,8.21,2.4,8.83-6.68,15.57-1.83.21-1.18-1.26-1.22-2.12-.13-2.96-.55-8.4-.01-11.09Z"/>
        <path class="st42" d="M128.39,434.69c4.29-.2,4.46.71,4.88,3.3.67,4.22-1.97,6.01-6.09,3.31l4.87-.71-1.53-3.54-3.96,3.78c-1.21-1.89-.34-5.17,1.82-6.13Z"/>
        <path class="st40" d="M107.1,461.13c1.97-.16,4.86-.2,6.7.46-.24.03-1.02.46-2.44.47-1.58.02-4.64.49-4.27-.94Z"/>
        <g>
          <path class="st9" d="M94.31,460.68c8.46.22,12.1-9,16.13-13.7l-5.77,11.56c3.35.94,6.13-.27,9.14-.72,6.05-.9,15.08-2.86,20.71-4.74,3.35-1.12,6.99-2.01,9.13-4.49,3.65-4.22,4.8-33.82,4.83-40.57,0-.52.21-9.07-1.83-6.13-1.65,2.37-.96,27.77-1.79,33.02-.07.43-1.81.17-1.83.24-4.05-.85-7.25-.99-7.92,2.37l-1.83.47c-.41-2.59-.59-3.5-4.88-3.3-3.82.18-4.38,2.88-6.09,5.2-3.32,4.5-5.79,10.25-9.12,14.87-1.18.28-2.36,4.49-3.65,2.36,13.25-17.42,23.28-38,29.79-57.58.71-2.14,1.77-5.61,1.21-7.78,1.1-.39,3.34-.18,2.13-1.89-13.91,2.91-31.26,6.27-45.69,6.18-4.95-.03-7.31,1.11-5.79-3.77,10.58-.06,42.48-3.39,50.25-8.55,2.52-1.68,4.47-5.6,6.39-7.55,1.07-1.09,1.51-2.44,3.04-3.31,1.71-.97,3.48-.44,3.65-.48-.47,10.07-1.33,20.16-2.4,30.19-1.01,9.5-1.7,20.08-3.01,30.19-1.27,9.83-1.08,16.74-13.68,21.24-4.18,1.49-17.47,3.24-19.49,4.27-1.02.52-1.52,2.4-.91,3.3-.38.06-.83-.04-1.22,0-1.84-.67-4.73-.63-6.7-.46s-8.33,1.07-8.53,1.9c-1.81,0-3.69-.08-5.48,0-.8.04-1.64-.06-2.44,0,.16-1.23,2.46-1.62,3.65-2.36Z"/>
          <path class="st9" d="M136.33,450.72c9.08-6.75,5.18-7.36,6.68-15.57.01-.07,1.76.19,1.83-.24.83-5.25.14-30.65,1.79-33.02,2.05-2.94,1.84,5.61,1.83,6.13-.02,6.75-1.18,36.35-4.83,40.57-2.14,2.48-5.78,3.37-9.13,4.49-1.62-.47.87-1.65,1.83-2.36Z"/>
          <path class="st50" d="M149.69,406.6l.91-4.01c.25.62,1.22,4.73-.91,4.01Z"/>
        </g>
        <path class="st35" d="M35.11,373.95c22.66,2.71,42.67,3.88,65.8,3.23,2.82,1.73,3.6.63,3.05,4.24-27.09,1.44-42.62-1-68.24-5.58l-.61-1.89Z"/>
        <path class="st0" d="M142.34,373.83c1.03.17.74,2.02.31,2.36-2.98,2.27-32.91,4.93-38.68,5.23.55-3.61-.23-2.51-3.05-4.24,14.38-.41,27.26-1.51,41.43-3.35Z"/>
        <g>
          <path class="st14" d="M24.14,370.66l135.26.32c-1.71.09-3.73,1.16-4.87,1.42-.18.04-1.94-.49-3.65.48-3.05-.56-5.71.59-8.53.95-14.16,1.84-27.05,2.94-41.43,3.35-23.13.65-43.14-.51-65.8-3.23-1.56-.19-3.77-1.51-5.48-.47-2.38-1.78-2.47-1-4.88-1.41-.55-.09-.66-.37-1.22-.47l.61-.94Z"/>
          <path class="st8" d="M57.04,373.22c20.17-1.2,40.75-1.22,60.93-.07-20.1,2.12-40.8,1.5-60.93.07Z"/>
        </g>
        <g>
          <path class="st36" d="M61.41,461.18l-1.82,2.83c-3.56-.17-14.5-1.06-10.06-5.18,5.31-1.39,9,1.85,11.88,2.34Z"/>
          <path class="st47" d="M50.44,461.43c.76-1.26,5.38.95,6.09,1.41l-2.74-.23-3.35-1.18Z"/>
        </g>
        <g>
          <path class="st18" d="M16.21,363.59c2.1-.07,4.03-.28,6.09-.48,0,1.08.49,3.02-.6,3.77-.69-.16-2.13.05-3.05,0-1.89-.1-12.3.31-12.79-.22-1.49-4.57,6.33-2.95,10.35-3.08Z"/>
          <path class="st59" d="M7.07,365.25c4.06-1.78,9.71-.16,14.01-.02,0,.54-12.75.26-14.01.02Z"/>
        </g>
        <g>
          <path class="st36" d="M120.51,463.48l-1.22-2.83c2.25-.35,11.35-3.57,12.79-1.19,2.46,4.05-10.12,3.95-11.57,4.02Z"/>
          <path class="st38" d="M124.77,462.76c-1.28-1.55,2.4-1.68,3.65-.95-.59.3-3.42,1.23-3.65.95Z"/>
        </g>
        <g>
          <path class="st60" d="M24.75,372.07c2.41.41,2.5-.37,4.88,1.41.1.07.77,1.36,1.22,1.89.27.32.39,1.45,1.22,2.36,2.2,2.4,3.74,5.29,7.01,7.07,8.35,4.54,41.37,7.55,52.1,7.49-1.52,4.88.84,3.74,5.79,3.77,14.42.08,31.78-3.28,45.69-6.18,1.21,1.71-1.03,1.5-2.13,1.89-2.19.77-4.88.67-6.7,2.13-3.97,18.05-10.97,35.72-20.65,52.38-1.78.86-1.3-1.98-1.22-2.36,2.84-12.93,20.01-33.78,20.66-47.67.52-11.15-6.36,8.68-6.69,9.44-5.13,11.99-19.75,47.61-31.62,54.99-1.2.74-3.5,1.13-3.65,2.36-.2.02-.41-.02-.61,0h-.61c-3.21-1.79-9.9-.82-14.01-.93-2.18-2.23-7.15-2.58-10.36-3.29,1.68-.39.43-1.54-.61-1.89,2.83.23,1.77-.94,1.22-2.12-.74-1.58-10.69-16.94-11.9-17.2-3.18-.7-.14,4.87-2.43,5.66l-7.01-.46c.08-5.38,2.71-8.45-7.02-8.01-1.45.74-.75,1.83-.91,2.83l-3.1-43.63c-2.53-3.89-1.22,9.58-1.21,10.14-1.36,1.61-.25,4.1-.6,5.9-.04.21-1.66.37-1.83.95-.06.2,2.37,4.04-1.21,3.54-.38-4.04-.28-8.02-.62-12.03-.03-.39-1.21-.19-1.22-.23-.24-2.86,1.31-1.43,1.22-2.6-.71-9.19-2.22-18.41-3.08-27.59Z"/>
          <g>
            <path class="st50" d="M89.97,397c.4,0,.82,0,1.22,0,13.44.07,24.04-.83,37.16-2.17-1.68,4.36-2.94,8.92-4.86,13.21-1.83,4.09-4.16,8.23-6.08,12.27-.04.09-1.39.52-1.83,1.42-.28.58.78.83.61,1.18l-22.5,35.4c-1.55-.12-1.34,1.18-2.43,1.89-.08-.24-.46-.81-.61-.94l-.68-62.26Z"/>
            <path class="st57" d="M38.17,391.87c1.77.85,6.16.66,7.31,2.11.7.89,3.54,12.58,4.28,14.85,2.04,6.29,3.72,13.46,6.72,20.04,1.04,2.28,9.07,11.3,3.67,11.55-9.38-15.12-15.57-27.41-20.77-43.85-.5-1.57-.78-3.16-1.22-4.72Z"/>
            <path class="st61" d="M65.03,430.52c1.02,1.99,7.41,10.91,7.32,11.55-.77,5.96-5.26-4.68-7.32-3.53-.94-1.42-2.16-2.76-3.05-4.24l-15.28-40.31c3.23-4.07,6.41,11.03,6.72,11.78,3.37,8.26,7.49,16.7,11.6,24.75Z"/>
            <path class="st47" d="M91.19,397c-.4,0-.82,0-1.22,0-12.93-.14-25.54-.93-38.39-2.08,5.2,16.62,13.42,33.01,24.43,47.85l-1.22.94c-3.25-4.39-6.13-9.01-9.76-13.2-4.11-8.05-8.23-16.49-11.6-24.75-.31-.75-3.48-15.85-6.72-11.78l15.28,40.31c-4.98-8.23-8.91-16.71-12.21-25.46-.74-2.27-3.58-13.96-4.28-14.85-1.15-1.45-5.55-1.26-7.31-2.11-.02-.06-1.52.28-1.22-.71,17.23,3.32,33.66,4.17,51.49,4.89,1.18.05,2.28-.27,2.74.94Z"/>
            <path class="st57" d="M65.04,438.54c2.05-1.16,6.55,9.49,7.32,3.53.08-.64-6.31-9.55-7.32-11.55,3.63,4.19,6.52,8.81,9.76,13.2,4.33,5.85,8.69,11.63,14.03,16.97-10.64-.01-19.18-15.2-23.79-22.14Z"/>
            <path class="st50" d="M39.4,396.59c5.19,16.44,11.39,28.73,20.77,43.85,3.58,5.77,7.61,12,10.68,17.44-.54.27-1.78-.86-2.13-1.18-8.29-7.53-29.13-49.99-30.53-57.99-.16-.88-.17-1.81,1.22-2.12Z"/>
            <path class="st57" d="M93.69,458.32l22.5-35.4c-3.36,6.85-7,14.79-11.55,21.95-3.27,5.14-6.76,10.51-10.95,15.11v-1.65Z"/>
            <path class="st19" d="M76.01,442.77c4.15,5.6,9.28,11.54,14.64,16.49.15.14.53.7.61.94-.1.06.26.78-.3.94-1.06.31-1.62-.47-2.13-.47-5.34-5.33-9.71-11.12-14.03-16.97l1.22-.94Z"/>
            <path class="st12" d="M47.37,440.45c.3-.9,1.75-2.47-.61-2.36.13-3.24.54-2.55,4.87-2.13-.24,2.9,1.45,6.08-3.34,6.84-4.14-2.13-.97-2.19-.92-2.36Z"/>
            <path class="st22" d="M46.76,438.09c2.37-.11.91,1.46.61,2.36-.74-.8-.65-1.43-.61-2.36Z"/>
            <path class="st57" d="M89.97,397l.68,62.26c-5.36-4.96-10.49-10.89-14.64-16.49-11-14.84-19.23-31.23-24.43-47.85,12.84,1.15,25.45,1.94,38.39,2.08Z"/>
          </g>
        </g>
        <path class="st25" d="M127.18,441.3c-.14-.09-.24.11-.61-.47l3.96-3.78,1.53,3.54-4.87.71Z"/>
      </g>
      <path class="st64" d="M86.77,264.92c2.35-.68,9.09.51,11.58.46l.03,22.64c-3.27-.29-8.17.19-11.58.25l-.03-23.35Z"/>
      <g>
        <path class="st30" d="M98.35,265.38c4.41-.09,10.61-1.34,14.93-.49.46.09.08,1.62,1.22,1.89,2.87.66,20.76-.74,21.63.21l.02,21.23c-.69,1.21-12.87.7-15.23.73l-2.16-21.7-.89,21.23c-1.79.04-3.67-.49-4.57-.47-.23,0,.48,1.4-.61,1.42-3.55.06-7.12-.07-10.66.01.58-.89-2.53-1.31-3.66-1.41l-.03-22.64Z"/>
        <path class="st33" d="M120.92,288.94c-1.46.02-2.89-.47-3.05-.47l.89-21.23,2.16,21.7Z"/>
        <path class="st59" d="M130.66,283.74h1.83c-.07.22,3.59.76-2.13,2.83-1.16-.8.3-2.69.3-2.83Z"/>
        <path class="st48" d="M133.09,282.32h-2.44c.06-.18-1.33-2.86,2.74-1.42,1.27.45-.31,1.34-.3,1.42Z"/>
        <path class="st42" d="M130.66,282.33h2.44c.14,1.73-.27.41-.61,1.41h-1.83c.01-.45-.12-1.04,0-1.41Z"/>
      </g>
      <g>
        <path class="st14" d="M130.06,289.88c-10.75.3-23.35,1.01-33.51-.43,1.82,0,3.67.04,5.48,0,3.54-.08,7.11.05,10.66-.01,1.09-.02.38-1.41.61-1.42.9-.02,2.78.51,4.57.47.16,0,1.59.48,3.05.47,2.36-.03,14.54.48,15.23-.73l-.02-21.23c-.87-.95-18.76.45-21.63-.21-1.14-.26-.76-1.8-1.22-1.89-4.32-.85-10.51.4-14.93.49-2.49.05-9.23-1.14-11.58-.46l-1.22.71c.21,7.95-.52,15.89.64,23.82.06.43-.68.52-.61.94-15.99-1.1-32.15.1-48.13-.65l.83-75.71,103.27.59-.52,75c-.44.48-9.32.2-10.97.25Z"/>
        <g>
          <path class="st51" d="M85.55,262.1c1.77-.39,1.81-5.54,1.82-7.08h10.05c1.04-.49.27-2.97.3-3.31.1-1.09.18-7.75-.31-8.02-.65-.35-8.99.27-10.66.01,0-.78,0-1.58,0-2.36h10.97s13.4-.03,13.4-.03h10.97s12.79-.03,12.79-.03c.01,3.6.1,7.25.01,10.85-11.5-1.59-13.65,2.88-13.11-8.48-12.39-.63-10.55.13-10.65,8.5-.01,1.09.55,1.89.61,2.83.07,1.09-.05,2.21,0,3.3.04.78-.02,1.58,0,2.36-4.3.84-15.78-2.27-14.01,2.85-3.36-.07-7.69,1.03-11.27.48-1.23-.57-.73-1.16-.92-1.89Z"/>
          <path class="st51" d="M67.25,243.72c4.45-.01,8.91-1.04,13.4-.25l.02,19.81c-.42.46-11.01.24-12.79.25-4.08-6.01-.02-8.79.59-14.86l-14.62.25c.05-.6-1.51-3.12-.31-4.25,1.35-.74,11.77,1.16,13.71-.96Z"/>
          <path class="st51" d="M97.07,217.27c4.59-.15,9.03-.65,13.71-.49.88.03.81,1.41.92,1.41l-.58,23.11-13.4.02-.64-24.06Z"/>
          <path class="st51" d="M65.39,217.31c-.31.84,4.87,2.78,5.18,2.82,2.26.34,6.61-.3,9.14-.01,2.68-4.28-10.2-2.84-13.71-2.81v-.94c1.91,0,14.2-.24,14.62.22l.02,18.87c-.4.43-2.89.24-3.66.24-3.63-.01-8.18-1.08-11.58-1.4-.86-1.89-.16-11.99-.62-12.5-.56-.61-9.28-.02-10.97-.22.07-.72-1.87-3.17.3-4.25,3.75-.07,7.53.08,11.27-.01Z"/>
          <path class="st51" d="M121.44,218.19c1.94.09,12.92-.3,13.4.22.03,7.63,0,15.26.03,22.88h-12.79s-.64-23.1-.64-23.1Z"/>
          <path class="st64" d="M86.71,217.28c3.23-.42,7.07.09,10.36-.01l.64,24.06h-10.97c-.03-8,0-16.03-.03-24.04Z"/>
          <path class="st64" d="M111.69,218.2c3.22.14,6.53-.16,9.75-.01l.64,23.11h-10.97s.58-23.1.58-23.1Z"/>
          <path class="st64" d="M52.65,264.96c1.26-.18,4.69-.11,6.09,0s3.68-.27,4.27.7c-.71,7.43.71,15.03.64,22.41-1.94-.3-10.16.72-10.97-.69-1.62-2.82,1.2-18.23-.03-22.41Z"/>
          <path class="st64" d="M53.85,248.92l14.62-.25c-.62,6.07-4.67,8.85-.59,14.86-.4,0-.82,0-1.22,0-2.4,0-4.93.14-7.31,0l.91-1.89c-1.04.03-6.78-.45-7.01-.7-.79-.86.44-10.31.6-12.03Z"/>
          <path class="st23" d="M134.89,252.13c-.1,4,.08,8.02.01,12.03-.44.48-6.63.2-7.92.24.51-2.09,6.45-.23,7.31-1.19.44-.49-.34-6.32,0-7.55-.45-.49-10.4-.17-12.19-.22-1.53-.05-1.15-.47-1.22-.47,4.95-3.94-6.87-2.65-9.75-2.82.1-8.37-1.74-9.13,10.65-8.5-.54,11.35,1.61,6.89,13.11,8.48Z"/>
          <path class="st30" d="M122.1,255.45c1.78.05,11.73-.27,12.19.22-.33,1.22.45,7.06,0,7.55-.86.96-6.8-.9-7.31,1.19-1.95.07-3.78-.46-4.87-.47.62-.95-.6-2.97-.61-3.3-.03-1.1.81-3.78.6-5.19Z"/>
          <path class="st24" d="M66,216.36v.94c-.2,0-.41,0-.61,0-3.74.09-7.52-.06-11.27.01-2.17,1.07-.23,3.53-.3,4.25-.38,4.02-.97,7.98-.6,12.03.82.89,10.45.53,12.19.69,3.4.32,7.94,1.39,11.58,1.4l-26.81-.21-.02-18.4c5.26-.4,10.58-.73,15.84-.73Z"/>
          <path class="st24" d="M67.25,243.72c-1.94,2.12-12.36.22-13.71.96-1.2,1.12.36,3.64.31,4.25-.15,1.72-1.38,11.17-.6,12.03.23.25,5.97.73,7.01.7l-.91,1.89c-.2-.01-.41.01-.61,0-2.77-.18-5.7-.64-8.53-.7l-.02-18.87c.49-.54,14.86-.25,17.06-.26Z"/>
          <path class="st22" d="M52.65,264.96c1.23,4.18-1.59,19.59.03,22.41.81,1.41,9.03.39,10.97.69,0,.46-.66.52-.61.94-1.83-.04-12.35.26-12.79-.22l-.03-23.59c.37-.48,1.77-.14,2.44-.24Z"/>
          <path class="st22" d="M86.71,217.28c.02,8.01,0,16.05.03,24.06,0,.78,0,1.58,0,2.36,0,2.82.61,5.78.62,8.49,0,.92,0,1.91,0,2.83,0,1.54-.05,6.69-1.82,7.08l-.66-44.58c.24-.44,1.3-.17,1.83-.24Z"/>
          <path class="st47" d="M86.77,264.92l.03,23.35c3.41-.06,8.3-.54,11.58-.25,1.13.1,4.24.52,3.66,1.41-1.82.04-3.67,0-5.48,0h-10.36c-1.16-7.91-.43-15.85-.64-23.81l1.22-.71Z"/>
          <path class="st58" d="M111.74,260.65c-.02-.78.04-1.58,0-2.36l9.75,2.35c0,.33,1.23,2.36.61,3.3-3.71-.03-7.15-.44-10.36-.46.59-.87.03-1.78,0-2.83Z"/>
          <path class="st33" d="M111.74,260.65c.03,1.05.59,1.96,0,2.83-4.71-.03-9.23.12-14.01.02-1.77-5.11,9.71-2.01,14.01-2.85Z"/>
          <path class="st64" d="M86.74,243.7c1.67.26,10.02-.37,10.66-.01.49.27.41,6.93.31,8.02l-10.36.48c0-2.71-.61-5.67-.62-8.49Z"/>
          <path class="st4" d="M111.74,254.99c3.03.08,6.12-.13,9.14-.01.07,0-.31.43,1.22.47.2,1.4-.63,4.09-.6,5.19l-9.75-2.35c-.05-1.09.06-2.21,0-3.3Z"/>
          <path class="st24" d="M87.36,252.19l10.36-.48c-.03.34.74,2.82-.3,3.3h-10.05c0-.91,0-1.9,0-2.82Z"/>
          <path class="st24" d="M111.12,252.16c2.88.17,14.71-1.13,9.75,2.82-3.02-.12-6.11.09-9.14.01-.06-.94-.63-1.74-.61-2.83Z"/>
          <g>
            <path class="st51" d="M58.74,263.54c.2.01.41-.01.61,0,2.39.13,4.91-.01,7.31,0-.09,1.49-1.45,1.13.92,1.41,2.08.25,12.5-.43,13.1.22l.03,22.88c-1.91.67-2.84-.88-3.05-.94l.61-3.07c-1.9-.6-2.85-.41-3.65.95l2.44,1.41c-2.97-1.36-1.4.46-1.83.71-2.69,1.59-4.84.85-8.83.95-1.11.03-2.73-.41-1.52.95-.6,0-1.22.01-1.83,0-.05-.43.6-.49.61-.94.08-7.38-1.35-14.97-.64-22.41-.58-.97-2.86-.6-4.27-.7v-1.42Z"/>
            <path class="st23" d="M75.22,287.11c.71.1,1.91-.16,2.44,0,.2.06,1.14,1.61,3.05.94l-.91.94c-4.97-.02-9.96.05-14.93.02-1.21-1.36.41-.92,1.52-.95,3.99-.1,6.15.64,8.83-.95Z"/>
            <path class="st39" d="M77.66,287.11c-.53-.16-1.72.1-2.44,0,.42-.25-1.15-2.07,1.83-.71l-2.44-1.41c.81-1.35,1.76-1.54,3.65-.95l-.61,3.07Z"/>
            <path class="st33" d="M75.21,279.8c-.99-.92,3.82-3.23,4.26-.95.28,1.44-3.66,1.52-4.26.95Z"/>
            <path class="st48" d="M74.6,281.68c-.57-1.7,3.69-.92,4.26,0-.77,1.1-3.95.94-4.26,0Z"/>
          </g>
          <path class="st64" d="M53.82,221.57c1.69.21,10.4-.39,10.97.22.47.51-.24,10.61.62,12.5-1.74-.17-11.37.2-12.19-.69-.37-4.05.22-8.01.6-12.03Z"/>
          <path class="st13" d="M65.39,217.31c.2,0,.41,0,.61,0,3.51-.03,16.39-1.46,13.71,2.81-2.53-.29-6.88.35-9.14.01-.31-.05-5.49-1.98-5.18-2.82Z"/>
        </g>
      </g>
      <g>
        <path class="st14" d="M71.58,301.26c2.93-.08,5.89.05,8.83-.01.56-.21.19-.69.3-.94.36-.78-1.21-1.22-.31-1.89l61.23-.07.07,64.39-2.13.71-101.44-.12-.68-61.79c11.29-.7,22.79.03,34.12-.28Z"/>
        <g>
          <path class="st54" d="M71.58,300.32h9.14c-.12.24.25.72-.3.93-2.94.06-5.9-.07-8.83.01v-.94Z"/>
          <path class="st51" d="M97.17,303.12c5.71-.13,9.46.39,14.62.45l-.58,22.64c-4.49.04-8.93.01-13.4.02l-.64-23.11Z"/>
          <path class="st51" d="M121.54,303.09c2.19.04,12.71-.52,13.4.69.71,7.43-.66,15.03-.58,22.41-4.05.05-8.14-.06-12.19.01l-.64-23.11Z"/>
          <path class="st64" d="M86.81,303.13c2.16-.41,7.64.05,10.36-.01l.64,23.11c-3.19,0-8.35-.39-10.97.96-.3-7.97.2-16.06-.03-24.06Z"/>
          <path class="st30" d="M86.84,327.19c2.61-1.34,7.77-.95,10.97-.96,4.48,0,8.91.02,13.4-.02,3.61-.03,7.32.05,10.97-.01,4.05-.07,8.13.04,12.19-.01,0,.66.01,1.22,0,1.89-.55-.05-.66.51-1.22.47-5.96-.44-6.58.27-11.58.49-1.43.06-8.92-1.09-10.05-.46-.92,2.72.21,5.79-.29,8.49-.11.61.33,2.01-.3,2.36h-12.79c-.63-.33-.19-1.73-.31-2.34-1.56-8.21,4.75-9.17-10.98-8.48-.02-.47.02-.95,0-1.42Z"/>
          <path class="st64" d="M111.79,303.58c3.05.04,6.51-.55,9.75-.48l.64,23.11c-3.64.06-7.36-.02-10.97.01l.58-22.64Z"/>
          <path class="st24" d="M86.81,303.13c.22,8-.27,16.08.03,24.06.02.47-.02.95,0,1.42.05,1.28-.3,7.92,0,8.25.56.61,9.28.02,10.97.22.12.61-.32,2.01.31,2.36h12.79c.63-.36.19-1.76.3-2.37,3.64-.08,7.33.09,10.97-.01.01,1.06-.61,2.69-.61,2.83h-9.75c-4.86.02-9.77-.08-14.62.03-1.57.03-9.92-.23-10.36.25v8.02s10.98.22,10.98.22v.94c-1.77-.04-11.74.26-12.18-.22l-.66-45.28c.57-.74,1.07-.57,1.83-.71Z"/>
          <path class="st51" d="M111.83,339.9l-.6,9.43c-4.45.01-8.96.11-13.4.02v-.94c0-2.74.46-5.87-.62-8.49,4.85-.1,9.77-.01,14.62-.02Z"/>
          <path class="st64" d="M111.83,339.9h9.75c.02,3,1.16,6.28.62,9.42-3.62.09-7.32,0-10.97.01l.6-9.43Z"/>
          <path class="st24" d="M66.13,329.57c-.08,0-.42.89-.91.94-1.92.21-11.05-.28-11.58.01-1.2,1.12.36,3.64.31,4.25-.33,3.69-1.01,7.35-.6,11.09.75,1.3,4.39.44,5.79.7,3,.56,2.9.33,6.4.46,1.1.04,5.55.37,6.09,1.41-7.07.18-14.26.08-21.32-.21l-.02-18.4,15.84-.25Z"/>
          <path class="st24" d="M65.49,303.16c-.06,0,.21.9-.3.94-2.01.19-10.8-.66-11.58.01-1.2,1.04.36,3.65.31,4.25-.34,3.69-1,7.35-.6,11.09,3.84,2.18,8.1,1.03,12.19,1.17,1.66.05,6,.29,6.09,1.41-7.07.18-14.26.08-21.32-.21l-.02-18.4,15.23-.25Z"/>
          <path class="st64" d="M53.92,308.36c1.38-.72,10.59-.66,10.97-.25.47.51-.16,10.61.62,12.5-4.08-.13-8.34,1.01-12.19-1.17-.4-3.74.26-7.39.6-11.09Z"/>
          <g>
            <path class="st51" d="M65.49,303.16c5.09-.4,10.11-.9,15.23-.25l.02,18.87c-.43.48-7.74.21-9.14.25-.09-1.12-4.43-1.35-6.09-1.41-.78-1.89-.16-11.99-.62-12.5-.38-.41-9.59-.47-10.97.25.05-.59-1.51-3.2-.31-4.25.78-.68,9.57.17,11.58-.01.51-.05.24-.94.3-.94Z"/>
            <path class="st13" d="M65.49,304.81c.71-2.11,13.81-1.15,14.32-.72,3.86,3.26-12.91,1.8-14.32.72Z"/>
          </g>
          <path class="st64" d="M53.95,334.78c1.38-.72,10.59-.66,10.97-.25.47.51,0,10.77.62,12.5-3.5-.14-3.4.1-6.4-.46-1.4-.26-5.04.6-5.79-.7-.41-3.74.27-7.39.6-11.09Z"/>
          <g>
            <path class="st51" d="M66.13,329.57c4.88-.41,9.7-.89,14.62-.25l.02,18.87c-.43.48-7.74.21-9.14.25-.55-1.04-4.99-1.37-6.09-1.41-.61-1.73-.16-11.99-.62-12.5-.38-.41-9.59-.47-10.97.25.05-.6-1.51-3.12-.31-4.25.52-.29,9.66.19,11.58-.01.5-.05.84-.94.91-.94Z"/>
            <path class="st13" d="M64.3,331.23c1.52-1.37,15.17-1.64,15.84-.96,4.12,4.21-14.4,2.44-15.84.96Z"/>
          </g>
          <path class="st51" d="M121.57,329.04c4.99-.22,5.62-.93,11.58-.49,2.83,9.57-.75,8.21-10.96,8.5-.03-2.71-.1-5.34-.62-8.02Z"/>
          <path class="st64" d="M86.84,328.61c15.72-.69,9.42.26,10.98,8.48-1.69-.21-10.4.39-10.97-.22-.31-.34.04-6.98,0-8.25Z"/>
          <path class="st64" d="M121.57,329.04c.52,2.68.59,5.31.62,8.02-3.64.1-7.33-.06-10.97.01.51-2.7-.63-5.77.29-8.49,1.13-.63,8.62.52,10.05.46Z"/>
          <g>
            <path class="st51" d="M121.58,339.89c0-.14.62-1.77.61-2.83,10.21-.29,13.78,1.07,10.96-8.5.56.04.67-.53,1.22-.47-.03,2.72,1.57,19.97.63,20.99-4.22.51-8.55.15-12.79.25.54-3.15-.6-6.42-.62-9.43Z"/>
            <path class="st11" d="M129.51,345.54l2.44.47c-.7,3.94-3.11,1.13-2.44-.47Z"/>
            <path class="st49" d="M128.9,342.94c-.15-.67,3.45-.69,3.66.47l-3.66-.47Z"/>
            <path class="st49" d="M131.95,346.01l-2.44-.47c.68-1.62,2.8-1.59,2.44.47Z"/>
          </g>
          <path class="st64" d="M97.21,339.91c1.08,2.62.62,5.75.62,8.49l-10.97-.22v-8.02c.42-.47,8.77-.21,10.35-.25Z"/>
        </g>
      </g>
      <g>
        <path class="st7" d="M30.43,17.81h.61c1.24-.38,1.62.85,1.83.94l1.06,123.11.16-122.64c.19.08,1.16.45,1.22.47s-.22.85.31.94l107.53-1.07h1.22c.03,40.95.11,81.92.14,122.88,0,.2,1.83,1.22,1.83,1.41,0,.11-1.83,1.54-1.83,1.65l-112.71.13-.54,61.09c.57-.07,2.33-.19,2.44-.24,1.08-.49.21-1.14,1.22-1.65l-.68-57.31c.94-.12,1.69.06,2.44.47,5.85,3.2,87.43,1.37,102.05,1.77,1.12.03,2.73-.42,1.52.94l-102.05-.35-.85,53.07,103.88.59-.37-52.83c1.3-.4.27-2.17.61-2.83.42-.81,2.12-2.31,3.04-1.42.02,20.59.06,42.63.07,62.27l-112.71.13-.51,83.73c1.12.83,1.74-.23,1.83-.24,3.76-.43,1.21-1.19,1.22-2.12.29-26.49-.3-53-.09-79.48.45.05,2.31.4,2.44.47.33.19.64,1.36.92,1.41l102.96.35.61-2.36c-10.4.58-20.93.11-31.38.04l34.73-.98c.02,27.67.08,55.36.1,83.02-3.73.78-2.7-2.05-3.35-2.35-.48-.23-9.73-.04-11.27.01v-.94c1.65-.05,10.52.24,10.97-.25l.52-75-103.27-.59-.83,75.71c15.98.75,32.14-.45,48.13.65.76.05,3.39-.41,3.35.47l-8.53.95c-4.02,1.67,9.49,1.38,10.05,1.4v2.36c-5.57-.03-11.4.5-17.06.49-7.85,0-34.22-1.81-39.91-.43-1.97.48-2.43,2.88-2.74,4.25l-.32-282.08Z"/>
        <g>
          <path class="st7" d="M144.58,209.2c0,.31,0,.63,0,.94l-34.73.98c-24.41-.17-48.75.37-73.11.56-.12-.07-1.99-.41-2.44-.47.37-.91-.55-.88-.61-.94-.07-.07-1.47-.82-1.83-.94l112.71-.13Z"/>
          <path class="st27" d="M32.87,18.75c.36.16.85.31,1.22.47l-.16,122.64-1.06-123.11Z"/>
          <path class="st16" d="M35.31,19.7c35.88-.1,71.9-.08,107.84-.12l-107.53,1.07c-.52-.1-.24-.92-.31-.94Z"/>
          <path class="st54" d="M39.59,34.79l69.76-.08.91-2.36,31.07-.04c-.06,2.01-.61,4.47-.6,6.13-14.21,0-28.44.06-42.65.05-.34-.57-.59-2.67-.92-2.83-3.28-1.53-49.96,1.23-57.57.07-.06-.3.04-.64,0-.94Z"/>
          <path class="st55" d="M81.01,29.08c20.09-.11,40.22.02,60.32-.07.02.78.01,1.58,0,2.36l-102.35.59c.12-.68-.34-2.48.3-2.83,13.91-.06,27.83.03,41.73-.05Z"/>
          <path class="st7" d="M66.39,25.79c24.78-.19,49.55.15,74.33-.09.93.9.58,1.84.61,2.83-20.06-.87-40.23-.35-60.32-.4-5.29-.01-40.03.98-41.73.05-.5-.27-.5-2.08,0-2.36,1.1-.61,23.56,0,27.11-.03Z"/>
          <path class="st44" d="M109.86,211.12c10.45.07,20.98.54,31.38-.04l-.61,2.36-102.96-.35c-.28-.05-.58-1.23-.92-1.41,24.36-.19,48.7-.72,73.11-.56Z"/>
          <path class="st7" d="M38.97,22.99l102.35-.12c.54.21.1,2.27,0,2.36-24.94-.95-49.98-.26-74.94-.39-3.64-.02-25.94.56-27.11.03-.64-.29-.14-1.38-.31-1.89Z"/>
          <path class="st3" d="M31.87,209.33c.36.12,1.76.87,1.83.94l-.51,82.55c-.09.01-.71,1.07-1.83.24l.51-83.73Z"/>
          <path class="st3" d="M31.8,145.65c.73-.09,1.06.83,1.22.94l.68,59.91c-.11.05-1.87.17-2.44.24l.54-61.09Z"/>
          <path class="st44" d="M39.11,142.57l51.48-.77,52.09.18c-34.47,1.51-69.07.43-103.57.59Z"/>
          <path class="st54" d="M141.33,31.37c0,.31,0,.63,0,.94l-31.07.04-71.28.08c.02-.16-.03-.32,0-.47l102.35-.59Z"/>
          <path class="st5" d="M33.7,210.27c.06.07.98.03.61.94-.21,26.48.38,52.99.09,79.48-.01.93,2.54,1.69-1.22,2.12l.51-82.55Z"/>
          <path class="st54" d="M66.39,24.85c24.96.12,50-.56,74.94.39-.05.04.09.56-.61.47-24.78.24-49.55-.11-74.33.09v-.94Z"/>
          <path class="st44" d="M78.78,206.21l32.59-1.22,31.99.67c-21.4,1.29-43.11-.51-64.58.55Z"/>
          <path class="st54" d="M81.01,28.13c20.09.06,40.25-.47,60.32.4,0,.16,0,.31,0,.47-20.09.09-40.22-.04-60.32.07v-.94Z"/>
          <path class="st54" d="M141.32,22.88l-102.35.12s-.72.08-.61-.47l102.96.35Z"/>
          <path class="st55" d="M38.98,32.43l71.28-.08-.91,2.36-69.76.08c-.04-.32-.76-1.12-.61-2.36Z"/>
          <path class="st55" d="M39.59,35.73c7.61,1.16,54.29-1.59,57.57-.07.33.15.58,2.26.92,2.83-19.23-.01-38.4-.24-57.57.07-3-.86-.87-2.62-.92-2.83Z"/>
          <g>
            <path class="st43" d="M37.19,69.22c2.79.89,2.78-6.56,0-5.66.03-13.44-.06-26.89-.05-40.33l1.22-.71c-.11.55.6.44.61.47.16.5-.33,1.6.31,1.89,1.17.53,23.47-.05,27.11-.03v.94c-3.55.03-26.01-.58-27.11.03-.5.27-.5,2.09,0,2.36,1.7.93,36.44-.06,41.73-.05v.94c-13.9.08-27.82-.01-41.73.05-.64.35-.18,2.15-.3,2.83-.03.15.02.32,0,.47-.14,1.24.57,2.03.61,2.36.04.3-.06.64,0,.94.04.21-2.08,1.97.92,2.83,19.18-.31,38.35-.08,57.57-.07,14.21,0,28.44-.05,42.65-.05.08,32.17.19,64.47.11,96.7.17,1.62-4.15.83-6.09.95v-.94c-.02-15.59-1.56-33.35-.67-48.59.03-.51,2.88-4.08.6-5.66.53-6.62-.42-13.4-.02-20.05-.44-.48-12.07-.19-14.01-.22-4.31-.07-8.61.46-12.79.49-.37,0-.82,0-1.22,0-4.66.02-9.35-.02-14.01.02-3.85.03-7.73.03-11.58.01-.4,0-.82,0-1.22,0-2.79-.01-17.29-1.16-18.58-.45-.66.37-.15,2.12-.3,2.83-5.16-.12-10.36.1-15.54.02-1.13.28-.83,4-.91,4.72-.02.16.01.32,0,.47-2.02,3.53-5.44,4.67-4.56,8.97l-2.14-3.77c0-1.31-.62-3.06-.61-4.72Z"/>
            <g>
              <path class="st43" d="M37.19,63.56c2.79-.9,2.8,6.55,0,5.66,0-1.88-.01-3.78,0-5.66Z"/>
              <path class="st16" d="M38.99,43.98c-.13-.13-.13-1.89.3-2.12,1.38-.76,29.66.37,33.81.2-.33.46-.61,2-.91,2.12-1.48.59-32.21.83-33.2-.2Z"/>
              <path class="st16" d="M39,47.29c-.13-.13-.13-1.89.3-2.12,1.23-.68,26.61-.03,30.16.67-.6.29-1.69,1.56-2.13,1.65-1.36.3-27.48.67-28.33-.2Z"/>
              <path class="st16" d="M38.99,40.68c-.16-.16-.1-1.45.3-1.65,1.54-.78,32.34.39,36.86.19.15.15-.78,1.61-.91,1.65-1.65.58-35.14.91-36.25-.19Z"/>
              <path class="st16" d="M39,50.59c-.13-.13-.13-1.89.3-2.12,1.08-.59,23.19.25,26.5.21-1,.37-1.36,1.92-2.13,2.13-1.17.31-23.93.56-24.68-.21Z"/>
              <path class="st54" d="M39,53.89c-.13-.13-.13-1.89.3-2.12.93-.51,19.96.19,22.85.21,2.79,2.76-22.41,2.67-23.15,1.91Z"/>
              <path class="st54" d="M39.01,57.19c-.13-.13-.13-1.89.3-2.12.78-.43,18.58-.36,19.19.21,3.14,2.91-18.86,2.56-19.49,1.91Z"/>
              <path class="st54" d="M39.01,60.49c-3-3.08,15.64-2.52,16.75-2.14.3.1-1.13,2.62,4.57,2.12-2.57.16-20.68.68-21.32.02Z"/>
            </g>
          </g>
          <path class="st32" d="M45.76,104.12c-.01.62.01,1.26,0,1.89-9.44,2.54-9.38-4.44,0-1.89Z"/>
          <path class="st32" d="M45.76,97.04c-.03.78.02,1.58,0,2.36-9.38.97-9.41-3.31,0-2.36Z"/>
          <path class="st32" d="M45.76,100.82c-.02.62.02,1.26,0,1.89-9.62,1.17-9.09-4,0-1.89Z"/>
          <path class="st32" d="M45.77,107.42c-.01.78,0,1.58,0,2.36-9.19.63-9.79-3.5,0-2.36Z"/>
          <g>
            <path class="st14" d="M37.81,73.94l2.14,3.77c-.88-4.3,2.54-5.44,4.56-8.97-.37,4.44.28,8.99.02,13.44.65,1.13,15.77.77,18.28.69,1.83-.06,8.88.29,9.75-.25l-.33-19.1c-3.75-.06-7.53.1-11.27.01.15-.71-.36-2.47.3-2.83,1.29-.71,15.79.44,18.58.45l-1.19,23.35c1.14,1.17,15.53.75,18.28.69,1.46-.03,9.31.23,9.75-.25l-.03-23.82c.4,0,.84,0,1.22,0l.03,23.35,26.5.68c.61-.25.16-1.02.3-1.42.23-.65-.07-1.99,0-2.83,2.28,1.58-.57,5.15-.6,5.66-4.46.02-8.94,0-13.4.02-4.01.02-8.3.5-12.18.49-.4,0-.82,0-1.22,0-3.19.02-6.94-.47-10.36-.46-4.41.01-8.72-.1-13.1-.46-1.56.54-.83,6.55-.9,8.02-.65,13.39.03,27.14.05,40.57v.47s0,.94,0,.94c-1.74.46-4.27-.44-5.48-.47l-.06-48.35c-6.46-.32-13.04-.37-19.5-.21-2.69.06-5.98-.24-8.53,0-1.3.13-2.71-.41-3.65.71-.09,3.06.14,6.14.01,9.2-9.4-.95-9.38,3.33,0,2.36-.01.47.02.95,0,1.42-9.09-2.12-9.62,3.05,0,1.89-.01.47,0,.95,0,1.42-9.38-2.55-9.44,4.43,0,1.89,0,.47,0,.95,0,1.42-9.79-1.15-9.19,2.99,0,2.36-.07,8.7.07,17.45.03,26.18.98,1.71,10.32.23,12.19.22.2,0,.41,0,.61,0,8.02.85,16.3.45,24.37.44,8.52,0,17.07.02,25.59-.03s17.4.06,26.2-.5c1.94-.12,6.26.67,6.09-.95,0,1,1.64,4.05-.3,4.72l-102.35.12c-1.95-21.9-.41-44.08-.38-66.04Z"/>
            <path class="st51" d="M92.63,61.14c4.66-.03,9.35,0,14.01-.02l.03,23.82c-.43.47-8.29.21-9.75.25,1.08-1.05-3.29-2.23-4.27-2.35l-.02-21.7Z"/>
            <path class="st64" d="M107.86,61.12c4.18-.03,8.49-.55,12.79-.49l.03,23.35c.39.79,11.85.21,14.01-.25-.14.39.31,1.17-.3,1.42l-26.5-.68-.03-23.35Z"/>
            <path class="st64" d="M108.53,113.48h11.58s.63,21.92.63,21.92l14.01-.25v.94c-8.79.56-17.39.45-26.2.5-.04-.3.09-.69,0-.94-1.25-3.57-.03-17.39-.03-22.17Z"/>
            <path class="st51" d="M60.95,63.53c3.74.09,7.52-.07,11.27-.01l.33,19.1c-.87.53-7.91.19-9.75.25-.07-.16-1.11-1.39-1.22-1.41.12-8.01,1.98-9.29-9.76-8.48,1.22-.05,9.51-.85,9.75-1.19.58-.9-.62-2.01-.61-2.12.08-.95.95-4.56-.92-5.19-1.32-.44-10.51.1-12.49.49-.39.08-1.38-1.01-1.83-.23-.55.94,1.13,3.83-1.21,3.54.08-.72-.22-4.44.91-4.72,5.17.08,10.37-.14,15.54-.02Z"/>
            <path class="st64" d="M81.05,61.15c3.85.02,7.73.01,11.58-.01l.02,21.7c-1.84-.23-10.39.4-10.97-.22l-.63-21.46Z"/>
            <path class="st24" d="M79.83,61.15c.4,0,.82,0,1.22,0l.63,21.46c.57.63,9.13,0,10.97.22.98.12,5.35,1.31,4.27,2.35-2.75.06-17.13.48-18.28-.69l1.19-23.35Z"/>
            <path class="st24" d="M44.5,68.74c.01-.16-.02-.32,0-.47,2.34.29.67-2.6,1.21-3.54.45-.77,1.44.31,1.83.23.85,1.71.57,3.42.62,5.19.02.78,0,1.58,0,2.36.02,1.34-.28,9.1.32,9.43,3.13-.41,10.33-1.01,13.1-.49.11.02,1.15,1.25,1.22,1.41-2.51.08-17.63.44-18.28-.69.27-4.45-.38-9-.02-13.44Z"/>
            <path class="st51" d="M96.92,86.61c3.42,0,7.17.48,10.36.46l-.55,48.59c-3.03,0-6.11.09-9.14.01l-.03-22.17c2.54-.26,4.97-.77,7.62-.48,2.24-4.49-2.86-4.09-7.62-4.24l-.63-22.17Z"/>
            <path class="st64" d="M96.92,86.61l.63,22.17c-1.85-.06-12.47,1.26-13.4.25-.12-4.24.15-8.5-.01-12.74-.03-.86.61-2.33-1.22-2.12.07-1.47-.66-7.48.9-8.02,4.38.36,8.69.47,13.1.46Z"/>
            <path class="st64" d="M97.56,113.49l.03,22.17c-4.87-.12-9.72-.72-14.62-.45v-.47s1.19-20.52,1.19-20.52c4.52-.27,8.89-.26,13.4-.72Z"/>
            <path class="st64" d="M108.5,87.07c3.88.01,8.18-.46,12.18-.49l.02,14.15v8.96c-4.05.02-8.17.23-12.18-.46,0-7.36-.03-14.79-.03-22.17Z"/>
            <path class="st64" d="M49.4,87.13c2.55-.25,5.84.05,8.53,0l.64,22.88-11.58.25c.31-3.33-.77-20.77-.03-21.93.39-.61,2.82.42,2.44-1.18Z"/>
            <path class="st56" d="M82.92,94.17c1.83-.21,1.19,1.26,1.22,2.12.16,4.24-.11,8.5.01,12.74.93,1.01,11.55-.31,13.4-.25,4.76.14,9.86-.26,7.62,4.24-2.65-.29-5.08.22-7.62.48-4.51.46-8.88.45-13.4.72l-1.19,20.52c-.02-13.43-.7-27.18-.05-40.57Z"/>
            <path class="st33" d="M107.28,87.07c.4,0,.82,0,1.22,0,0,7.38.02,14.81.03,22.17,0,1.4,0,2.86,0,4.25,0,4.78-1.23,18.6.03,22.17h-1.83s.55-48.58.55-48.58Z"/>
            <path class="st22" d="M45.77,109.78c0-.78-.01-1.58,0-2.36,0-.47,0-.95,0-1.42,0-.62-.01-1.26,0-1.89,0-.47-.01-.95,0-1.42.01-.62-.02-1.26,0-1.89.01-.47-.01-.95,0-1.42.02-.78-.04-1.58,0-2.36.13-3.05-.1-6.14-.01-9.2.95-1.12,2.36-.58,3.65-.71.39,1.6-2.04.57-2.44,1.18-.75,1.16.34,18.6.03,21.93-.06.65-1.68,2.95,0,3.77.07.07.42-.06.61,0l-.58,21.46c.89.52,9.04.2,10.97.22v.47c-1.86,0-11.2,1.49-12.18-.22.04-8.73-.1-17.48-.03-26.18Z"/>
            <path class="st22" d="M82.96,135.21c4.91-.26,9.75.33,14.62.45,3.03.08,6.11,0,9.14-.01h1.83c.09.25-.04.64,0,.94-8.52.05-17.07.02-25.59.03v-.47s0-.94,0-.94Z"/>
            <path class="st6" d="M77.48,135.69c1.22.03,3.74.93,5.48.47v.47c-8.07,0-16.35.41-24.37-.44,6.18-.04,12.85-.64,18.89-.49Z"/>
            <path class="st51" d="M120.7,100.73c7.89.91,4.78-1.73,5.48-2.6.62-.77,1.38.33,1.83.23-1.19,2.56-.88,3.64,3.05,3.3.34,1.21,0,.88,0,.94-1.81-.2-3.7-.16-3.04,1.65.73,2.01,2.92,1.54,3.05,1.65.42.35-.03,2.21,1.83.71l-.3,3.07c-3.96.01-7.93,0-11.88.01v-8.96Z"/>
            <path class="st53" d="M108.52,109.24c4.01.69,8.12.48,12.19.46v.47s0,3.3,0,3.3c-.2,0-.41,0-.61,0h-11.58c0-1.38,0-2.84,0-4.23Z"/>
            <g>
              <path class="st51" d="M120.71,113.47c1.79,0,12.91.21,13.4-.25.72-5.3-8.76-2.31-13.41-3.05v-.47c3.95-.02,7.92,0,11.88-.01l.3-3.07c-1.86,1.5-1.4-.35-1.83-.71,1.44-1.32,0-2.21,0-3.3,0-.06.33.26,0-.94-.42-1.49,1.56-1.18-2.44-2.59,1.34-.48,5.68.38,4.26-1.89-.11-.18-3.93.99-4.87,1.18-.45.09-1.21-1.01-1.83-.23-.7.87,2.41,3.52-5.48,2.6l-.02-14.15c4.46-.02,8.94,0,13.4-.02-.9,15.23.65,32.99.67,48.59l-14.01.25-.63-21.93c.2,0,.41,0,.61,0Z"/>
              <g>
                <path class="st30" d="M120.71,110.17c4.64.74,14.13-2.25,13.41,3.05-.49.46-11.61.25-13.4.25v-3.3Z"/>
                <path class="st48" d="M128.01,98.36c.94-.19,4.76-1.36,4.87-1.18,1.41,2.27-2.92,1.41-4.26,1.89,4,1.41,2.02,1.1,2.44,2.59-3.93.35-4.24-.74-3.05-3.3Z"/>
                <path class="st59" d="M127.43,130.21c1.29-1.48,6.24.7,4.27,2.83s-4.74-2.29-4.27-2.83Z"/>
                <path class="st17" d="M127.43,128.32c-1.97-3.19,5.6-1.52,4.87,0-.26.54-4.07,1.31-4.87,0Z"/>
                <polygon class="st45" points="128.04 125.02 132 123.83 132.3 126.43 128.04 125.02"/>
              </g>
            </g>
            <path class="st23" d="M48.16,72.51c1.36.24,2.14.53,3.66.47,11.73-.81,9.88.47,9.76,8.48-2.77-.52-9.97.08-13.1.49-.6-.34-.3-8.09-.32-9.43Z"/>
            <path class="st51" d="M47.55,64.97c1.98-.39,11.17-.93,12.49-.49,1.87.63,1,4.24.92,5.19l-12.79.49c-.05-1.77.24-3.48-.62-5.19Z"/>
            <path class="st64" d="M48.16,70.15l12.79-.49c0,.11,1.19,1.22.61,2.12-.23.34-8.52,1.14-9.75,1.19-1.52.07-2.3-.22-3.66-.47-.01-.78.02-1.58,0-2.36Z"/>
            <path class="st51" d="M57.96,114.95l18.58-.02c.35,3.37.87,7.06-.29,10.38-2.36.48-3.59.84-4.87,1.89-.9.74.01.45,0,.47-.91,1.62.11,1.49,0,1.89-.34,1.21,0,.89,0,.94,0,.25-.62,1.34-.61,1.42.02.22-.63-.25,0,.94.31.59,1,.82,1.22,1.41-1.4,2.21-10.76,1.47-14.01,1.43,1.04-6.86-.62-13.85-.02-20.76Z"/>
            <path class="st64" d="M47.6,114.02h10.36c-.03.14.02.3,0,.46s.01.32,0,.47c-.59,6.91,1.06,13.89.02,20.76-1.93-.02-10.08.29-10.97-.22l.58-21.46Z"/>
            <path class="st53" d="M57.96,113.54c-.04.15.03.32,0,.47h-10.36c-.19-.05-.54.09-.61.01-.14-.15-.12-2.6.3-2.83,3.96.59,10.26-1.8,10.66,2.35Z"/>
            <g>
              <path class="st51" d="M46.99,110.25l11.58-.25-.64-22.88c6.46-.15,13.04-.1,19.5.21l.06,48.35c-6.04-.14-12.71.45-18.89.49-.2,0-.41,0-.61,0v-.47c3.25.04,12.61.78,14.01-1.43.61-.96.79-1.27-1.22-1.41-.63-1.19.02-.72,0-.94l3.05,1.65c.38-1.98,1.25-3.43-2.44-3.06,0-.05-.34.27,0-.94,5.27.04,3.9-1.01,0-1.89.01-.02-.9.26,0-.47,1.06-.43,3.69.55,3.96.47.71-.21.75-1.9.91-2.36,1.16-3.31.64-7.01.29-10.38l-18.58.02c.01-.16-.02-.32,0-.47,3.01-.68,23.34,1.77,18.88-3.09l-17.97-.22c-1.42.66-.67,1.55-.91,2.36-.41-4.15-6.7-1.75-10.66-2.35-.43.23-.44,2.68-.3,2.83-1.68-.82-.07-3.12,0-3.77Z"/>
              <g>
                <path class="st30" d="M57.96,113.54c.24-.81-.51-1.7.91-2.36l17.97.22c4.46,4.86-15.88,2.41-18.88,3.09.02-.16-.03-.32,0-.47s-.04-.32,0-.47Z"/>
                <path class="st62" d="M71.38,130.51c3.69-.37,2.82,1.08,2.44,3.06l-3.05-1.65c0-.07.6-1.17.61-1.42Z"/>
                <path class="st20" d="M70.74,102.91c-.49-1.42,3.86-1.66,4.26-.48.49,1.42-3.86,1.66-4.26.48Z"/>
                <path class="st59" d="M71.36,106.21c-1.14-2.42,3.88-2.61,3.05,1.41-.2.21-2.99-1.28-3.05-1.41Z"/>
                <path class="st33" d="M76.25,125.31c-.16.46-.2,2.15-.91,2.36-.27.08-2.91-.9-3.96-.47,1.28-1.06,2.52-1.41,4.87-1.89Z"/>
                <path class="st63" d="M71.38,127.68c3.9.88,5.27,1.93,0,1.89.11-.39-.91-.27,0-1.89Z"/>
                <path class="st33" d="M71.35,100.55c.27-1.29,3.82-.7,4.87-.48-1.03,1.08-3.36.85-4.87.48Z"/>
                <path class="st62" d="M72,134.28c-.22-.59-.91-.83-1.22-1.41,2.01.14,1.83.45,1.22,1.41Z"/>
              </g>
            </g>
            <g>
              <path class="st59" d="M131.06,102.61c0,1.09,1.45,1.98,0,3.3-.13-.11-2.32.37-3.05-1.65-.66-1.82,1.24-1.86,3.04-1.65Z"/>
              <path class="st21" d="M129.84,105.2c-.83-1.21,1.09-1.36,1.22-.47,0,.05-.89.95-1.22.47Z"/>
            </g>
            <g>
              <path class="st51" d="M120.65,60.64c1.94.03,13.58-.26,14.01.22-.39,6.64.56,13.42.02,20.05-.07.84.24,2.19,0,2.83-2.16.46-13.62,1.04-14.01.25l-.03-23.35Z"/>
              <path class="st48" d="M129.2,75.72c6.4,2.32-.37,3-1.22,2.12-1.41-1.47,1.14-1.99,1.22-2.12Z"/>
              <path class="st33" d="M129.2,75.72c.16-.26-1.31-1-.31-1.41.6-.25,7.65-.39,3.66,1.41h-3.35Z"/>
              <g>
                <path class="st52" d="M128.6,82.09c-1.22-1.94,1.19-3.97,2.74-2.6,1.96,1.74-1.14,5.14-2.74,2.6Z"/>
                <path class="st56" d="M129.82,81.62c-.34-.72.9-1.04,1.22-.47.39.69-.95,1.04-1.22.47Z"/>
              </g>
            </g>
          </g>
        </g>
      </g>
      <g>
        <polygon class="st14" points="140.25 150.71 140.86 151.18 141.23 204.01 37.35 203.42 38.2 150.36 140.25 150.71"/>
        <g>
          <path class="st51" d="M64.71,153.63l5.79,2.82c1.57-1.18,8.23.02,9.14-.48.5-.28.5-2.56,0-2.83-.65-.35-12.13.39-14.32.49l-.61-.94c2.03-.02,15.38-.28,15.84.22l.02,18.87c-.44.49-3.87.18-4.87.24-2.04-1.34-7.55-1.23-10.36-1.4-.8-1.81-.16-11.99-.62-12.5-.56-.61-9.28-.02-10.97-.22.04-.48-1.53-3.57-.31-4.25,3.74-.11,7.54.14,11.27-.01Z"/>
          <path class="st64" d="M108.57,153.1c4.05.03,8.14-.1,12.19-.01l.02,13.68c0,3.14.05,6.3.01,9.43,0,.16,0,.31,0,.47h-12.19c0-7.81-.02-15.72-.03-23.57Z"/>
          <path class="st64" d="M85.45,180.49c3.25.39,9.05.68,12.19.46l.02,21.7c-1.77-.04-11.74.26-12.19-.22-.18-7.3.21-14.64-.03-21.93Z"/>
          <path class="st64" d="M108.61,180.46c3.75.76,7.75.49,11.58.46.2,0,.41,0,.61,0l.02,21.7c-4.03.11-8.15.03-12.19.01-.01-7.38,0-14.79-.03-22.17Z"/>
          <path class="st64" d="M86.03,153.13c1.86-.72,8.52-.43,10.97-.48.31,2.87,1.51,22.4.64,23.35-.57.62-10.22-.13-12.18.72,0-.16,0-.31,0-.47l.58-23.11Z"/>
          <path class="st64" d="M62.91,177.69l.03,23.59c-3.85-.07-7.73.06-11.58.01l1.19-20.99-2.44.24c.12-.68-.34-2.48.3-2.83,4.16-.07,8.34.08,12.49-.01Z"/>
          <path class="st51" d="M97,152.65c3.48-.07,7.03.46,10.36.46-.37,8.59-.64,17.33-.58,25.94-2.21.25-.63-1.9-1.53-2.36-1.45-.74-16.75,1.24-19.8.49,0-.16,0-.31,0-.47,1.96-.86,11.62-.1,12.18-.72.87-.95-.33-20.48-.64-23.35Z"/>
          <path class="st51" d="M97.64,180.95c.06,0-.2-.91.3-.94,2.9-.2,5.93.14,8.83-.01.04,6.36,1.48,15.01.63,20.99-.15,1.03-.09,1.73-1.83,1.65-2.63-.03-5.29.07-7.92,0l-.02-21.7Z"/>
          <path class="st24" d="M49.49,169.68c-.06-5.55.92-11.15.59-16.75.43-.47,12.64-.23,14.62-.25l.61.94c-.2,0-.41,0-.61,0-3.73.15-7.53-.1-11.27.01-1.22.67.35,3.77.31,4.25-.34,3.85-1,7.66-.6,11.56.53.92,10.31,1.05,12.19,1.17,2.81.17,8.32.07,10.36,1.4-8.71.55-18.45-.08-26.2-.91,1.29-1.15,0-1.34,0-1.42Z"/>
          <path class="st33" d="M106.78,179.99c0-.31,0-.63,0-.94-.06-8.62.21-17.35.58-25.94.4,0,.82,0,1.22,0,0,7.85.02,15.76.03,23.59,0,1.25,0,2.53,0,3.77.02,7.38.01,14.79.03,22.17-1.04,0-1.99.01-3.05,0,1.74.07,1.68-.62,1.83-1.65.85-5.98-.59-14.63-.63-20.99Z"/>
          <path class="st53" d="M85.45,177.19c3.05.74,18.35-1.24,19.8-.49.89.46-.69,2.61,1.53,2.36,0,.31,0,.63,0,.94-2.91.15-5.93-.19-8.83.01-.51.04-.24.94-.3.94-3.14.22-8.94-.07-12.19-.46-.04-1.09.02-2.21,0-3.3Z"/>
          <path class="st22" d="M50.12,184.78c.02-.62-.04-1.26,0-1.89.05-.77-.13-1.61,0-2.36l2.44-.24-1.19,20.99-1.22-.23c.14-5.42-.21-10.86-.02-16.27Z"/>
          <path class="st47" d="M86.03,153.13l-.58,23.11c-.06-7.57-1.24-15.26-.64-22.88.3-.44.97-.14,1.22-.24Z"/>
          <path class="st16" d="M49.49,169.68c0,.07,1.29.27,0,1.42-1.22-.13-11.7-.26-10.36-1.64.41-.42,8.78.68,10.36.22Z"/>
          <path class="st10" d="M50.12,182.89c-.04.62.02,1.26,0,1.89l-10.97-.69,10.97-1.19Z"/>
          <path class="st51" d="M120.77,166.77c1.23-.48,5.39.63,5.79.47.5-.2-.99-1.64,2.13-2.36-.25.84-.51,1.46-.61,2.36-.07.6-.05,1.28,0,1.89.09,1.19.6.89.61.94.07.4-.47.15,0,1.42l.61,1.41c.06.12-.04.31,0,.47.48,1.73,2.88-.15,3.66,1.18,2.01,3.44-9.44,2.12-12.18,1.66.04-3.14,0-6.3-.01-9.43Z"/>
          <path class="st53" d="M108.6,176.69h12.19c0,.14,0,.3,0,.46-.04,1.28.37,2.61-.6,3.77-3.83.03-7.82.3-11.58-.46,0-1.25,0-2.53,0-3.77Z"/>
          <g>
            <path class="st51" d="M120.79,180.92c1.67-.01,12.42-.07,12.79-.72,2.86-5-9.18-2.49-12.8-3.05,0-.16,0-.31,0-.47s0-.31,0-.47c2.75.46,14.19,1.78,12.18-1.66-.77-1.33-3.18.56-3.66-1.18,1.02.18,1.33-.48,1.83-.95.18-.16,1.23.06.61-.94-.82-1.3-.26-1.66-3.05-1.41,0-.05-.52.24-.61-.94,3.33.62,5.63-1.7,1.22-1.89,1.7-.5,4.64-.5,3.65-2.6-.07-.16-4.06.19-4.26.24-3.12.72-1.63,2.16-2.13,2.36-.4.16-4.56-.94-5.79-.47l-.02-13.68c1.96.04,13.57-.27,14.01.22l.06,48.59c-.7,1.23-11.75.66-14.01.72l-.02-21.7Z"/>
            <g>
              <path class="st30" d="M120.79,177.15c3.62.56,15.66-1.94,12.8,3.05-.37.65-11.12.71-12.79.72-.2,0-.41,0-.61,0,.98-1.16.57-2.5.6-3.77Z"/>
              <path class="st33" d="M128.69,164.87c.2-.05,4.19-.4,4.26-.24.99,2.1-1.95,2.1-3.65,2.6-.26.08-.83-.04-1.22,0,.1-.9.36-1.51.61-2.36Z"/>
              <path class="st48" d="M127.51,195.3c-1.19-2.24,4.04-1.47,4.26-.48s-3.55,1.83-4.26.48Z"/>
              <path class="st63" d="M128.7,170.06c2.79-.25,2.23.11,3.05,1.41l-.61.94c-.5.47-.81,1.12-1.83.95-.04-.16.06-.35,0-.47-.18-.34.91-.61.61-1.18-.22-.42-1.2-.18-1.22-.23-.47-1.26.07-1.01,0-1.42Z"/>
              <path class="st20" d="M128.09,167.23c.39-.04.96.08,1.22,0,4.42.19,2.11,2.51-1.22,1.89-.05-.6-.07-1.29,0-1.89Z"/>
              <path class="st63" d="M127.51,197.66c.4-1.65,5.23-.64,3.66.94-.89.89-3.86-.11-3.66-.94Z"/>
              <path class="st45" d="M127.51,192.94c1.56-1.27,5.41.64,3.35-2.13l2.13,1.18c-.88,1.77-3.45,1.3-5.48.95Z"/>
              <path class="st26" d="M131.75,171.47c.63,1-.43.78-.61.94l.61-.94Z"/>
            </g>
          </g>
          <path class="st64" d="M53.75,157.88c1.69.21,10.4-.39,10.97.22.47.51-.18,10.69.62,12.5-1.88-.11-11.66-.25-12.19-1.17-.4-3.89.26-7.71.6-11.56Z"/>
          <path class="st13" d="M64.71,153.63c.2,0,.41,0,.61,0,2.18-.1,13.67-.84,14.32-.49.5.27.5,2.55,0,2.83-.91.5-7.56-.7-9.14.48l-5.79-2.82Z"/>
          <path class="st15" d="M128.7,171.48c.02.05,1-.19,1.22.23.3.57-.79.84-.61,1.18l-.61-1.41Z"/>
          <g>
            <path class="st51" d="M62.91,177.69c5.85-.13,11.82-.12,17.67.22l.03,22.64c-.66,1.15-15.17.77-17.67.73l-.03-23.59Z"/>
            <g>
              <path class="st63" d="M74.5,193.95c-.61-1.89,3.38-1.34,3.65-.48.44,1.36-3.28,1.65-3.65.48Z"/>
              <path class="st29" d="M74.51,196.54c.27.05,1.18.43,1.22.47.26.25.54,2.39,1.22,0h.61c.53,3.52-3.77,1.79-3.05-.47Z"/>
              <path class="st34" d="M77.55,197.01h-.61s-1.22,0-1.22,0c-.04-.04-.95-.42-1.22-.47.5-1.57,2.72-1.71,3.05.47Z"/>
              <path class="st37" d="M75.11,191.59c0-.34,3.72-.41,4.26,0,0,.36-4.26.37-4.26,0Z"/>
              <path class="st31" d="M75.72,197.01h1.22c-.68,2.39-.96.25-1.22,0Z"/>
            </g>
          </g>
        </g>
      </g>
    </g>
  </g>
</svg>