<?xml version="1.0" encoding="UTF-8"?>
<svg id="Layer_1" xmlns="http://www.w3.org/2000/svg" version="1.1" xmlns:xlink="http://www.w3.org/1999/xlink" viewBox="0 0 501 261">
  <!-- Generator: Adobe Illustrator 29.5.0, SVG Export Plug-In . SVG Version: 2.1.0 Build 137)  -->
  <defs>
    <style>
      .st0 {
        fill: #2c6137;
      }

      .st1 {
        fill: #506f89;
      }

      .st2 {
        fill: #fff;
      }

      .st3 {
        fill: #1d3b56;
      }

      .st4 {
        fill: #50190a;
      }

      .st5 {
        fill: #974b25;
      }

      .st6 {
        fill: #355771;
      }

      .st7 {
        fill: #dfdcd8;
      }

      .st8 {
        fill: #dd8651;
      }

      .st9 {
        fill: #d24c3f;
      }

      .st10 {
        fill: #9f9893;
      }

      .st11 {
        fill: #883d1d;
      }

      .st12 {
        fill: #0f1706;
      }

      .st13 {
        fill: #263f20;
      }

      .st14 {
        fill: #af663e;
      }

      .st15 {
        fill: #562b14;
      }

      .st16 {
        fill: #409560;
      }

      .st17 {
        fill: #cac7c2;
      }

      .st18 {
        fill: #1e0e08;
      }

      .st19 {
        fill: #b7b2ad;
      }

      .st20 {
        fill: #743019;
      }

      .st21 {
        fill: #f3aa77;
      }

      .st22 {
        fill: url(#linear-gradient);
      }
    </style>
    <linearGradient id="linear-gradient" x1="290.51" y1="60.34" x2="290.53" y2="152.61" gradientUnits="userSpaceOnUse">
      <stop offset="0" stop-color="#f4f2f2"/>
      <stop offset="1" stop-color="#cbc7c3"/>
    </linearGradient>
  </defs>
  <g id="Generative_Object">
    <g>
      <g>
        <path class="st15" d="M460.79,233.99c-.14,1.06-2.13,6.99-2.47,7.14-3.6,1.57-26.73-1.52-29.66,0-.98.5-1.31,7.87-1.37,9.34-.98.05-.27,1.61-.82,1.65-3.11.22-8.51.33-11.53,0-.16-.02-.73-1.64-.82-1.65.05-1.33-.86-9.03-1.37-9.34-1.65-.99-33.46-.47-38.45-.55-97.9-1.52-195.94.94-293.84.55-1.59.66-1.42,6.62-1.92,8.24-.24.77-.04,2-.82,2.75-4.38-.84-10.69,2.12-12.36-2.2-.71-1.84-.18-8.07-1.92-8.79-4.42-1.84-28.27,1.83-32.4,0-1.64-.73-.36-4.22-.82-5.22-.43-.91-2.55-.76-3.84-1.92h434.44Z"/>
        <path class="st17" d="M431.13,198.84c1.05-1.93,1.89-2.52,2.2-4.94s.43-23.3,0-24.44c-.86-2.29-11.08-6.51-13.73-7.41.02-9.57.2-19.38,1.65-28.83.97-6.37,3.6-12.58,4.39-18.95,5.5-3.28,18.84-7.21,25.26-8.24l-8.24,10.16c-6.49,26.96-4.38,55.42-2.75,82.93-3-.01-5.75-.69-8.79-.27Z"/>
        <path class="st17" d="M65.89,114.26c.95,1.9,2.48,4.41,3.84,6.04l1.65,42.84c-3.77,1.46-11.97,5.09-13.18,8.79s-.69,23.01,2.75,26.36l-1.65,2.2c-1.29-.16-5.52,1.01-6.04-.27-1.67-24.91,3.27-55.97-3.3-79.91-.64-2.33-.74-4.63-2.2-6.87-1.62-2.49-5.88-4.15-6.59-6.87,8.39,1.63,16.59,5.24,24.72,7.69Z"/>
        <path class="st17" d="M425.63,114.26c-.8,6.37-3.42,12.58-4.39,18.95-1.44,9.46-1.63,19.27-1.65,28.83-2.14-.73-6.84-2.35-8.79-2.75-.15-10.83,1.73-22.28,5.49-32.4,2.58-6.94,2.57-8.6,9.34-12.63Z"/>
        <path class="st19" d="M426.18,201.04c.06,0-.18,1.06.27,1.1,7.78.71,17.61,5.52,4.39,7.14-37.76,4.62-92.31,1.43-131.82,1.65-81.1.45-162.33-.37-243.31-2.2l-1.37-3.02c2.76-3.43,6.98-2.08,10.44-4.12,118.09,1.67,236.78,1.55,355.08,1.1,1.51,0,5.42-1.69,6.32-1.65Z"/>
        <g>
          <path class="st17" d="M33.48,106.02c6.1,4.63,12.08,7.67,16.48,14.28,6.57,23.94,1.63,55.01,3.3,79.91.52,1.29,4.75.11,6.04.27,2.03.25,3.48.05,5.49,1.1-3.46,2.04-7.68.69-10.44,4.12l1.37,3.02c80.98,1.83,162.21,2.65,243.31,2.2,39.51-.22,94.06,2.97,131.82-1.65,13.22-1.62,3.39-6.43-4.39-7.14-.46-.04-.22-1.1-.27-1.1v-.55c-.09-.63.44-.48.55-.55,1.69-.07,2.6-.85,4.39-1.1,3.03-.42,5.79.26,8.79.27-1.64-27.52-3.75-55.97,2.75-82.93l8.24-10.16c9.67-1.54,33.44-4.16,35.7,9.06,2.94,17.19-11.42,72.93-15.38,92.82-1.42,7.13-.35,29.08-10.44,26.09H26.34c-1.17-1.05-2.72-1.99-3.3-3.57-1.74-4.82-3.05-19.98-4.39-26.64,1.82-3.03.51-9.29,0-12.91-3.49-24.71-7.96-49.41-11.53-74.15-.21-1.43.61-2.19-1.65-1.92,2.74-11.83,19.39-9.59,28.01-8.79Z"/>
          <g>
            <path class="st7" d="M41.17,106.57c.71,2.71,4.97,4.37,6.59,6.87,1.46,2.24,1.56,4.54,2.2,6.87-4.4-6.61-10.38-9.65-16.48-14.28,2.62.24,4.52-.06,7.69.55Z"/>
            <path class="st7" d="M38.98,113.16c4.07,5.04,5.84,12.57,7.14,18.95,2.62,12.84,7.36,73.29,2.2,82.38-4.05,7.13-11.17,5.5-15.38-.55-6.12-8.8-22.59-77.09-22.52-88.43,0-.6,1.42-9.18,1.65-9.61,2.15-4.05,13.67-6.56,17.85-6.04,3.45.43,5.87,3.57,9.06,3.3Z"/>
            <path class="st7" d="M480.01,115.9l-1.1.27c.33.78,1.59,3.32,1.65,3.84,1.17,11.54-15.06,83.39-21.97,92.27-3.99,5.14-10.87,6.3-14.83.55s-2.58-35.61-2.2-43.94c.52-11.19,2.55-46.46,9.89-54.1,7.34-7.64,21.27-5.72,28.56,1.1Z"/>
            <path class="st2" d="M480.01,115.9c-7.29-6.82-21.22-8.74-28.56-1.1,3.41-9.05,16.18-8.87,23.89-6.04,2.31.85,10.59,5.98,4.67,7.14Z"/>
            <path class="st2" d="M38.98,113.16c-3.19.27-5.61-2.86-9.06-3.3-4.18-.52-15.7,1.99-17.85,6.04-4.39.87-1.78-3.26.27-4.94,7.01-5.73,20.68-5.19,26.64,2.2Z"/>
          </g>
        </g>
        <path class="st19" d="M69.73,120.3c.67.81,5.27,5.05,6.04,5.49,4.74,11.24,3.95,22.8,2.75,34.6-1.1.26-5.62,2.16-7.14,2.75l-1.65-42.84Z"/>
      </g>
      <g>
        <path class="st22" d="M416.3,126.89c-3.77,10.13-5.64,21.57-5.49,32.4-4.77-.98-11.55-.32-16.48-1.65-.27-3.36-5.21-5.92-8.24-6.04-.05-.03-.5-1.07-.55-1.1,2.66-13.85-17.25-5.79-24.17-4.94-.96.12-1.32.55-2.2.55-4.87,0-24.52-9.74-31.58-11.53-12.95-3.3-17.84-.96-29.11-1.65-6.46-.39-25.47-9.74-33.5-12.08-15.74-4.59-28.16-7.99-44.21-2.75-4.93,1.61-8.68,4.16-13.18,6.04-1.81.76-1.54,1.6-1.65,1.65-5.6,2.34-12.24,3.37-18.12,4.94-3.27-4.56-10.26-9.54-14.28-13.73.49-1.5-7.12-10.3-8.79-11.53,14.58-9.55,18.47-21.21,13.73-37.9-.52-1.82-.82-3.77-1.65-5.49l-1.37-6.04,230.13.55c11.85,3.64,6.95,27.54,7.41,37.62.5,10.85,2.08,21.9,3.3,32.68Z"/>
        <path class="st17" d="M82.91,127.99c10.35,2.53,18.95,1.56,29.11-1.1-.48,2.75.72,11.24.55,14.28-.29,5.07-1.91,11.66-1.65,16.48-10,.76-22.76.44-32.4,2.75,1.2-11.8,1.99-23.36-2.75-34.6,1.79,1.02,5.07,1.69,7.14,2.2Z"/>
      </g>
      <g>
        <path class="st10" d="M249.33,197.74c.36,0,.74,0,1.1,0,1.07,2.5,3.65,2.27,5.77,3.3l169.99-.55v.55c-.9-.04-4.81,1.64-6.32,1.65-118.3.46-236.99.57-355.08-1.1.12-.07-.27-1.46.27-1.65.09-.03,1.52,1.09,1.65,1.1,55.91,1.75,112.12-1.31,168.06,0,1.92-.35,3.88-2.68,4.12-2.75,1.15-.3,2.08-1.08,2.2-1.1.46-.08,6.62.55,8.24.55Z"/>
        <g>
          <path class="st2" d="M410.81,159.29c1.95.4,6.65,2.01,8.79,2.75,2.65.9,12.87,5.13,13.73,7.41.43,1.14.3,22.11,0,24.44-1.47-.68-1.45-.31-1.65-1.92-.57-4.7,2.25-19.9-3.02-21.15h-175.2l-.82-2.2c20.3-10.13,67.13-3.96,90.35-4.39,10.44-.2,22.67-3.13,33.23-2.2,5.34.47,19.07,7.59,18.12-4.39,4.93,1.33,11.71.67,16.48,1.65Z"/>
          <path class="st7" d="M252.63,168.63l.82,2.2h175.2c5.27,1.25,2.46,16.45,3.02,21.15.19,1.61.18,1.24,1.65,1.92-.31,2.42-1.15,3.01-2.2,4.94-1.8.25-2.71,1.03-4.39,1.1.25-.17,1.65-1.27,1.65-1.37l-1.37-.82c-58.83,1.73-117.76-.18-176.58,0-.36,0-.74,0-1.1,0-4.42-6.82-4.76-25.09,3.3-29.11Z"/>
          <path class="st17" d="M426.73,199.94c-.11.07-.64-.08-.55.55l-169.99.55c-2.12-1.03-4.7-.8-5.77-3.3,58.82-.18,117.75,1.73,176.58,0l1.37.82c0,.11-1.39,1.2-1.65,1.37Z"/>
          <path class="st17" d="M359.18,156.55c3.23.28,6.27,1.28,9.34,2.2,2.2.66,6.08,1.67,7.69,3.3-10.56-.93-22.79,2-33.23,2.2-23.22.43-70.05-5.74-90.35,4.39-8.06,4.02-7.71,22.29-3.3,29.11-1.62,0-7.78-.63-8.24-.55,2.61-6.23,3.19-17.66,1.65-24.17-.76-3.21-.06-3.36-4.12-4.94l-17.3-3.3c1.53.13,2.72.47,4.39.55,37.94,1.79,78.12-7.37,116.99-8.24,5.46-.12,10.99-1.02,16.48-.55Z"/>
        </g>
        <g>
          <path class="st17" d="M60.94,198.29h177.95c-.24.06-2.2,2.4-4.12,2.75-55.94-1.31-112.15,1.75-168.06,0-.13,0-1.55-1.13-1.65-1.1-.54.19-.16,1.58-.27,1.65-2.01-1.05-3.46-.85-5.49-1.1l1.65-2.2Z"/>
          <path class="st7" d="M242.74,173.02c1.54,6.51.96,17.93-1.65,24.17-.12.02-1.05.79-2.2,1.1H60.94c-3.44-3.36-3.97-22.62-2.75-26.36l2.47-1.1c45.04.53,90.1-1.08,135.11-.55,10.31.12,36.29-1.15,44.49.55.47.1,1.62,2.1,2.47,2.2Z"/>
          <path class="st2" d="M110.92,157.65c.78,14.29,13.08,8.2,21.15,3.84l2.47,2.75c-.33.24-1.95.58-1.37,1.1,3.03-1.8,3.43.5,4.94.55,3.04.1,6.93-.94,10.16-1.1,3.98-.19,9.16-1.01,12.91-1.1,19.74-.45,39.36,1.1,59.04,1.1.36.03.74-.03,1.1,0l17.3,3.3c4.06,1.58,3.36,1.74,4.12,4.94-.85-.1-2-2.1-2.47-2.2-8.2-1.7-34.18-.43-44.49-.55-45.01-.53-90.07,1.08-135.11.55l-2.47,1.1c1.21-3.7,9.41-7.33,13.18-8.79,1.52-.59,6.04-2.48,7.14-2.75,9.64-2.31,22.4-1.98,32.4-2.75Z"/>
          <path class="st17" d="M188.37,160.94c6.56.48,13.26.52,19.77,1.1,1.67.15,7.8,2.42,10.98,2.75.36.04.74-.03,1.1,0-19.68,0-39.3-1.55-59.04-1.1-3.75.09-8.93.9-12.91,1.1-3.7-.25,2.92-5.39,3.3-5.49,4.68-1.25,30.16,1.17,36.8,1.65Z"/>
        </g>
      </g>
    </g>
    <g>
      <path class="st2" d="M205.94,125.79c5.21,11.1,5.48,24.51,2.2,36.25-6.51-.58-13.21-.62-19.77-1.1.44-1.81-1.19-1.81-2.47-2.2-9.42-2.81-19.62-1.42-28.83-4.39,5.92-3.08,32.34-10.96,33.5-17.3.42-2.31-1.42-4.47-2.75-6.32,5.89-1.57,12.52-2.61,18.12-4.94Z"/>
      <g>
        <path class="st6" d="M219.12,164.79c-3.19-.33-9.32-2.6-10.98-2.75,3.29-11.74,3.02-25.14-2.2-36.25.11-.04-.16-.89,1.65-1.65,2.32.92,8.59-4.49,10.16-3.84.76.31,5.97,12.93,6.32,14.55,2.21,10.28-.14,20.67-4.94,29.93Z"/>
        <path class="st3" d="M220.77,118.1c7.24,8.88,11.75,20.02,9.89,31.58-.83,5.14-4.61,10.44-4.94,15.65-1.67-.08-2.87-.42-4.39-.55-.36-.03-.74.03-1.1,0s-.74.04-1.1,0c4.8-9.26,7.15-19.65,4.94-29.93-.35-1.63-5.55-14.24-6.32-14.55-1.57-.64-7.84,4.77-10.16,3.84,4.5-1.89,8.25-4.43,13.18-6.04Z"/>
        <g>
          <path class="st6" d="M359.18,146.11c.63,2,0,4.38,0,6.59-1.99-.29-.57,2.21-1.37,2.75-2.52,1.68-52.22-8.09-59.87-8.79-14.24-1.3-29.66.27-43.94-2.2l1.65,2.75c30.99.78,61.47,5.82,92.27,8.24l-5.22,1.65c-38.86.86-79.04,10.03-116.99,8.24.33-5.21,4.12-10.51,4.94-15.65,1.86-11.56-2.65-22.71-9.89-31.58,16.06-5.25,28.47-1.84,44.21,2.75,8.04,2.34,27.04,11.69,33.5,12.08,11.27.69,16.16-1.65,29.11,1.65,7.06,1.8,26.71,11.53,31.58,11.53Z"/>
          <path class="st3" d="M359.18,152.7v3.84c-5.48-.47-11.02.43-16.48.55l5.22-1.65c-30.8-2.42-61.28-7.46-92.27-8.24l-1.65-2.75c14.27,2.47,29.7.9,43.94,2.2,7.64.7,57.35,10.47,59.87,8.79.8-.54-.62-3.04,1.37-2.75Z"/>
          <path class="st1" d="M238.07,116.45c5.99-2.37,44.23,11.62,51.9,15.1-.34,2.35-21.9-5.39-23.34-5.77-3.4-.9-29.22-6.44-29.38-7.96-.06-.54.41-1.21.82-1.37Z"/>
        </g>
      </g>
      <g>
        <path class="st5" d="M114.77,12.1l.27,2.2c11.68-.69,21.49,6.85,28.29,15.65l-6.04-1.37c-2.03-1.05-7.2-3.47-9.34-3.3-.4.03-2.09-1.63-1.65.82.13.73,6.74,11.25,7.69,12.63,3.25,4.76,7.75,8.7,10.98,13.46-7.72-4.63-11.21-8.68-16.48-15.93-2.21-3-7.9-14.07-12.08-10.98-1.01.74-1.09,1.18-1.65,2.2-11.27,12.52-22.95,25.69-37.9,34.05,8.56-9.19,18.47-16.82,27.19-25.81-12.73,7.29-20.65,16.07-29.93,26.91-1.73,2.02-3.14,4.69-5.49,6.04,1.32-6.88,6.58-11.21,9.89-16.48,13.7-8.19,27.59-19.36,34.88-33.5-3.7,4.47-7.97,8.63-12.63,12.08-3.44,2.55-8.88,5.6-12.91,7.14,3.47-4.53,6.28-9.41,10.98-12.91-4.7.84-7.65,5.32-10.44,8.51,1.69-8.55,7.63-14.97,15.38-18.4-7.01-.11-15.61,5.77-19.77,11.26l-2.2-2.47,3.84-4.94-3.3.82c12.78-13.45,17.34-8.83,32.4-7.69Z"/>
        <path class="st5" d="M84.01,26.38c-1.87,2.46-3.7,8.09-6.04,10.71l6.59-6.59c-2.92,5.11-4.32,10.83-6.59,16.2-3.14,7.41-8.03,14.58-9.34,21.97,2.36-1.35,3.77-4.02,5.49-6.04.35,1.32,2.54-.88,2.75-1.1,14.94-8.36,26.63-21.53,37.9-34.05-3.04,5.51-3.79,9.88-8.24,15.65-8.62,11.19-39.11,27.44-39.54,41.19-.03.9.12,2.07,1.1,1.1,7.35-23.76,41.13-27.84,48.33-51.63.46-1.53,2.24-7.79,0-8.51,4.18-3.08,9.88,7.98,12.08,10.98,4.97,6.77,7.11,11.41,14.28,17.03-8.52-4.78-12.91-10.25-18.67-18.12-.55-.75-2.43-5.76-3.57-5.49-4.83,16.23-15.53,21.94-27.74,31.31-10.73,8.24-21.54,14.15-24.17,29.38-.99,5.73.38,11.29,0,16.2-.12,1.53-.63,1.55-1.37,2.75l-4.12-10.16c-.9-.53-.51,1.47-.55,1.92-.04.42-.08.61-.55.55-1.52-11.69,1.7-15.05,3.3-24.99,2.9-18.06,3.97-43.11,17.03-56.85l3.3-.82-3.84,4.94,2.2,2.47Z"/>
        <path class="st11" d="M176.83,62.08c.83,1.72,1.13,3.67,1.65,5.49v4.12l-2.75-1.1c2.02,4.59,2.24,9.85,1.1,14.83-.35,1.54-6.92,14.86-6.04,7.96,5.01-6.16,6.36-14.84,2.75-22.24-4.59-9.4-20.05-13.84-28.56-18.95-3.24-4.75-7.73-8.69-10.98-13.46-.94-1.38-7.56-11.9-7.69-12.63-.44-2.46,1.24-.79,1.65-.82,9.83,8.32,17.03,18.53,29.38,23.62.8.33,2.52,1.19,3.02,0,1.53.96,3.5,3.09,5.49,2.47.38-.81-11.51-11.25-12.63-12.63-.2-.24.2-1.41,0-1.65-8.59-10.56-16.4-24.13-31.86-24.72,3.82-2.04,11.99,2.05,15.65,4.12.93.53,8.76,8.11,7.14,3.84-.71-1.87-4.22-2.68-4.94-3.3-1.38-1.18.31-1.64-.55-2.2-3.32-2.16-12.06-4.38-15.93-4.39-2.61,0-5.03,1.71-7.41,1.65,26.45-14.18,38.67,19.05,49.98,35.97,3.37,5.04,8.75,8.23,11.53,14.01Z"/>
        <path class="st14" d="M160.36,48.9c-5-3.15-9.56-7.19-14.28-10.71.68-1.55,6.35,4.07,7.41,4.67,1.16.27.42-1.16.27-1.37-1.93-2.86-13.17-11.21-16.48-12.91l6.04,1.37c-6.79-8.81-16.61-16.34-28.29-15.65l-.27-2.2c.18.01.37,0,.55,0,2.39.06,4.81-1.65,7.41-1.65,3.87,0,12.61,2.24,15.93,4.39.86.56-.83,1.02.55,2.2.73.62,4.23,1.42,4.94,3.3,1.62,4.27-6.21-3.32-7.14-3.84-3.66-2.07-11.83-6.16-15.65-4.12,15.45.59,23.27,14.16,31.86,24.72.2.24-.2,1.41,0,1.65,1.13,1.39,13.01,11.82,12.63,12.63-1.99.62-3.97-1.51-5.49-2.47Z"/>
        <path class="st20" d="M87.86,119.2c-.75,3.84,12.76,7.37,12.63,8.51l-17.58.27c-2.07-.5-5.35-1.17-7.14-2.2-.77-.44-5.37-4.69-6.04-5.49-1.36-1.63-2.9-4.14-3.84-6.04-1.87-3.74-3.3-8.46-3.84-12.63.47.06.51-.13.55-.55,3.5,14.25,10.82,18.78,25.26,18.12Z"/>
        <path class="st2" d="M164.75,105.47c1.66,1.24,9.28,10.03,8.79,11.53-3.49,4.71-5.43,5.33-10.98,4.39-.12-.02-1.64-1.8-2.2-.82.43,9.85,5.09,10.49,13.18,13.46.49.18,3.91.07,3.02,1.65-6.96,1.86-16.05,11.09-21.97,13.18-5.52,1.94-13.8,1.11-18.4,2.2l-11.26-13.18c-.39.23-.13,2.26-.27,3.3-.9-.04-1.2.47-2.2.55-3.32.27-6.54-.96-9.89-.55.17-3.04-1.03-11.53-.55-14.28,1.34-7.72,9-7.25,14.28-9.89,3,16.64,25.17,2.84,18.12-8.79,7.03-3.9,12.53-8.54,20.32-2.75Z"/>
        <path class="st20" d="M158.16,60.43c14.21,7.7,21.14,14.54,12.91,31.31,1.13-8.64.18-12.18-3.57-19.5-.44-.85.8-1.72.55-2.2-.13-.25-4.06-3.16-4.94-2.75,6.83,9.44,9,22.68,0,31.31,4.13-.49,4.73-3.39,6.87-5.77.03-.04.62.8.82.55-.87,6.9,5.69-6.43,6.04-7.96,1.14-4.98.92-10.24-1.1-14.83l2.75,1.1v-4.12c4.74,16.69.85,28.34-13.73,37.9-7.79-5.79-13.29-1.16-20.32,2.75-1.21.67-2.02,2.03-3.57,2.2l-3.57-6.59c2.23-1.53,5.84-6.89,8.24-8.79-.05.09-.3,1.54-.55,1.92-3.02,4.62-10.54,5.62-3.02,11.81,13.52-8.71,25.48-13.69,20.6-32.68-1.55-6.03-6.36-10.45-8.24-16.2.8.33,3.1,1.42,3.84.55Z"/>
        <path class="st14" d="M114.77,27.48c.56-1.01.64-1.45,1.65-2.2,2.24.73.46,6.99,0,8.51-7.2,23.78-40.98,27.87-48.33,51.63-.98.97-1.13-.2-1.1-1.1.44-13.75,30.93-30,39.54-41.19,4.45-5.78,5.2-10.15,8.24-15.65Z"/>
        <path class="st14" d="M78.52,52.19c3.75-5.97,4.82-8.37,9.34-14.28,4.03-1.54,9.47-4.59,12.91-7.14,4.66-3.45,8.93-7.61,12.63-12.08-7.29,14.14-21.18,25.31-34.88,33.5Z"/>
        <path class="st14" d="M144.98,52.19c8.51,5.1,23.97,9.55,28.56,18.95,3.62,7.4,2.26,16.09-2.75,22.24-.2.25-.79-.59-.82-.55-2.14,2.38-2.74,5.28-6.87,5.77,9-8.63,6.83-21.86,0-31.31.88-.41,4.81,2.5,4.94,2.75.25.48-.99,1.35-.55,2.2,3.75,7.31,4.7,10.86,3.57,19.5,8.23-16.77,1.3-23.6-12.91-31.31-4.98-2.7-10.43-4.37-15.38-7.14-7.17-5.61-9.31-10.26-14.28-17.03,5.27,7.25,8.75,11.29,16.48,15.93Z"/>
        <path class="st14" d="M88.41,33.52c-3.63,4.16-6.02,10.47-10.44,13.18,2.27-5.37,3.67-11.09,6.59-16.2l-6.59,6.59c2.34-2.62,4.17-8.25,6.04-10.71,4.16-5.49,12.76-11.36,19.77-11.26-7.75,3.43-13.69,9.85-15.38,18.4Z"/>
        <path class="st14" d="M137.29,28.58c3.31,1.7,14.54,10.05,16.48,12.91.14.21.89,1.64-.27,1.37-1.06-.6-6.74-6.22-7.41-4.67,4.72,3.52,9.28,7.56,14.28,10.71-.51,1.19-2.22.33-3.02,0-12.36-5.09-19.56-15.3-29.38-23.62,2.14-.17,7.3,2.25,9.34,3.3Z"/>
        <path class="st14" d="M87.86,37.91c-4.52,5.91-5.59,8.31-9.34,14.28-3.31,5.26-8.57,9.6-9.89,16.48,1.31-7.39,6.2-14.56,9.34-21.97,4.42-2.71,6.81-9.02,10.44-13.18,2.79-3.2,5.74-7.67,10.44-8.51-4.71,3.5-7.52,8.37-10.98,12.91Z"/>
        <path class="st14" d="M76.87,61.53c-.21.22-2.4,2.42-2.75,1.1,9.28-10.84,17.21-19.62,29.93-26.91-8.71,9-18.63,16.62-27.19,25.81Z"/>
        <path class="st5" d="M92.8,60.98c-.24,1.4-1.47,2.71-2.2,3.84.46-1.78-1.76-.13-1.92,0-5.15,4.28-9.92,8.73-12.91,14.83-4.78,9.76-4.86,24.61,3.84,32.4-3.99.34-8.16-3.19-10.98-5.49.38-4.92-.99-10.47,0-16.2,2.62-15.24,13.43-21.14,24.17-29.38Z"/>
        <path class="st14" d="M68.63,106.57c2.82,2.31,7,5.83,10.98,5.49,5,4.47,12.45,5.53,18.67,4.94-.07,1.08-9.27,2.14-10.44,2.2-14.44.66-21.77-3.87-25.26-18.12.04-.45-.35-2.46.55-1.92l4.12,10.16c.74-1.2,1.26-1.22,1.37-2.75Z"/>
        <path class="st15" d="M90.6,64.83c-2.34,3.64-4.33,8.06-3.84,12.63-6.18,1.66-4.12,11.76.27,13.73,2.04.91,4.12.13,5.22.55,1.8.68,3.07,4.52,4.39,5.77,7.01,6.61,17.18,10.52,26.91,10.16l3.84,8.24c-.84.48-1.03,1.06-1.1,1.1-5.28,2.64-12.94,2.17-14.28,9.89-10.16,2.66-18.75,3.63-29.11,1.1l17.58-.27c.13-1.15-13.39-4.67-12.63-8.51,1.16-.05,10.37-1.12,10.44-2.2-3.86-2.87-9.23-4.59-12.91-7.69-8.69-7.34-10.08-18.77-9.61-29.66,2.98-6.1,7.76-10.55,12.91-14.83.16-.13,2.38-1.78,1.92,0Z"/>
        <path class="st17" d="M136.19,151.06c-3.21.76-10.98,5.77-13.73,4.94.73-4.94,1.51-9.88,2.2-14.83.14-1.04-.11-3.07.27-3.3l11.26,13.18Z"/>
        <path class="st7" d="M162.55,121.4l10.98,12.63c-8.09-2.97-12.75-3.61-13.18-13.46.56-.97,2.08.8,2.2.82Z"/>
        <path class="st7" d="M188.37,160.94c-6.64-.48-32.12-2.9-36.8-1.65-.23-1.01.07-1.07.55-1.65.95-1.14,3.55-2.57,4.94-3.3,9.22,2.98,19.42,1.59,28.83,4.39,1.29.38,2.91.39,2.47,2.2Z"/>
        <path class="st15" d="M152.67,59.33c.8.34,1.25.39,1.65.55,1.88,5.75,6.69,10.18,8.24,16.2,4.88,18.99-7.07,23.96-20.6,32.68-7.52-6.19,0-7.18,3.02-11.81.25-.38.5-1.84.55-1.92,1.88-3.17,3.83-7.2,4.94-10.71.94-2.97.51-8.71,1.1-10.44.19-.54,3.46-1.92,3.84-4.94.49-3.81-1.95-7.12-4.94-9.06l2.2-.55Z"/>
        <path class="st11" d="M158.16,60.43c-.74.87-3.04-.22-3.84-.55-.39-.16-.85-.21-1.65-.55-4-1.7-6.49-3.38-9.89-6.04,4.95,2.77,10.4,4.44,15.38,7.14Z"/>
        <path class="st20" d="M98.29,117c-6.23.58-13.68-.47-18.67-4.94-8.7-7.79-8.62-22.64-3.84-32.4-.47,10.89.92,22.32,9.61,29.66,3.68,3.1,9.04,4.82,12.91,7.69Z"/>
        <g>
          <path class="st8" d="M142.78,53.29c3.4,2.66,5.88,4.34,9.89,6.04l-2.2.55c-.8-.52-3.83-1.35-4.94-1.65-.09-1.78-.99-.93-1.1-1.1-2.14-3.38-7.26-4.15-10.44-6.59-.06-.05-.13-.35-1.1-1.1-2.69-2.1-14.21-12.65-8.79-14.28,5.77,7.88,10.15,13.35,18.67,18.12Z"/>
          <path class="st21" d="M137.29,103.82l3.57,6.59c1.55-.16,2.36-1.52,3.57-2.2,7.05,11.63-15.12,25.43-18.12,8.79.07-.03.26-.62,1.1-1.1.72-.41,1.31.59,1.37.55,3.28-2.28,3.1-6.94,3.02-10.44,1.45-2.09,3.98-1.16,5.49-2.2Z"/>
          <g>
            <path class="st21" d="M187.82,130.73c1.32,1.84,3.17,4,2.75,6.32-1.16,6.35-27.59,14.23-33.5,17.3-1.39.72-3.99,2.15-4.94,3.3-.31-2.71-2.54.92-3.02,1.1-1.15.44.65-2.46-3.02.55,1.42-1.96,2.25-2.94,4.39-4.12-3.14-2.09-9.93,11.79-11.53,8.79-.27-.51,6.74-7.72,6.32-9.61-3.17,3.13-4.07,6.15-7.96,8.79l2.47-7.14-1.92,2.47-.55,4.67c-1.11.76-.86-.25-2.75,1.1l-2.47-2.75c-8.07,4.36-20.37,10.44-21.15-3.84-.26-4.82,1.36-11.41,1.65-16.48,3.35-.41,6.57.82,9.89.55l-1.1,14.55c.21.7.66-.41,1.1-.27,2.75.83,10.52-4.18,13.73-4.94,4.6-1.09,12.88-.25,18.4-2.2,5.92-2.09,15.01-11.33,21.97-13.18.89-1.58-2.53-1.47-3.02-1.65l-10.98-12.63c5.56.94,7.5.32,10.98-4.39,4.02,4.19,11.01,9.17,14.28,13.73Z"/>
            <path class="st8" d="M124.66,141.17c-.69,4.95-1.47,9.89-2.2,14.83-.44-.13-.89.97-1.1.27l1.1-14.55c.99-.08,1.3-.59,2.2-.55Z"/>
            <path class="st8" d="M146.08,159.29c-1.94,1.59-3.02,3.31-4.12,5.49,2.99-.56,3.26-4.31,4.12-5.49,3.67-3.01,1.87-.11,3.02-.55.48-.18,2.72-3.81,3.02-1.1-.48.58-.78.64-.55,1.65-.38.1-7,5.24-3.3,5.49-3.23.16-7.12,1.2-10.16,1.1-1.52-.05-1.91-2.35-4.94-.55-.57-.52,1.04-.86,1.37-1.1,1.89-1.35,1.63-.34,2.75-1.1,3.9-2.64,4.8-5.66,7.96-8.79.42,1.89-6.59,9.1-6.32,9.61,1.61,3.01,8.4-10.88,11.53-8.79-2.14,1.18-2.97,2.16-4.39,4.12Z"/>
            <path class="st8" d="M137.56,153.8l-2.75,7.69c-1.53-2.42,1.39-5.75,2.75-7.69Z"/>
            <polygon class="st8" points="137.29 163.14 137.84 158.47 139.76 156 137.29 163.14"/>
          </g>
          <g>
            <path class="st21" d="M361.37,145.56c2.58,1.78,12.88-1.16,14.55,0,.74.51-.41,3.18,1.1,3.84.84.37,7.6.59,8.51,1.1.05.03.49,1.07.55,1.1.05.03-1.36.42-.27,1.1,1.01.63,5.01,1.28,5.49,2.75-3.27-.16-12.97-6.43-14.01-.82s9.19,5.31,11.81,8.51l-20.6-4.39c-3.07-.92-6.11-1.92-9.34-2.2v-3.84c0-2.21.63-4.59,0-6.59.87,0,1.24-.43,2.2-.55Z"/>
            <path class="st8" d="M394.33,157.65c.95,11.99-12.78,4.87-18.12,4.39-1.61-1.62-5.49-2.64-7.69-3.3l20.6,4.39c-2.61-3.2-12.88-2.71-11.81-8.51s10.74.66,14.01.82c-.48-1.46-4.48-2.12-5.49-2.75-1.09-.68.33-1.07.27-1.1,3.03.12,7.97,2.68,8.24,6.04Z"/>
            <g>
              <path class="st8" d="M385.54,150.51c-.91-.51-7.68-.73-8.51-1.1-1.5-.66-.36-3.33-1.1-3.84-1.68-1.16-11.97,1.78-14.55,0,6.92-.84,26.83-8.9,24.17,4.94Z"/>
              <path class="st21" d="M380.32,145.56c.28-.12,1.22-.09,1.37.27-1.14,1.21-2.56.25-1.37-.27Z"/>
            </g>
          </g>
          <path class="st21" d="M92.25,91.74c-1.1-.42-3.18.36-5.22-.55-4.4-1.97-6.46-12.07-.27-13.73.41,3.89,5.74,10.22,5.49,14.28Z"/>
          <path class="st2" d="M141.68,64.83c-2.03,6.15-8.62,7.32-14.01,8.79-1.2-.41-.88-3.88-.82-4.94.07-1.36.1-1.52.55-2.75,1.85,7.99,13.71,4.2,10.98-3.3-.4-1.11-.29-1.6-1.65-2.2.46-2.17,5.95.87,6.04,1.37-1.06.73-.83,2.21-1.1,3.02Z"/>
          <path class="st8" d="M131.8,106.02c.08,3.5.26,8.16-3.02,10.44-.06.04-.65-.96-1.37-.55l-3.84-8.24c2.39-.09,5.81-1.15,8.24-1.65Z"/>
          <path class="st21" d="M146.08,159.29c-.86,1.18-1.13,4.93-4.12,5.49,1.1-2.18,2.18-3.9,4.12-5.49Z"/>
          <g>
            <path class="st21" d="M124.11,35.17c-5.42,1.63,6.1,12.18,8.79,14.28-4.33.28-9.89,2.14-9.89,7.41,3.48-2.34,6.32-6.25,10.98-6.32,3.17,2.44,8.3,3.22,10.44,6.59-1.87,2.82-6.8-.22-10.71.55-3.66.72-8.98,6.92-6.87,10.98-.05,1.06-.38,4.53.82,4.94,5.38-1.47,11.98-2.64,14.01-8.79,1.41-1.05,3.92-5.04,3.84-6.59,1.11.3,4.15,1.13,4.94,1.65,3,1.94,5.43,5.26,4.94,9.06-.39,3.02-3.66,4.4-3.84,4.94-.59,1.72-.15,7.47-1.1,10.44-1.12,3.51-3.07,7.54-4.94,10.71-2.4,1.89-6.01,7.26-8.24,8.79-1.51,1.03-4.04.11-5.49,2.2-2.43.5-5.84,1.56-8.24,1.65-9.74.35-19.9-3.55-26.91-10.16-1.32-1.25-2.6-5.09-4.39-5.77.24-4.06-5.08-10.39-5.49-14.28-.48-4.57,1.51-9,3.84-12.63.73-1.14,1.96-2.44,2.2-3.84,12.21-9.37,22.9-15.07,27.74-31.31,1.14-.27,3.02,4.74,3.57,5.49Z"/>
            <g>
              <path class="st18" d="M145.53,58.24c.08,1.55-2.43,5.54-3.84,6.59.27-.81.04-2.29,1.1-3.02-.09-.5-5.58-3.55-6.04-1.37-1.64-.72-2.21-.63-3.84,0s-1.53,2.04-2.75,3.3c-.15.16-1.58-.98-2.75,2.2-.45,1.22-.48,1.39-.55,2.75-2.12-4.07,3.2-10.26,6.87-10.98,3.91-.77,8.84,2.27,10.71-.55.11.17,1.01-.68,1.1,1.1Z"/>
              <path class="st18" d="M111.47,74.16c-1.73-1.18-3.3-3.36-5.49-3.84-2.66-.58-6.52.51-8.79,2.2-1.55,1.16-2.13,2.12-3.3,3.57-.21,1.38.52,1.31.55,1.37-2.32,1.58-4.45-2.4-6.04-3.57,5.1,2.45,5.32-2.36,8.51-4.12,5.54-3.05,12.11-1.76,14.55,4.39Z"/>
              <path class="st2" d="M111.47,74.16c.35.88,1.94,2.94,1.37,3.84-3.86,1.88-7.47,3.1-11.81,2.75,6.37-.99,8.91-4.86,4.94-10.44,2.19.48,3.76,2.66,5.49,3.84Z"/>
              <path class="st15" d="M132.89,49.45c.96.75,1.04,1.05,1.1,1.1-4.66.06-7.51,3.98-10.98,6.32,0-5.28,5.55-7.14,9.89-7.41Z"/>
              <path class="st4" d="M102.96,58.24c1.31-.01,5.71,1.39,5.49,3.3-4.28-.85-8.32-1.79-12.36.27-.6-1.3,6.25-3.56,6.87-3.57Z"/>
              <path class="st2" d="M100.49,80.75c-1.74-.25-5.34-1.87-6.04-3.3-.03-.07-.76,0-.55-1.37,1.16-1.45,1.74-2.41,3.3-3.57-1.22,4.6.03,5.4,3.3,8.24Z"/>
              <path class="st8" d="M124.93,81.85c.88.12,1.26.3.55,1.1-2.38,2.32-4.61,2.85-7.41.82-.01-.36,6.51-1.97,6.87-1.92Z"/>
              <path class="st8" d="M150.74,66.47c.15.45.92,1.26.55,1.65-1.01.2-1.12-.91-.55-1.65Z"/>
              <g>
                <path class="st9" d="M115.68,101.08c2.02-14.21,12.83-16.24,21.39-5.7-7.02.37-15.67,1.28-21.39,5.7Z"/>
                <path class="st2" d="M119.19,97.89c-.67-6.47,9.97-8.8,13.2-3.3-4.38.7-9.35.68-13.2,3.3Z"/>
              </g>
              <g>
                <path class="st0" d="M105.98,70.32c3.97,5.57,1.43,9.44-4.94,10.44-.18-.01-.37.03-.55,0-3.27-2.83-4.51-3.63-3.3-8.24,2.27-1.69,6.13-2.78,8.79-2.2Z"/>
                <path class="st12" d="M100.21,72.52c4.35-1.88,6.86,4.32,3.3,5.49-4.74,1.56-5.77-4.42-3.3-5.49Z"/>
              </g>
            </g>
          </g>
          <path class="st16" d="M138.39,62.63c2.73,7.5-9.13,11.29-10.98,3.3,1.17-3.18,2.6-2.04,2.75-2.2-.59,7.21,7.83,5.19,5.49-1.1.18.04,1.21-2.24,2.75,0Z"/>
          <path class="st13" d="M136.74,60.43c1.36.6,1.24,1.09,1.65,2.2-1.54-2.24-2.57.04-2.75,0-.18-.04-3.1-1.44-2.75-2.2,1.63-.63,2.21-.72,3.84,0Z"/>
          <path class="st12" d="M135.64,62.63c2.34,6.29-6.08,8.31-5.49,1.1,1.21-1.26,1.1-2.66,2.75-3.3-.35.76,2.56,2.16,2.75,2.2Z"/>
        </g>
      </g>
    </g>
  </g>
</svg>