<?xml version="1.0" encoding="UTF-8"?><svg id="Layer_1" xmlns="http://www.w3.org/2000/svg" viewBox="0 0 165.06 154.07"><path d="M70.65,9.63c-10.66-1.46-22.13-.72-31.22,5.05-9.09,5.77-14.88,17.57-11.23,27.7l-2.24,7.1c-13-.44-23.52,12.92-23.52,25.93,0,11.71,5.5,32.42,26.68,32.42,8.96,0,2.81,14.17,10.4,18.94l3.88-1.07c1.52,9.21,7.83,17.35,16.07,21.75,8.24,4.4,18.19,5.18,27.22,2.81,3.77-.99,6-2.34,9.02-4.82.41-.33,1.3-1.33,1.78-1.63.15-.09.31-.12.47-.05,2.2.98,12.33,5.16,18.51,2.56,6.96-2.93,11.68-9.45,15.65-15.87,4.25-6.89,8.17-14.3,8.84-22.37l5.11,3.59c3.91,3.74,10.94,1.42,13.82-3.16,2.88-4.58,2.78-10.37,2.45-15.77-.34-5.76-1.07-12.06-5.22-16.06-5.31-5.12-13.77-4.35-21.06-3.24l6.7-8.69c4.42-5.99,4.31-14.92-.24-20.8-4.56-5.89-13.17-8.23-20.08-5.46l.89-.73c.95-9.12,1.64-19.24-3.91-26.55-6.22-8.19-18.03-9.67-28.21-8.21-6.61.95-13.32,2.97-18.27,7.45-4.95,4.48-7.7,11.86-5.26,18.07" fill="#a1cf6d"/><path d="M70.65,7.13c-9.45-1.27-19.31-.82-28.13,3.08-8.01,3.54-14.43,10.41-16.92,18.88-1.33,4.54-1.38,9.48.19,13.96v-1.33c-.75,2.37-1.5,4.73-2.24,7.1l2.41-1.84c-10.32-.25-19.24,7.14-23.29,16.26-3.39,7.64-3.28,15.96-1.18,23.93,1.94,7.36,5.85,14.35,12.23,18.73,3.65,2.51,7.93,3.82,12.31,4.27,1.12.12,2.23.13,3.36.16-.04,0,.77.08.4.02s.35.09.33.08c.11.03.72.28.18.03.18.08.34.19.5.28.51.29-.23-.24,0,0,.11.11.22.22.32.33.41.42-.18-.3,0,.02.08.14.16.27.24.41,0,.01.29.59.13.24s.09.26.1.27c.13.41.25.82.35,1.24.47,2.06.49,3.27.82,5.55.31,2.12.79,4.21,1.79,6.13s3.24,4.75,5.64,4.24c1.3-.27,2.58-.71,3.86-1.06l-3.08-1.75c1.58,9.14,7.49,17.21,15.28,22.12,8.78,5.53,19.84,6.79,29.85,4.49,2.52-.58,5-1.42,7.22-2.75,1.18-.7,2.27-1.53,3.34-2.38.42-.33.84-.67,1.22-1.04.14-.14.28-.28.43-.42.34-.33,1.03-.62.04-.25h-1.33c-.58-.08-.2-.11-.07-.09.09.01.19.08.27.12.39.14.78.33,1.17.49.69.28,1.38.54,2.07.79,1.76.62,3.56,1.15,5.38,1.54,4.41.93,8.79,1.04,12.91-.98,4.38-2.14,7.9-5.68,10.85-9.5,3.11-4.03,5.81-8.44,8.18-12.93,2.9-5.48,5.06-11.28,5.63-17.49l-3.76,2.16c1.24.87,2.48,1.75,3.72,2.62.45.31.91.61,1.34.94.22.17-.74-.6,0,.05.3.26.66.53,1.01.75.68.44,1.46.77,2.23,1.01,5.52,1.72,11.79-1.7,14.46-6.55,3.29-5.99,2.8-13.55,2.07-20.12s-2.68-12.71-8.43-16.17c-6.18-3.72-13.93-2.77-20.71-1.74l2.82,3.67c1.42-1.84,2.84-3.68,4.25-5.52,1.8-2.33,3.54-4.49,4.65-7.26,3.71-9.3-.25-20.54-9.35-24.94-4.95-2.39-10.82-2.91-15.99-.91l2.43,4.18c.28-.23.61-.45.87-.71.87-.87.8-2.22.92-3.36.17-1.8.33-3.59.41-5.4.18-3.72.06-7.47-.66-11.13-1.38-7.03-5.63-13.11-12.09-16.32C107.58.32,100.55-.4,93.87.19c-7.47.66-15.19,2.57-21.2,7.25-6.37,4.94-10.38,13.84-7.41,21.75.47,1.26,1.69,2.13,3.08,1.75,1.21-.33,2.22-1.8,1.75-3.08-2.04-5.43.16-11.37,4.21-15.26,4.65-4.47,11.34-6.34,17.57-7.19,10.34-1.41,23.64.45,27.9,11.51,2.53,6.58,1.76,13.99,1.05,20.84l.73-1.77-.89.73c-1.89,1.55.14,5.07,2.43,4.18,7.28-2.82,16.54.39,19.37,8,1.4,3.76,1.42,8.06-.21,11.76-.95,2.15-2.53,3.96-3.96,5.81s-2.93,3.8-4.4,5.71c-.59.77-.35,2.09.2,2.78.68.85,1.59,1.05,2.63.9,4.91-.74,10.48-1.5,15.23.41s6.72,6.78,7.44,11.62c.4,2.7.54,5.48.59,8.21s-.07,5.68-.96,8.4c-.71,2.19-1.99,4.09-3.98,5.29-1.69,1.02-3.72,1.53-5.43,1.08-1.35-.36-2.6-1.58-3.87-2.46-1.18-.83-2.36-1.66-3.54-2.49-1.69-1.19-3.61.45-3.76,2.16-.44,4.83-2.16,9.47-4.34,13.78s-4.65,8.4-7.42,12.27c-2.46,3.43-5.39,6.68-9.07,8.82-3.29,1.91-6.57,1.99-10.26,1.24-1.75-.36-3.47-.85-5.16-1.44-.63-.22-1.26-.45-1.88-.69-.25-.1-.5-.2-.75-.3-.43-.17.07.03.13.06-.13-.05-.25-.11-.38-.16-2.45-1.05-3.7.55-5.38,2.03-1.46,1.28-3.17,2.42-4.95,3.19-4,1.75-8.71,2.26-13.03,2.2-4.62-.07-9.31-.98-13.52-2.93-8.56-3.96-15.01-11.74-16.63-21.11-.23-1.33-1.87-2.08-3.08-1.75l-3.88,1.07,1.93.25c-.49-.32-.3-.16-.71-.55-.24-.23-.47-.47-.66-.73.22.28-.29-.49-.36-.6-.27-.46-.37-.7-.42-.84-.56-1.46-.84-3-1.06-4.54-.06-.43.04.33-.01-.09-.03-.21-.05-.42-.08-.63-.04-.33-.08-.66-.12-1-.12-.94-.24-1.88-.4-2.81-.25-1.41-.65-2.85-1.4-4.09-.87-1.42-2.14-2.44-3.7-2.99-1.83-.64-3.91-.37-5.82-.57-3.47-.36-6.67-1.51-9.56-3.44-5.02-3.36-8.2-9.09-9.89-14.92-.42-1.47-.77-2.96-1.04-4.46-.06-.35-.12-.71-.18-1.06-.02-.16-.05-.31-.07-.47-.11-.74.04.3-.02-.14-.09-.71-.16-1.42-.22-2.13-.27-3.55-.03-7,1.05-10.41,2.73-8.6,10.35-16.39,19.85-16.16,1.13.03,2.08-.8,2.41-1.84.73-2.3,1.6-4.6,2.19-6.94.25-.99-.06-1.73-.33-2.68-.31-1.09-.52-2.19-.59-3.31-.14-2.25.12-4.46.74-6.63,1.31-4.58,4.08-8.65,7.65-11.76,3.88-3.38,8.85-5.35,13.83-6.41,6.16-1.31,12.58-1.12,18.79-.29,1.34.18,2.5-1.28,2.5-2.5,0-1.5-1.16-2.32-2.5-2.5h0Z" fill="#231f20"/><path d="M43.59,47.25c-5.22,11.97-4.56,30.67-4.78,40.89.2,3.07,2.47,6.96,5.29,8.1,2.34,1.17,4.44,1.39,7.31,1.41,6.31.04,12.23-3.44,14.94-9.14,1.49-3.12,2.37-6.53,3.32-9.59.95-4.36,2.55-11.08,3.22-17.92-9.08-6.48-18.77-11.9-29.3-13.75Z" fill="#fff" stroke="#231f20" stroke-miterlimit="10" stroke-width="4.6"/><path d="M65.34,112.72c-1.62.17-2.75,1.69-2.42,3.29.38,1.86,1.2,4.17,2.93,6.35,3.9,4.91,9.76,5.72,12.84,5.77,1.16.02,2.29-.47,3.01-1.39,4.95-6.3,12.09-11.2,20.17-15.33,1.23-.63.67-2.49-.7-2.35-11.94,1.22-23.88,2.44-35.81,3.66Z" fill="#0a0203" stroke="#231f20" stroke-miterlimit="10"/><path d="M63.26,71.81c.7,6.54-7.85,9.7-9.53,2.48-1.17-3.51,1.51-7.58,5.06-7.86,2.18,1.07,4.93,2.58,4.47,5.38Z" fill="#a1cf6d"/><path d="M114.99,49.8c5.22,11.97,4.56,30.67,4.78,40.89-.2,3.07-2.47,6.96-5.29,8.1-2.98,1.48-6.07,1.78-9.05.81-1.34-.44-2.76-.63-4.15-.88-7.19-1.29-10.44-11.04-12.38-17.25-.95-4.36-2.55-11.08-3.22-17.92,9.08-6.48,18.77-11.9,29.3-13.75Z" fill="#fff" stroke="#231f20" stroke-miterlimit="10" stroke-width="4.6"/><path d="M95.33,74.36c-.7,6.54,7.85,9.7,9.53,2.48,1.17-3.51-1.51-7.58-5.06-7.86-2.18,1.07-4.93,2.58-4.47,5.38Z" fill="#a1cf6d"/><path d="M58.47,33.44c2.62,5.88,6.2,11.29,10.51,16.07.88.97,2.65.96,3.54,0,.95-1.04.94-2.5,0-3.54-2.09-2.32-3.67-4.36-5.37-6.99s-3.12-5.27-4.36-8.07c-.53-1.2-2.37-1.57-3.42-.9-1.24.8-1.47,2.14-.9,3.42h0Z" fill="#0a0203"/><path d="M89.34,49.4c3.28-5.75,7.03-10.75,11.61-15.48.94-.97.97-2.57,0-3.54s-2.59-.97-3.54,0c-4.8,4.95-8.98,10.5-12.4,16.49-.65,1.14-.31,2.79.9,3.42s2.73.32,3.42-.9h0Z" fill="#0a0203"/></svg>