<?xml version="1.0" encoding="UTF-8"?><svg id="Layer_1" xmlns="http://www.w3.org/2000/svg" viewBox="0 0 104.01 97.22"><path d="M44.66,6.91c-6.6-.9-13.69-.44-19.31,3.13-5.62,3.57-9.21,10.87-6.95,17.14l-1.39,4.39c-8.04-.27-14.55,8-14.55,16.04,0,7.24,3.4,20.06,16.51,20.06,5.55,0,1.74,8.77,6.43,11.72l2.4-.66c.94,5.7,4.85,10.74,9.94,13.46,5.1,2.72,11.25,3.21,16.84,1.74,2.33-.61,3.71-1.45,5.58-2.98.25-.21.8-.82,1.1-1.01.09-.06.19-.08.29-.03,1.36.6,7.63,3.19,11.45,1.58,4.31-1.81,7.22-5.84,9.68-9.82,2.63-4.26,5.05-8.85,5.47-13.84l3.16,2.22c2.42,2.31,6.77.88,8.55-1.95,1.78-2.83,1.72-6.41,1.52-9.76-.21-3.56-.66-7.46-3.23-9.94-3.28-3.17-8.52-2.69-13.03-2l4.15-5.38c2.73-3.71,2.67-9.23-.15-12.87-2.82-3.64-8.15-5.09-12.42-3.38l.55-.45c.59-5.65,1.01-11.91-2.42-16.43-3.85-5.07-11.16-5.98-17.45-5.08-4.09.59-8.24,1.84-11.3,4.61-3.06,2.77-4.77,7.34-3.26,11.18" fill="#a1cf6d"/><path d="M44.66,4.41c-7.7-1.02-16.13-.2-22.4,4.79-5.39,4.29-8.59,11.9-6.28,18.64v-1.33l-1.39,4.39,2.41-1.84c-6.59-.13-12.37,4.41-15.09,10.22-2.3,4.91-2.36,10.23-1.08,15.43,1.2,4.87,3.72,9.43,7.84,12.4,2.32,1.67,5.08,2.57,7.89,2.91.68.08,1.35.13,2.03.15.2,0,.41,0,.61,0-.08,0-.31.01-.08-.02.08-.01.24.05.31.08-.18-.06-.29-.16-.05-.02.2.12.16,0,.05.02-.12.01-.05.07-.06-.06,0-.21.07.12.17.29.05.09-.07-.32.05.14.08.28.16.55.22.84.06.26.1.53.14.79.07.39-.01-.13.06.42.1.76.19,1.53.3,2.29.21,1.36.57,2.7,1.24,3.91.8,1.44,2.37,3.17,4.16,2.98.92-.1,1.84-.46,2.73-.71l-3.08-1.75c1.38,7.78,7.42,14.03,14.78,16.54,4.04,1.38,8.4,1.58,12.59.92,1.93-.31,3.82-.81,5.58-1.67,1.58-.77,2.98-2.17,4.18-3.09l-1.26.34.29-.03-1.26-.34c2.74,1.2,5.58,2.11,8.58,2.39,3.96.36,7.37-1.41,10.22-4.05s5.15-6.29,7.13-9.76c2.28-4,4.01-8.21,4.45-12.82l-3.76,2.16,2.25,1.58c.3.21.6.41.89.63-.62-.46.53.44.74.56.43.26.93.46,1.4.62,3.73,1.21,8.01-.98,9.95-4.2,2.29-3.82,2.03-8.7,1.59-12.96s-1.73-8.55-5.58-10.97c-4.06-2.55-9.19-1.93-13.68-1.26l2.82,3.67c1.21-1.57,2.42-3.14,3.63-4.71,1.97-2.55,3.03-5.68,2.84-8.93-.25-4.25-2.36-8.09-5.98-10.38-3.42-2.17-7.95-2.72-11.75-1.28l2.43,4.18c.9-.74,1.2-1.43,1.33-2.62s.23-2.41.3-3.61c.13-2.42.05-4.85-.39-7.24-.84-4.54-3.55-8.56-7.67-10.72S63.51-.26,59.14.11c-4.91.41-9.95,1.67-13.89,4.76-4.21,3.3-6.76,9.16-4.85,14.4.46,1.27,1.7,2.12,3.08,1.75,1.22-.34,2.21-1.8,1.75-3.08-1.14-3.13.11-6.41,2.48-8.62,2.74-2.56,6.71-3.62,10.34-4.09,5.92-.77,13.68.19,16.13,6.56,1.51,3.95,1,8.43.58,12.54l.73-1.77-.55.45c-1.9,1.56.14,5.05,2.43,4.18,5.87-2.23,12.17,2.24,11.36,8.65-.27,2.11-1.41,3.67-2.66,5.3-1.03,1.34-2.06,2.67-3.09,4.01-.59.77-.35,2.09.2,2.78.68.85,1.59,1.05,2.63.9,2.83-.43,6.1-.88,8.83.23s3.64,3.87,4.02,6.54c.45,3.14.82,6.96-.3,9.99-.73,1.98-2.98,3.74-4.83,2.99-.49-.2-1.39-.98-2.03-1.44l-2.07-1.45c-1.7-1.19-3.6.46-3.76,2.16-.54,5.64-3.86,11.01-7.07,15.54-1.47,2.06-3.23,4.02-5.46,5.28-1.81,1.03-3.6,1-5.62.58-1.02-.22-2.03-.51-3.02-.85-.4-.14-.79-.28-1.18-.43-.13-.05-.26-.11-.39-.15-.56-.21.49.21-.05-.02-1.65-.71-2.84-.15-4.06,1.02-.88.84-1.89,1.56-2.98,2.08-4.66,2.2-11.07,1.78-15.68-.27-5.16-2.3-8.94-6.95-9.93-12.53-.24-1.33-1.87-2.08-3.08-1.75l-2.4.66,1.93.25c-.66-.44.27.28-.29-.24-.03-.03-.49-.62-.23-.24-.11-.15-.53-1.02-.4-.7-.18-.46-.3-.95-.41-1.43-.04-.16-.07-.33-.1-.5-.02-.09-.16-1.04-.1-.59-.27-1.96-.33-4.1-1.41-5.83-1.36-2.2-3.46-2.43-5.82-2.56-2.17-.12-4.13-.71-5.91-1.82-3-1.86-4.94-5.21-5.97-8.61-.27-.88-.48-1.77-.66-2.66-.09-.47-.17-.94-.24-1.42.06.46.01.06,0-.03-.03-.3-.06-.6-.09-.9-.18-2.12-.07-4.17.56-6.22,1.55-5,5.91-9.53,11.4-9.42,1.13.02,2.08-.8,2.41-1.84l.84-2.66c.44-1.38.76-2.25.33-3.73-.97-3.34.06-6.83,1.95-9.65,4.77-7.13,14.39-7.8,22.13-6.78,1.34.18,2.5-1.28,2.5-2.5,0-1.5-1.16-2.32-2.5-2.5h0Z" fill="#231f20"/><path d="M27.91,30.19c-3.23,7.41-2.82,18.97-2.96,25.3.13,1.9,1.53,4.31,3.27,5.01,1.45.72,2.75.86,4.52.87,3.9.02,7.57-2.13,9.24-5.66.92-1.93,1.47-4.04,2.06-5.93.59-2.7,1.58-6.86,1.99-11.08-5.62-4.01-11.61-7.36-18.13-8.5Z" fill="#fff" stroke="#231f20" stroke-miterlimit="10" stroke-width="4.6"/><path d="M41.37,70.7c-1,.1-1.7,1.05-1.5,2.04.24,1.15.74,2.58,1.81,3.93,2.41,3.04,6.04,3.54,7.94,3.57.72.01,1.41-.29,1.86-.86,3.06-3.9,7.48-6.93,12.48-9.48.76-.39.41-1.54-.43-1.46-7.39.75-14.77,1.51-22.16,2.26Z" fill="#0a0203" stroke="#231f20" stroke-miterlimit="10"/><path d="M40.08,45.38c.43,4.05-4.86,6-5.9,1.53-.72-2.17.93-4.69,3.13-4.86,1.35.66,3.05,1.59,2.77,3.33Z" fill="#a1cf6d"/><path d="M72.09,31.77c3.23,7.41,2.82,18.97,2.96,25.3-.13,1.9-1.53,4.31-3.27,5.01-1.84.92-3.76,1.1-5.6.5-.83-.27-1.7-.39-2.57-.54-4.45-.8-6.46-6.83-7.66-10.67-.59-2.7-1.58-6.86-1.99-11.08,5.62-4.01,11.61-7.36,18.13-8.5Z" fill="#fff" stroke="#231f20" stroke-miterlimit="10" stroke-width="4.6"/><path d="M59.92,46.96c-.43,4.05,4.86,6,5.9,1.53.72-2.17-.93-4.69-3.13-4.86-1.35.66-3.05,1.59-2.77,3.33Z" fill="#a1cf6d"/></svg>