<?xml version="1.0" encoding="UTF-8"?><svg id="Layer_1" xmlns="http://www.w3.org/2000/svg" viewBox="0 0 105.62 98.72"><path d="M45.34,6.99c-6.71-.92-13.92-.45-19.63,3.18-5.71,3.63-9.36,11.05-7.06,17.41l-1.41,4.46c-8.17-.28-14.79,8.13-14.79,16.3,0,7.36,3.46,20.38,16.77,20.38,5.64,0,1.77,8.91,6.54,11.91l2.44-.67c.96,5.79,4.93,10.91,10.1,13.68,5.18,2.77,11.44,3.26,17.12,1.77,2.37-.62,3.77-1.47,5.67-3.03.26-.21.81-.84,1.12-1.03.09-.06.2-.08.3-.03,1.39.61,7.75,3.25,11.64,1.61,4.38-1.84,7.34-5.94,9.84-9.98,2.67-4.33,5.14-8.99,5.56-14.07l3.21,2.26c2.46,2.35,6.88.89,8.69-1.99,1.81-2.88,1.75-6.52,1.54-9.91-.22-3.62-.67-7.58-3.28-10.1-3.34-3.22-8.66-2.74-13.24-2.04l4.21-5.46c2.78-3.77,2.71-9.38-.15-13.08s-8.28-5.17-12.62-3.43l.56-.46c.6-5.74,1.03-12.1-2.46-16.69-3.91-5.15-11.34-6.08-17.74-5.16-4.16.6-8.37,1.87-11.49,4.68s-4.84,7.46-3.31,11.36" fill="#a1cf6d"/><path d="M45.34,4.49c-7.8-1.03-16.35-.21-22.71,4.84-5.48,4.35-8.74,12.07-6.39,18.92v-1.33l-1.41,4.46,2.41-1.84c-6.71-.13-12.61,4.52-15.34,10.46-2.3,5-2.34,10.4-1.02,15.67,1.24,4.94,3.83,9.57,8.05,12.55,2.38,1.68,5.21,2.56,8.08,2.89.74.08,1.48.13,2.22.13.51,0-.16.01.29.01.03,0,.4.11.1,0s.17.09.22.13c-.36-.29-.06-.09.04.1-.21-.39-.07-.08.02.12.15.36-.05-.31.08.25.06.25.13.49.19.74.06.3.11.61.16.91,0,.02.06.41.02.15-.04-.28.05.42.05.4.1.76.19,1.53.31,2.29.22,1.34.6,2.7,1.3,3.88.9,1.52,2.54,3.23,4.45,2.82.81-.17,1.62-.45,2.42-.67l-3.08-1.75c1.42,8,7.7,14.42,15.31,16.89,4.16,1.35,8.64,1.5,12.93.75,1.96-.34,3.91-.9,5.66-1.86.72-.4,1.39-.87,2.04-1.37.43-.33.87-.65,1.27-1.02.08-.07.82-.77.46-.5l-1.26.34.3-.03-1.26-.34c2.71,1.19,5.51,2.09,8.46,2.4,4.12.43,7.61-1.32,10.58-4.08s5.29-6.47,7.31-10.03c2.28-4.02,4-8.25,4.45-12.88l-3.76,2.16,2.38,1.67c.2.14.4.28.59.42.07.05.37.28.09.07-.43-.33.33.28.5.4s.33.23.51.33c.49.28,1.03.5,1.57.64,3.87,1.01,8.13-1.25,9.97-4.68,2.09-3.89,1.86-8.66,1.4-12.92s-1.81-8.68-5.75-11.07-9.23-1.88-13.75-1.2l2.82,3.67c2.02-2.62,4.49-5.19,5.71-8.31,2.45-6.26-.33-13.91-6.5-16.76-3.32-1.53-7.15-1.9-10.6-.59l2.43,4.18c.88-.72,1.21-1.47,1.33-2.62s.23-2.39.3-3.59c.14-2.48.07-4.95-.38-7.4-.85-4.64-3.62-8.76-7.85-10.95C69.1.28,64.44-.27,60.03.11c-4.99.43-10.09,1.7-14.09,4.84-4.25,3.34-6.82,9.28-4.89,14.57.46,1.27,1.7,2.12,3.08,1.75,1.22-.34,2.21-1.8,1.75-3.08-1.17-3.19.12-6.55,2.53-8.8,2.79-2.61,6.83-3.68,10.52-4.17,6.01-.79,13.88.18,16.41,6.62,1.58,4.03,1.05,8.63.62,12.83l.73-1.77-.56.46c-1.9,1.56.14,5.05,2.43,4.18,2.81-1.07,5.95-.75,8.42,1.03s3.55,4.85,3.18,7.79c-.27,2.17-1.45,3.77-2.73,5.43-1.04,1.35-2.08,2.7-3.12,4.05-.59.77-.35,2.09.2,2.78.68.85,1.59,1.05,2.63.9,2.86-.43,6.14-.88,8.92.2s3.81,3.99,4.21,6.77c.43,3.06.74,6.62-.15,9.62-.37,1.23-.99,2.33-2.1,3.01-.92.58-2.01.89-2.88.59-.61-.21-1.43-.96-2.12-1.44l-2.2-1.54c-1.7-1.19-3.6.45-3.76,2.16-.55,5.74-3.92,11.21-7.19,15.81-1.5,2.1-3.29,4.1-5.56,5.38-1.9,1.08-3.79,1.02-5.92.55-1.05-.23-2.08-.54-3.1-.89-.38-.13-.76-.28-1.13-.42-.15-.06-.3-.12-.45-.18.62.25.22.09.07.03-1.8-.77-2.93.05-4.2,1.22-.8.74-1.72,1.37-2.69,1.86-2.36,1.18-5.29,1.5-7.9,1.49-2.76,0-5.56-.51-8.1-1.61-5.33-2.31-9.26-7.09-10.27-12.83-.24-1.33-1.87-2.08-3.08-1.75l-2.44.67,1.93.25c-.66-.44.27.28-.29-.24-.03-.03-.5-.62-.23-.24-.14-.2-.25-.41-.37-.62-.36-.66.07.23-.08-.18-.3-.83-.54-2.13-.62-2.73-.22-1.6-.38-3.97-1.37-5.64-1.42-2.4-3.74-2.47-6.23-2.65-2.14-.15-4.09-.8-5.82-1.9-3.05-1.94-4.97-5.33-6.02-8.85-.26-.87-.47-1.76-.64-2.66-.07-.39-.14-.78-.2-1.18.08.56-.02-.2-.03-.26-.03-.3-.06-.6-.09-.9-.17-2.13-.07-4.17.56-6.23,1.56-5.13,6.01-9.78,11.65-9.67,1.13.02,2.08-.8,2.41-1.84.45-1.42.99-2.84,1.35-4.28.31-1.27-.31-2.34-.48-3.58-.18-1.33-.06-2.7.27-4,1.54-6.12,6.87-9.87,12.79-11.17,3.85-.85,7.87-.7,11.76-.19,1.34.18,2.5-1.28,2.5-2.5,0-1.5-1.16-2.32-2.5-2.5h0Z" fill="#231f20"/><path d="M28.33,30.64c-3.28,7.53-2.87,19.28-3.01,25.71.13,1.93,1.56,4.38,3.33,5.09,1.47.73,2.79.88,4.59.89,3.97.02,7.69-2.17,9.39-5.75.93-1.96,1.49-4.11,2.09-6.03.6-2.74,1.6-6.97,2.02-11.26-5.71-4.07-11.8-7.48-18.42-8.64Z" fill="#fff" stroke="#231f20" stroke-miterlimit="10" stroke-width="4.6"/><path d="M42,71.8c-1.02.1-1.73,1.07-1.52,2.07.24,1.17.75,2.62,1.84,3.99,2.45,3.08,6.14,3.59,8.07,3.63.73.01,1.44-.3,1.89-.87,3.11-3.96,7.6-7.04,12.68-9.64.77-.39.42-1.57-.44-1.48-7.51.77-15.01,1.53-22.52,2.3Z" fill="#0a0203" stroke="#231f20" stroke-miterlimit="10"/><path d="M40.69,46.08c.44,4.11-4.94,6.1-5.99,1.56-.74-2.21.95-4.76,3.18-4.94,1.37.67,3.1,1.62,2.81,3.38Z" fill="#a1cf6d"/><path d="M73.22,32.24c3.28,7.53,2.87,19.28,3.01,25.71-.13,1.93-1.56,4.38-3.33,5.09-1.87.93-3.82,1.12-5.69.51-.85-.28-1.73-.4-2.61-.55-4.52-.81-6.56-6.94-7.78-10.84-.6-2.74-1.6-6.97-2.02-11.26,5.71-4.07,11.8-7.48,18.42-8.64Z" fill="#fff" stroke="#231f20" stroke-miterlimit="10" stroke-width="4.6"/><path d="M60.86,47.68c-.44,4.11,4.94,6.1,5.99,1.56.74-2.21-.95-4.76-3.18-4.94-1.37.67-3.1,1.62-2.81,3.38Z" fill="#a1cf6d"/><path d="M29.6,11.03c2.67,2.65,5.34,5.3,8.01,7.95.93.92,2.62,1,3.54,0s.99-2.55,0-3.54c-2.67-2.65-5.34-5.3-8.01-7.95-.93-.92-2.62-1-3.54,0s-.99,2.55,0,3.54h0Z" fill="#0a0203"/><path d="M56.86,19.13c.34-.5.69-1,1.05-1.48.17-.23.34-.46.51-.69.04-.06.37-.49.15-.2-.2.26.06-.08.1-.12.75-.95,1.53-1.88,2.34-2.78,1.6-1.78,3.32-3.44,5.15-4.99,1-.85.94-2.67,0-3.54-1.06-.98-2.47-.91-3.54,0-3.86,3.28-7.23,7.1-10.08,11.28-.74,1.08-.24,2.82.9,3.42,1.27.67,2.63.26,3.42-.9h0Z" fill="#0a0203"/></svg>