<?xml version="1.0" encoding="UTF-8"?><svg id="Layer_1" xmlns="http://www.w3.org/2000/svg" viewBox="0 0 86.52 80.92"><path d="M37.21,6.13c-5.43-.74-11.27-.37-15.9,2.57-4.63,2.94-7.58,8.95-5.72,14.11l-1.14,3.62c-6.62-.23-11.98,6.58-11.98,13.21,0,5.96,2.8,16.51,13.59,16.51,4.57,0,1.43,7.22,5.3,9.65l1.97-.54c.78,4.69,3.99,8.84,8.19,11.08,4.2,2.24,9.27,2.64,13.87,1.43,1.92-.5,3.06-1.19,4.59-2.46.21-.17.66-.68.91-.83.07-.05.16-.06.24-.03,1.12.5,6.28,2.63,9.43,1.3,3.55-1.49,5.95-4.81,7.97-8.09,2.17-3.51,4.16-7.29,4.51-11.4l2.6,1.83c1.99,1.9,5.57.72,7.04-1.61,1.47-2.33,1.41-5.28,1.25-8.03-.17-2.93-.55-6.14-2.66-8.18-2.7-2.61-7.01-2.22-10.73-1.65l3.41-4.43c2.25-3.05,2.2-7.6-.12-10.6-2.32-3-6.71-4.19-10.23-2.78l.45-.37c.48-4.65.84-9.8-1.99-13.52-3.17-4.17-9.18-4.93-14.37-4.18-3.37.48-6.78,1.51-9.31,3.79-2.52,2.28-3.92,6.04-2.68,9.21" fill="#a1cf6d"/><path d="M37.21,3.63c-6.44-.85-13.45-.13-18.69,4.03-4.59,3.64-7.28,10.09-5.34,15.82v-1.33l-1.14,3.62,2.41-1.84c-5.6-.09-10.51,3.72-12.82,8.66-1.95,4.17-2,8.7-.89,13.11,1.03,4.1,3.18,7.89,6.65,10.38,1.95,1.4,4.28,2.15,6.64,2.44.62.08,1.23.13,1.85.13.1,0,.76.01.23-.02l.21.05c-.28-.14-.3-.14-.06-.01-.18-.6-.21.24-.16-.15.02-.19.03.02.11.22-.22-.6.01.07.03.16.05.22.11.43.15.64.05.23.08.46.11.69-.07-.5.02.21.04.31.09.72.17,1.45.31,2.16.2,1.08.55,2.2,1.14,3.13.87,1.38,2.3,2.72,4.04,2.36.66-.14,1.32-.36,1.97-.54l-3.08-1.75c1.19,6.6,6.35,11.9,12.62,13.98,3.36,1.11,6.97,1.26,10.45.71,1.66-.26,3.28-.71,4.78-1.46.75-.37,1.42-.86,2.08-1.36.33-.25.66-.5.96-.77.06-.05.7-.66.32-.37l-1.26.34.24-.03-1.26-.34c2.31,1.01,4.69,1.77,7.21,2.02,3.37.33,6.29-1.15,8.73-3.39s4.36-5.29,6.02-8.21c1.91-3.36,3.33-6.88,3.71-10.75l-3.76,2.16,1.87,1.31c.11.08.86.62.59.42-.43-.32.4.32.38.31.17.12.33.23.51.33.4.22.85.4,1.29.52,3.31.91,7.01-.99,8.63-3.92,1.82-3.28,1.63-7.37,1.21-10.98s-1.58-7.16-4.85-9.16c-3.45-2.11-7.74-1.61-11.53-1.03l2.82,3.67c1.01-1.31,2.03-2.63,3.04-3.94,1.66-2.15,2.54-4.89,2.34-7.62-.26-3.61-2.02-6.8-5.07-8.79s-6.82-2.35-10.07-1.13l2.43,4.18c1.51-1.24,1.35-3.47,1.46-5.29.12-2.06.05-4.12-.32-6.16-.69-3.85-3.01-7.29-6.49-9.14S52.67-.24,48.93.11c-4.18.39-8.38,1.48-11.7,4.15-3.5,2.81-5.52,7.8-3.95,12.16.46,1.27,1.7,2.12,3.08,1.75,1.23-.34,2.21-1.8,1.75-3.08-1.2-3.32.98-6.43,3.84-8.02,3.18-1.77,7.23-2.28,10.82-2.01,3.18.24,6.38,1.5,7.96,4.43,1.75,3.25,1.18,7.46.82,10.97l.73-1.77-.45.37c-1.9,1.56.14,5.04,2.43,4.18,4.51-1.69,9.44,1.62,8.8,6.62-.37,2.85-3,5.32-4.69,7.51-.59.77-.35,2.09.2,2.78.68.85,1.59,1.05,2.63.9,2.59-.39,6.17-.95,8.29,1.01s1.99,5.9,2.01,8.5c.01,2.32-.53,6.04-3.38,6-.58,0-1.1-.52-1.79-1l-2.04-1.43c-1.7-1.2-3.59.46-3.76,2.16-.45,4.62-3.23,9.03-5.88,12.73-1.12,1.56-2.49,3.04-4.17,4-1.49.86-2.92.79-4.58.41-.8-.18-1.59-.41-2.36-.68-.31-.11-.61-.22-.92-.34-.12-.05-.24-.1-.37-.15-.33-.13.49.21.13.05-2.54-1.09-3.84,1.29-5.82,2.37-3.64,1.98-8.94,1.61-12.65.06-4.26-1.78-7.35-5.61-8.17-10.14-.24-1.33-1.87-2.08-3.08-1.75l-1.97.54,1.93.25c.29.2-.12-.08-.18-.16-.28-.37.28.49-.14-.15-.09-.13-.41-.86-.27-.49-.13-.35-.22-.71-.3-1.08-.04-.21-.08-.41-.12-.62-.02-.09-.12-.8-.05-.34-.22-1.59-.29-3.33-1.14-4.75-1.16-1.93-2.97-2.33-5.07-2.42-1.64-.07-3.22-.51-4.54-1.28-2.46-1.44-4.07-4.08-4.92-6.77-.22-.71-.41-1.44-.56-2.17-.07-.35-.13-.71-.19-1.06-.02-.12-.08-.64-.02-.14-.02-.19-.04-.38-.06-.56-.15-1.62-.14-3.22.29-4.8,1.12-4.13,4.58-7.98,9.1-7.91,1.13.02,2.08-.79,2.41-1.84.53-1.68,1.48-3.52,1.03-5.28-.72-2.8-.12-5.43,1.49-7.83,3.84-5.72,11.64-6.17,17.83-5.35,1.34.18,2.5-1.28,2.5-2.5,0-1.5-1.15-2.32-2.5-2.5h0Z" fill="#231f20"/><path d="M23.42,25.3c-2.66,6.1-2.32,15.62-2.44,20.83.1,1.56,1.26,3.54,2.69,4.12,1.19.59,2.26.71,3.72.72,3.21.02,6.23-1.75,7.61-4.66.76-1.59,1.21-3.33,1.69-4.89.48-2.22,1.3-5.64,1.64-9.13-4.62-3.3-9.56-6.06-14.92-7Z" fill="#fff" stroke="#231f20" stroke-miterlimit="10" stroke-width="4.6"/><path d="M34.5,58.65c-.83.08-1.4.86-1.23,1.68.2.95.61,2.13,1.49,3.23,1.99,2.5,4.97,2.91,6.54,2.94.59.01,1.16-.24,1.53-.71,2.52-3.21,6.16-5.71,10.27-7.81.63-.32.34-1.27-.36-1.2-6.08.62-12.16,1.24-18.24,1.86Z" fill="#0a0203" stroke="#231f20" stroke-miterlimit="10"/><path d="M33.44,37.81c.36,3.33-4,4.94-4.85,1.26-.6-1.79.77-3.86,2.58-4,1.11.54,2.51,1.31,2.28,2.74Z" fill="#a1cf6d"/><path d="M59.79,26.59c2.66,6.1,2.32,15.62,2.44,20.83-.1,1.56-1.26,3.54-2.69,4.12-1.52.76-3.09.91-4.61.41-.68-.22-1.4-.32-2.11-.45-3.66-.66-5.32-5.62-6.3-8.79-.48-2.22-1.3-5.64-1.64-9.13,4.62-3.3,9.56-6.06,14.92-7Z" fill="#fff" stroke="#231f20" stroke-miterlimit="10" stroke-width="4.6"/><path d="M49.77,39.11c-.36,3.33,4,4.94,4.85,1.26.6-1.79-.77-3.86-2.58-4-1.11.54-2.51,1.31-2.28,2.74Z" fill="#a1cf6d"/></svg>