<?xml version="1.0" encoding="UTF-8"?>
<svg id="Layer_1" xmlns="http://www.w3.org/2000/svg" viewBox="0 0 1712.13 822.57">
    <path
        d="M1698.78,152.01c-116.91,139.87-307.05,213.49-486.84,215.77-149.04.58-288.69-57.54-434.59-80.44-215.93-33.89-544.91,64.97-694.83-111.94h0C41.76,127.65,16.05,62.43,0,0c0,43.54,0,113.59,0,156.96,17.34,53.09,42.74,104.91,83.57,143.94h0c44.63,42.68,104.49,65.42,164.27,77.67h0c84.08,17.18,171.55,16.25,256.6,25.42,199.51,15.71,355.12,150.59,509.81,263.75h0c193.91,158.79,491.9,226.21,697.87,52.18-.01-189.97,0-395.82,0-585.81-4.26,6.09-8.72,12.05-13.35,17.9Z"
        fill="#005ba7" />
</svg>