<?xml version="1.0" encoding="UTF-8"?><svg id="Layer_1" xmlns="http://www.w3.org/2000/svg" viewBox="0 0 178.42 153.44"><path d="M119.75,71.13l1.61-6.01c3.07-11.47,9.11-21.92,17.5-30.31l31.55-31.55c6.68,6.68,6.68,17.52,0,24.2l-23.19,23.19c-1.4,1.4.33,3.65,2.04,2.66l24.56-14.18c4.73,8.18,1.92,18.65-6.26,23.37l-12.1,6.98c-1.6.92-.66,3.37,1.14,2.99l17.64-3.69c2.45,9.13-2.97,16.89-12.1,19.34l-18.98,5.4" fill="#fff" stroke="#231f20" stroke-miterlimit="10" stroke-width="4.6"/><path d="M58.68,71.13l-1.61-6.01c-3.07-11.47-9.11-21.92-17.5-30.31L8.01,3.25c-6.68,6.68-6.68,17.52,0,24.2l23.19,23.19c1.4,1.4-.33,3.65-2.04,2.66l-24.56-14.18c-4.73,8.18-1.92,18.65,6.26,23.37l12.1,6.98c1.6.92.66,3.37-1.14,2.99l-17.64-3.69c-2.45,9.13,2.97,16.89,12.1,19.34l18.98,5.4" fill="#fff" stroke="#231f20" stroke-miterlimit="10" stroke-width="4.6"/><path d="M46.87,138.92C.79,97.99,60.47,14.92,115.09,39.5c28.6,17.39,36.38,64.15,16.13,90.55-19.52,21.08-62.21,30.32-84.35,8.87Z" fill="#eee77f" stroke="#231f20" stroke-miterlimit="10" stroke-width="4.6"/><path d="M114.82,96.84c-2.78-2.66-6.12-4.62-10.02-5.88-2.98-.97-6.76-1.94-11.33-2.93l.04-20.9c8.57.96,13.28,4.88,14.11,11.75l9.62.02c-.29-6.29-3.02-11.16-8.17-14.62-4.13-2.77-9.32-4.43-15.55-4.99v-6.75s-8.38-.02-8.38-.02v6.67c-6.38.43-11.61,2.08-15.71,4.96-4.84,3.4-7.27,7.77-7.28,13.1,0,4.73,1.84,8.52,5.55,11.38,3.56,2.74,9.35,4.91,17.36,6.51l-.05,23.72c-3.38-.54-6.4-1.58-9.06-3.1-4.12-2.36-6.43-5.99-6.93-10.91l-9.52-.02c.26,6.53,2.99,11.88,8.19,16.05,4.11,3.29,9.88,5.29,17.31,6v6.75s8.38.02,8.38.02v-6.52c7.27-.28,13.23-2.12,17.9-5.53,5.12-3.73,7.68-8.43,7.69-14.09,0-4.46-1.38-8.02-4.15-10.68ZM75.4,83.08c-2.42-1.38-3.63-3.45-3.63-6.21,0-3.02,1.52-5.45,4.55-7.27,2.25-1.35,5.18-2.2,8.79-2.54l-.04,19.21c-4.53-1.04-7.76-2.1-9.67-3.2ZM104.26,116.33c-2.85,1.69-6.47,2.66-10.86,2.91l.04-22.35c4.73,1.11,8.28,2.23,10.67,3.36,3.49,1.65,5.24,4.29,5.23,7.92,0,3.44-1.7,6.17-5.08,8.17Z" fill="#ece6a0" stroke="#231f20" stroke-miterlimit="10" stroke-width="4.6"/></svg>