<?xml version="1.0" encoding="UTF-8"?>
<svg id="Layer_1" xmlns="http://www.w3.org/2000/svg" viewBox="0 0 219.05 196.92">
    <path
        d="M178.88,51.83v-.06c0-15.25-12.36-27.61-27.61-27.61-.06,0-.12,0-.17,0-1.37-11.66-11.27-20.72-23.3-20.72-8.84,0-16.53,4.89-20.54,12.12-3.8-7.84-11.81-13.27-21.11-13.27-12.45,0-22.6,9.69-23.39,21.94-3.42-1.95-7.37-3.07-11.58-3.07-12.96,0-23.47,10.51-23.47,23.47,0,4.35,1.21,8.41,3.27,11.9C14.45,61.12,2.3,74.14,2.3,92.12c0,21.6,17.51,39.12,39.12,39.12,9.07,0,17.4-3.12,24.04-8.3,4.95,7.44,13.4,12.35,23,12.35,11.09,0,20.63-6.56,25.02-15.99,4.39,9.44,13.93,15.99,25.02,15.99,9.12,0,17.18-4.44,22.21-11.26,5.13,2.47,10.85,3.89,16.92,3.89,21.6,0,39.12-17.51,39.12-39.12s-16.85-36.3-37.87-36.96Z"
        fill="#fff" stroke="#231f20" stroke-miterlimit="10" stroke-width="4.6" />
    <path
        d="M101.33,116.01c-.99,0-1.79-.8-1.79-1.79,0-5,4.49-9.08,10-9.08s9.71,3.8,9.96,8.65c.05.99-.71,1.83-1.69,1.88-.99.05-1.83-.71-1.88-1.69-.15-2.95-2.96-5.26-6.39-5.26s-6.43,2.47-6.43,5.5c0,.99-.8,1.79-1.79,1.79Z"
        fill="#231f20" />
    <path d="M67.25,190.18c0,2.45-1.99,4.44-4.44,4.44s-4.44-1.99-4.44-4.44,4.44-9.47,4.44-9.47c0,0,4.44,7.02,4.44,9.47Z"
        fill="#d9eef4" stroke="#231f20" stroke-miterlimit="10" stroke-width="4.6" />
    <path
        d="M165.47,160.79c0,2.45-1.99,4.44-4.44,4.44s-4.44-1.99-4.44-4.44,4.44-9.47,4.44-9.47c0,0,4.44,7.02,4.44,9.47Z"
        fill="#d9eef4" stroke="#231f20" stroke-miterlimit="10" stroke-width="4.6" />
    <path
        d="M64.68,148.42c0,3.49-2.83,6.32-6.32,6.32s-6.32-2.83-6.32-6.32,6.32-13.47,6.32-13.47c0,0,6.32,9.98,6.32,13.47Z"
        fill="#d9eef4" stroke="#231f20" stroke-miterlimit="10" stroke-width="4.6" />
    <path
        d="M150.22,142.62c0,3.49-2.83,6.32-6.32,6.32s-6.32-2.83-6.32-6.32,6.32-13.47,6.32-13.47c0,0,6.32,9.98,6.32,13.47Z"
        fill="#d9eef4" stroke="#231f20" stroke-miterlimit="10" stroke-width="4.6" />
    <path
        d="M148.63,184.29c0,3.49-2.83,6.32-6.32,6.32s-6.32-2.83-6.32-6.32,6.32-13.47,6.32-13.47c0,0,6.32,9.98,6.32,13.47Z"
        fill="#d9eef4" stroke="#231f20" stroke-miterlimit="10" stroke-width="4.6" />
    <path
        d="M84.26,168.81c0,3.49-2.83,6.32-6.32,6.32s-6.32-2.83-6.32-6.32,6.32-13.47,6.32-13.47c0,0,6.32,9.98,6.32,13.47Z"
        fill="#d9eef4" stroke="#231f20" stroke-miterlimit="10" stroke-width="4.6" />
    <path d="M82.39,124c0,2.45-1.99,4.44-4.44,4.44s-4.44-1.99-4.44-4.44,4.44-9.47,4.44-9.47c0,0,4.44,7.02,4.44,9.47Z"
        fill="#d9eef4" stroke="#231f20" stroke-miterlimit="10" stroke-width="4.6" />
    <path d="M136,113.09c0,2.45-1.99,4.44-4.44,4.44s-4.44-1.99-4.44-4.44,4.44-9.47,4.44-9.47c0,0,4.44,7.02,4.44,9.47Z"
        fill="#d9eef4" stroke="#231f20" stroke-miterlimit="10" stroke-width="4.6" />
    <path
        d="M140.91,96.11c-20.42,7.89-12.84-31.9-.8-34.39,4.67-2.02,9.74,3.91,8.03,8.35-3.35-15.05-13.33-1.58-4.5,5.02,5.61.75,1.41-5.15,4.92-6.53.42,3.04-1.17,9.22-1.48,12.17-.62,5.8.85,13.23-6.17,15.39Z"
        fill="#1b1a1e" />
    <path d="M134.23,84.89c3.7.46,1.83,7.79-1.28,7.28-4.36-.83-2.82-7.49,1.28-7.28Z" fill="#fff" />
    <path d="M147.72,69.29c.75,8.1-6.87,7.5-7.69.29-1.29-8.47,7.76-8.53,7.69-.29Z" fill="#fff" />
    <path
        d="M74.52,92.28c-.94-9.92-5.08-31.64,10.38-30.64,10.49,3.72,6.95,20.77,4.88,29.14-2.06,6.13-13.31,9.19-15.26,1.5Z"
        fill="#1b1a1e" />
    <path d="M89.58,69.73c1.31,9.27-13.98,1.09-8.74-3.85,3.52-3.3,8.3-.61,8.74,3.85Z" fill="#fff" />
    <path d="M82.12,88.24c.95,3.56-3.87,5.96-5.19,2.05-1.96-4.08,4.49-6.71,5.19-2.05Z" fill="#fff" />
</svg>