<?xml version="1.0" encoding="UTF-8"?><svg id="Layer_1" xmlns="http://www.w3.org/2000/svg" viewBox="0 0 263.25 216.17"><path d="M4.51,155.58c.04-.15.1-.3.14-.45.11-.36-.25.47-.01.05.18-.32.36-.63.57-.93.22-.32-.32.36.02-.02.13-.14.25-.29.38-.42.27-.29.56-.56.86-.83.16-.14.32-.27.48-.4.06-.05.12-.12.19-.15-.4.2-.21.16-.08.06.38-.28.76-.55,1.16-.81.75-.49,1.52-.94,2.31-1.36s1.66-.85,2.51-1.23c.18-.08.37-.16.55-.24.3-.13-.38.16-.08.03.1-.04.21-.09.31-.13.4-.16.81-.32,1.22-.48.71-.27,1.48-.45,2.18-.74.36-.15-.16.06-.2,0,0,.01.27-.01.31-.01.2-.01.41-.02.61-.04.39-.03.79-.07,1.18-.11,3.01-.36,5.93-1.14,8.59-2.64,2.17-1.22,4.12-2.9,5.7-4.82,3.11-3.76,5.06-8.2,7.1-12.59.94-2.04,1.91-4.07,3.09-5.98.29-.47.59-.93.91-1.38.15-.21.3-.41.45-.62.22-.3-.36.46-.08.11.09-.12.19-.24.28-.35.66-.8,1.4-1.55,2.2-2.22.07-.06.48-.38.12-.1-.34.27,0,0,.08-.06.22-.16.43-.31.66-.45.46-.29.93-.55,1.42-.79.12-.06.25-.11.38-.17.33-.16-.58.23-.12.05.28-.11.56-.21.85-.31.55-.18,1.11-.32,1.67-.43.28-.06.59-.07.86-.15-.08.02-.56-.02-.25.04.12.02.38-.13-.15-.06.23-.03.58.15.8.22.24.07.48.15.72.24.04.02.32.13.33.13-.02.02-.5-.24-.1-.03.34.18.68.35,1,.57.06.04.14.11.21.15-.03-.01-.43-.38-.19-.14.09.09.19.17.28.26.08.08.16.17.24.25.36.38-.27-.44-.06-.08.09.16.18.33.27.48.13.2-.21-.64-.12-.27.02.07.04.14.07.21.01.05.02.09.03.14.1.32-.06-.47-.06-.46,0,.03,0,.06,0,.1.01,1.2,1.05,2.36,2.3,2.3s2.31-1.01,2.3-2.3c-.02-2.44-2.18-4.4-4.25-5.31-1.07-.47-2.49-1.12-3.68-.98-.8.1-1.6.21-2.38.4-1.26.3-2.49.78-3.64,1.38-4.31,2.23-7.06,6.46-9.16,10.68s-3.84,8.87-6.57,12.86c-.17.24-.34.48-.51.72-.08.1-.15.21-.23.31-.34.46.32-.39-.04.06s-.75.9-1.15,1.33-.85.87-1.3,1.27c-.21.18-.42.36-.63.54-.06.05-.12.09-.17.14-.27.22.19-.15.2-.15-.13.04-.29.22-.41.3-.51.37-1.04.7-1.59,1.01s-1.16.52-1.7.84c.58-.35.19-.08-.02,0-.15.06-.31.12-.46.17-.34.12-.68.23-1.02.34-.7.21-1.42.38-2.14.51-.16.03-.32.06-.48.08-.08.01-.74.1-.33.05s-.26.03-.34.04c-.22.02-.44.05-.66.06-.95.08-1.86.11-2.78.41-1.83.59-3.62,1.32-5.37,2.14-3.35,1.56-6.89,3.61-9,6.73-.45.67-.8,1.43-1.01,2.21-.31,1.16.39,2.55,1.61,2.83s2.5-.36,2.83-1.61h0Z" fill="#231f20"/><path d="M201.52,130.41c-.12.3-.15.34-.01.05.06-.12.12-.25.18-.37.15-.29.31-.57.49-.84.15-.24.32-.47.48-.7.24-.34-.28.34,0,.01.11-.13.21-.26.33-.39.42-.48.87-.93,1.35-1.35.23-.2.46-.38.69-.58.2-.17-.17.13-.17.13.03-.05.13-.1.18-.14.14-.11.29-.21.44-.31,1.1-.77,2.28-1.4,3.5-1.95.5-.22-.27.1.11-.05.15-.06.3-.12.45-.18.33-.12.65-.24.98-.35.63-.21,1.28-.39,1.93-.54.34-.08.67-.15,1.01-.21.16-.03.31-.06.47-.08.08-.01.16-.02.23-.04.33-.06-.07-.03-.14.02.19-.12.71-.08.94-.1.36-.03.72-.05,1.09-.06.64-.02,1.27,0,1.9.05.15.01.3.03.45.04.06,0,.17.04.22.03,0,0-.49-.08-.24-.03.34.06.67.11,1.01.19.58.13,1.16.3,1.72.51.07.02.13.05.2.08.23.08-.23-.1-.22-.1.11.09.31.14.45.21.45.21.9.38,1.37.55.42.15-.35-.17.04.02.14.07.28.13.42.2.29.15.57.31.84.48.14.09.27.19.41.28.34.24-.33-.29-.03-.02.22.2.44.39.65.6.19.19.36.39.53.59.04.05.08.11.12.15,0,0-.28-.41-.16-.2.09.15.2.29.3.43.3.46.56.94.8,1.44.05.11.09.26.16.36.01.02-.19-.47-.1-.24.02.06.05.12.08.19.12.29.23.59.33.89.19.54.35,1.09.51,1.65.68,2.41,1.21,4.84,2.19,7.16,1.11,2.64,2.77,4.86,5.12,6.54,2.16,1.54,4.74,2.52,7.25,3.35s5.02,1.45,7.54,2.16c1.08.3,2.15.62,3.2,1,.23.09.47.18.7.27.36.14-.49-.22-.15-.06.11.05.22.1.33.15.35.17.7.35,1.02.57.52.36-.36-.35.01.01.11.11.23.22.33.34.77.93,2.47.86,3.25,0,.91-.99.82-2.26,0-3.25-1.3-1.56-3.59-2.27-5.45-2.87-2.49-.79-5.03-1.39-7.53-2.13-1.3-.38-2.6-.8-3.87-1.28-.19-.07-.81-.2-.93-.37,0,0,.44.19.2.08-.07-.03-.14-.06-.21-.09-.18-.08-.36-.16-.54-.25-.57-.27-1.13-.55-1.67-.87s-.98-.68-1.49-.99c.54.32.15.11,0-.01-.1-.08-.2-.17-.29-.26-.24-.22-.47-.45-.69-.69-.1-.11-.2-.22-.3-.34-.05-.06-.09-.12-.14-.17-.23-.27.11.1.09.12,0,0-.5-.71-.54-.78-.35-.55-.65-1.12-.92-1.71-.05-.12-.09-.29-.17-.39,0,0,.18.45.09.22-.02-.07-.05-.13-.08-.2-.12-.31-.24-.62-.35-.94-.2-.59-.38-1.18-.55-1.78-.34-1.21-.63-2.42-.97-3.63-.72-2.56-1.69-5.06-3.47-7.08-.92-1.04-2.08-1.91-3.33-2.51-.44-.21-.9-.4-1.35-.58-.08-.03-.39-.2-.47-.17,0,0,.41.19.2.08-.08-.04-.17-.08-.25-.12-.72-.33-1.45-.63-2.21-.84-2.87-.83-5.91-.77-8.83-.28-5.6.95-11.48,4.04-14.49,9.01-.39.65-.69,1.33-.98,2.03-.46,1.11.5,2.58,1.61,2.83,1.34.31,2.33-.41,2.83-1.61h0Z" fill="#231f20"/><path d="M199.63,91.2c.26-.57.55-1.11.88-1.64.16-.26.32-.51.5-.75.1-.14.19-.27.29-.4.27-.37-.27.34.1-.13.84-1.02,1.78-1.95,2.78-2.81.25-.21.5-.41.75-.62.47-.38-.39.28.1-.08.14-.11.29-.22.43-.32.59-.43,1.19-.84,1.8-1.24,1.19-.77,2.41-1.47,3.66-2.12s2.49-1.25,3.76-1.82c.27-.12.54-.24.81-.36.16-.07.32-.14.48-.21.54-.23-.46.19.09-.04.62-.26,1.24-.51,1.86-.75.48-.19.96-.32,1.45-.46.43-.13-.59.02-.14.02.08,0,.15-.01.23-.02.22-.01.57.08.77.02-.37.11-.54-.1-.19-.02.07.02.14.03.21.05.21.05.41.13.61.19.4.12-.53-.26-.15-.07.06.03.13.06.19.09.23.11.45.24.66.37.16.1.31.2.46.31.07.05.19.18.27.2-.34-.08-.38-.31-.11-.08.36.3.7.6,1.04.92.66.62,1.29,1.26,1.95,1.88,1.42,1.33,3.09,2.68,5.05,3.08,1.17.24,2.37.22,3.52-.11.25-.07.49-.16.72-.26l.27-.12c.36-.16.37-.15.02,0,.05-.07.42-.15.51-.18.81-.29,1.61-.63,2.39-.99,2.63-1.2,5.07-2.78,7.45-4.42,2.72-1.87,5.38-3.85,8.22-5.54.68-.41,1.37-.79,2.07-1.16.32-.16.64-.32.96-.47.16-.08.32-.15.48-.22.11-.05.21-.09.32-.14-.28.12-.3.13-.06.03.7-.27,1.4-.53,2.12-.73.33-.09.66-.17.99-.25.17-.04.33-.07.5-.1.13-.02.9-.13.22-.05,1.19-.16,2.36-.95,2.3-2.3-.05-1.11-1.02-2.47-2.3-2.3-6.05.79-11.06,4.29-15.93,7.71-2.45,1.72-4.9,3.45-7.52,4.89-.59.33-1.2.64-1.81.92-.17.08-.33.15-.5.23-.09.04-.65.28-.12.06-.36.15-.72.29-1.09.42-.14.05-.28.1-.42.15-.27.1-1.22.36-.42.16-.24.06-.48.18-.72.24-.12.03-.48.04-.57.12.23-.2.57-.04.17-.04-.14,0-.29,0-.43,0-.09,0-.23-.04-.32-.02.45-.1.52.1.2.02-.17-.04-.34-.08-.5-.13-.1-.03-.2-.07-.29-.1-.4-.12.53.27.17.07-.19-.1-.38-.19-.56-.3s-.37-.23-.55-.35c-.09-.06-.18-.13-.27-.19-.36-.24.44.37.11.09-.35-.3-.7-.59-1.04-.9-1.45-1.34-2.79-2.81-4.45-3.91-1.89-1.25-4.2-1.72-6.41-1.11-1.32.37-2.61,1-3.86,1.54s-2.56,1.12-3.82,1.74c-3,1.48-5.85,3.2-8.45,5.3-2.4,1.94-4.59,4.34-5.89,7.17-.5,1.09-.35,2.53.83,3.15,1.01.53,2.61.34,3.15-.83h0Z" fill="#231f20"/><path d="M227.25,2.3c-.01.31-.03.62-.06.93-.01.18-.03.36-.05.54,0,.02-.08.61-.02.23s-.03.2-.04.22c-.02.15-.05.29-.07.44-.06.31-.12.63-.19.94-.14.58-.3,1.16-.48,1.73-.09.27-.18.53-.28.79-.05.13-.1.26-.15.39-.17.44.19-.41-.06.14-.48,1.06-1.02,2.08-1.65,3.05-.31.49-.64.96-.99,1.43-.06.09-.13.18-.2.27.4-.45.02-.03-.05.06-.19.24-.39.47-.58.71-1.57,1.84-3.34,3.5-5.19,5.05-.45.37-.9.74-1.35,1.11-.23.18-.46.36-.69.54-.09.07-.18.14-.28.22-.2.16-.19.14.05-.04-.09.07-.19.14-.28.21-.98.75-1.97,1.49-2.97,2.23-2.16,1.59-4.38,3.14-6.41,4.89-2.27,1.96-4.24,4.23-5.96,6.67-.82,1.17-1.58,2.39-2.26,3.65s-1.21,2.45-1.86,3.65-1.36,2.32-2.13,3.43c-.18.26-.37.53-.57.78-.04.06-.43.57-.11.15-.08.1-.16.2-.24.3-.44.55-.89,1.08-1.36,1.59-.5.55-1.02,1.07-1.57,1.57-.27.24-.54.48-.82.71-.09.07-.18.15-.28.22.46-.38-.14.1-.23.17-.52.37-1.07.72-1.64,1.02-.28.15-.58.28-.87.42s.53-.19.04-.02c-.15.05-.29.11-.44.16-.29.1-.58.18-.88.24-.15.03-.29.06-.44.09-.51.1.54-.03.02,0-.3.02-.59.04-.89.03-.12,0-.25-.02-.37-.02-.59-.02.41.1-.05,0-.3-.06-.59-.12-.88-.21-.1-.03-.2-.06-.29-.1-.1-.03-.19-.07-.29-.11.31.13.35.14.12.04-.29-.16-.58-.3-.86-.48-.1-.06-.19-.12-.28-.19-.1-.07-.19-.13-.28-.2.23.18.24.19.04.02-.93-.76-2.36-.98-3.25,0-.78.85-.99,2.44,0,3.25,2.15,1.77,4.76,2.87,7.59,2.54s5.32-1.71,7.53-3.49,4.12-4.09,5.74-6.47,2.75-4.99,4.17-7.48c.74-1.3,1.57-2.56,2.46-3.77.08-.11.16-.22.25-.33-.3.4.11-.14.14-.18.21-.27.43-.53.65-.79.53-.62,1.08-1.22,1.66-1.81.48-.49.97-.96,1.48-1.41.28-.25.56-.5.85-.74.13-.11.26-.22.4-.33.11-.09.21-.17.32-.26q-.19.14,0,0c1-.76,2.01-1.51,3.02-2.26,4.18-3.09,8.48-6.14,12.04-9.97,1.93-2.08,3.68-4.41,4.9-6.98,1.38-2.91,2.14-5.99,2.28-9.21.05-1.2-1.1-2.35-2.3-2.3-1.29.06-2.24,1.01-2.3,2.3h0Z" fill="#231f20"/><path d="M57.44,7.73c.78,1.56,2.1,2.98,3.46,4.05,1.46,1.15,3.07,2.04,4.88,2.52s3.78.41,5.69.52c.37.02.73.05,1.1.09.19.02.37.04.56.06.15.02.43.08-.2-.03.11.02.22.03.33.05.67.1,1.33.23,1.98.4.59.15,1.16.33,1.73.55.12.04.23.1.35.14-.72-.25-.26-.11-.07-.02.24.11.48.23.72.36.45.24.86.53,1.28.81.23.16-.49-.4-.11-.08.09.08.18.15.27.23.18.15.35.32.51.48s.32.33.47.51c.06.08.12.16.19.23.17.19-.35-.47-.2-.26.04.06.09.11.13.17.27.37.51.75.72,1.15.1.19.2.38.29.57.05.1.09.21.14.31.18.38-.23-.6-.05-.12.17.43.32.87.45,1.31.27.9.46,1.83.6,2.76.05.32.13.99.04.21.03.25.06.5.09.74.06.5.1,1.01.14,1.51.08,1.03.15,2.05.21,3.08.27,4.28.56,8.74,2.63,12.59,2.47,4.6,7.32,6.96,12.32,7.73.97.15,1.94.27,2.92.35,1.2.1,2.35-1.13,2.3-2.3-.06-1.33-1.01-2.19-2.3-2.3-.4-.03-.79-.07-1.19-.12-.1-.01-.2-.03-.31-.04-.32-.03.47.07.16.02-.22-.03-.44-.06-.66-.1-.7-.12-1.4-.26-2.09-.44-.64-.17-1.28-.36-1.9-.59-.13-.05-.25-.1-.38-.15-.31-.12.54.24.02,0-.27-.12-.53-.25-.79-.38-.49-.26-.97-.54-1.42-.86-.1-.07-.19-.14-.28-.2-.39-.28.44.37.08.06-.19-.17-.39-.33-.58-.5-.35-.33-.68-.67-.99-1.04-.04-.05-.08-.1-.12-.14-.21-.25.2.27.19.25-.07-.1-.15-.19-.21-.29-.14-.19-.27-.39-.4-.6-.25-.4-.48-.82-.69-1.26-.04-.09-.09-.19-.13-.28-.17-.38,0,0,.07.18-.08-.24-.19-.47-.27-.71-.32-.91-.56-1.84-.75-2.79-.09-.48-.17-.96-.24-1.44-.08-.53.03.22.02.14-.01-.11-.03-.22-.04-.33-.03-.27-.06-.54-.09-.81-.1-1.01-.18-2.02-.24-3.04-.27-4.2-.41-8.51-2.14-12.42-1.91-4.33-6.09-6.81-10.63-7.61-1.65-.29-3.33-.44-5-.47-.44,0-.87,0-1.31-.02-.24-.01-.48-.04-.72-.06-.27-.03.17.01.18.02-.01-.03-.46-.08-.5-.09-.37-.08-.74-.17-1.1-.29-.2-.06-.39-.14-.59-.21-.42-.15.13.06.13.06-.03.02-.3-.14-.34-.15-.65-.31-1.26-.69-1.85-1.11-.31-.22.14.1.16.12-.05-.06-.13-.11-.2-.16-.13-.1-.25-.21-.37-.32-.23-.21-.45-.42-.66-.64-.18-.19-.35-.38-.52-.58-.07-.08-.14-.17-.21-.26-.15-.18.36.5.07.09-.2-.28-.4-.56-.57-.86-.06-.1-.12-.21-.18-.32-.54-1.08-2.15-1.47-3.15-.83-1.1.71-1.4,2-.83,3.15h0Z" fill="#231f20"/><path d="M173.44,167.63c.08-.16.17-.32.25-.48.23-.43-.35.35-.02,0,.03-.03.36-.32.36-.35,0,.04-.5.32-.2.16.1-.05.19-.12.28-.17.06-.04.14-.06.2-.1.25-.16-.04.2-.24.1.04.02.37-.13.43-.15.17-.05.34-.08.52-.12.46-.1-.54.03.05,0,.38-.02.76-.03,1.15,0,.18.01.35.03.53.04s.34.11-.21-.03c.13.03.27.04.4.06.79.14,1.57.35,2.33.62.17.06.34.12.51.19.2.08.73.39.13.05.33.19.7.32,1.04.49.28.15.55.3.82.46.14.09.27.17.41.27.07.05.14.1.21.15.29.2-.38-.33-.2-.15.17.17.36.31.53.49.14.16.28.33.41.49.1.13.2.25.3.38-.21-.27.21.29.21.29.74,1.01,1.41,2.07,1.99,3.18.14.26.27.53.39.8.06.13.34.8.15.33.2.52.4,1.04.57,1.57.31,1,.54,2.01.71,3.04.02.14.06.29.07.44,0-.07-.06-.52-.01-.08.03.24.05.47.08.71.05.54.08,1.07.12,1.61.09,1.2.32,2.38.78,3.5.94,2.27,2.46,4.19,4.56,5.5,1.9,1.18,4.15,1.61,6.33,1.95,1.35.21,2.71.37,4.07.55.16.02.31.04.47.06.45.06-.24-.04.05,0,.31.04.62.09.93.13.59.09,1.17.19,1.75.3,1.18.23,2.35.52,3.47.95.11.04.22.09.32.13-.55-.22,0,0,.08.05.26.12.51.25.76.39.22.13.44.26.65.4.12.08.23.16.35.24-.31-.21-.12-.1.07.06.92.77,2.36.97,3.25,0,.78-.85.99-2.43,0-3.25-3.84-3.2-8.82-3.65-13.58-4.26-.12-.02-.25-.03-.37-.05-.61-.08.34.05-.04,0-.28-.04-.56-.08-.83-.12-.55-.08-1.09-.17-1.63-.28s-1.05-.22-1.57-.35c-.25-.07-.51-.14-.76-.21-.14-.04-.28-.1-.42-.14-.42-.13.23.12-.02,0-.44-.22-.88-.44-1.29-.72-.02-.01-.48-.34-.19-.12s-.15-.13-.17-.14c-.22-.19-.42-.38-.62-.59-.16-.17-.3-.34-.45-.51.39.45-.12-.19-.2-.3-.14-.22-.27-.44-.39-.66-.05-.1-.11-.2-.16-.31-.04-.08-.07-.16-.11-.23-.07-.15-.05-.1.06.15-.2-.06-.41-1.29-.45-1.5-.02-.11-.04-.23-.07-.35-.09-.49.02.09,0,.09-.04,0-.06-.83-.07-.89-.08-1.24-.22-2.48-.44-3.71-.41-2.36-1.23-4.64-2.36-6.76-.62-1.15-1.34-2.25-2.12-3.29-.6-.8-1.18-1.63-1.96-2.26-1.4-1.12-3-1.9-4.68-2.51-3.64-1.31-9.26-1.77-11.21,2.46-.5,1.09-.35,2.53.83,3.15,1.01.54,2.61.34,3.15-.83h0Z" fill="#231f20"/><path d="M25.58,59.51c1.61,3.85,3.33,7.89,6.18,11.02,1.85,2.03,4.24,3.23,6.99,3.42,2.53.17,5.1-.48,7.58-.91.71-.12,1.42-.23,2.13-.33.45-.07-.49.06-.17.02.11-.01.21-.03.32-.04.17-.02.35-.04.52-.06.45-.05.9-.1,1.35-.13,1.2-.1,2.41-.11,3.61,0,.18.02.35.04.53.05.41.04-.54-.1.12.02.28.05.56.09.83.15.69.14,1.37.32,2.04.53.34.11.67.22,1,.35.13.05.26.1.39.16-.44-.18.19.09.23.11.67.31,1.33.66,1.96,1.06s1.26.83,1.85,1.29c-.08-.06-.3-.24.05.04.17.14.33.27.5.41.27.23.54.47.8.72.53.5,1.01,1.04,1.48,1.59.25.29-.29-.43.06.09.11.16.22.32.33.48.17.26.33.54.47.82.05.11.1.22.16.33-.24-.49,0,.01.03.12.06.18.28.66.21.84l-.03-.27c0,.08.02.17.02.25,0,.14.01.28,0,.42,0,.03-.04.59,0,.2.04-.37-.08.3-.1.37-.31,1.16.39,2.55,1.61,2.83s2.5-.36,2.83-1.61c1.5-5.68-4.01-10.63-8.4-13.17-2.51-1.45-5.26-2.31-8.12-2.68-2.18-.28-4.34-.15-6.51.13-1.62.21-3.23.48-4.84.76-.62.11-1.24.22-1.86.31-.14.02-.29.04-.43.06-.34.05.35-.05.33-.04-.08,0-.15.02-.23.03-.29.03-.57.06-.86.09-.54.04-1.08.06-1.62.03-.29-.01-1.1-.2-.2,0-.25-.06-.5-.08-.75-.15-.23-.06-.46-.13-.69-.21-.32-.11-.33-.28.13.07-.1-.08-.26-.12-.37-.18-.23-.12-.45-.25-.67-.39-.12-.08-.24-.17-.37-.26-.15-.1-.21-.25.25.19-.06-.06-.15-.12-.22-.18-.56-.47-1.06-1.02-1.53-1.58-.37-.44.27.38-.08-.1-.12-.17-.25-.34-.37-.51-.29-.41-.56-.84-.82-1.27-.57-.95-1.1-1.93-1.59-2.93-.29-.6-.57-1.2-.85-1.8-.14-.31-.28-.62-.41-.93-.07-.16-.14-.32-.21-.49-.04-.1-.08-.2-.13-.3.09.21.08.19-.02-.06-.46-1.11-1.54-2.02-2.83-1.61-1.06.34-2.1,1.64-1.61,2.83h0Z" fill="#231f20"/><path d="M127.77,216.17c3.62-.32,4.9-4.52,4.9-7.61,0-2.51-.66-5.13-1.75-7.38-.16-.33.18.59.03.07-.03-.12-.06-.25-.1-.37-.11-.32.02.67.03.16,0-.13.02-.27.01-.39,0,.02-.16.64,0,.19.03-.1.08-.22.11-.33,0,.01-.29.55-.05.15.07-.12.14-.24.21-.35.03-.05.07-.1.11-.16.17-.27-.18.23-.18.24.1-.08.18-.21.26-.3.21-.24.44-.46.67-.67.46-.43.96-.83,1.45-1.22,1.06-.84,2.16-1.65,3.13-2.6,1.18-1.14,2.16-2.46,2.72-4.01.63-1.73.48-3.71-.04-5.44-1.34-4.45-5.84-9.34-10.81-6.73-1.07.56-1.48,2.14-.83,3.15.7,1.09,2.01,1.43,3.15.83-.02.01.27-.14.27-.13.02.05-.56.17-.14.08.1-.02.65-.13.24-.08s.12,0,.23,0c.05,0,.21.03.27.02-.17.04-.52-.12-.15,0,.09.03.39.17.46.14-.04.02-.52-.26-.16-.07.06.03.13.06.19.1.17.09.33.2.5.3.02.01.18.11.18.13,0-.05-.36-.31-.05-.02s.57.54.83.85c.07.08.15.17.21.25,0,0-.24-.36-.11-.14s.29.41.42.63c.21.34.38.69.56,1.04.19.37,0-.02-.03-.08.05.1.09.22.12.31.08.21.15.42.21.64.12.4.19.8.28,1.2.06.27-.04-.22-.03-.21.02.01.02.27.03.32.01.22.02.43.01.65,0,.13-.05.29-.03.42,0-.03.12-.6.03-.26-.02.07-.03.15-.05.23-.03.13-.07.26-.11.39-.04.11-.23.6-.06.21s-.03.05-.08.14c-.07.14-.15.27-.23.4-.07.12-.14.23-.22.34-.04.06-.09.13-.13.19-.15.22-.23.09.11-.14-.2.14-.38.45-.55.63-.22.24-.46.46-.69.69-1.73,1.6-3.87,2.81-5.35,4.67-.89,1.11-1.55,2.41-1.49,3.87.04.92.32,1.58.67,2.41-.11-.27.15.38.18.46.09.25.18.5.27.76.18.54.33,1.09.45,1.64.06.29.11.58.16.87.05.27-.02-.12-.02-.15.02.18.04.36.05.54.03.45.05.89.03,1.34,0,.23-.04.46-.05.69-.01.31.09-.48.03-.18-.03.11-.04.23-.06.34-.07.36-.16.71-.28,1.06-.02.06-.04.11-.06.17-.12.4.19-.39.08-.18-.08.14-.14.29-.22.43-.06.11-.15.22-.21.33-.11.2.43-.45.05-.08-.08.08-.16.15-.23.23-.26.29.51-.38.14-.12-.34.24.07-.02.25-.09-.23.08-.62.07.27,0-1.2.11-2.36.98-2.3,2.3.05,1.16,1.02,2.42,2.3,2.3h0Z" fill="#231f20"/><path d="M53.45,190.96c.4-.66.85-1.28,1.28-1.91.17-.25-.28.34-.08.11.05-.06.09-.12.14-.18.11-.13.22-.27.33-.4.23-.27.48-.54.73-.8.46-.48.95-.93,1.46-1.36.12-.1.26-.19.36-.29-.45.45-.15.11,0,0,.26-.19.53-.38.8-.56,1.02-.67,2.1-1.25,3.22-1.75.13-.06.26-.12.4-.18.08-.03.15-.06.23-.1.23-.1-.3.12-.27.11.31-.09.61-.25.91-.37.53-.21,1.07-.4,1.6-.59,4.55-1.62,9.46-3.06,12.68-6.92,2.33-2.79,3.6-6.2,4.21-9.76.2-1.18-.31-2.54-1.61-2.83-1.12-.25-2.61.34-2.83,1.61-.28,1.62-.7,3.2-1.28,4.74-.15.39.21-.45-.03.06-.07.15-.14.31-.21.46-.15.31-.31.62-.48.92-.31.55-.69,1.05-1.04,1.57.15-.23.27-.33.05-.08-.09.11-.18.22-.28.33-.2.23-.41.44-.62.65-.2.19-.4.38-.61.56-.1.09-.21.18-.31.26-.06.05-.12.1-.18.15-.21.18.42-.3.19-.15-.92.63-1.84,1.22-2.85,1.71-.24.12-.49.23-.73.34-.12.05-.25.1-.37.16-.04.02.51-.21.28-.12-.09.04-.18.07-.27.11-.53.21-1.06.41-1.59.61-1.07.39-2.15.75-3.22,1.13-2.4.85-4.81,1.8-6.98,3.17-2.89,1.83-5.25,4.31-7.01,7.25-.62,1.03-.27,2.57.83,3.15s2.49.28,3.15-.83h0Z" fill="#231f20"/></svg>