<?xml version="1.0" encoding="UTF-8"?><svg id="Layer_1" xmlns="http://www.w3.org/2000/svg" viewBox="0 0 207.11 170.81"><path d="M157.44,16.84c-5.31,0-10.4.89-15.17,2.5-7.28-10.3-19.28-17.04-32.85-17.04s-24.98,6.4-32.31,16.27c-3.9-1.11-8.01-1.72-12.26-1.72-13.2,0-24.13,1.57-32.29,10.69-7.06,7.88-12.28,22.46-12.28,33.88,0,24.62,19.95,44.57,44.57,44.57,2.14,0,4.23-.16,6.29-.45,6.69,9.98,15.59,13.4,28.51,13.4s27.13-3.64,33.77-13.89c7.04,4.15,15.25,6.55,24.02,6.55,14.06,0,30.6-6.13,39.28-15.85,7.47-8.37,8.1-19.42,8.1-31.52,0-26.16-21.21-47.37-47.37-47.37Z" fill="#fff" stroke="#231f20" stroke-miterlimit="10" stroke-width="4.6"/><path d="M122.35,55.38c-.9-5.7-4.7-9.35-8.92-12.95-4.56-3.89-9.05-7.24-14.65-9.55-4.6-1.9-11.61-4.72-16.74-3.58-3.23.72-4.53,4.39-3.49,7.36-2.05,6.62-5.94,12.51-8.64,18.86-3.12,7.33-6.32,14.57-9.78,21.74-.78,1.61-3.14,4.76-2.41,6.83.01.05,0,.08.02.13.91,2.66,3.5,4.33,6.25,3.76,5.54-1.16,11.28-4.28,16.43-6.72.1,1.09-.22,2.19.86,3.11,1.99,1.69,3.2-.31,3.45-2.15.09-.66,0-1.52-.08-2.4.05-.01.1-.01.16-.03,1.08-.42,2.15-.84,3.23-1.25-.01.54-.06,1.1-.06,1.58.02,1.36.04,2.72.23,4.07.3,2.17,1.54,6.04,4.45,4.28,3.51-2.13,1.78-8.38,1.74-12.47,6.97-3.67,14.16-6.92,21.1-10.62,4.48-2.4,8.09-4.49,6.85-10ZM84.54,78.17c-.01-.68.05-1.31.29-1.77.78-1.51,2.21-.57,2.85.55-1.05.41-2.09.81-3.14,1.22Z" fill="#231f20"/><path d="M92.94,78.46c.06,1.08.74,7.58-.7,8.1-1.01.36-2.08-1.23-2.33-1.83-.26-.63-.2-1.66-.24-2.35-.1-1.51,0-3.03-.07-4.54-.12-2.53-1.43-5.5-4.52-4.15-2.64,1.15-1.84,4.29-1.89,6.61-.02,1.11-.23,3.7-1.37,1.28-.21-.46.08-1.18-.02-1.69-.2-.99-.56-1.76-1.52-2.2-2.73-1.25-7.4,1.93-9.83,2.81-2.45.89-7.6,3.74-10.03,2.63-1.58-.72-.94-.83-.22-2.31.55-1.14,1.1-2.27,1.65-3.41,3.21-6.66,6.23-13.37,9.08-20.19,2.78-6.64,6.8-12.8,9.02-19.66,7.07.95,13.52,3.85,19.49,7.69,5.3,3.4,12.27,7.54,14.46,13.78-5.22,3.37-10.63,6.19-16.02,9.24-4.36,2.46-5.22,5.29-4.94,10.19Z" fill="#ede9b9"/><path d="M86.74,43.5c-3.21-1.95-6.57.55-7.84,3.52-.96,2.04-.83,5.43,1.37,6.62,2.31,1.26,6.99.55,8.49-1.71,1.79-2.68.71-6.78-2.02-8.43ZM87.14,51.39c-1.16,1.15-4.21,1.5-5.66.99-1.68-.59-1.87-3.1-1.19-4.54.81-1.9,2.66-4.1,5.04-3.25,2.39.85,3.74,4.9,1.81,6.8Z" fill="#231f20"/><path d="M80.61,67.59c-.27-2.58-2.77-4.09-5.23-3.76-2.67.35-4.02,2.22-4.33,4.71-.05.1-.07.22-.06.36-.01.14.01.25.05.35.4,2.56,2.25,5.12,5.15,4.59,2.71-.5,4.7-3.57,4.42-6.25ZM76.9,71.89c-2.25,1.3-4.07-.85-4.29-2.99.14-1.61.75-2.83,2.35-3.32,1.42-.44,3.34.01,3.88,1.55.57,1.63-.47,3.91-1.94,4.76Z" fill="#231f20"/><path d="M99.09,52.48c-3.02-1.06-5.58.71-6.87,3.4-.01.04-.01.07-.02.1-.02.03-.05.06-.06.1-2.15,6.05,7.63,8.24,9.82,2.9,1.11-2.73-.06-5.51-2.87-6.5ZM100.59,58.03c-1.23,3.87-8.33,2.78-6.91-1.46.78-1.57,2-2.94,3.92-2.78,2.23.19,3.68,2.06,2.99,4.24Z" fill="#231f20"/><path d="M87.14,51.39c-1.16,1.15-4.21,1.5-5.66.99-1.68-.59-1.87-3.1-1.19-4.54.81-1.9,2.66-4.1,5.04-3.25,2.39.85,3.74,4.9,1.81,6.8Z" fill="#c66d61"/><path d="M100.59,58.03c-1.23,3.87-8.33,2.78-6.91-1.46.78-1.57,2-2.94,3.92-2.78,2.23.19,3.68,2.06,2.99,4.24Z" fill="#c66d61"/><path d="M76.9,71.89c-2.25,1.3-4.07-.85-4.29-2.99.14-1.61.75-2.83,2.35-3.32,1.42-.44,3.34.01,3.88,1.55.57,1.63-.47,3.91-1.94,4.76Z" fill="#c66d61"/><path d="M87.53,34.21c4.06.77,7.67,2.27,11.22,4.36.9.53,1.71-.87.82-1.39-3.68-2.17-7.39-3.73-11.61-4.53-1.02-.19-1.45,1.36-.43,1.56Z" fill="#c66d61"/><path d="M102.06,40.49c1.04,0,1.04-1.62,0-1.62s-1.04,1.62,0,1.62Z" fill="#c66d61"/><path d="M108.81,66.89c-4.77,2.34-9.52,4.73-14.23,7.2.02-.08.03-.17.05-.24,1.15-3.73,5.93-5.02,9.02-6.68,3.98-2.13,7.81-4.59,11.58-7.07.37-.12.66-.46.53-.94-.52-1.97-.03-4.14,1.9-5.11,1.69-.85,2.68.21,3.13,1.76,1.35,6.01-7.68,8.96-11.98,11.08Z" fill="#c0bd68"/><path d="M60.8,85.54c1.13-.21,2.32-.8,3.26-1.11,3.19-1.06,6.43-2.1,9.53-3.4,1.61-.68,4.75-2.84,6.22-1.25-3.53,1.72-14.68,8.01-19.01,5.76Z" fill="#c0bd68"/><path d="M91.45,32.1c4.42,1.2,8.73,2.88,12.67,5.23,5.52,3.27,12.75,8.6,15.59,14.96-.69-.21-1.47-.2-2.34.12-1.68.62-2.69,1.96-3.14,3.52-2.85-4.9-8.23-8.26-12.84-11.33-6.53-4.35-13.6-7.6-21.41-8.65-2.62-6.73,8.13-4.76,11.47-3.85Z" fill="#c0bd68"/><path d="M174.47,72.29c-1.5,2.03-8.73,3.57-17.44,3.57s-15.95-1.54-17.45-3.57h-.04c1.27,7.48,2.76,14.88,4.07,22.27,0,1.83,6.05,3.31,13.51,3.31s13.51-1.48,13.51-3.31c1.3-7.39,2.79-14.79,4.06-22.27h-.22Z" fill="#79a7b6" stroke="#231f20" stroke-miterlimit="10" stroke-width="2"/><path d="M174.69,69.38c0,2.4-7.94,4.35-17.74,4.35-8.8,0-16.1-1.57-17.5-3.63l-.18-1.08c.76-2.23,8.38-3.99,17.68-3.99,9.8,0,17.74,1.95,17.74,4.35Z" fill="#fff" stroke="#231f20" stroke-miterlimit="10" stroke-width="4.6"/><path d="M174.69,69.38c0,2.4-7.94,4.35-17.74,4.35-8.8,0-16.1-1.57-17.5-3.63-.16-.23-.24-.47-.24-.72,0-.12.02-.24.06-.36.76-2.23,8.38-3.99,17.68-3.99,9.8,0,17.74,1.95,17.74,4.35Z" fill="#79a7b6" stroke="#231f20" stroke-miterlimit="10" stroke-width="2"/><path d="M177.55,39.92c0,.17-.04.34-.11.51-1.04,2.53-9.77,4.51-20.37,4.51s-19.32-1.98-20.36-4.51c-.07-.17-.11-.34-.11-.51,0-2.77,9.16-5.02,20.47-5.02s20.48,2.25,20.48,5.02Z" fill="#fff" stroke="#231f20" stroke-miterlimit="10" stroke-width="4.6"/><path d="M174.69,69.38c0-2.4-7.94-4.35-17.74-4.35s-16.92,1.76-17.68,3.99c-1.56-9.34-2.74-18.82-2.74-28.59h2.18c1.04,2.53,7.76,4.51,18.36,4.51s19.33-1.98,20.37-4.51h.11c0,18-4,35-7,52,0,1.83-6.05,3.31-13.51,3.31s-13.51-1.48-13.51-3.31c-1.31-7.41-2.81-14.83-4.08-22.33,1.4,2.06,8.7,3.63,17.5,3.63,9.8,0,17.74-1.95,17.74-4.35" fill="none" stroke="#231f20" stroke-miterlimit="10" stroke-width="4.6"/><path d="M78.06,35.41c-11.91,13.41-17.57,30.7-22.87,47.5-.43,1.35.51,2.64,1.75,3.08,4.17,1.48,8.01-1.06,11.38-3.24s7.03-3.42,11.16-3.2l-2.41-1.84c.55,2.86,2.85,6.38,6.22,5.57,1.65-.4,2.79-1.85,3.15-3.45.15-.69.17-1.41.21-2.11.01-.22.09-.45.08-.6-.02-.12,0-.17.08-.15-.17.37-.56.49-1.16.34l-1.75-1.75c.39,2.07.78,4.14,1.17,6.21.35,1.83.54,3.77,1.13,5.55.5,1.52,1.32,3.02,2.75,3.84,1.55.89,3.53.73,4.93-.37,2.73-2.15,2.32-6.1,2.25-9.17-.05-2.12-.1-4.24-.15-6.36-.03-1.25-.56-3.52.47-4.48.46-.43,1.14-.7,1.7-.99,1.03-.52,2.07-1.03,3.1-1.55,1.84-.92,3.69-1.84,5.53-2.76,3.34-1.66,7.14-3.5,6.65-7.94-.37-3.45-2.67-6.53-4.93-9.04-2.14-2.37-4.71-4.37-7.42-6.04-6.19-3.82-13.26-6.05-20.2-8.1-3.09-.92-4.41,3.91-1.33,4.82,9.96,2.95,21.76,6.44,27.62,15.78.58.92,1.47,2.21,1.3,3.35-.16,1-1.41,1.44-2.23,1.85-3.38,1.71-6.79,3.38-10.18,5.08-1.34.67-2.67,1.36-3.64,2.53-1.12,1.35-1.47,3-1.5,4.72-.05,3.68.17,7.38.26,11.06.01.45.04,3.55-.45,3.42-.15-.04.71-.3.63-.22.14-.15.2.86-.07-.2-.04-.17-.2-.43-.26-.59-.62-1.74-.79-3.74-1.13-5.55-.39-2.07-.78-4.14-1.17-6.21-.15-.82-.96-1.56-1.75-1.75-3.28-.79-5.15,2.2-5.32,5.08-.01.19-.16,1.2-.11,1.24-.19-.19,1.09-.4,1.07-.38.14-.14.06.14-.06-.19-.04-.11-.16-.3-.23-.44-.21-.46-.34-.92-.43-1.42-.21-1.11-1.37-1.78-2.41-1.84-4.14-.22-8.32.75-11.93,2.8-2.64,1.49-6,4.98-9.28,3.82l1.75,3.08c5.03-15.92,10.28-32.57,21.59-45.29,2.13-2.4-1.39-5.95-3.54-3.54h0Z" fill="#231f20"/><path d="M80.32,34.78c-.14-.91,1.58-1.5,2.21-1.6,1.65-.26,3.47.09,5.11.35,3.49.57,6.92,1.47,10.24,2.69,6.54,2.4,12.64,6.13,17.74,10.87,2.43,2.25,5.93,5.61,5.08,9.29h4.82c-.58-3.27-2.84-6.83-6.71-5.76-1.74.48-3.11,1.77-4.33,3.04-1.35,1.41-2.56,2.95-3.65,4.57-1.81,2.67,2.52,5.18,4.32,2.52,1.18-1.74,2.64-3.78,4.39-5,.21-.15.47-.21.68-.3-.52.22-.28-.5-.16.07.15.71.51,1.43.64,2.19.43,2.45,4.29,2.31,4.82,0,1.1-4.78-1.41-9.07-4.61-12.44-2.99-3.15-6.51-5.88-10.17-8.21-7.38-4.7-15.79-7.67-24.47-8.74-2.57-.32-5.36-.38-7.66,1.03s-3.53,4-3.12,6.75c.2,1.34,1.89,2.07,3.08,1.75,1.43-.39,1.95-1.73,1.75-3.08h0Z" fill="#231f20"/><path d="M58.37,88.02c1.82.92,3.69,1.79,5.77,1.89s3.9-.82,5.6-1.86c3.11-1.9,6.35-3.42,9.83-4.5,1.29-.4,2.11-1.74,1.75-3.08s-1.78-2.15-3.08-1.75c-3.32,1.03-6.56,2.41-9.58,4.14-1.21.69-2.49,1.8-3.87,2.02-1.29.21-2.73-.59-3.9-1.19s-2.71-.32-3.42.9c-.65,1.11-.31,2.81.9,3.42h0Z" fill="#231f20"/><path d="M95.98,77.68c6.77-3.24,13.39-6.78,19.84-10.62,1.61-.96,3.21-1.94,4.8-2.93,1.5-.94,3.14-1.85,4.12-3.39,1.86-2.93.88-6.52-.54-9.4-.6-1.21-2.31-1.54-3.42-.9-1.23.72-1.5,2.2-.9,3.42.48.97.89,2.05.89,3.15s-.63,1.5-1.49,2.05c-2.76,1.78-5.58,3.46-8.42,5.11-5.68,3.3-11.49,6.36-17.41,9.19-1.22.58-1.54,2.32-.9,3.42.73,1.24,2.2,1.48,3.42.9h0Z" fill="#231f20"/><path d="M49.95,140.22c-8.88-7.89,2.62-23.89,13.14-19.16,5.51,3.35,7.01,12.36,3.11,17.45-3.76,4.06-11.99,5.84-16.25,1.71Z" fill="#fff" stroke="#231f20" stroke-miterlimit="10" stroke-width="4.6"/><path d="M28.76,159.68c-7.49-3.45-3.08-16.4,4.86-15.38,4.34,1.11,7.15,6.79,5.59,10.96-1.68,3.46-6.78,6.3-10.45,4.42Z" fill="#fff" stroke="#231f20" stroke-miterlimit="10" stroke-width="4.6"/><path d="M4.58,168.15c-4.42-2.03-1.82-9.68,2.87-9.08,2.56.66,4.22,4.01,3.3,6.47-.99,2.04-4,3.72-6.17,2.61Z" fill="#fff" stroke="#231f20" stroke-miterlimit="10" stroke-width="4.6"/></svg>