<?xml version="1.0" encoding="UTF-8"?><svg id="Layer_1" xmlns="http://www.w3.org/2000/svg" viewBox="0 0 428.23 421.28"><path d="M11.74,267.79s.08.19.05.15c0,.05.09.47.1.46,6.01,38.39,24.53,77.72,60.01,96.95,12.99,14.59,46.02,38.6,45.94,38.51,2.11,1.24,4.23,2.43,6.37,3.51,0,0,7.17,2.65,7.2,2.64,10.93,6.76,24.84,3.77,37.61,6.59,48.03,7.03,96.7-1.84,139.3-22.69-.13.1-.27.21-.4.31,32.69-14.69,55.97-49.3,76.44-78.32-.07.04-.08.08-.04.14,10.37-17.01,19.61-34.69,26.69-53.23,9.06-17.45,11.31-36.33,12.45-55.19-.3-2.99-.03-5.98-1.66-8.66-.13-.87-9.87-121.59-51.33-159.89-2.33-1.89-4.71-3.92-7.18-5.91.09.06.19.1.27.17-6.1-4.84-12.57-9.69-19.88-11.75h0c.18-.03-51.98-17.5-78.09-17.86C185.71,1.9,80.31,37.63,37.35,109.77c-1.92,2.52-3.24,5.43-4.86,8.13-17.81,22.79-21.1,54.17-28.11,81.57-4.76,22.92-.98,46.83,7.35,68.32Z" fill="#79a7b6" stroke="#231f20" stroke-miterlimit="10" stroke-width="4.6"/><path d="M235.8,326.04c2.24.6,4.07,3.59,8.19,3.95,0,0,15.39,2.63,18.22-2.11.18-.89.89-.57,1.12-.39,2.98,3.07,4.44-5.54,11.08-2.57-.39,3.19,5.01-1.57,5.11,1.84,4.7.83,4.8,4.53,5.28,8.88.17,2.83,3.52,4.37,3.27,7.2-.43,3.17-1.07,6.25-2.98,8.87-.69.24.55,1.4-.52,1.21-2.53,2.18,1.29,3.77-.6,4.16-7.53-.07-13.22,4.96-20.02,6.15-1.69-.13-.28,3.09-2.32,2.17-1.42-.16-3.97,5.5-3.97,5.5-1.43,2.35-2.55.9-2.83,2.4-.3,1.38-2.6,1.16-3,2.85-21.08,7.74-11.47-9.12-26.1-10.51-2.07.91-4.47-.45-6.71-.24-3.02.34-6.69,1.27-9.11-1.85-.63-1.27-3.03-.48-2.33-2.38.77-1.55.55-4.54,2.54-4.97,1.39.22,1.34-.57,1.15-1.43-1.45-9.34,8.66-13.44,13.33-20.76.43-3.04,4.01-2.75,5.32-5.19-.25-.41.16-.3.31-.4,2.12.08,3.26-3.37,5.58-2.36Z" fill="#91a98e" stroke="#414042" stroke-miterlimit="10" stroke-width="4.6"/><path d="M328.98,245.6c1.72.03,1.42-2.2,2.88-2.59,2.54-.67,3.01-3.2,4.62-4.72,9.75-5.04.36,7.7,14.68,2.8,1.34-5.02,4.7-1.59,8.15-3.22,5.06-.47,9.55-2.6,13.7-5.26,16.38-7.11,22.05,13.2,9.56,21.96-1.34,1.13-1.93,3.02-2.19,4.5,2.16,1.85-1.71.84-1.49,2.62.26,2.18-1.72,4.21-1.81,5.77.98.48-.27,2.26-.93,2.65-1.72,2.46,1.76,5.91.01,6.73-.56.5-1.82.7-.53,1.9,1.27,1.15-1.68,3.08-.56,4.34,1.47,3.58,1.26,9.87-1.12,12.68-3.14.82-3.71,3.83-5.43,5.98-3.03,2.58-6.79,4.63-9.7,7.02-2.2-1.53-7.59-.38-8.17-2.71.21-.63-.41-.56-.75-.59-.67-.07-1.32,0-1.61-.89-1.89-.62-4.1,1.63-4.94-1.98-1.03-2.26-3.98-.6-5.43-2.41-2.51.48-5.04-1.82-7.87-.82-1.27.65-3.95-1.41-4.5.72-.47,1.85-1.07-.75-2-.71-1.04-.32-2.27-.34-2.55-1.81-1.68-.3-2.83-2.34-2.8-4.12.13-.52-1.19-1.07.05-1.59-1.15-2.51-.49-5.44-.7-8.38-.33-1.36.07-1.98,1.43-2.44,1.51-1.09.11-3.72.15-5.36-.5-1.44,1.25-2.03.87-3.51,4.09-7.25.96-24.09,8.96-26.57Z" fill="#91a98e" stroke="#414042" stroke-miterlimit="10" stroke-width="4.6"/><path d="M232.11,147.32c-3.16-1-7.54.64-9.47-1.98-1.31-1.78-3.81.63-5.66.4-.92-.12-2.8.43-3.1.59-3.06,1.61-6.67.53-7.83-2.28-.42-1.38-3.11-.15-2.94-2.32-.85-4.33-.26-9.12,1.39-13.51.73-3.27-.93-7.24.96-10.22,2.35-.33-.12-1.8.67-2.69,2.63-.83,1.94-5.52,3.92-5.46,1.43-.02,2.05-1.15,2.92-1.94,4.74.96,11.08.32,14.41,5.28.51-.72,1.03-1.53,1.42-.02.09,3.09,4.01,3.97,4.2,6.32-.03.6.06,1.03.82,1.22,3,.61.94,5.1,4.16,5.4,1,.64.99,2.46,2.52,2.65.66.2.76.54.76,1.09-.55,1.94,2.45,2.92,1.06,4.63-.88,3.56-.09,9.04-4.25,10.79-.84,2.76-3.32,3.17-5.97,2.05Z" fill="#91a98e" stroke="#414042" stroke-miterlimit="10" stroke-width="4.6"/><path d="M339.61,56.7c-3.45-5.3-8.45-9.67-11.02-15.33-1.17-7.66,5.08-13.36,7.61-19.92,2.3-.59,7.49.12,7.49.12,10.16,2.9,26.78,17.44,26.78,17.44,32.88,28.27,45.76,70.33,54.79,111.81,2.75,10.9-4.1,20.33-2.67,31.1-.71,4.23,2.12,13.5-3.12,14.61-9.37-10.32-20.9-15.57-34.31-7.66-6.98-1.69-14.75-.18-21.17,3.88-3.85.23-7.94-.67-12.11-.45-4.88,1.29-9.2,2.23-13.78,4.74-4.1,1.83-5.6.78-9.8.59-1.25,1.52-2.1-3.37-3.32-3.92-1.9-3.93-1.39-9.23,2.13-12.5,1.03-1.76.55-4.06,2.69-5.36,2.77-8.1-.09-17.23,5.29-24.64,8.39-7.32,18.28-18.97,14-31.91-14.24-22.47,11.06-44.64-9.48-62.59Z" fill="#91a98e" stroke="#414042" stroke-miterlimit="10" stroke-width="4.6"/><path d="M252.31,25.35c-.09,1.47-2.03,1.67-1.24,3.37.18.38.09.98-.4,1.17-2.38,1.36,1.59,4.69-2.03,5.42-.82,5.59,3.93,10.67,5.06,16.02,2.44,6.05-2.56,13.27-8.18,15.4-1.06.14-9.72,3.89-9.72,3.89-2.76,1.63-6.83-2.16-9.07-3.31-3.5-1.81-4.59-6.92-6.55-10.59-3.29-3.49-5.82-8.86-11.29-8.75-1.63-1-3.86-2.55-5.78-1.62-11.17.13-24.13-19.44-22.75-29.4,3.71-9.19,95.07-23.11,85.69-7.84,0,0,.83,1.73-.07,2.67h0c-1.57,1.46-3.88,2.84-5.72,4.12-1.2,1.07-.85,3.79-2.83,3.73-.71-.08-.82.38-.95.89-1.03,1.88-2.72,3.29-4.18,4.84Z" fill="#91a98e" stroke="#414042" stroke-miterlimit="10" stroke-width="4.6"/><path d="M136.24,57.06c-4.93,11.87-.83,26.92-10.99,36.63-2.43,2.72-7.39,1.38-9.13,3.51-2.1,1.67-5.92,2.59-7.95,4.97-9.88,5.29-19.88,16-16.05,27.99,2.04,4.18-4.29,6.92-6.08,10.33-5.23,4.9-8.79,12.12-16.09,14.22-4.21,1.34-5.32-4.52-8.38-6.06-7.51-8.32,8.14-19.62.88-28.84-1.65-4.12-6.5-7.8-5.36-12.69,4.71-4.32,5.5-11.54,11.22-14.94,1.8-5.01,6.91-8.26,6.25-13.92,2.91-3.82-.39-10.98,3.5-14.28,20.47-17.36,46.5-29.77,70.99-39.54,3.83-.37,3.97,4.28,4.75,6.88-.25,1.87-3.15,3.66-4.7,4.94-.59.18-.38,1.78-1.12,2.44.51.78,1.06-.33,1.55.16-.28,1.03-1.29.69-1.92,1.05-.59.33-1.78.04-1.46,1.37-.36.68-1.88.34-1.97,1.62-2.16,4.85-5.21,9.62-7.92,14.16Z" fill="#91a98e" stroke="#414042" stroke-miterlimit="10" stroke-width="4.6"/><path d="M114.83,308.22c.02,2.31,2.29,4.04,3.8,5.59.49,4.07.52,8.63.71,12.83-6.36,7.96-8.96,22.86-.52,31.39,1.66.7.77,3.22,2.97,3.49,1.24.34,1.98,1.14,1.84,2.63.44,4.07,1.02,8.65,2.28,12.28-1.79,2.75-4.74,2-1.69,6.63,3.94,2.73,8.37,6.83,10.12,10.9.03.06,7.45,17.61,7.93,18.47-7.85,2.31-13.24-2.26-18.05-5.05-13.93-8.07-26.34-20.24-39.37-30.2-16-12.22-28.66-22.57-44.69-38.16-13.58-13.21-40.3-88.04-24.19-78.81-1.5,3.56,10.86-5.64,14.63-4.03,11.32,1.18,22.24,3.19,32.55,8.45,6.66.06,2.36,1.24,5.53,3.21,6.58,2.06,8.73-3.12,14.1-3.84,2.78-1.36,6.61-.38,9.92-1.13,2.35-.9,2.41,1.61,4.61,1.23,1.42-.87,5.44.34,5.35,2.35.59,2.21,3.67-.21,4.82,1.93.33.49,3.37,7.61,3.17,11.41.14,4.99-3.2,10.15-1.15,15.06.39,4.99,2.96,9.47,5.35,13.37Z" fill="#91a98e" stroke="#414042" stroke-miterlimit="10" stroke-width="4.6"/><path d="M287.47,212.37c-.1,0-.2.03-.3.06-.13.08-.24.06-.35-.03-2.14,1.09-4.46,1.5-6.81,1.75-5.28,1.67-10.21.7-14.92-1.96-3.78-2.14-6.28-5.38-8.09-9.25.33-2.19-.56-4.24-.73-6.37-.32-3.9-.34-7.79-.04-11.69.04-.57.05-1.13-.05-1.69-.24-3.58.29-7.09,1.1-10.56.3-1.26.57-2.53.87-3.79.63-2.66,1.44-5.26,2.56-7.76,1.34-4.65,3-9.18,4.75-13.69,1.18-3.03,2.24-6.11,3.63-9.05.11-1.91,1.05-3.5,2.27-4.81,3.83-4.12,8.37-7.05,14.11-7.75,1.63-.2,3.18-.79,4.8-1.08,3.06-.56,5.58.34,7.59,2.68.71.82,1.45,1.62,2.36,2.18,1.72,1.06,3.07,2.48,4.23,4.1.79.78.81,1.87,1.12,2.84.37,1.13.7,2.27.62,3.49-.12,1.28.99,2.43.37,3.76-.51.96-.36,2.11-.88,3.06-.16.28-.25.69-.67.63-.4-.05-.48-.44-.54-.77-.12-.61-.05-1.24-.28-1.83-.64-3.14-.77-6.41-2.3-9.34-1.57-3.02-3.6-5.47-7.22-6.06-2.02-.33-5.43,1.17-6.44,2.96-1.63,2.9-2.35,6.02-2.66,9.35-.45,4.83,1.66,8.78,3.73,12.8.31.6.72,1.16.95,1.8.69,1.94,2.2,2.88,4.1,3.09,2.96.33,7.63-.69,8.7-4.63.14-.52-1.84-12.06,3.7-11.81.87,5.37-1.96,21.39-3.29,26.62-.34,1.35-.16,2.69-.44,4.02-.94,4.43-1.02,8.88-.81,13.41.14,2.96.22,5.96.11,8.94-.03.83-.15,1.58-.92,2.05h.02c-.02.18-.17.28-.23.44-.04.4-.08.8-.13,1.19-1.45,3.09-3.2,5.94-6.27,7.72v.06c-1.12,2.43-3.28,3.43-5.66,4.13h-.02c-.3.75-1.14.4-1.62.79Z" fill="#414042"/><path d="M270.64,184.11c.84-.07,1.53.2,2.17.74,2.25,1.9,3.56,3.95,2.99,7.23-.62,3.6-2.06,6.56-4.35,9.31-1.21,1.46-2.52,1.54-4.04,1.03-1.53-.52-2.84-1.53-4.42-2.01-.99-.3-1.48-1.41-1.67-2.41-.56-2.93-.35-5.84.34-8.73.26-1.07,1.05-1.75,1.98-2.2.82-.4,1.46-.9,2.1-1.56,1.31-1.33,3.17-1.24,4.89-1.4Z" fill="#fff"/><path d="M304.61,144.85c-.01,2.86-.19,5.71-.72,8.52-.4.81-.39,1.73-.8,2.56-1.95,3.98-8,5.07-11.26,3.24-.51-.29-.88-.71-1.16-1.21-1.11-2.01-2.37-3.95-3.17-6.11-.47-1.28-1.45-2.26-1.73-3.69-.17-.85-.45-1.71-.52-2.6-.25-3.16-.29-6.39.7-9.37.71-2.13,1.35-4.71,3.65-5.82,1.48-.71,2.9-1.75,4.78-1.6,1.72.13,3.11.82,4.4,1.83,3.01,2.34,4.4,5.6,5.06,9.22.31,1.66.52,3.34.78,5.01Z" fill="#fff"/><path d="M118.19,196.76c-.76-8.47.21-16.9.65-25.34.02-.45.08-.91.05-1.36-.31-4.7.69-9.21,1.92-13.69.09-.32.24-.71.15-.99-1.04-3.07.31-5.98.54-8.96.25-2.75.37-5.52,1.26-8.17.85-1.39.93-3.17,2.16-4.38.12-.05.16-.13.12-.25.02-.17.15-.29.23-.44.58-1.26,1.17-2.51,1.75-3.77,1.6-3.97,4.12-7.21,7.13-10.29,3.35-3.43,7.35-4.92,11.8-5.66,2.33-.38,4.75-.8,7.06-.52,1.63.2,3.5.07,4.95,1.22.05.18.13.31.35.26,1.19.5,2.42.93,3.58,1.51,4.05,2.04,6.78,5.18,8.2,9.55.73,2.24,1.36,4.54,2.55,6.62.64,1.11.6,2.37.34,3.6-.21,1-.33,1.96-.3,3.01.03,1.11-.42,2.23-.1,3.42.96,3.52.58,7.09.56,10.68-.02,5.08-.86,9.9-2.29,14.7-.51,1.71-.72,3.51-1.06,5.27-.16.84.05,1.85-1.03,2.27-.14.05-.15.13-.11.27.54,2.31-1.13,4.32-.9,6.59.08.75-.6,1.22-.82,1.9-.46,1.39-.69,2.79-.91,4.2-.22,1.38-.95,2.52-1.55,3.69-.39.76-.72,1.5-.95,2.3l-.07.1c-.83,1.1-1.18,2.46-1.81,3.67-1.33,2.52-3.35,4.35-5.16,6.42-1.17,1.34-2.41,2.56-3.68,3.78-.89.86-1.86,1.16-2.96,1.42-1.88.44-3.75.79-5.68.41-.61-.12-1.11.15-1.58.43-2.44,1.43-4.96,2.09-7.88,1.86-1.58-.12-2.96-.41-4.3-1.1-1.17-.6-2.48-.74-3.66-1.26-.63.17-1.12-.15-1.52-.53-3.21-3.08-5.85-6.53-6.91-10.97-.12-.5-.22-.99-.06-1.5Z" fill="#414042"/><path d="M167.19,135.47c.13,2.98-.91,5.67-2.12,8.3-.47,1.01-1.26,1.69-2.42,2.16-4.07,1.66-7.53.16-11.12-1.55-5.2-2.48-7.98-7-10.53-11.78-1.31-2.45-1.01-5.05-.45-7.59.39-1.76,1.74-2.74,3.4-3.39,1.99-.78,3.94-1.65,5.87-2.56,5.02-2.34,12.74,1.4,14.66,6.58.69,1.88,1.63,3.69,2.21,5.63.4,1.37.54,2.77.5,4.18Z" fill="#fff"/><path d="M139.69,198.15c.11,2.44-.71,4.67-1.6,6.87-.64,1.58-1.84,2.74-3.55,3.08-1.54.31-2.95,1.25-4.72.62-3.2-1.13-4.6-3.63-5.43-6.59-.64-2.29-.3-4.62.22-6.87.3-1.3,1.42-2.17,2.42-2.98,1.18-.95,2.51-1.7,3.75-2.57.56-.39,1.06-.45,1.73-.19,2.42.95,4.35,2.61,6.2,4.31,1.19,1.09.92,2.82.97,4.33Z" fill="#fff"/></svg>