<?xml version="1.0" encoding="UTF-8" standalone="no"?>
<svg
   version="1.1"
   id="ntnulogo"
   width="357.40134536901mm"
   height="37.632969mm"
   viewBox="0 0 1013.1040424164 106.67590795627"
   sodipodi:docname="phpkEpp5K"
   xmlns:inkscape="http://www.inkscape.org/namespaces/inkscape"
   xmlns:sodipodi="http://sodipodi.sourceforge.net/DTD/sodipodi-0.dtd"
   xmlns="http://www.w3.org/2000/svg"
   xmlns:svg="http://www.w3.org/2000/svg">
  <sodipodi:namedview
     id="namedview14"
     pagecolor="#ffffff"
     bordercolor="#666666"
     borderopacity="1.0"
     inkscape:pageshadow="2"
     inkscape:pageopacity="0.0"
     inkscape:pagecheckerboard="0"
     inkscape:document-units="mm" />
  <defs
     id="defs" />
  <g
     transform="matrix(2,0,0,2,0,1.1437865)"
     id="g">
    <path
       d="M 33.081001,17.082001 H 11.024 v 22.062 h 22.057001 z m 0,33.084999 H 11.024 C 4.935,50.167 0,45.23 0,39.144001 v -22.062 C 0,10.998 4.935,6.062 11.024,6.062 h 22.057001 c 6.087998,0 11.022,4.936 11.022,11.020001 v 22.062 c 0,6.085999 -4.934002,11.022999 -11.022,11.022999 z"
       stroke="none"
       stroke-width="1"
       stroke-linecap="butt"
       stroke-linejoin="miter"
       stroke-miterlimit="4"
       stroke-opacity="1"
       transform="matrix(1,0,0,-1,0,53.570301)"
       fill="#ffffff"
       fill-rule="nonzero"
       fill-opacity="1"
       id="logo-firkant" />
    <path
       d="m 0,0 c -4.997,0 -9.046,-4.054 -9.046,-9.049 0,-4.998 4.049,-9.045999 9.046,-9.045999 4.996,0 9.046,4.047999 9.046,9.045999 C 9.046,-4.054 4.996,0 0,0 Z"
       stroke="none"
       stroke-width="1"
       stroke-linecap="butt"
       stroke-linejoin="miter"
       stroke-miterlimit="4"
       stroke-opacity="1"
       transform="matrix(1,0,0,-1,21.978201,16.333)"
       fill="#ffffff"
       fill-rule="nonzero"
       fill-opacity="1"
       id="logo-runding" />
    <path
       d="M 0,0 21.479,-31.225 V -7.2 l -0.062,5.714 H 14.962 V 0 H 28.805 V -1.486 H 23.466 L 23.404,-7.2 V -44.386002 L 22.411,-44.696999 -6.394,-2.792 v -33.649002 l 0.061,-5.896 H 0.308 V -43.827 h -14.337 v 1.489998 h 5.71 l 0.061,5.896 V -7.2 l -0.061,5.714 h -5.71 V 0 Z"
       stroke="none"
       stroke-width="1"
       stroke-linecap="butt"
       stroke-linejoin="miter"
       stroke-miterlimit="4"
       stroke-opacity="1"
       transform="matrix(1,0,0,-1,74.955803,3.4502)"
       fill="#ffffff"
       fill-rule="nonzero"
       fill-opacity="1"
       id="n1" />
    <path
       d="m 0,0 v -14.027 h -1.863 c -0.187,2.172 -0.436,4.901 -2.36,8.131 -2.234,3.786 -5.277,3.974 -8.256,4.098 h -3.478 l -0.06,-5.588 v -28.616998 l 0.06,-6.334004 H -9.25 V -43.827 h -20.361 v 1.489998 h 6.702 l 0.064,6.334004 V -7.386 l -0.064,5.588 h -2.855999 c -3.600001,-0.062 -6.330002,-0.062 -8.938,-4.221 -2.048,-3.292 -2.235001,-5.899 -2.360001,-8.008 h -1.799 V 0 Z"
       stroke="none"
       stroke-width="1"
       stroke-linecap="butt"
       stroke-linejoin="miter"
       stroke-miterlimit="4"
       stroke-opacity="1"
       transform="matrix(1,0,0,-1,146.5964,3.4502)"
       fill="#ffffff"
       fill-rule="nonzero"
       fill-opacity="1"
       id="t" />
    <path
       d="M 0,0 21.479,-31.225 V -7.2 l -0.061,5.714 H 14.961 V 0 H 28.804001 V -1.486 H 23.465 L 23.402,-7.2 V -44.386002 L 22.409,-44.696999 -6.396,-2.792 v -33.649002 l 0.063,-5.896 H 0.312 V -43.827 h -14.343 v 1.489998 h 5.714 l 0.058,5.896 V -7.2 l -0.058,5.714 h -5.714 V 0 Z"
       stroke="none"
       stroke-width="1"
       stroke-linecap="butt"
       stroke-linejoin="miter"
       stroke-miterlimit="4"
       stroke-opacity="1"
       transform="matrix(1,0,0,-1,164.2263,3.4502)"
       fill="#ffffff"
       fill-rule="nonzero"
       fill-opacity="1"
       id="n2" />
    <path
       d="m 0,0 v -1.486 h -6.148 l -0.059,-5.28 V -30.48 c 0.059,-6.145999 0.186,-11.979999 11.732,-11.979999 11.67,0 12.415001,5.09 12.6,10.615 V -6.766 l -0.06,5.28 H 11.797 V 0 H 25.511999 V -1.486 H 20.115 l -0.062,-5.28 v -22.598 c -0.065,-8.131998 -0.126,-15.082999 -16.204,-15.082999 -2.294,0 -7.761,0.246998 -11.235,1.675999 -5.525,2.359001 -5.649,7.200001 -5.712,13.160999 V -6.766 l -0.063,5.28 H -18.5 V 0 Z"
       stroke="none"
       stroke-width="1"
       stroke-linecap="butt"
       stroke-linejoin="miter"
       stroke-miterlimit="4"
       stroke-opacity="1"
       transform="matrix(1,0,0,-1,217.13451,3.4502)"
       fill="#ffffff"
       fill-rule="nonzero"
       fill-opacity="1"
       id="u" />
    <path
       d="m 0,0 c -0.276,0 -0.5,0.224 -0.5,0.5 v 42.859 c 0,0.277001 0.224,0.5 0.5,0.5 0.276,0 0.5,-0.222999 0.5,-0.5 V 0.5 C 0.5,0.224 0.276,0 0,0 Z"
       stroke="none"
       stroke-width="1"
       stroke-linecap="butt"
       stroke-linejoin="miter"
       stroke-miterlimit="4"
       stroke-opacity="1"
       transform="matrix(1,0,0,-1,269.759,47.291)"
       fill="#ffffff"
       fill-rule="nonzero"
       fill-opacity="1"
       id="strek" />
    <g
       aria-label="Institutt for design"
       id="tekst1"
       style="font-size:24.0018px;line-height:125%;font-family:'Open Sans';text-align:left;letter-spacing:0px;word-spacing:0px;display:inline;fill:#ffffff;stroke-width:0.375001px">
      <path
         d="M 300.35565,32.5 V 15.365902 h 1.99233 V 32.5 Z"
         id="path16" />
      <path
         d="m 315.54428,32.5 v -8.309217 q 0,-1.57043 -0.71489,-2.343926 -0.7149,-0.773495 -2.23845,-0.773495 -2.01578,0 -2.95335,1.089925 -0.93757,1.089926 -0.93757,3.597926 V 32.5 h -1.94546 V 19.655286 h 1.58215 l 0.31643,1.757945 h 0.0938 q 0.5977,-0.94929 1.67591,-1.464954 1.0782,-0.527383 2.40252,-0.527383 2.32049,0 3.49245,1.125084 1.17196,1.113365 1.17196,3.574487 V 32.5 Z"
         id="path18" />
      <path
         d="m 329.77192,28.995831 q 0,1.793103 -1.33604,2.765832 -1.33604,0.97273 -3.75028,0.97273 -2.55488,0 -3.98468,-0.808655 v -1.804823 q 0.92585,0.468785 1.98062,0.738337 1.06649,0.269551 2.05093,0.269551 1.52356,0 2.34393,-0.480504 0.82037,-0.492225 0.82037,-1.488393 0,-0.750057 -0.65629,-1.27744 -0.64458,-0.539103 -2.53144,-1.26572 -1.79311,-0.668019 -2.55488,-1.160243 -0.75006,-0.503944 -1.12509,-1.136804 -0.36331,-0.63286 -0.36331,-1.511832 0,-1.570431 1.27744,-2.472842 1.27744,-0.914131 3.50417,-0.914131 2.07438,0 4.05499,0.843813 l -0.69145,1.58215 q -1.93374,-0.796935 -3.50417,-0.796935 -1.38292,0 -2.0861,0.433627 -0.70318,0.433626 -0.70318,1.195402 0,0.515663 0.25784,0.878972 0.26955,0.363308 0.85553,0.691458 0.58598,0.32815 2.25017,0.94929 2.28533,0.832094 3.08226,1.675907 0.80866,0.843813 0.80866,2.121253 z"
         id="path20" />
      <path
         d="m 337.08497,31.128803 q 0.51566,0 0.99616,-0.07032 0.48051,-0.08204 0.76178,-0.164075 v 1.488393 q -0.31643,0.152355 -0.93757,0.246112 -0.60942,0.105477 -1.10165,0.105477 -3.72684,0 -3.72684,-3.926076 v -7.641198 h -1.83998 v -0.937571 l 1.83998,-0.808654 0.82038,-2.742393 h 1.12508 v 2.976785 h 3.72684 v 1.511833 h -3.72684 v 7.55916 q 0,1.160244 0.55082,1.781384 0.55083,0.62114 1.51184,0.62114 z"
         id="path22" />
      <path
         d="m 343.35496,32.5 h -1.94545 V 19.655286 h 1.94545 z m -2.10953,-16.325443 q 0,-0.668019 0.32815,-0.97273 0.32815,-0.31643 0.82037,-0.31643 0.46879,0 0.80866,0.31643 0.33987,0.31643 0.33987,0.97273 0,0.656299 -0.33987,0.984448 -0.33987,0.31643 -0.80866,0.31643 -0.49222,0 -0.82037,-0.31643 -0.32815,-0.328149 -0.32815,-0.984448 z"
         id="path24" />
      <path
         d="m 351.62903,31.128803 q 0.51566,0 0.99616,-0.07032 0.48051,-0.08204 0.76178,-0.164075 v 1.488393 q -0.31643,0.152355 -0.93757,0.246112 -0.60942,0.105477 -1.10165,0.105477 -3.72684,0 -3.72684,-3.926076 v -7.641198 h -1.83998 v -0.937571 l 1.83998,-0.808654 0.82038,-2.742393 h 1.12508 v 2.976785 h 3.72684 v 1.511833 h -3.72684 v 7.55916 q 0,1.160244 0.55082,1.781384 0.55083,0.62114 1.51184,0.62114 z"
         id="path26" />
      <path
         d="m 357.78183,19.655286 v 8.332657 q 0,1.57043 0.7149,2.343926 0.7149,0.773495 2.23845,0.773495 2.01577,0 2.94163,-1.101645 0.93757,-1.101645 0.93757,-3.597926 v -6.750507 h 1.94545 V 32.5 h -1.60559 l -0.28127,-1.722785 h -0.10547 q -0.5977,0.949289 -1.66419,1.453234 -1.05477,0.503944 -2.41424,0.503944 -2.34393,0 -3.51589,-1.113365 -1.16025,-1.113365 -1.16025,-3.562767 v -8.402975 z"
         id="path28" />
      <path
         d="m 374.83389,31.128803 q 0.51567,0 0.99617,-0.07032 0.48051,-0.08204 0.76178,-0.164075 v 1.488393 q -0.31643,0.152355 -0.93757,0.246112 -0.60942,0.105477 -1.10165,0.105477 -3.72684,0 -3.72684,-3.926076 v -7.641198 h -1.83998 v -0.937571 l 1.83998,-0.808654 0.82037,-2.742393 h 1.12509 v 2.976785 h 3.72684 v 1.511833 h -3.72684 v 7.55916 q 0,1.160244 0.55082,1.781384 0.55082,0.62114 1.51183,0.62114 z"
         id="path30" />
      <path
         d="m 383.30718,31.128803 q 0.51567,0 0.99617,-0.07032 0.48051,-0.08204 0.76178,-0.164075 v 1.488393 q -0.31643,0.152355 -0.93757,0.246112 -0.60942,0.105477 -1.10165,0.105477 -3.72684,0 -3.72684,-3.926076 v -7.641198 h -1.83998 v -0.937571 l 1.83998,-0.808654 0.82037,-2.742393 h 1.12509 v 2.976785 h 3.72684 v 1.511833 h -3.72684 v 7.55916 q 0,1.160244 0.55082,1.781384 0.55082,0.62114 1.51183,0.62114 z"
         id="path32" />
      <path
         d="m 399.65607,21.167119 h -3.26978 V 32.5 h -1.94546 V 21.167119 h -2.29704 v -0.878973 l 2.29704,-0.703177 v -0.714898 q 0,-4.73473 4.13703,-4.73473 1.01961,0 2.39081,0.410187 l -0.50395,1.558711 q -1.12508,-0.363309 -1.92202,-0.363309 -1.10164,0 -1.62902,0.738337 -0.52739,0.726617 -0.52739,2.343926 v 0.832093 h 3.26978 z"
         id="path34" />
      <path
         d="m 413.08676,26.065924 q 0,3.14086 -1.58215,4.910524 -1.58215,1.757945 -4.37142,1.757945 -1.72278,0 -3.05882,-0.808655 -1.33604,-0.808654 -2.06266,-2.320486 -0.72661,-1.511833 -0.72661,-3.539328 0,-3.140861 1.57043,-4.887086 1.57043,-1.757944 4.3597,-1.757944 2.69551,0 4.27766,1.793103 1.59387,1.793103 1.59387,4.851927 z m -9.78589,0 q 0,2.461122 0.98445,3.750281 0.98445,1.289159 2.89475,1.289159 1.9103,0 2.89475,-1.277439 0.99617,-1.28916 0.99617,-3.762001 0,-2.449403 -0.99617,-3.715123 -0.98445,-1.277439 -2.91819,-1.277439 -1.9103,0 -2.88303,1.254 -0.97273,1.254 -0.97273,3.738562 z"
         id="path36" />
      <path
         d="m 422.35699,19.420894 q 0.85553,0 1.53527,0.140635 l -0.26955,1.804823 q -0.79694,-0.175794 -1.40636,-0.175794 -1.55871,0 -2.67207,1.26572 -1.10165,1.26572 -1.10165,3.15258 V 32.5 h -1.94546 V 19.655286 h 1.60559 l 0.22267,2.379085 h 0.0938 q 0.7149,-1.254 1.72279,-1.933739 1.00788,-0.679738 2.21501,-0.679738 z"
         id="path38" />
      <path
         d="m 441.27246,30.777215 h -0.10547 q -1.34776,1.957178 -4.03156,1.957178 -2.51972,0 -3.92607,-1.722786 -1.39464,-1.722785 -1.39464,-4.898805 0,-3.176019 1.40636,-4.933964 1.40635,-1.757944 3.91435,-1.757944 2.61348,0 4.00812,1.89858 h 0.15235 l -0.082,-0.925851 -0.0469,-0.902411 v -5.226955 h 1.94545 V 32.5 h -1.58215 z m -3.89091,0.328149 q 1.99233,0 2.88302,-1.078206 0.90242,-1.089925 0.90242,-3.504169 v -0.410187 q 0,-2.730673 -0.91413,-3.890917 -0.90242,-1.171963 -2.89475,-1.171963 -1.71107,0 -2.6252,1.336038 -0.90241,1.324318 -0.90241,3.750281 0,2.461122 0.90241,3.715123 0.90241,1.254 2.64864,1.254 z"
         id="path40" />
      <path
         d="m 452.66395,32.734393 q -2.84787,0 -4.50033,-1.734506 -1.64075,-1.734505 -1.64075,-4.816767 0,-3.105702 1.52355,-4.933964 1.53527,-1.828262 4.11359,-1.828262 2.41424,0 3.8206,1.593869 1.40635,1.58215 1.40635,4.183908 v 1.230561 h -8.84832 q 0.0586,2.261889 1.13681,3.433851 1.08992,1.171963 3.05882,1.171963 2.07438,0 4.10187,-0.867252 v 1.734505 q -1.03133,0.445346 -1.95718,0.63286 -0.91413,0.199234 -2.21501,0.199234 z m -0.52738,-11.684471 q -1.54699,0 -2.47284,1.007888 -0.91413,1.007889 -1.07821,2.789272 h 6.71535 q 0,-1.839982 -0.82037,-2.812711 -0.82038,-0.984449 -2.34393,-0.984449 z"
         id="path42" />
      <path
         d="m 468.98939,28.995831 q 0,1.793103 -1.33603,2.765832 -1.33604,0.97273 -3.75029,0.97273 -2.55487,0 -3.98467,-0.808655 v -1.804823 q 0.92585,0.468785 1.98062,0.738337 1.06648,0.269551 2.05093,0.269551 1.52355,0 2.34393,-0.480504 0.82037,-0.492225 0.82037,-1.488393 0,-0.750057 -0.6563,-1.27744 -0.64458,-0.539103 -2.53144,-1.26572 -1.7931,-0.668019 -2.55488,-1.160243 -0.75005,-0.503944 -1.12508,-1.136804 -0.36331,-0.63286 -0.36331,-1.511832 0,-1.570431 1.27744,-2.472842 1.27744,-0.914131 3.50417,-0.914131 2.07437,0 4.05499,0.843813 l -0.69146,1.58215 q -1.93374,-0.796935 -3.50417,-0.796935 -1.38291,0 -2.08609,0.433627 -0.70318,0.433626 -0.70318,1.195402 0,0.515663 0.25783,0.878972 0.26956,0.363308 0.85554,0.691458 0.58598,0.32815 2.25017,0.94929 2.28532,0.832094 3.08226,1.675907 0.80865,0.843813 0.80865,2.121253 z"
         id="path44" />
      <path
         d="m 474.09915,32.5 h -1.94546 V 19.655286 h 1.94546 z m -2.10954,-16.325443 q 0,-0.668019 0.32815,-0.97273 0.32815,-0.31643 0.82038,-0.31643 0.46878,0 0.80865,0.31643 0.33987,0.31643 0.33987,0.97273 0,0.656299 -0.33987,0.984448 -0.33987,0.31643 -0.80865,0.31643 -0.49223,0 -0.82038,-0.31643 -0.32815,-0.328149 -0.32815,-0.984448 z"
         id="path46" />
      <path
         d="m 488.73697,19.655286 v 1.230561 l -2.37909,0.281272 q 0.32815,0.410187 0.58598,1.078205 0.25783,0.6563 0.25783,1.488393 0,1.886861 -1.28915,3.011945 -1.28916,1.125084 -3.53933,1.125084 -0.57426,0 -1.07821,-0.09376 -1.24228,0.6563 -1.24228,1.652468 0,0.527383 0.43363,0.785215 0.43362,0.246113 1.48839,0.246113 h 2.27361 q 2.08609,0 3.19946,0.878972 1.12508,0.878972 1.12508,2.554879 0,2.132972 -1.71106,3.246337 -1.71107,1.125085 -4.99257,1.125085 -2.51972,0 -3.89091,-0.937571 -1.35948,-0.93757 -1.35948,-2.648636 0,-1.171963 0.75006,-2.027496 0.75005,-0.855533 2.10953,-1.160243 -0.49223,-0.222673 -0.83209,-0.691458 -0.32815,-0.468785 -0.32815,-1.089926 0,-0.703177 0.37502,-1.230561 0.37503,-0.527383 1.18369,-1.019608 -0.99617,-0.410187 -1.62903,-1.394635 -0.62114,-0.984449 -0.62114,-2.250169 0,-2.109533 1.26572,-3.246337 1.26572,-1.148524 3.5862,-1.148524 1.00789,0 1.81655,0.234392 z m -10.24296,15.001126 q 0,1.043047 0.87897,1.58215 0.87897,0.539103 2.51972,0.539103 2.44941,0 3.62137,-0.738337 1.18368,-0.726617 1.18368,-1.980617 0,-1.043047 -0.64458,-1.453234 -0.64458,-0.398468 -2.42596,-0.398468 H 481.295 q -1.32432,0 -2.06265,0.63286 -0.73834,0.63286 -0.73834,1.816543 z m 1.05477,-10.887536 q 0,1.347758 0.76177,2.039216 0.76178,0.691458 2.12126,0.691458 2.84787,0 2.84787,-2.765833 0,-2.894748 -2.88303,-2.894748 -1.3712,0 -2.10954,0.738337 -0.73833,0.738336 -0.73833,2.19157 z"
         id="path48" />
      <path
         d="m 500.16361,32.5 v -8.309217 q 0,-1.57043 -0.7149,-2.343926 -0.71489,-0.773495 -2.23845,-0.773495 -2.01577,0 -2.95334,1.089925 -0.93757,1.089926 -0.93757,3.597926 V 32.5 h -1.94546 V 19.655286 h 1.58215 l 0.31643,1.757945 h 0.0938 q 0.5977,-0.94929 1.6759,-1.464954 1.07821,-0.527383 2.40253,-0.527383 2.32048,0 3.49245,1.125084 1.17196,1.113365 1.17196,3.574487 V 32.5 Z"
         id="path50" />
    </g>
  </g>
</svg>
