<?xml version="1.0" encoding="UTF-8"?><svg id="Layer_1" xmlns="http://www.w3.org/2000/svg" viewBox="0 0 125.94 130.22"><path d="M20.11,114.7C-29.74,70.42,34.82-19.47,93.92,7.13c30.94,18.82,39.36,69.41,17.45,97.97-21.12,22.81-67.31,32.8-91.27,9.59Z" fill="#eee77f" stroke="#231f20" stroke-miterlimit="10" stroke-width="4.6"/><path d="M41.46,23.7c-20.74-.33-24.06,37.53-7.06,44.17,27.95,8.59,31.25-41.41,7.06-44.17Z" fill="#f4eb42" stroke="#231f20" stroke-miterlimit="10" stroke-width="4.6"/><path d="M41.46,23.7c24.2,2.76,20.89,52.76-7.06,44.17-17-6.64-13.68-44.49,7.06-44.17ZM40.69,64.77c3.69-.95,9.29-2.24,10.53-6.56,13.99-27.16-45.22,2.84-10.53,6.56ZM41.77,40.34c18.91-.22-.29-20.32-7.41-8.9.64,3.89,2.91,8.71,7.41,8.9Z" fill="#231f20"/><path d="M40.69,64.77c-34.69-3.73,24.52-33.72,10.53-6.57-1.25,4.32-6.84,5.62-10.53,6.57Z" fill="#fff"/><path d="M41.77,40.34c-9.37-1.79-9.67-14.53,1.57-12.27,8.02,4.95,10.01,11.68-1.57,12.27Z" fill="#fff"/><path d="M98.46,16.61c-26.9-2.66-32.72,49.52-1.79,46.74.88-.08,1.77-.13,2.65-.19,20.3-1.4,17.31-33.35,4.2-44.44-1.43-1.21-3.2-1.94-5.06-2.12Z" fill="#231f20"/><path d="M92.39,60.12c-8.14,0-10.82-9.45-8.59-11.37,6.51-5.79,14.66-9.89,23.16-6.2,0,0,1.9.65,1.9,2.87,0,8.6-1.93,14.69-16.47,14.69Z" fill="#fff"/><path d="M99.55,20.77c9.83,5.01,2.97,9.48-3.33,9.47-2.68,0-4.49-1.29-6.28-2.89-1.98-1.78-1.42-5.34,1.01-6.17,2.89-.99,6.65-1.19,8.59-.41Z" fill="#fff"/><path d="M59.66,86.3c.14-.4.28-.79.44-1.18.04-.09.07-.18.11-.27.01-.03.14-.34.03-.09s.02-.05.04-.09c.07-.15.13-.3.2-.45.36-.78.76-1.54,1.23-2.25.1-.15.2-.3.31-.45.25-.36-.21.23.07-.1.26-.3.52-.59.82-.86.06-.05.13-.1.19-.16.21-.22-.35.21-.08.07.14-.07.26-.18.4-.26.07-.04.14-.07.2-.11.15-.09.11-.14,0-.01-.14.18-.1.03.08-.02.1-.03.19-.06.29-.09.1-.03.63-.11.19-.05s.05,0,.16,0,.23.01.35,0c.08,0,.32.04-.08-.02-.44-.06-.04,0,.04.01.23.06.45.12.67.19.05.02.16.08.22.09,0,0-.47-.23-.28-.11.12.07.26.13.38.19.24.13.47.27.7.43.13.08.25.17.37.26.05.04.1.08.16.12.24.16-.37-.3-.15-.11.48.4.96.8,1.42,1.23,1.88,1.74,3.72,3.8,6.11,4.85s4.91.99,7.05-.45c3.13-2.09,4.82-5.73,6.17-9.11.45-1.12-.49-2.58-1.61-2.83-1.33-.3-2.35.41-2.83,1.61-.09.23-.18.45-.27.67.12-.29-.14.3-.18.4-.2.45-.41.89-.64,1.32-.37.72-.77,1.41-1.22,2.08-.09.13-.18.26-.27.38-.04.06-.09.12-.13.18-.14.2.13-.18.14-.18-.17.05-.48.57-.62.72-.18.19-.37.37-.56.55-.08.07-.18.14-.26.22-.2.19.44-.31.21-.16-.06.04-.11.08-.17.12-.17.12-.35.23-.54.33-.08.04-.16.08-.24.13-.42.22.39-.13.15-.06-.33.09-.67.16-.99.26.03,0,.67-.04.29-.05-.06,0-.12,0-.18,0-.12,0-.24,0-.37,0-.06,0-.12-.01-.18-.01-.27,0,.01-.14.25.03-.08-.06-.31-.06-.41-.09-.12-.03-.23-.07-.35-.1-.08-.03-.15-.06-.23-.08-.22-.06.28.12.26.12-.25-.15-.54-.26-.79-.4-.23-.13-.45-.27-.66-.42-.13-.09-.25-.19-.38-.27-.2-.14.2.16.19.15-.06-.06-.15-.12-.22-.17-.49-.4-.97-.83-1.43-1.26-.94-.87-1.84-1.78-2.83-2.61-2.17-1.83-4.85-3.37-7.79-2.49-4.1,1.23-6.09,5.8-7.38,9.49-.4,1.14.45,2.57,1.61,2.83,1.29.29,2.4-.39,2.83-1.61h0Z" fill="#231f20"/></svg>