<?xml version="1.0" encoding="UTF-8"?><svg id="Layer_1" xmlns="http://www.w3.org/2000/svg" viewBox="0 0 621.66 336.75"><path d="M357.68,2.41c-.11,7.98-.19,15.96-.27,23.94-.1,9.78-.19,19.56-.27,29.35-.1,11.22-.19,22.45-.27,33.67-.09,12.12-.18,24.24-.27,36.36s-.18,25.35-.27,38.02c-.09,12.67-.18,25.35-.27,38.02-.09,12.34-.18,24.67-.27,37.01-.09,11.44-.18,22.89-.27,34.33-.09,10.21-.18,20.42-.27,30.62-.08,8.43-.17,16.87-.27,25.3-.02,1.76-.04,3.53-.07,5.29-.04,3.22,4.96,3.22,5,0,.11-7.98.19-15.96.27-23.94.1-9.78.19-19.56.27-29.35.1-11.22.19-22.45.27-33.67.09-12.12.18-24.24.27-36.36.09-12.67.18-25.35.27-38.02.09-12.67.18-25.35.27-38.02s.18-24.67.27-37.01c.09-11.44.18-22.89.27-34.33.09-10.21.18-20.42.27-30.62.08-8.43.17-16.87.27-25.3.02-1.76.04-3.53.07-5.29.04-3.22-4.96-3.22-5,0h0Z" fill="#fff"/><path d="M2.41,74.3c27.79-.39,55.57-.82,83.36-1.29,23.9-.4,47.8-.83,71.69-1.28,22.18-.42,44.35-.85,66.53-1.29s44.19-.86,66.29-1.28c24.16-.45,48.33-.88,72.49-1.29,26.77-.45,53.54-.97,80.31-1.23,10.81-.1,21.64.21,32.45.48,16.63.41,33.25.93,49.88,1.54s34.4,1.35,51.58,2.28c12.36.66,24.78,1.28,37.08,2.67.91.1,1.82.22,2.74.33-1.03-.13.36.05.63.09.35.05.7.11,1.06.17,1.33.22,2.69-.35,3.08-1.75.33-1.2-.41-2.85-1.75-3.08-10.38-1.73-21.06-2.15-31.55-2.79-16.52-1.01-33.07-1.75-49.61-2.41s-34.5-1.28-51.76-1.75c-12.78-.35-25.56-.69-38.34-.78-8.29-.05-16.59.16-24.88.28-13.96.21-27.92.42-41.88.64-24.79.4-49.59.82-74.38,1.28-22.52.41-45.04.85-67.56,1.29-22.01.43-44.02.86-66.04,1.29-23.28.45-46.55.88-69.83,1.28-26.7.46-53.4.89-80.1,1.29-7.16.11-14.33.21-21.49.31-3.21.05-3.22,5.05,0,5h0Z" fill="#fff"/></svg>