<?xml version="1.0" encoding="UTF-8"?><svg id="Layer_1" xmlns="http://www.w3.org/2000/svg" viewBox="0 0 170.3 93.25"><path d="M167.1,22.27l-30.94,29.08c-.83.78-2.06.99-3.1.52l-23.45-10.5c-1.3-.58-2.83-.11-3.57,1.1l-14.79,24.06c-.72,1.17-2.17,1.66-3.45,1.15l-18.24-7.15c-1.33-.52-2.83.03-3.52,1.27l-12.48,22.67c-.68,1.24-2.17,1.78-3.49,1.28l-17.41-6.62c-2.39-.91-4.67,1.57-3.56,3.88l1.85,3.85c1.07,2.22-1.01,4.65-3.37,3.94l-23.27-7.01c-1.65-.5-2.48-2.34-1.76-3.9l10.54-22.78c1.11-2.4,4.6-2.11,5.31.44l1.66,6.01c.26.94.98,1.67,1.9,1.96l21.41,6.54c1.34.41,2.78-.22,3.39-1.49l10.28-21.5c.57-1.2,1.9-1.84,3.2-1.54l23.35,5.44c1.3.3,2.64-.34,3.21-1.55l11.75-24.98c.6-1.27,2.04-1.91,3.39-1.51l28.18,8.55c1.18.36,2.45-.08,3.15-1.09l20.1-28.87c1.16-1.67,3.65-1.61,4.73.11l9.46,15.06c.72,1.15.53,2.65-.46,3.57Z" fill="#f4eb42" stroke="#231f20" stroke-miterlimit="10" stroke-width="4.6"/></svg>