<?xml version="1.0" encoding="UTF-8"?><svg id="Layer_1" xmlns="http://www.w3.org/2000/svg" viewBox="0 0 153.26 166.91"><path d="M56.62,163.51c-28.74-6.31-69.63-30.59-48.45-61.13,10.94-14.07,32.98-17.63,38.61-36.31,5.43-16.22-4.46-23.7-19.68-24.62-7.79-4.81,10.69-13.04,15.49-12.08,25.12-1.91,22.52,26.03,33.77,27.1,33.41-8.99,5.46-31.15,16.63-47.51,3.05-5.86,16.68-11.52,10.79.07-4.81,13.07,10.95,15.97,14.85,26.11,1.43,7.29-5.76,25.35,9.2,15.66,9.64-4.95,2.68-19.79,11.34-23.09,11.91-.05,13.73,14.81,10.17,23.59-3.1,14.94,1.81,32.44-9.11,45.01-19.12,9.93-28,8.08-23.36,33.25.73,20.88-22.77,30.99-41.66,34.3-6.16,1.08-12.47.98-18.58-.36Z" fill="#f4eb42" stroke="#231f20" stroke-miterlimit="10" stroke-width="4.6"/><path d="M87.26,108.97c-.57,18.66,22.67,12.7,20.02-2.85-3.22-15.41-18.56-10.78-20.02,2.85ZM90.25,137.34c-1.52-12.79-18-16.23-24.81-5.54-7.32,7.3,8.78,6.19,13.06,7.09,3.84.01,9.71,3.21,11.75-1.55ZM53.66,107.08c-.72,17.96,18.39,15.03,17.64-1.71.58-14.53-19.94-11.47-17.64,1.71ZM93.4,92.65c5.6-5.19,12.31-11.48,16.5-17.41-4.81-2.22-8.72,6.23-12.14,8.91-.79,2.52-8.41,6.64-4.36,8.5ZM57.37,75.4c-4.17,1.56,2.7,7.08,3.51,9.67,1.81,2.01,4.93,10.67,8,6.36-2.48-5.12-6.89-9.65-9.38-14.95-.36-.87-1.04-1.07-2.13-1.08Z" fill="#fff"/><path d="M87.26,108.97c1.47-13.64,16.81-18.25,20.02-2.85,2.64,15.56-20.59,21.51-20.02,2.85ZM97.03,111.29c-11.5.85-2.86,8.83,1.95,6.28,6.04-4.32,3.91-4.67-1.95-6.28ZM96.21,102.7c.16,3.52,4.14,5.33,7.49,3.9,1.73-3.65-5.96-11.04-7.49-3.9Z"/><path d="M90.25,137.34c-2.04,4.76-7.91,1.56-11.75,1.55-4.27-.89-20.38.21-13.06-7.09,6.81-10.68,23.3-7.25,24.81,5.54Z"/><path d="M53.66,107.08c-2.29-13.17,18.23-16.24,17.64-1.71.74,16.74-18.36,19.66-17.64,1.71ZM61.69,116.94c3.25-.12,7.26-5.46,5.73-7.9-6.95-1.56-14.71,3.31-5.73,7.9ZM62.01,98.55c-.88-.09-2.7.03-1.5.82,2.22,2.69,1.93,6.73,7.05,5.8,1.8-3.04-2.25-7.28-5.54-6.62Z"/><path d="M93.4,92.65c-4.06-1.86,3.57-5.99,4.36-8.5,3.42-2.68,7.33-11.13,12.14-8.91-4.19,5.93-10.89,12.22-16.49,17.41Z"/><path d="M57.37,75.4c1.09.01,1.77.21,2.13,1.08,2.49,5.3,6.9,9.84,9.38,14.95-3.07,4.32-6.19-4.35-8-6.36-.81-2.59-7.68-8.11-3.51-9.67Z"/><path d="M97.03,111.29c5.86,1.61,8,1.97,1.95,6.28-4.81,2.55-13.45-5.44-1.95-6.28Z" fill="#fff"/><path d="M96.21,102.7c1.53-7.14,9.22.25,7.49,3.9-3.35,1.43-7.34-.38-7.49-3.9Z" fill="#fff"/><path d="M61.69,116.94c-2.45-.06-5.9-5.49-2.99-6.7,2.31-1.14,7.7-2.4,9.23-.52-.72,3.27-2.58,6.81-6.24,7.22Z" fill="#fff"/><path d="M62.01,98.55c3.29-.66,7.34,3.58,5.54,6.62-5.13.92-4.82-3.11-7.04-5.81-1.2-.79.62-.91,1.5-.82Z" fill="#fff"/></svg>