<?xml version="1.0" encoding="UTF-8"?><svg id="Layer_1" xmlns="http://www.w3.org/2000/svg" viewBox="0 0 79.8 55.24"><path d="M40,55.24c3.22,0,3.22-5,0-5s-3.22,5,0,5h0Z" fill="#231f20"/><path d="M26.8,41.25c1.01-1.5,3.65-1.79,5.26-2.08,2.36-.43,4.78-.51,7.17-.35,4.81.31,9.48,1.86,13.59,4.37,2.75,1.68,5.27-2.64,2.52-4.32-5.1-3.12-10.96-4.85-16.94-5.09-2.9-.12-5.84.16-8.68.78s-5.54,1.67-7.23,4.18c-1.81,2.67,2.52,5.18,4.32,2.52h0Z" fill="#231f20"/><path d="M15.99,30.31c5.75-4.25,12.37-7.04,19.43-8.23,6.59-1.11,13.94-.85,20.19,1.71,3.11,1.27,5.92,3.29,7.67,6.19,1.65,2.76,5.98.25,4.32-2.52-3.9-6.51-11.35-9.49-18.56-10.47-7.89-1.08-16.06-.2-23.53,2.57-4.29,1.59-8.34,3.72-12.03,6.44-1.08.8-1.63,2.17-.9,3.42.63,1.07,2.33,1.7,3.42.9h0Z" fill="#231f20"/><path d="M4.27,18.54c3.44-3.46,7.67-5.87,12.12-7.82,4.69-2.06,9.72-3.9,14.73-4.97,10.25-2.18,20.93.4,30.41,4.37,2.68,1.12,5.3,2.38,7.87,3.73,2.15,1.13,4.38,2.39,5.7,4.51,1.69,2.73,6.02.22,4.32-2.52-2.85-4.6-8.32-6.88-13.06-9.03-5.32-2.42-10.84-4.46-16.57-5.65s-11.42-1.53-17.16-.73-11.18,2.84-16.46,5C10.51,7.74,5.08,10.62.73,15.01c-2.27,2.29,1.27,5.82,3.54,3.54h0Z" fill="#231f20"/></svg>