<?xml version="1.0" encoding="UTF-8"?><svg id="Layer_1" xmlns="http://www.w3.org/2000/svg" viewBox="0 0 52.29 155.92"><path d="M48.24,152.99c-.82-.17-1.63-.38-2.42-.64-.34-.11-.67-.23-1-.36-.1-.04-.2-.08-.3-.12-.21-.09.21.09,0,0-.19-.09-.39-.17-.58-.27-.65-.31-1.28-.66-1.88-1.06-.28-.19-.56-.38-.84-.58-.04-.03-.24-.18-.08-.06.18.14-.12-.1-.13-.1-.15-.12-.3-.25-.45-.38-.5-.44-.97-.9-1.42-1.4-.23-.26-.46-.53-.68-.8-.04-.05-.17-.23.02.03-.05-.06-.1-.12-.14-.19-.12-.16-.23-.32-.34-.48-.8-1.16-1.46-2.39-2.04-3.67-.03-.07-.07-.15-.1-.23.13.29.01.03-.02-.04-.06-.15-.13-.31-.19-.46-.15-.37-.28-.75-.41-1.12-.25-.71-.47-1.43-.67-2.16-.42-1.52-.74-3.06-1.01-4.61-.14-.81-.26-1.61-.37-2.42.04.3-.04-.31-.05-.38-.03-.21-.05-.43-.08-.64-.05-.43-.1-.86-.14-1.29-.18-1.71-.32-3.42-.44-5.13-.49-6.99-.63-14.03-1.74-20.96-.58-3.62-1.45-7.22-3.09-10.51-1.75-3.51-4.41-6.42-7.58-8.71-2.94-2.12-6.25-3.65-9.55-5.09-1.7-.75-3.41-1.47-5.1-2.25-.38-.18-.76-.35-1.14-.54-.21-.1-.43-.21-.64-.31-.09-.05-.19-.1-.28-.14-.11-.05-.24-.16-.08-.02,0,0-.26-.31-.15-.15.1.14-.05-.1-.07-.14-.11-.23.08.32-.04-.08-.02-.08-.05-.17-.06-.25.01.06.01.3.03.04-.02.25-.04.38-.27.6-.13.13-.4.28-.62.26.18.02.39-.05.57-.08,2.65-.37,5.23-1.25,7.68-2.28,3.27-1.37,6.39-3.08,9.23-5.21,3.04-2.28,5.77-4.98,7.78-8.23,1.86-3,2.77-6.29,3.36-9.74,1.13-6.56,1.5-13.23,2.2-19.85.09-.84.18-1.67.28-2.5.05-.4.1-.8.15-1.21.02-.19.05-.38.07-.57.01-.09.02-.19.04-.28.06-.47-.04.3.02-.16.22-1.61.47-3.21.78-4.8.57-2.99,1.35-5.91,2.46-8.74.02-.06.11-.27-.01.03.03-.07.06-.15.09-.22.06-.14.13-.29.19-.43.14-.32.29-.63.45-.94.31-.6.64-1.19,1-1.77.17-.26.34-.52.52-.78.09-.13.19-.27.29-.4.04-.06.09-.11.13-.17-.11.14-.12.15,0,0,.39-.48.8-.94,1.24-1.38.22-.22.45-.43.69-.64.11-.09.21-.18.32-.27.05-.04.11-.09.16-.13-.31.25-.03.02.03-.02.5-.36,1.01-.69,1.55-.98.27-.14.54-.27.81-.4.07-.03.13-.06.2-.09-.32.14-.13.05-.06.03.17-.06.34-.13.51-.19.64-.23,1.3-.4,1.96-.54.15-.03.31-.06.46-.08.13-.02.53-.08.19-.03.35-.04.69-.08,1.04-.1.76-.05,1.53-.05,2.29-.02.81.04,1.5-.71,1.5-1.5,0-.84-.69-1.46-1.5-1.5-3.03-.13-6.09.36-8.8,1.77-2.4,1.25-4.35,3.21-5.84,5.44-3.4,5.08-4.62,11.47-5.47,17.41-.97,6.82-1.36,13.71-2.18,20.55-.05.38-.09.76-.14,1.15-.01.09-.02.18-.03.27,0,0-.06.43-.03.2.03-.19-.01.09-.02.13-.02.13-.04.26-.05.39-.11.75-.22,1.5-.35,2.25-.26,1.54-.54,3.1-.98,4.6-1,3.41-3.02,6.41-5.56,8.97-.66.66-1.35,1.29-2.06,1.89-.77.65-1.19.97-2.02,1.56-1.45,1.03-2.97,1.96-4.55,2.8-.76.4-1.53.78-2.31,1.14-.17.08-.34.15-.51.23-.11.05-.21.09-.32.14-.04.02-.3.13-.13.06.08-.04-.34.14-.44.18-.2.08-.41.16-.62.24-1.34.52-2.72.97-4.12,1.33-.57.14-1.14.27-1.72.37-.13.02-.27.05-.41.07-.21.03-.34.05-.03,0-.68.09-1.26.27-1.68.85-.69.93-.48,2.21.07,3.16s1.45,1.38,2.4,1.84c3.39,1.62,6.9,2.97,10.26,4.64,1.62.8,3.21,1.68,4.71,2.7s2.67,2,3.95,3.38,2.3,2.87,3.2,4.65,1.47,3.56,1.94,5.47c.4,1.59.7,3.2.95,4.81.06.37.11.74.16,1.11.06.45-.02-.18.01.09.01.09.02.19.04.28.03.24.06.47.09.71.1.86.19,1.73.28,2.59.33,3.53.52,7.08.72,10.63.39,6.82.73,13.83,2.7,20.41,1.74,5.82,5.11,11.22,10.79,13.83,1.52.7,3.09,1.22,4.73,1.56.79.16,1.62-.23,1.85-1.05.2-.74-.25-1.68-1.05-1.85h0Z" fill="#231f20"/></svg>