<?xml version="1.0" encoding="UTF-8"?><svg id="Layer_1" xmlns="http://www.w3.org/2000/svg" viewBox="0 0 239.86 110.69"><path d="M15.7,107.34c-1.28,1.58-3.75,1.34-4.71-.45l-8.36-15.7c-.64-1.2-.34-2.68.71-3.53,0,0,203.54-73.42,205.3-73.63s3.03-2.01,2.3-3.87l-1.57-3.98c-.91-2.29,1.34-4.57,3.65-3.69l22.71,8.66c1.61.61,2.31,2.51,1.47,4.02l-12.14,21.97c-1.28,2.31-4.74,1.77-5.26-.82l-1.22-6.11c-.19-.95-.85-1.74-1.76-2.09L15.7,107.34Z" fill="#a1cf6d" stroke="#231f20" stroke-miterlimit="10" stroke-width="4.6"/></svg>