<?xml version="1.0" encoding="UTF-8"?><svg id="Layer_1" xmlns="http://www.w3.org/2000/svg" viewBox="0 0 1887.1 694.12"><path d="M2.5,293.78c3.22,0,3.22-5,0-5s-3.22,5,0,5h0Z" fill="#231f20"/><path d="M1727.92,210.68c-27.38,17.32-78.06,44.33-147.21,53.48-58.28,7.71-106.35-.35-136.02-7.74" fill="none" stroke="#231f20" stroke-miterlimit="10" stroke-width="4.6"/><path d="M1486.5,109.15c3.78-1.82,8.48-1.89,17.75-1.96,6.65-.05,12.19.75,23.27,2.36,1.81.26,5.14.79,7.48,3.32,1.86,2.01,2.92,4.75,2.71,7.72l-4,56.62-61.49-15.02,3.58-39.79c.27-3.03,1.57-5.87,3.67-8.08,1.79-1.87,4.1-3.75,7.05-5.17Z" fill="#005ba7"/><path d="M1486.21,123.34c-2.57.27.02,5.17.02,7.75,2.51-.59,5.03-1.17,7.54-1.76-.43-2.38-.86-4.75-1.28-7.13-2.53,1.09-3.53.85-6.28,1.14Z" fill="#fff"/><path d="M1504.26,122.52c-2.53-.52-1.55,4.93-2.32,7.4,2.57.2,5.15.4,7.72.6.31-2.4.62-4.79.94-7.19-2.75.27-3.63-.26-6.33-.81Z" fill="#fff"/><path d="M1520.02,123.34c-2.57.27.02,5.17.02,7.75,2.51-.59,5.03-1.17,7.54-1.76-.43-2.38-.86-4.75-1.28-7.13-2.53,1.09-3.53.85-6.28,1.14Z" fill="#fff"/><path d="M1486.68,140.46c-2.58-.08-.68,5.12-1.02,7.69,2.57-.24,5.14-.49,7.71-.73-.1-2.41-.21-4.83-.31-7.24-2.66.74-3.62.37-6.37.28Z" fill="#fff"/><path d="M1504.26,140.04c-2.53-.52-1.55,4.93-2.32,7.4,2.57.2,5.15.4,7.72.6.31-2.4.62-4.79.94-7.19-2.75.27-3.63-.26-6.33-.81Z" fill="#fff"/><path d="M1521.44,139.92c-2.49-.68-1.87,4.82-2.8,7.23,2.55.37,5.11.73,7.66,1.1.47-2.37.93-4.74,1.4-7.11-2.76.09-3.6-.49-6.26-1.22Z" fill="#fff"/><path d="M1415.39,133.91l1.37-48c.16-5.72,4.91-10.24,10.63-10.12l45.83.94c4.98.1,8.99,4.13,9.06,9.11-1.11,12.5-1.73,26.37-1.48,41.41.25,14.36,1.26,27.61,2.68,39.6-22.82-6.94-45.29-26.01-68.11-32.94Z" fill="#231f20"/><path d="M1425.44,88.44c-2.89.3.02,5.81.03,8.72,2.83-.66,5.65-1.32,8.48-1.98-.48-2.67-.96-5.35-1.44-8.02-2.85,1.23-3.97.96-7.06,1.28Z" fill="#fff"/><path d="M1445.74,87.52c-2.85-.59-1.74,5.55-2.61,8.32,2.89.23,5.78.45,8.68.68.35-2.69.7-5.39,1.05-8.08-3.09.31-4.08-.29-7.12-.91Z" fill="#fff"/><path d="M1463.46,88.44c-2.89.3.02,5.81.03,8.72,2.83-.66,5.65-1.32,8.48-1.98-.48-2.67-.96-5.35-1.44-8.02-2.85,1.23-3.97.96-7.06,1.28Z" fill="#fff"/><path d="M1425.97,107.68c-2.9-.09-.77,5.76-1.15,8.64,2.89-.27,5.78-.55,8.66-.82-.12-2.71-.23-5.43-.35-8.14-2.99.83-4.07.41-7.17.32Z" fill="#fff"/><path d="M1445.74,107.22c-2.85-.59-1.74,5.55-2.61,8.32,2.89.23,5.78.45,8.68.68.35-2.69.7-5.39,1.05-8.08-3.09.31-4.08-.29-7.12-.91Z" fill="#fff"/><path d="M1465.06,107.08c-2.8-.77-2.1,5.42-3.15,8.13,2.87.41,5.74.83,8.62,1.24.52-2.66,1.05-5.33,1.57-7.99-3.1.11-4.05-.55-7.04-1.37Z" fill="#fff"/><path d="M1425.44,127.84c-2.89.3.02,5.81.03,8.72,2.83-.66,5.65-1.32,8.48-1.98-.48-2.67-.96-5.35-1.44-8.02-2.85,1.23-3.97.96-7.06,1.28Z" fill="#fff"/><path d="M1445.74,126.92c-2.85-.59-1.74,5.55-2.61,8.32,2.89.23,5.78.45,8.68.68.35-2.69.7-5.39,1.05-8.08-3.09.31-4.08-.29-7.12-.91Z" fill="#fff"/><path d="M1463.46,127.84c-2.89.3.02,5.81.03,8.72,2.83-.66,5.65-1.32,8.48-1.98-.48-2.67-.96-5.35-1.44-8.02-2.85,1.23-3.97.96-7.06,1.28Z" fill="#fff"/><path d="M1153.31,33.37c3.78-1.82,8.48-1.89,17.75-1.96,6.65-.05,12.19.75,23.27,2.36,1.81.26,5.14.79,7.48,3.32,1.86,2.01,2.92,4.75,2.71,7.72l-3.8,53.85-64.76-7.82,6.65-44.22c.27-3.03,1.57-5.87,3.67-8.08,1.79-1.87,4.1-3.75,7.05-5.17Z" fill="#005ba7"/><path d="M1153.01,47.56c-2.57.27.02,5.17.02,7.75,2.51-.59,5.03-1.17,7.54-1.76-.43-2.38-.86-4.75-1.28-7.13-2.53,1.09-3.53.85-6.28,1.14Z" fill="#fff"/><path d="M1171.07,46.74c-2.53-.52-1.55,4.93-2.32,7.4,2.57.2,5.15.4,7.72.6.31-2.4.62-4.79.94-7.19-2.75.27-3.63-.26-6.33-.81Z" fill="#fff"/><path d="M1186.83,47.56c-2.57.27.02,5.17.02,7.75,2.51-.59,5.03-1.17,7.54-1.76-.43-2.38-.86-4.75-1.28-7.13-2.53,1.09-3.53.85-6.28,1.14Z" fill="#fff"/><path d="M1153.49,64.68c-2.58-.08-.68,5.12-1.02,7.69,2.57-.24,5.14-.49,7.71-.73-.1-2.41-.21-4.83-.31-7.24-2.66.74-3.62.37-6.37.28Z" fill="#fff"/><path d="M1171.07,64.26c-2.53-.52-1.55,4.93-2.32,7.4,2.57.2,5.15.4,7.72.6.31-2.4.62-4.79.94-7.19-2.75.27-3.63-.26-6.33-.81Z" fill="#fff"/><path d="M1188.25,64.14c-2.49-.68-1.87,4.82-2.8,7.23,2.55.37,5.11.73,7.66,1.1.47-2.37.93-4.74,1.4-7.11-2.76.09-3.6-.49-6.26-1.22Z" fill="#fff"/><path d="M1082.2,83.56l1.37-73.44c.16-5.72,4.91-10.24,10.63-10.12l45.83.94c4.98.1,8.99,4.13,9.06,9.11-1.11,12.5-1.73,26.37-1.48,41.41.25,14.36,1.26,27.61,2.68,39.6-24.11-1.57-45.29-.57-68.11-7.5Z" fill="#231f20"/><path d="M1092.25,12.65c-2.89.3.02,5.81.03,8.72,2.83-.66,5.65-1.32,8.48-1.98-.48-2.67-.96-5.35-1.44-8.02-2.85,1.23-3.97.96-7.06,1.28Z" fill="#fff"/><path d="M1112.55,11.73c-2.85-.59-1.74,5.55-2.61,8.32,2.89.23,5.78.45,8.68.68.35-2.69.7-5.39,1.05-8.08-3.09.31-4.08-.29-7.12-.91Z" fill="#fff"/><path d="M1130.26,12.65c-2.89.3.02,5.81.03,8.72,2.83-.66,5.65-1.32,8.48-1.98-.48-2.67-.96-5.35-1.44-8.02-2.85,1.23-3.97.96-7.06,1.28Z" fill="#fff"/><path d="M1092.78,31.9c-2.9-.09-.77,5.76-1.15,8.64,2.89-.27,5.78-.55,8.66-.82-.12-2.71-.23-5.43-.35-8.14-2.99.83-4.07.41-7.17.32Z" fill="#fff"/><path d="M1112.55,31.44c-2.85-.59-1.74,5.55-2.61,8.32,2.89.23,5.78.45,8.68.68.35-2.69.7-5.39,1.05-8.08-3.09.31-4.08-.29-7.12-.91Z" fill="#fff"/><path d="M1131.87,31.3c-2.8-.77-2.1,5.42-3.15,8.13,2.87.41,5.74.83,8.62,1.24.52-2.66,1.05-5.33,1.57-7.99-3.1.11-4.05-.55-7.04-1.37Z" fill="#fff"/><path d="M1092.25,52.06c-2.89.3.02,5.81.03,8.72,2.83-.66,5.65-1.32,8.48-1.98-.48-2.67-.96-5.35-1.44-8.02-2.85,1.23-3.97.96-7.06,1.28Z" fill="#fff"/><path d="M1112.55,51.14c-2.85-.59-1.74,5.55-2.61,8.32,2.89.23,5.78.45,8.68.68.35-2.69.7-5.39,1.05-8.08-3.09.31-4.08-.29-7.12-.91Z" fill="#fff"/><path d="M1130.26,52.06c-2.89.3.02,5.81.03,8.72,2.83-.66,5.65-1.32,8.48-1.98-.48-2.67-.96-5.35-1.44-8.02-2.85,1.23-3.97.96-7.06,1.28Z" fill="#fff"/><path d="M722.29,124.44c3.69-1.98,8.39-2.26,17.65-2.74,6.64-.35,12.21.21,23.35,1.33,1.82.18,5.17.56,7.61,2.98,1.94,1.93,3.12,4.62,3.05,7.59l-2.96,19.99-58.38,46.98-.43-62.42c.14-3.04,1.3-5.94,3.31-8.23,1.7-1.95,3.93-3.93,6.81-5.48Z" fill="#005ba7"/><path d="M722.63,134.62c-2.56.38.24,5.16.37,7.75,2.48-.7,4.97-1.4,7.45-2.09-.53-2.36-1.06-4.71-1.6-7.07-2.48,1.2-3.49,1.01-6.22,1.42Z" fill="#fff"/><path d="M740.63,133.01c-2.55-.41-1.33,5-2,7.49,2.58.09,5.16.17,7.74.26.21-2.41.41-4.81.62-7.22-2.73.39-3.63-.1-6.36-.53Z" fill="#fff"/><path d="M756.41,133.13c-2.56.38.24,5.16.37,7.75,2.48-.7,4.97-1.4,7.45-2.09-.53-2.36-1.06-4.71-1.6-7.07-2.48,1.2-3.49,1.01-6.22,1.42Z" fill="#fff"/><path d="M723.86,149.7c-2.58.04-.45,5.15-.68,7.72,2.56-.36,5.11-.71,7.67-1.07-.21-2.41-.42-4.81-.63-7.22-2.62.86-3.6.53-6.36.57Z" fill="#fff"/><path d="M741.41,148.51c-2.55-.41-1.33,5-2,7.49,2.58.09,5.16.17,7.74.26.21-2.41.41-4.81.62-7.22-2.73.39-3.63-.1-6.36-.53Z" fill="#fff"/><path d="M758.56,147.63c-2.52-.57-1.65,4.9-2.48,7.35,2.57.25,5.14.51,7.7.76.36-2.39.72-4.78,1.08-7.17-2.75.22-3.62-.33-6.31-.94Z" fill="#fff"/><path d="M654.42,214.95l-2.83-110.65c-.09-5.72,4.45-10.45,10.18-10.58l45.83-1.08c4.98-.12,9.16,3.73,9.46,8.7-.55,12.53-.57,26.42.36,41.43.88,14.33,1.18,52.87,1.18,52.87-5.28,3.48-11.64,7.06-19.09,10.18-17.69,7.41-33.89,9.04-45.08,9.13Z" fill="#00b1dc"/><path d="M660.38,106.44c-2.87.43.27,5.81.41,8.71,2.79-.78,5.59-1.57,8.38-2.35-.6-2.65-1.2-5.3-1.8-7.95-2.79,1.35-3.93,1.13-7,1.59Z" fill="#fff"/><path d="M680.62,104.62c-2.87-.46-1.5,5.62-2.24,8.43,2.9.1,5.8.2,8.7.29.23-2.71.46-5.41.69-8.12-3.07.44-4.09-.11-7.15-.6Z" fill="#fff"/><path d="M698.36,104.76c-2.87.43.27,5.81.41,8.71,2.79-.78,5.59-1.57,8.38-2.35-.6-2.65-1.2-5.3-1.8-7.95-2.79,1.35-3.93,1.13-7,1.59Z" fill="#fff"/><path d="M661.76,125.65c-2.91.04-.51,5.79-.76,8.69,2.87-.4,5.75-.8,8.62-1.2-.24-2.71-.47-5.41-.71-8.12-2.95.96-4.04.59-7.15.64Z" fill="#fff"/><path d="M681.49,124.31c-2.87-.46-1.5,5.62-2.24,8.43,2.9.1,5.8.2,8.7.29.23-2.71.46-5.41.69-8.12-3.07.44-4.09-.11-7.15-.6Z" fill="#fff"/><path d="M700.78,123.31c-2.83-.64-1.86,5.51-2.79,8.26,2.89.29,5.77.57,8.66.86.41-2.69.81-5.37,1.22-8.06-3.09.24-4.07-.37-7.1-1.06Z" fill="#fff"/><path d="M662.12,145.8c-2.87.43.27,5.81.41,8.71,2.79-.78,5.59-1.57,8.38-2.35-.6-2.65-1.2-5.3-1.8-7.95-2.79,1.35-3.93,1.13-7,1.59Z" fill="#fff"/><path d="M682.36,143.99c-2.87-.46-1.5,5.62-2.24,8.43,2.9.1,5.8.2,8.7.29.23-2.71.46-5.41.69-8.12-3.07.44-4.09-.11-7.15-.6Z" fill="#fff"/><path d="M700.1,144.12c-2.87.43.27,5.81.41,8.71,2.79-.78,5.59-1.57,8.38-2.35-.6-2.65-1.2-5.3-1.8-7.95-2.79,1.35-3.93,1.13-7,1.59Z" fill="#fff"/><path d="M1486.5,109.15c3.78-1.82,8.48-1.89,17.75-1.96,6.65-.05,12.19.75,23.27,2.36,1.81.26,5.14.79,7.48,3.32,1.86,2.01,2.92,4.75,2.71,7.72l-4,56.62-61.49-15.02,3.58-39.79c.27-3.03,1.57-5.87,3.67-8.08,1.79-1.87,4.1-3.75,7.05-5.17Z" fill="#231f20"/><path d="M1486.21,123.34c-2.57.27.02,5.17.02,7.75,2.51-.59,5.03-1.17,7.54-1.76-.43-2.38-.86-4.75-1.28-7.13-2.53,1.09-3.53.85-6.28,1.14Z" fill="#fff"/><path d="M1504.26,122.52c-2.53-.52-1.55,4.93-2.32,7.4,2.57.2,5.15.4,7.72.6.31-2.4.62-4.79.94-7.19-2.75.27-3.63-.26-6.33-.81Z" fill="#fff"/><path d="M1520.02,123.34c-2.57.27.02,5.17.02,7.75,2.51-.59,5.03-1.17,7.54-1.76-.43-2.38-.86-4.75-1.28-7.13-2.53,1.09-3.53.85-6.28,1.14Z" fill="#fff"/><path d="M1486.68,140.46c-2.58-.08-.68,5.12-1.02,7.69,2.57-.24,5.14-.49,7.71-.73-.1-2.41-.21-4.83-.31-7.24-2.66.74-3.62.37-6.37.28Z" fill="#fff"/><path d="M1504.26,140.04c-2.53-.52-1.55,4.93-2.32,7.4,2.57.2,5.15.4,7.72.6.31-2.4.62-4.79.94-7.19-2.75.27-3.63-.26-6.33-.81Z" fill="#fff"/><path d="M1521.44,139.92c-2.49-.68-1.87,4.82-2.8,7.23,2.55.37,5.11.73,7.66,1.1.47-2.37.93-4.74,1.4-7.11-2.76.09-3.6-.49-6.26-1.22Z" fill="#fff"/><path d="M1415.39,133.91l1.37-48c.16-5.72,4.91-10.24,10.63-10.12l45.83.94c4.98.1,8.99,4.13,9.06,9.11-1.11,12.5-1.73,26.37-1.48,41.41.25,14.36,1.26,27.61,2.68,39.6-22.82-6.94-45.29-26.01-68.11-32.94Z" fill="#0fa15c"/><path d="M1425.44,88.44c-2.89.3.02,5.81.03,8.72,2.83-.66,5.65-1.32,8.48-1.98-.48-2.67-.96-5.35-1.44-8.02-2.85,1.23-3.97.96-7.06,1.28Z" fill="#fff"/><path d="M1445.74,87.52c-2.85-.59-1.74,5.55-2.61,8.32,2.89.23,5.78.45,8.68.68.35-2.69.7-5.39,1.05-8.08-3.09.31-4.08-.29-7.12-.91Z" fill="#fff"/><path d="M1463.46,88.44c-2.89.3.02,5.81.03,8.72,2.83-.66,5.65-1.32,8.48-1.98-.48-2.67-.96-5.35-1.44-8.02-2.85,1.23-3.97.96-7.06,1.28Z" fill="#fff"/><path d="M1425.97,107.68c-2.9-.09-.77,5.76-1.15,8.64,2.89-.27,5.78-.55,8.66-.82-.12-2.71-.23-5.43-.35-8.14-2.99.83-4.07.41-7.17.32Z" fill="#fff"/><path d="M1445.74,107.22c-2.85-.59-1.74,5.55-2.61,8.32,2.89.23,5.78.45,8.68.68.35-2.69.7-5.39,1.05-8.08-3.09.31-4.08-.29-7.12-.91Z" fill="#fff"/><path d="M1465.06,107.08c-2.8-.77-2.1,5.42-3.15,8.13,2.87.41,5.74.83,8.62,1.24.52-2.66,1.05-5.33,1.57-7.99-3.1.11-4.05-.55-7.04-1.37Z" fill="#fff"/><path d="M1425.44,127.84c-2.89.3.02,5.81.03,8.72,2.83-.66,5.65-1.32,8.48-1.98-.48-2.67-.96-5.35-1.44-8.02-2.85,1.23-3.97.96-7.06,1.28Z" fill="#fff"/><path d="M1445.74,126.92c-2.85-.59-1.74,5.55-2.61,8.32,2.89.23,5.78.45,8.68.68.35-2.69.7-5.39,1.05-8.08-3.09.31-4.08-.29-7.12-.91Z" fill="#fff"/><path d="M1463.46,127.84c-2.89.3.02,5.81.03,8.72,2.83-.66,5.65-1.32,8.48-1.98-.48-2.67-.96-5.35-1.44-8.02-2.85,1.23-3.97.96-7.06,1.28Z" fill="#fff"/><path d="M592.68,301.58c16.85-12.72,33.28-25.99,49.59-39.39,17.75-14.58,35.35-29.34,53-44.02,17.04-14.18,34.12-28.32,51.49-42.1s35.94-28.02,54.65-40.97c20.2-13.97,41.49-26.12,64.57-34.67,22.14-8.2,45.33-13.51,68.73-16.53,23.74-3.06,47.73-3.87,71.64-3.22,25.5.7,50.92,3.12,76.24,6.19s52.82,7.12,79.24,10.61,52.54,6.5,78.97,7.98,52.85,1.46,79.02,5.16c12.24,1.73,24.39,4.24,36.41,7.1,10.16,2.41,20.24,5.17,30.19,8.34,15.88,5.05,31.14,11.13,46.15,18.06,12.1,5.58,23.95,11.69,36.08,17.21,11.5,5.23,23.29,9.83,35.6,12.77,14.34,3.43,29.13,4.65,43.86,4.33,14.5-.31,29.13-1.73,43.33-4.73,12.89-2.73,25.42-6.92,37.43-12.32,14.88-6.7,28.85-15.31,41.86-25.15,16.72-12.65,31.92-27.2,45.88-42.83,8.27-9.26,16.1-18.89,23.6-28.77.82-1.08.17-2.8-.9-3.42-1.28-.75-2.6-.18-3.42.9-14.35,18.88-30.03,36.85-47.51,52.9-13.31,12.22-27.7,23.29-43.33,32.4-12.55,7.32-25.2,13.04-38.98,17.32-5.8,1.8-11.69,3.3-17.65,4.5-2.79.56-5.6,1.06-8.41,1.5-.63.1-1.27.19-1.9.28-.3.04-.59.09-.89.13-.2.03-.39.05-.59.08-.67.09.55-.07-.12.02-1.41.19-2.82.36-4.23.52-16.65,1.88-33.53,2.51-50.2.5-.89-.11-1.65-.21-2.17-.28-.84-.12-1.69-.24-2.53-.37-1.69-.26-3.37-.55-5.05-.87-3.2-.61-6.37-1.32-9.52-2.14-6.02-1.56-11.94-3.5-17.75-5.72-5.9-2.26-10.91-4.46-16.82-7.21s-11.64-5.56-17.44-8.38c-13.51-6.57-27.13-12.89-41.14-18.32-18.47-7.16-37.5-12.79-56.82-17.16-12.28-2.78-24.67-5.17-37.17-6.73s-26.18-2.43-39.31-3.02-26.65-1.01-39.95-1.84-26.39-2.02-39.54-3.45c-26.35-2.87-52.58-6.66-78.84-10.25-26.37-3.61-52.78-7.02-79.32-9.08-23.92-1.86-47.96-2.54-71.93-1.34s-47.65,4.25-70.83,9.97c-23.2,5.72-45.73,14.18-66.67,25.72-22,12.12-42.16,27.2-62.17,42.3-16.87,12.73-33.35,25.95-49.69,39.35-17.69,14.5-35.22,29.2-52.8,43.83s-34.22,28.43-51.62,42.28c-7.54,6-15.13,11.94-22.83,17.75-1.08.81-1.64,2.16-.9,3.42.62,1.06,2.34,1.72,3.42.9h0Z" fill="#231f20"/><path d="M1380.95,557.74c6.62-.57,13.25-1.04,19.88-1.47,4.92-.31,9.83-.59,14.74-.97,4.37-.34,8.73-.78,13.07-1.41s8.95-1.53,13.36-2.57c5.82-1.37,11.59-2.99,17.32-4.71,8.09-2.42,16.13-5.03,24.15-7.68,11.38-3.76,22.73-7.64,34.07-11.53,14.97-5.14,30.03-10.08,44.89-15.54,7.97-2.92,15.57-6.77,22.8-11.2,7.96-4.88,15.49-10.45,22.72-16.36,7.89-6.45,15.41-13.35,22.69-20.49,7.89-7.73,15.49-15.73,22.94-23.88,7.97-8.71,15.75-17.59,23.45-26.54,8.1-9.41,16.12-18.89,24.14-28.37s16.68-19.72,25.1-29.52,17.2-19.84,26-29.58,17.99-19.59,27.31-29.08c9.26-9.43,18.75-18.63,28.55-27.49s19.54-17.11,29.83-25.04,20.8-15.29,31.77-22.09c5.28-3.28,10.66-6.41,16.12-9.38,2.83-1.54.31-5.86-2.52-4.32-11.26,6.13-22.14,12.94-32.65,20.28s-21.09,15.54-31.12,23.95-19.82,17.32-29.29,26.45-18.79,18.66-27.85,28.31-17.87,19.44-26.59,29.36-17.06,19.67-25.48,29.59-16.35,19.34-24.55,29-15.75,18.48-23.78,27.58c-7.54,8.55-15.2,17-23.08,25.24-7.34,7.67-14.89,15.17-22.75,22.31-3.68,3.34-7.43,6.6-11.27,9.75s-6.96,5.58-10.91,8.44c-7.1,5.13-14.53,9.82-22.39,13.7-1.86.92-3.74,1.79-5.65,2.62-.2.09-.4.17-.6.25.48-.2-.18.07-.3.12-.49.2-.99.41-1.49.6-.92.37-1.85.72-2.78,1.06-7.72,2.81-15.53,5.4-23.3,8.09-13.34,4.61-26.68,9.22-40.05,13.75-9.53,3.22-19.06,6.42-28.65,9.46-6.72,2.13-13.46,4.2-20.26,6.05-4.93,1.34-9.89,2.55-14.9,3.51-2.12.41-4.25.76-6.38,1.07-.24.03-.48.07-.71.1-.33.05-1.12.14-.27.04-.51.06-1.02.13-1.53.2-1.04.13-2.08.24-3.11.35-4.41.46-8.84.76-13.26,1.04-5.64.36-11.27.7-16.91,1.11-3.51.26-7.01.53-10.51.83-1.35.11-2.5,1.07-2.5,2.5,0,1.26,1.15,2.62,2.5,2.5h0Z" fill="#231f20"/><path d="M614.36,434.88c24.58-1.66,49.22.69,73.28,5.82,24.39,5.19,48.13,13.05,71.39,21.97,23.59,9.05,46.73,19.24,69.92,29.25,23.97,10.35,48.06,20.35,72.63,29.21,25.54,9.21,51.42,17.43,77.47,25.06s52.31,14.69,78.59,21.55c13.02,3.4,26.11,6.33,39.4,8.48,12.84,2.07,25.76,3.58,38.7,4.79s26.26,2.18,39.4,3.18c3.43.26,6.85.53,10.28.8,1.6.13,3.22.34,4.83.35,1.81.02,4-.59,4.02-2.84.01-2.92-4.56-4.26-6.68-5.17s-4.21-1.78-6.31-2.66c-.25-.11-.5-.21-.75-.32-.16-.07-1.01-.43-.32-.13-.57-.24-1.13-.48-1.7-.72-1.09-.47-2.17-.94-3.26-1.42-3.76-1.68-7.5-3.43-10.88-5.79-.41-.29.5.44,0,0-.13-.12-.28-.23-.41-.35-.24-.22-.45-.46-.68-.68-.38-.38.14.28.11.14-.02-.1-.14-.2-.19-.3-.28-.58.13.69,0-.09.03.18.04.81.07.34,0-.18-.18.82-.04.35.12-.41-.34.68-.12.29.27-.48-.44.52-.14.16.47-.55-.49.2.13-.11.13-.06.27-.14.39-.21.61-.36-.5.14.06-.03.87-.26,1.71-.52,2.6-.69.28-.05.55-.1.83-.15.2-.03,1.07-.15.43-.07.77-.1,1.53-.18,2.3-.24,1.35-.12,2.5-1.06,2.5-2.5,0-1.26-1.15-2.62-2.5-2.5-3.38.3-10.26.54-11.33,4.83-.9,3.6,3.29,6.18,5.86,7.7,3.88,2.29,8.07,4.07,12.21,5.84,2.22.95,4.45,1.87,6.68,2.81.11.05.23.1.34.14.32.14-.6-.25-.13-.05.22.09.44.19.66.28.46.19.91.39,1.37.59.76.33,1.51.66,2.26,1.02.57.27,1.14.54,1.69.85.2.11.39.25.59.36.56.31-.5-.51-.07-.04.26.28-.43-.62-.27-.36-.13-.22-.3-.78-.29-1.1,0-.85.46-1.59,1.14-2.01-.33.2.75-.28.4-.16-.58.18.76,0,.12,0-.28,0-.56.02-.84.01-5.21-.12-10.45-.81-15.65-1.21-6.58-.5-13.15-.99-19.73-1.51-26.01-2.05-52.02-4.65-77.54-10.25-13.31-2.92-26.47-6.61-39.64-10.12-13.05-3.48-26.08-7.03-39.07-10.7-26.13-7.38-52.12-15.26-77.82-24.04-24.99-8.53-49.6-18.05-73.9-28.38-23.38-9.93-46.57-20.31-70.11-29.87-23.2-9.42-46.78-18.07-71.02-24.44-23.87-6.27-48.45-10.28-73.16-10.49-6.03-.05-12.06.13-18.07.53-1.35.09-2.5,1.08-2.5,2.5,0,1.28,1.15,2.59,2.5,2.5h0Z" fill="#231f20"/><path d="M592.21,312.34c21.8-1.88,43.74-1.58,65.54.19,21.84,1.77,43.53,4.99,65.08,8.85s43.24,8.42,64.82,12.85c21.66,4.45,43.34,8.77,65.06,12.93,21.72,4.16,43.47,8.18,65.25,12.06s43.58,7.6,65.4,11.18,43.68,7.01,65.55,10.29,43.77,6.42,65.68,9.41,44.03,5.87,66.08,8.56,44.2,5.19,66.35,7.29,44.31,3.81,66.51,4.94c22.18,1.13,44.39,1.68,66.6,1.46s43.34-1.25,64.96-2.84c18.57-1.36,37.12-3.18,55.58-5.66,15.73-2.11,31.39-4.69,46.92-7.99,13.15-2.79,26.2-6.1,39.03-10.08,11.28-3.5,22.37-7.55,33.23-12.2,9.61-4.11,19-8.71,28.13-13.81,11.95-6.68,23.44-14.18,34.47-22.29,14.54-10.69,28.29-22.45,41.08-35.18,4.83-4.8,9.51-9.73,14.07-14.79,2.15-2.39-1.38-5.93-3.54-3.54-10.37,11.51-21.45,22.38-33.19,32.49-13.61,11.72-28.12,22.42-43.39,31.89-8.54,5.3-17.34,10.18-26.37,14.59-10.04,4.91-19.49,8.87-29.99,12.68-11.76,4.27-23.75,7.88-35.86,10.97-14.17,3.62-28.51,6.54-42.92,8.96-16.86,2.83-33.82,4.98-50.83,6.67-20.34,2.02-40.75,3.44-61.16,4.32-22.11.95-44.24,1.06-66.36.5s-44.24-1.78-66.32-3.47-44.16-3.86-66.19-6.32c-22.07-2.46-44.12-5.2-66.14-8.07-21.87-2.85-43.73-5.84-65.56-8.99-21.81-3.14-43.6-6.43-65.37-9.86s-43.51-7.01-65.23-10.74c-21.72-3.72-43.41-7.59-65.08-11.61-21.75-4.03-43.47-8.21-65.16-12.53-21.63-4.31-43.21-8.87-64.83-13.2-21.51-4.31-43.09-8.32-64.84-11.27s-43.49-4.89-65.36-4.95c-10.58-.03-21.16.38-31.69,1.29-1.35.12-2.5,1.07-2.5,2.5,0,1.26,1.15,2.62,2.5,2.5h0Z" fill="#231f20"/><path d="M1271.03,108.23c21.51,18.8,42.52,38.18,62.98,58.12,20.46,19.94,40.38,40.43,59.73,61.45,10.89,11.83,21.6,23.83,32.12,35.99.88,1.02,2.63.91,3.54,0,1.01-1.01.89-2.51,0-3.54-18.7-21.6-37.98-42.69-57.83-63.25s-40.24-40.57-61.17-60.02c-11.78-10.95-23.73-21.71-35.84-32.29-1.02-.89-2.54-1-3.54,0-.91.91-1.02,2.64,0,3.54h0Z" fill="#231f20"/><path d="M542.88,270.39c5.01-4.24,10.53-8.05,16.36-11.63,6.55-4.02,13.34-7.63,20.24-10.99,15.61-7.59,31.83-13.87,48.25-19.46s34.52-10.88,52.07-15.29c15.93-4,31.99-7.48,48.19-10.22,3.46-.58,6.93-1.13,10.4-1.63s6.75-.91,10.62-1.37c12.42-1.47,24.86-2.79,37.32-3.86,24.73-2.13,49.57-3.28,74.4-2.67,12.3.3,24.59,1.01,36.83,2.3s23.59,3.17,35.05,6.37,22.16,7.91,32.82,12.97c9.48,4.49,18.89,9.15,28.73,12.81,18.04,6.71,36.91,11.15,55.72,15.12,19.05,4.02,38.24,7.35,57.36,11.03,4.1.79,8.2,1.6,12.29,2.44,1.32.27,2.7-.39,3.08-1.75.34-1.24-.42-2.8-1.75-3.08-18.43-3.82-36.99-6.97-55.46-10.59-19.52-3.83-39.06-8-58.06-13.96-8.74-2.74-17.26-5.97-25.58-9.81-10.85-5-21.5-10.45-32.62-14.86-22.63-8.97-47.03-11.85-71.17-13.27s-49.97-.98-74.89.68c-12.4.82-24.78,1.94-37.14,3.24-9.81,1.04-19.64,2.1-29.4,3.52-15.55,2.27-30.98,5.37-46.28,8.93-17.5,4.07-34.86,8.8-51.99,14.24-17.14,5.44-34.07,11.59-50.52,18.87-14.09,6.23-28.02,13.28-40.56,22.3-2.69,1.93-5.31,3.96-7.83,6.1-1.03.87-.9,2.64,0,3.54,1.02,1.02,2.5.88,3.54,0h0Z" fill="#231f20"/><path d="M992.68,95.55v122.09c0,3.22,5,3.22,5,0v-122.09c0-3.22-5-3.22-5,0h0Z" fill="#231f20"/><path d="M1038.16,387.63c-.06,21.05,0,42.1.18,63.15s.48,42.1.91,63.15c.24,11.81.52,23.63.83,35.44.09,3.21,5.09,3.22,5,0-.56-21.04-1-42.09-1.32-63.14s-.51-42.1-.59-63.15c-.04-11.82-.04-23.63-.01-35.45,0-3.22-4.99-3.22-5,0h0Z" fill="#231f20"/><path d="M1036.29,368.44c-4.81.22-9.61.96-14.36,1.74-5.99.98-11.94,2.15-17.87,3.42-11.02,2.35-21.92,5.06-32.66,8.5-17.12,5.47-34.23,10.94-51.35,16.42s-33.01,10.09-48.35,17.97c-13.77,7.07-26.63,16.27-41.45,21.12-1.83.6-3.68,1.12-5.55,1.58-3.12.76-1.8,5.58,1.33,4.82,15.27-3.72,28.54-12.41,42.12-19.95,7.16-3.97,14.53-7.45,22.19-10.36s16.08-5.58,24.18-8.17c17.12-5.47,34.23-10.94,51.35-16.42,6.02-1.92,12.01-3.94,18.11-5.58,5.43-1.46,10.9-2.78,16.38-4.01,5.98-1.34,11.99-2.59,18.03-3.68,5.2-.94,9.99-1.75,15.04-2.2.95-.09,1.91-.15,2.86-.2,3.2-.14,3.22-5.14,0-5h0Z" fill="#231f20"/><path d="M814.65,427.8c16.22-24.72,33.93-48.45,53.04-71.01,5.41-6.39,10.94-12.68,16.57-18.89,2.16-2.38-1.37-5.92-3.54-3.54-20.15,22.21-38.95,45.64-56.25,70.14-4.83,6.84-9.54,13.76-14.14,20.77-1.77,2.7,2.56,5.21,4.32,2.52h0Z" fill="#231f20"/><path d="M776.97,251.3c-.08,20.8,2.04,41.6,6.31,61.95,1.2,5.72,2.57,11.4,4.11,17.04.84,3.1,5.67,1.78,4.82-1.33-5.37-19.72-8.69-39.97-9.8-60.38-.32-5.76-.46-11.52-.43-17.28.01-3.22-4.99-3.22-5,0h0Z" fill="#231f20"/><path d="M758.76,253.22c-8.21,18.44-19.22,35.62-32.66,50.69-3.8,4.26-7.78,8.35-11.93,12.26-2.34,2.21,1.2,5.74,3.54,3.54,14.93-14.09,27.69-30.51,37.65-48.46,2.8-5.05,5.37-10.23,7.72-15.51.55-1.23.36-2.69-.9-3.42-1.07-.62-2.87-.34-3.42.9h0Z" fill="#231f20"/><path d="M1030.5,554.43c-24.74,8.86-48.34,20.85-70.02,35.71-6.13,4.2-12.09,8.63-17.9,13.26-1.06.84-.88,2.66,0,3.54,1.04,1.04,2.48.84,3.54,0,20.11-15.99,42.32-29.36,65.81-39.75,6.54-2.89,13.18-5.52,19.91-7.93,1.27-.45,2.12-1.7,1.75-3.08-.34-1.23-1.8-2.2-3.08-1.75h0Z" fill="#231f20"/><path d="M942.2,607.93c18.54,13.21,36.05,27.87,52.33,43.78,4.57,4.47,9.04,9.04,13.42,13.7,2.21,2.35,5.74-1.19,3.54-3.54-15.73-16.76-32.74-32.29-50.87-46.42-5.21-4.06-10.5-8.01-15.88-11.84-1.1-.78-2.78-.19-3.42.9-.73,1.26-.21,2.63.9,3.42h0Z" fill="#231f20"/><path d="M1281.18,425.08c16.42,14.84,31.76,30.81,46.47,47.34,14.51,16.31,28.42,33.14,42.38,49.93,8.01,9.64,16.03,19.27,24.18,28.79.88,1.03,2.63.9,3.54,0,1.02-1.02.88-2.51,0-3.54-14.42-16.85-28.44-34.03-42.7-51.01-14.02-16.69-28.3-33.19-43.43-48.91-8.67-9.01-17.62-17.76-26.9-26.14-2.38-2.15-5.93,1.37-3.54,3.54h0Z" fill="#231f20"/><path d="M1342.25,348.41c17,1.3,33.02,8.06,48.92,13.73s31.14,10.78,46.87,15.64c13.44,4.15,26.97,8.03,40.58,11.57,11.63,3.02,23.33,5.79,35.09,8.27,10.05,2.12,20.14,4.02,30.27,5.72,8.82,1.48,17.66,2.79,26.52,3.99,7.95,1.08,15.91,2.07,23.87,3.07,9.94,1.24,19.87,2.48,29.84,3.4,13.58,1.25,27.19,2.07,40.82,2.48,16.19.48,32.4.37,48.59-.3,4.33-.18,8.65-.4,12.97-.66,3.2-.19,3.22-5.19,0-5-16.77,1-33.58,1.42-50.39,1.2-14.28-.19-28.55-.82-42.78-1.93-11.27-.88-22.5-2.09-33.71-3.51-7.6-.96-15.2-1.89-22.8-2.89-1.01-.13-2.02-.27-3.02-.4-.23-.03-.45-.06-.68-.09-.11-.02-.23-.03-.34-.05.48.06.08.01-.02,0-.53-.07-1.07-.14-1.6-.22-2.1-.29-4.2-.58-6.3-.88-4.41-.63-8.82-1.29-13.22-1.99-9.85-1.56-19.67-3.32-29.45-5.28-11.38-2.28-22.7-4.83-33.96-7.63-13.17-3.27-26.27-6.88-39.28-10.76-15.24-4.54-30.36-9.45-45.38-14.65-8.19-2.83-16.32-5.81-24.48-8.72-8.02-2.87-16.14-5.59-24.49-7.33-4.11-.85-8.27-1.46-12.45-1.78-1.35-.1-2.5,1.22-2.5,2.5,0,1.44,1.15,2.4,2.5,2.5h0Z" fill="#231f20"/><path d="M1333.83,285.97c26.08-8.04,52.49-14.99,79.15-20.78,7.46-1.62,14.94-3.15,22.43-4.6,1.33-.26,2.08-1.85,1.75-3.08-.38-1.39-1.74-2-3.08-1.75-26.79,5.17-53.37,11.46-79.63,18.89-7.35,2.08-14.67,4.24-21.96,6.49-3.07.95-1.76,5.77,1.33,4.82h0Z" fill="#231f20"/><path d="M1282.86,97.56c6.81-16.35,16.1-31.75,27.38-45.39,3.25-3.93,6.66-7.72,10.22-11.36,2.25-2.3-1.28-5.84-3.54-3.54-12.89,13.19-23.83,28.31-32.29,44.7-2.4,4.66-4.59,9.43-6.6,14.27-.52,1.25.56,2.75,1.75,3.08,1.44.4,2.55-.49,3.08-1.75h0Z" fill="#231f20"/><path d="M1185.75,563.23c21.11.01,41.05-7.91,59.37-17.79,9.42-5.08,18.53-10.72,27.64-16.33,10.02-6.17,20.05-12.34,30.07-18.51,11.29-6.95,22.59-13.9,33.88-20.86,2.74-1.68.23-6.01-2.52-4.32-19.9,12.25-39.81,24.51-59.71,36.76-17.83,10.97-35.69,22.6-55.48,29.76-10.68,3.86-21.85,6.29-33.24,6.28-3.22,0-3.22,5,0,5h0Z" fill="#231f20"/><path d="M516.04,341.1c-14.63,1.42-28.68,5.59-42.17,11.31s-26.5,13.01-39.21,20.48c-13.11,7.71-26.11,15.58-39.46,22.86s-28.14,14.7-42.57,21.32c-14.45,6.63-29.12,12.75-43.99,18.35-1.83.69-3.66,1.37-5.5,2.05-1.27.47-2.13,1.7-1.75,3.08.34,1.22,1.8,2.21,3.08,1.75,14.95-5.5,29.72-11.5,44.27-18,14.42-6.44,28.63-13.37,42.58-20.78s26.83-15,40.05-22.86,25.25-14.88,38.54-21.04,26.78-10.81,41.04-12.9c1.69-.25,3.39-.44,5.1-.61,1.34-.13,2.5-1.06,2.5-2.5,0-1.25-1.15-2.63-2.5-2.5h0Z" fill="#231f20"/><path d="M584.36,436c-11.44,0-22.87.81-34.27,1.75-14.08,1.16-28.15,2.58-42.22,3.89-16.25,1.51-32.51,2.91-48.8,3.95-18.23,1.17-36.49,1.91-54.75,2.02-19.7.12-39.41-.48-59.06-1.97-21.03-1.59-41.78-4.19-62.5-7.98-21.94-4.02-43.64-9.34-64.91-16.05-22.66-7.15-44.82-15.88-66.24-26.17-23.04-11.07-45.21-23.91-66.33-38.3-23.17-15.8-45.03-33.48-65.52-52.62-5.26-4.91-10.42-9.92-15.5-15.02-2.27-2.28-5.81,1.25-3.54,3.54,10.43,10.47,21.24,20.57,32.43,30.23s21.7,18.04,33.05,26.43c10.77,7.96,21.83,15.52,33.18,22.63s22.1,13.29,33.51,19.29,22.06,11.08,33.38,16,22.2,9.21,33.53,13.22c10.89,3.85,21.9,7.33,33.02,10.44s21.68,5.7,32.64,8.03c10.64,2.27,21.35,4.23,32.11,5.88,10.56,1.62,21.17,2.97,31.8,4.04s20.52,1.81,30.8,2.36,19.79.84,29.7.96,19.08.05,28.62-.17c9.14-.21,18.27-.57,27.39-1.04,8.68-.45,17.36-1.01,26.03-1.66,8.18-.61,16.36-1.29,24.53-2.02,7.63-.68,15.26-1.4,22.89-2.12,7.07-.67,14.14-1.35,21.21-1.98,6.39-.57,12.78-1.11,19.18-1.56,5.7-.4,11.41-.73,17.12-.9,2.51-.07,5.01-.12,7.52-.12,3.22,0,3.22-5,0-5h0Z" fill="#231f20"/><path d="M1098.24,269.95c-26.35,63.57,1.14,127.49,54.34,164.11,17.72,12.2,33.8,15.5,37.08,16.09,22.93,4.15,50.53,5.46,72.26-2.27,38.08-13.54,68.65-41.34,82.48-75.73,11.58-28.81,10.27-60.78-2.68-89.12-10.66-23.33-28.29-53.85-55.08-72.11-49.24-33.56-110.45-32.4-149.32,1.24-15.77,13.64-34.52,46.78-39.08,57.78Z" fill="#fff" stroke="#231f20" stroke-miterlimit="10" stroke-width="4.6"/><path d="M1103.95,551.66c-10.31,24.87.45,49.87,21.26,64.2,6.93,4.77,13.22,6.06,14.5,6.29,8.97,1.62,19.77,2.14,28.27-.89,14.9-5.3,26.86-16.17,32.27-29.62,4.53-11.27,4.02-23.78-1.05-34.86-4.17-9.12-11.07-21.07-21.55-28.21-19.26-13.13-43.2-12.67-58.41.49-6.17,5.34-13.5,18.3-15.29,22.6Z" fill="#a1cf6d" stroke="#231f20" stroke-miterlimit="10" stroke-width="4.6"/><path d="M736.04,468.03c.58,26.91,20.49,45.47,45.3,50.21,8.27,1.58,14.55.23,15.81-.08,8.86-2.13,18.96-6,25.52-12.19,11.5-10.85,18.07-25.62,17.61-40.11-.39-12.14-5.89-23.38-15-31.49-7.49-6.67-18.61-14.83-31.08-17.15-22.92-4.26-44.65,5.79-53.27,23.96-3.5,7.37-4.99,22.19-4.89,26.84Z" fill="#00b1dc" stroke="#231f20" stroke-miterlimit="10" stroke-width="4.6"/><path d="M1380.98,365.35c-1.04,16.23,10,28.43,24.7,32.56,4.9,1.37,8.75.88,9.52.77,5.45-.83,11.72-2.64,15.99-6.03,7.48-5.94,12.2-14.5,12.66-23.24.39-7.33-2.35-14.38-7.41-19.73-4.17-4.4-10.45-9.88-17.83-11.92-13.58-3.74-27.18,1.19-33.31,11.69-2.48,4.26-4.15,13.1-4.33,15.91Z" fill="#f4eb42" stroke="#231f20" stroke-miterlimit="10" stroke-width="4.6"/><path d="M1415.3,256.83c-.6,9.4,5.79,16.45,14.29,18.84,2.83.8,5.06.51,5.51.44,3.15-.48,6.78-1.53,9.26-3.49,4.33-3.44,7.06-8.39,7.33-13.45.23-4.24-1.36-8.32-4.29-11.42-2.41-2.55-6.05-5.72-10.32-6.9-7.86-2.17-15.73.69-19.28,6.77-1.44,2.46-2.4,7.58-2.5,9.21Z" fill="#fff" stroke="#231f20" stroke-miterlimit="10" stroke-width="4.6"/><path d="M1435.52,542.77c-.6,9.4,5.79,16.45,14.29,18.84,2.83.8,5.06.51,5.51.44,3.15-.48,6.78-1.53,9.26-3.49,4.33-3.44,7.06-8.39,7.33-13.45.23-4.24-1.36-8.32-4.29-11.42-2.41-2.55-6.05-5.72-10.32-6.9-7.86-2.17-15.73.69-19.28,6.77-1.44,2.46-2.4,7.58-2.5,9.21Z" fill="#f4eb42" stroke="#231f20" stroke-miterlimit="10" stroke-width="4.6"/><path d="M1304.54,33.32c-.6,9.4,5.79,16.45,14.29,18.84,2.83.8,5.06.51,5.51.44,3.15-.48,6.78-1.53,9.26-3.49,4.33-3.44,7.06-8.39,7.33-13.45.23-4.24-1.36-8.32-4.29-11.42-2.41-2.55-6.05-5.72-10.32-6.9-7.86-2.17-15.73.69-19.28,6.77-1.44,2.46-2.4,7.58-2.5,9.21Z" fill="#f4eb42" stroke="#231f20" stroke-miterlimit="10" stroke-width="4.6"/><path d="M1256.69,105.19c-.6,9.4,5.79,16.45,14.29,18.84,2.83.8,5.06.51,5.51.44,3.15-.48,6.78-1.53,9.26-3.49,4.33-3.44,7.06-8.39,7.33-13.45.23-4.24-1.36-8.32-4.29-11.42-2.41-2.55-6.05-5.72-10.32-6.9-7.86-2.17-15.73.69-19.28,6.77-1.44,2.46-2.4,7.58-2.5,9.21Z" fill="#a1cf6d" stroke="#231f20" stroke-miterlimit="10" stroke-width="4.6"/><path d="M1649.31,414.12c-.6,9.4,5.79,16.45,14.29,18.84,2.83.8,5.06.51,5.51.44,3.15-.48,6.78-1.53,9.26-3.49,4.33-3.44,7.06-8.39,7.33-13.45.23-4.24-1.36-8.32-4.29-11.42-2.41-2.55-6.05-5.72-10.32-6.9-7.86-2.17-15.73.69-19.28,6.77-1.44,2.46-2.4,7.58-2.5,9.21Z" fill="#a1cf6d" stroke="#231f20" stroke-miterlimit="10" stroke-width="4.6"/><path d="M977,77.03c-.6,9.4,5.79,16.45,14.29,18.84,2.83.8,5.06.51,5.51.44,3.15-.48,6.78-1.53,9.26-3.49,4.33-3.44,7.06-8.39,7.33-13.45.23-4.24-1.36-8.32-4.29-11.42-2.41-2.55-6.05-5.72-10.32-6.9-7.86-2.17-15.73.69-19.28,6.77-1.44,2.46-2.4,7.58-2.5,9.21Z" fill="#231f20" stroke="#231f20" stroke-miterlimit="10" stroke-width="4.6"/><path d="M977,222.34c-.6,9.4,5.79,16.45,14.29,18.84,2.83.8,5.06.51,5.51.44,3.15-.48,6.78-1.53,9.26-3.49,4.33-3.44,7.06-8.39,7.33-13.45.23-4.24-1.36-8.32-4.29-11.42-2.41-2.55-6.05-5.72-10.32-6.9-7.86-2.17-15.73.69-19.28,6.77-1.44,2.46-2.4,7.58-2.5,9.21Z" fill="#00b1dc" stroke="#231f20" stroke-miterlimit="10" stroke-width="4.6"/><path d="M1036.33,234.79c-.6,9.4,5.79,16.45,14.29,18.84,2.83.8,5.06.51,5.51.44,3.15-.48,6.78-1.53,9.26-3.49,4.33-3.44,7.06-8.39,7.33-13.45.23-4.24-1.36-8.32-4.29-11.42-2.41-2.55-6.05-5.72-10.32-6.9-7.86-2.17-15.73.69-19.28,6.77-1.44,2.46-2.4,7.58-2.5,9.21Z" fill="#f4eb42" stroke="#231f20" stroke-miterlimit="10" stroke-width="4.6"/><path d="M1018.11,366.33c-.6,9.4,5.79,16.45,14.29,18.84,2.83.8,5.06.51,5.51.44,3.15-.48,6.78-1.53,9.26-3.49,4.33-3.44,7.06-8.39,7.33-13.45.23-4.24-1.36-8.32-4.29-11.42-2.41-2.55-6.05-5.72-10.32-6.9-7.86-2.17-15.73.69-19.28,6.77-1.44,2.46-2.4,7.58-2.5,9.21Z" fill="#231f20" stroke="#231f20" stroke-miterlimit="10" stroke-width="4.6"/><path d="M1018.11,555.24c-.6,9.4,5.79,16.45,14.29,18.84,2.83.8,5.06.51,5.51.44,3.15-.48,6.78-1.53,9.26-3.49,4.33-3.44,7.06-8.39,7.33-13.45.23-4.24-1.36-8.32-4.29-11.42-2.41-2.55-6.05-5.72-10.32-6.9-7.86-2.17-15.73.69-19.28,6.77-1.44,2.46-2.4,7.58-2.5,9.21Z" fill="#f4eb42" stroke="#231f20" stroke-miterlimit="10" stroke-width="4.6"/><path d="M925.29,608.54c-.6,9.4,5.79,16.45,14.29,18.84,2.83.8,5.06.51,5.51.44,3.15-.48,6.78-1.53,9.26-3.49,4.33-3.44,7.06-8.39,7.33-13.45.23-4.24-1.36-8.32-4.29-11.42-2.41-2.55-6.05-5.72-10.32-6.9-7.86-2.17-15.73.69-19.28,6.77-1.44,2.46-2.4,7.58-2.5,9.21Z" fill="#fff" stroke="#231f20" stroke-miterlimit="10" stroke-width="4.6"/><path d="M1005.7,672.43c-.6,9.4,5.79,16.45,14.29,18.84,2.83.8,5.06.51,5.51.44,3.15-.48,6.78-1.53,9.26-3.49,4.33-3.44,7.06-8.39,7.33-13.45.23-4.24-1.36-8.32-4.29-11.42-2.41-2.55-6.05-5.72-10.32-6.9-7.86-2.17-15.73.69-19.28,6.77-1.44,2.46-2.4,7.58-2.5,9.21Z" fill="#f4eb42" stroke="#231f20" stroke-miterlimit="10" stroke-width="4.6"/><path d="M576.15,432.87c-.6,9.4,5.79,16.45,14.29,18.84,2.83.8,5.06.51,5.51.44,3.15-.48,6.78-1.53,9.26-3.49,4.33-3.44,7.06-8.39,7.33-13.45.23-4.24-1.36-8.32-4.29-11.42-2.41-2.55-6.05-5.72-10.32-6.9-7.86-2.17-15.73.69-19.28,6.77-1.44,2.46-2.4,7.58-2.5,9.21Z" fill="#231f20" stroke="#231f20" stroke-miterlimit="10" stroke-width="4.6"/><path d="M856.86,343.62c-.6,9.4,5.79,16.45,14.29,18.84,2.83.8,5.06.51,5.51.44,3.15-.48,6.78-1.53,9.26-3.49,4.33-3.44,7.06-8.39,7.33-13.45.23-4.24-1.36-8.32-4.29-11.42-2.41-2.55-6.05-5.72-10.32-6.9-7.86-2.17-15.73.69-19.28,6.77-1.44,2.46-2.4,7.58-2.5,9.21Z" fill="#f4eb42" stroke="#231f20" stroke-miterlimit="10" stroke-width="4.6"/><path d="M772.78,327.96c-.6,9.4,5.79,16.45,14.29,18.84,2.83.8,5.06.51,5.51.44,3.15-.48,6.78-1.53,9.26-3.49,4.33-3.44,7.06-8.39,7.33-13.45.23-4.24-1.36-8.32-4.29-11.42-2.41-2.55-6.05-5.72-10.32-6.9-7.86-2.17-15.73.69-19.28,6.77-1.44,2.46-2.4,7.58-2.5,9.21Z" fill="#231f20" stroke="#231f20" stroke-miterlimit="10" stroke-width="4.6"/><path d="M757.82,240.89c-.6,9.4,5.79,16.45,14.29,18.84,2.83.8,5.06.51,5.51.44,3.15-.48,6.78-1.53,9.26-3.49,4.33-3.44,7.06-8.39,7.33-13.45.23-4.24-1.36-8.32-4.29-11.42-2.41-2.55-6.05-5.72-10.32-6.9-7.86-2.17-15.73.69-19.28,6.77-1.44,2.46-2.4,7.58-2.5,9.21Z" fill="#fff" stroke="#231f20" stroke-miterlimit="10" stroke-width="4.6"/><path d="M285.66,440c-.6,9.4,5.79,16.45,14.29,18.84,2.83.8,5.06.51,5.51.44,3.15-.48,6.78-1.53,9.26-3.49,4.33-3.44,7.06-8.39,7.33-13.45.23-4.24-1.36-8.32-4.29-11.42-2.41-2.55-6.05-5.72-10.32-6.9-7.86-2.17-15.73.69-19.28,6.77-1.44,2.46-2.4,7.58-2.5,9.21Z" fill="#f4eb42" stroke="#231f20" stroke-miterlimit="10" stroke-width="4.6"/><path d="M703.52,316.91c-.6,9.4,5.79,16.45,14.29,18.84,2.83.8,5.06.51,5.51.44,3.15-.48,6.78-1.53,9.26-3.49,4.33-3.44,7.06-8.39,7.33-13.45.23-4.24-1.36-8.32-4.29-11.42-2.41-2.55-6.05-5.72-10.32-6.9-7.86-2.17-15.73.69-19.28,6.77-1.44,2.46-2.4,7.58-2.5,9.21Z" fill="#a1cf6d" stroke="#231f20" stroke-miterlimit="10" stroke-width="4.6"/><path d="M891.36,165.05c27.64-5.43,43.19-29.28,43.62-55.71.14-8.8-2.38-15.03-2.92-16.28-3.78-8.75-9.59-18.46-17.15-24.12-13.25-9.91-29.65-14.03-44.5-10.95-12.44,2.58-23.04,10.27-29.77,21.11-5.53,8.92-11.94,21.85-12.1,35.12-.28,24.39,13.99,44.99,34.26,50.61,8.22,2.28,23.77,1.17,28.55.23Z" fill="#f4eb42" stroke="#231f20" stroke-miterlimit="10" stroke-width="4.6"/><path d="M550.71,371.42c27.64-5.43,43.19-29.28,43.62-55.71.14-8.8-2.38-15.03-2.92-16.28-3.78-8.75-9.59-18.46-17.15-24.12-13.25-9.91-29.65-14.03-44.5-10.95-12.44,2.58-23.04,10.27-29.77,21.11-5.53,8.92-11.94,21.85-12.1,35.12-.28,24.39,13.99,44.99,34.26,50.61,8.22,2.28,23.77,1.17,28.55.23Z" fill="#f4eb42" stroke="#231f20" stroke-miterlimit="10" stroke-width="4.6"/><path d="M1380.95,555.24c-.6,9.4,5.79,16.45,14.29,18.84,2.83.8,5.06.51,5.51.44,3.15-.48,6.78-1.53,9.26-3.49,4.33-3.44,7.06-8.39,7.33-13.45.23-4.24-1.36-8.32-4.29-11.42-2.41-2.55-6.05-5.72-10.32-6.9-7.86-2.17-15.73.69-19.28,6.77-1.44,2.46-2.4,7.58-2.5,9.21Z" fill="#231f20" stroke="#231f20" stroke-miterlimit="10" stroke-width="4.6"/><path d="M1321.28,480.77c-.6,9.4,5.79,16.45,14.29,18.84,2.83.8,5.06.51,5.51.44,3.15-.48,6.78-1.53,9.26-3.49,4.33-3.44,7.06-8.39,7.33-13.45.23-4.24-1.36-8.32-4.29-11.42-2.41-2.55-6.05-5.72-10.32-6.9-7.86-2.17-15.73.69-19.28,6.77-1.44,2.46-2.4,7.58-2.5,9.21Z" fill="#00b1dc" stroke="#231f20" stroke-miterlimit="10" stroke-width="4.6"/><path d="M1118.3,282.89c-4.47-3.97,1.32-12.03,6.62-9.64,2.77,1.69,3.53,6.22,1.57,8.78-1.89,2.05-6.04,2.94-8.18.86Z" fill="#ac9181" stroke="#231f20" stroke-miterlimit="10" stroke-width="4.6"/><path d="M1240.94,375.03c2.16,2.26,4.21,4.64,6.22,7.04s4,4.78,5.6,7.44c4.91,8.15,8.03,17.19,11.13,26.13.44,1.28,1.71,2.12,3.08,1.75,1.24-.34,2.19-1.79,1.75-3.08-2.52-7.28-5.08-14.57-8.47-21.5-1.39-2.83-2.89-5.64-4.74-8.2-1.69-2.33-3.51-4.56-5.36-6.76s-3.69-4.32-5.65-6.37c-2.23-2.33-5.76,1.21-3.54,3.54h0Z" fill="#231f20"/><path d="M1206.03,380.03c1.44,6.57,2.34,13.43,2.68,20.15.23,4.63.73,9.14,1.88,13.64s2.85,9.19,4.46,13.72c.45,1.27,1.7,2.12,3.08,1.75,1.23-.34,2.2-1.8,1.75-3.08-1.61-4.53-3.27-9.06-4.46-13.72-1.09-4.27-1.47-8.46-1.73-12.84-.42-6.99-1.33-14.11-2.83-20.95-.69-3.14-5.51-1.81-4.82,1.33h0Z" fill="#231f20"/><path d="M1195.16,353.73c.01,7.69-.29,24.86-.27,32.55,6.83-4.44,15.84-5.31,23.39-2.28.08-6.81,1.16-13.61,3.19-20.11,2.7,6.83,5.07,13.78,7.11,20.84,7.66-5.51,16.81-8.95,26.2-9.85-2.78-6.18-5.55-12.36-8.33-18.53-.34-.76-4.53-7.64-5.25-8.06-1.16-.68-10.49-11.75-25.49-8.94-6.37,1.19-11.12,10.87-20.56,14.39Z" fill="#a1cf6d" stroke="#231f20" stroke-miterlimit="10" stroke-width="4.6"/><path d="M1161.04,296.74c6.92,7.69,21.92,12.54,26.06,22.02,1.03,2.36,1.48,4.94,1.85,7.49,1.39,9.71,1.74,19.56,1.04,29.34,17.51-6.43,36.91-12.88,54.35-6.27,1.85-2.31.82-5.7-.34-8.42-3.5-8.25-7.48-16.31-11.9-24.11,4.79,1.46,9.58,2.92,14.37,4.38.38-4.49,3.48-14.85,3.86-19.34-8.57-5.33-19.86-4.8-28.43-10.13-4.43,5.26-12.38,5.62-19.18,4.6-9.81-1.47-19.32-4.94-27.77-10.14-1.1-.68-2.33-1.42-3.6-1.18-.9.17-1.64.79-2.3,1.42-3.19,2.99-5.91,6.49-8.02,10.33Z" fill="#f4eb42" stroke="#231f20" stroke-miterlimit="10" stroke-width="4.6"/><path d="M1217.46,426.87c-5.44-4.76-14.23-6.24-21.46-6.53-4.81-.19-9.66.75-14.07,2.68-3.26,1.42-3.36,6-.18,7.6,4.56,2.31,9.66,3.57,14.77,3.6,7.54.04,15.07-2.6,20.94-7.35Z" fill="#231f20"/><path d="M1266.66,415.42c.03-1.5,1.07-2.77,2.06-3.89,6.89-7.83,14.6-15.87,24.76-18.24.43-.1.89-.19,1.31-.05.95.31,1.18,1.55,1.1,2.55-.37,4.41-3.62,8-6.99,10.86-6.29,5.33-14.23,9.53-22.43,8.72" fill="#231f20"/><path d="M1229.94,243.82c7.46,16.42-2.37,40.17-19.6,45.85-31.86,6.3-53.22-44.88-23.87-60.86,14.32-8.62,35.74,1.48,43.47,15Z" fill="#b6a69e" stroke="#231f20" stroke-miterlimit="10" stroke-width="4.6"/><path d="M1217.11,268.25c8.65-2.96,7.79-21.99-2.6-22.26-12.17.87-11.57,25.98,2.6,22.26Z" fill="#231f20" stroke="#231f20" stroke-miterlimit="10" stroke-width="4.6"/><path d="M1185.18,245.58c-7.39,5.74-9.75,23.06,1.27,24.29.48.05.96.1,1.44.16,16.78,2.22,14.81-26.32.1-25.49-1.02.06-2,.41-2.81,1.04Z" fill="#231f20"/><path d="M1189.99,266.79c3.49.15,4.81-3.86,3.89-4.72-2.69-2.6-6.11-4.5-9.82-3.08,0,0-.83.24-.87,1.2-.16,3.69.56,6.33,6.79,6.6Z" fill="#fff"/><path d="M1187.47,247.64c-5.03,2.3-1.69,4.68,1.47,4.81,1.34.05,2.27-.55,3.2-1.32,1.03-.85.82-2.64-.38-3.11-1.43-.55-3.3-.74-4.29-.38Z" fill="#fff"/><path d="M1208.89,263.06c.34,1.39,1.58,2.21,2.91,2.76,1.46.61,3.05.77,4.6.45,12.12-2.46-13.61-16.37-7.51-3.21Z" fill="#fff"/><path d="M1217.58,251.12c.29-.8.04-1.7-.62-2.25-3.89-3.22-11.66,4.97-2.97,5.44,1.83,0,3-1.57,3.58-3.19Z" fill="#fff"/><path d="M1248.97,314.38c6.25.11,12.42.93,18.47,2.46,1.21.31,2.84-.39,3.08-1.75,1.58-9.1,3.17-18.21,4.75-27.31.23-1.33-.36-2.69-1.75-3.08-1.2-.33-2.84.41-3.08,1.75-1.58,9.1-3.17,18.21-4.75,27.31l3.08-1.75c-6.47-1.64-13.13-2.53-19.8-2.64-3.22-.05-3.22,4.95,0,5h0Z" fill="#231f20"/><path d="M1163.32,287.96c-11.33-3.74-22.87-6.81-34.57-9.2-1.32-.27-2.7.38-3.08,1.75-.34,1.24.42,2.8,1.75,3.08,11.69,2.38,23.23,5.45,34.57,9.2,3.06,1.01,4.38-3.82,1.33-4.82h0Z" fill="#231f20"/><path d="M1260.17,273.98c-1.26,4.76-3.03,9.71-1.85,14.5.27,1.08.73,2.19,1.66,2.8.69.46,1.54.58,2.35.68,6.65.88,13.31,1.77,19.96,2.65.9.12,1.85.23,2.69-.1,1.18-.47,1.86-1.68,2.41-2.82,5.59-11.77,6.02-25.29,9.98-37.7,1.28-4,2.55-9.27-.9-11.68-1.09-.76-2.45-1.02-3.77-1.24-8.07-1.35-14.31-2.83-22.49-2.94-1.07-.01-2.19,0-3.1.56-1,.62-1.52,1.78-1.94,2.88-1.22,3.21-2.96,24.66-5.01,32.4Z" fill="#231f20"/><path d="M1257.76,273.31c-.94,3.51-2.04,6.99-2.29,10.64-.21,3.19.22,7.62,3.24,9.48,1.45.89,3.19.97,4.83,1.19,1.87.25,3.73.5,5.6.74,3.73.5,7.46.99,11.2,1.49,1.6.21,3.34.62,4.94.19s2.84-1.6,3.7-3c1.67-2.74,2.73-6.05,3.68-9.1,1.98-6.37,3.05-12.98,4.41-19.5.69-3.34,1.46-6.67,2.46-9.93.81-2.64,1.66-5.32,1.68-8.12s-1.02-5.62-3.46-7.23c-1.31-.87-2.84-1.23-4.37-1.49-1.85-.32-3.7-.64-5.55-.97-3.25-.58-6.51-1.14-9.79-1.53-1.65-.2-3.3-.34-4.95-.43-1.79-.09-3.78-.31-5.54.13-4.27,1.05-5.09,5.66-5.64,9.35-.74,4.97-1.3,9.97-1.94,14.95-.55,4.26-1.09,8.86-2.21,13.16-.81,3.12,4.01,4.45,4.82,1.33.89-3.41,1.36-6.93,1.84-10.41.59-4.22,1.1-8.45,1.63-12.67.25-2,.39-3.08.68-5.02.18-1.17.34-2.35.63-3.5.1-.41.22-.8.39-1.19.49-1.08.89-1.2,2.06-1.22,3.06-.04,6.16.25,9.2.65s5.89.94,8.83,1.47c1.47.26,2.93.51,4.4.77,1.09.19,2.4.34,3.2,1.18,1.06,1.12.85,3.28.52,4.93-.52,2.63-1.49,5.16-2.16,7.75-1.52,5.82-2.49,11.77-3.76,17.65-.62,2.89-1.32,5.76-2.2,8.58-.44,1.4-.92,2.8-1.45,4.17-.51,1.29-1,2.76-1.82,3.89-.67.93-1.72.52-2.76.38-1.79-.24-3.57-.47-5.36-.71-3.73-.5-7.46-.99-11.2-1.49-1.01-.13-3.4-.03-4.08-.86-.8-.97-.76-2.96-.74-4.13.06-3.49,1.25-6.87,2.15-10.22.83-3.11-3.99-4.44-4.82-1.33Z" fill="#231f20"/><path d="M1290.72,261.04c-4.96.47-7.88-5.58-8.02-9.92,4.08,47.31-29.88,20.47-7.92,12.63" fill="none" stroke="#fff" stroke-miterlimit="10" stroke-width="4.6"/><path d="M812.27,456.86v-.02c0-5.3-4.3-9.6-9.59-9.6-.02,0-.04,0-.06,0-.47-4.05-3.92-7.2-8.1-7.2-3.07,0-5.75,1.7-7.14,4.21-1.32-2.73-4.1-4.61-7.34-4.61-4.33,0-7.85,3.37-8.13,7.62-1.19-.68-2.56-1.07-4.03-1.07-4.5,0-8.16,3.65-8.16,8.16,0,1.51.42,2.92,1.14,4.14-5.74,1.59-9.97,6.11-9.97,12.36,0,7.51,6.09,13.59,13.59,13.59,3.15,0,6.05-1.08,8.35-2.88,1.72,2.58,4.66,4.29,7.99,4.29,3.86,0,7.17-2.28,8.7-5.56,1.53,3.28,4.84,5.56,8.7,5.56,3.17,0,5.97-1.54,7.72-3.91,1.78.86,3.77,1.35,5.88,1.35,7.51,0,13.59-6.09,13.59-13.59s-5.86-12.62-13.16-12.85Z" fill="#fff" stroke="#231f20" stroke-miterlimit="10" stroke-width="4.6"/><path d="M522.06,339.19c-1.14,4.3-2.73,8.77-1.67,13.09.24.97.66,1.98,1.5,2.53.62.41,1.39.52,2.13.62,6.01.8,12.02,1.6,18.03,2.4.81.11,1.67.21,2.43-.09,1.07-.42,1.68-1.52,2.18-2.55,5.04-10.63,5.44-22.84,9.02-34.05,1.15-3.62,2.3-8.37-.81-10.55-.99-.69-2.22-.92-3.4-1.12-7.29-1.22-12.92-2.56-20.31-2.65-.96-.01-1.98,0-2.8.51-.91.56-1.37,1.61-1.75,2.6-1.1,2.9-2.68,22.28-4.52,29.26Z" fill="#231f20"/><path d="M519.65,338.53c-.86,3.2-1.86,6.38-2.07,9.7-.19,2.96.25,6.81,2.9,8.63,1.28.88,2.77.97,4.27,1.17,1.71.23,3.41.45,5.12.68,3.41.45,6.82.91,10.23,1.36,1.52.2,3.14.59,4.66.2s2.57-1.36,3.39-2.6c1.62-2.46,2.58-5.58,3.45-8.37,1.81-5.76,2.78-11.74,4-17.65.63-3.03,1.32-6.05,2.22-9.01.73-2.39,1.5-4.8,1.54-7.32s-.83-5.13-2.99-6.7c-2.42-1.77-5.95-1.85-8.81-2.36s-5.84-1.03-8.78-1.4-6.48-.89-9.56-.42c-4.25.65-5.24,4.86-5.78,8.44-.68,4.47-1.17,8.97-1.76,13.45-.51,3.96-.99,8.2-2.03,12.2-.81,3.12,4.01,4.45,4.82,1.33,1.77-6.79,2.26-13.97,3.14-20.91.32-2.53.5-4.94,1.18-7.66.09-.38.2-.74.37-1.09.45-.95.95-.89,1.97-.88,2.73.02,5.47.24,8.17.61s5.21.85,7.81,1.31c1.29.23,2.58.45,3.87.67.96.17,2.15.3,2.81,1.06.79.9.64,2.78.35,4.21-.47,2.34-1.32,4.59-1.93,6.9-1.37,5.21-2.24,10.54-3.37,15.8-1.07,4.96-2.22,10.37-4.75,14.82-.62,1.09-1.38.72-2.54.56-1.62-.21-3.25-.43-4.87-.65-3.33-.44-6.66-.89-9.99-1.33-.79-.11-1.6-.19-2.39-.32-.25-.04-.49-.09-.74-.14-.17-.04-.55-.3-.3-.06-.79-.76-.73-2.63-.73-3.63.02-3.17,1.12-6.24,1.93-9.28s-3.99-4.44-4.82-1.33Z" fill="#231f20"/><path d="M549.66,327.5c-4.48.42-7.12-5.04-7.24-8.96,3.68,42.73-26.99,18.49-7.15,11.4" fill="none" stroke="#fff" stroke-miterlimit="10" stroke-width="4.6"/><path d="M540.94,301.27c3.22,0,3.22-5,0-5s-3.22,5,0,5h0Z" fill="#231f20"/><path d="M536.29,294.38c-.21.25-.22.27-.03.07-.26.19-.28.21-.04.06.25-.12.23-.12-.07,0,.12-.05.25-.09.37-.13.47-.15.96-.23,1.44-.33.29-.04.29-.05-.02,0,.14-.02.29-.03.43-.05.22-.02.44-.03.65-.04.55-.02,1.09-.02,1.64.02.25.02.51.04.76.07-.61-.08.31.06.41.09.5.1,1,.23,1.48.38.28.09.55.19.83.29.5.18-.32-.17.21.09s1.04.52,1.54.82c1.12.68,2.8.28,3.42-.9s.3-2.69-.9-3.42c-2.47-1.5-5.31-2.33-8.2-2.45s-6.51.33-8.27,2.88c-.74,1.08-.24,2.82.9,3.42,1.27.67,2.63.26,3.42-.9h0Z" fill="#231f20"/><path d="M531,290.04c3.03-2.21,6.58-3.57,10.35-3.7,2.94-.1,7,.29,8.7,3.05s6.01.22,4.32-2.52c-2.57-4.16-7.66-5.53-12.28-5.54s-9.7,1.54-13.6,4.39c-1.09.8-1.63,2.17-.9,3.42.63,1.07,2.32,1.7,3.42.9h0Z" fill="#231f20"/><path d="M526.09,284.6c1.84-1.82,4.18-2.94,6.58-3.83,2.62-.98,5.21-1.81,8.04-1.77s5.49.74,8.08,1.71c1.32.49,2.6,1.08,3.85,1.72.91.46,2.06.93,2.64,1.82,1.75,2.68,6.09.18,4.32-2.52s-5.26-4.12-8.25-5.34c-3.25-1.33-6.7-2.24-10.22-2.36s-6.76.79-9.99,2.01-6.17,2.65-8.59,5.05c-2.29,2.27,1.25,5.8,3.54,3.54h0Z" fill="#231f20"/><path d="M877.52,81.33c-4.83-.66-10.02-.33-14.13,2.29-4.11,2.61-6.74,7.95-5.08,12.54l-1.02,3.21c-5.89-.2-10.65,5.85-10.65,11.74,0,5.3,2.49,14.68,12.08,14.68,4.06,0,1.27,6.41,4.71,8.57l1.75-.48c.69,4.17,3.55,7.85,7.27,9.85s8.23,2.35,12.32,1.27c1.71-.45,2.72-1.06,4.08-2.18.18-.15.59-.6.8-.74.07-.04.14-.06.21-.02,1,.44,5.58,2.34,8.38,1.16,3.15-1.33,5.29-4.28,7.08-7.19,1.93-3.12,3.7-6.48,4-10.13l2.31,1.63c1.77,1.69,4.95.64,6.26-1.43,1.3-2.07,1.26-4.69,1.11-7.14-.16-2.61-.48-5.46-2.36-7.27-2.4-2.32-6.23-1.97-9.53-1.47l3.03-3.93c2-2.71,1.95-6.75-.11-9.42-2.06-2.67-5.96-3.73-9.09-2.47l.4-.33c.43-4.13.74-8.71-1.77-12.02-2.82-3.71-8.16-4.38-12.77-3.72-2.99.43-6.03,1.34-8.27,3.37s-3.49,5.37-2.38,8.18" fill="#a1cf6d"/><path d="M877.52,78.83c-5.85-.76-12.19-.07-16.92,3.75-4.1,3.31-6.44,9.11-4.71,14.24v-1.33l-1.02,3.21,2.41-1.84c-5.03-.07-9.48,3.3-11.59,7.74-1.79,3.78-1.87,7.86-.89,11.87.9,3.67,2.81,7.07,5.87,9.34,1.66,1.23,3.64,1.97,5.67,2.27.61.09,1.22.16,1.84.18.26,0,.52.03.78.02-.43.02-.12-.05,0,.04-.01-.01-.74-.47-.32-.12-.11-.09-.21-.41-.07-.04-.21-.56.12.51.16.7s.07.38.1.58c-.08-.51.03.29.04.31.08.6.15,1.2.25,1.79.18,1.02.5,2.04,1.03,2.93.75,1.24,2.07,2.5,3.61,2.34.71-.08,1.4-.34,2.09-.53l-3.08-1.75c1.09,6.01,5.82,10.81,11.54,12.66,3.12,1.01,6.47,1.09,9.68.52,1.46-.26,2.9-.69,4.21-1.41,1.21-.66,2.16-1.63,3.22-2.47l-1.77.73.21-.02-1.26-.34c2.07.91,4.19,1.6,6.45,1.82,3.11.31,5.79-1.01,8.04-3.08s3.92-4.76,5.41-7.38c1.73-3.03,2.98-6.2,3.33-9.68l-3.76,2.16c.74.52,1.49,1.03,2.22,1.56.15.1.09.06-.18-.12.24.2.5.39.76.57.44.26.94.47,1.43.6.93.25,1.91.23,2.85.06,4.56-.83,6.38-5.34,6.43-9.5.05-3.84-.25-8.67-3.3-11.43-3.28-2.97-7.77-2.59-11.83-1.98l2.82,3.67,2.72-3.52c1.55-2.01,2.31-4.58,2.09-7.12-.58-6.63-7.44-11.22-13.79-8.85l2.43,4.18c1.37-1.12,1.26-3.01,1.36-4.66.12-1.87.07-3.73-.24-5.58-.59-3.54-2.65-6.7-5.82-8.44-2.95-1.62-6.48-2.07-9.8-1.81-3.84.3-7.75,1.29-10.81,3.73-3.23,2.58-5.09,7.12-3.66,11.14.45,1.27,1.7,2.12,3.08,1.75,1.23-.34,2.2-1.8,1.75-3.08-1.07-2.99,1.02-5.64,3.59-6.98,2.75-1.43,6.21-1.83,9.27-1.58,2.6.21,5.28,1.25,6.63,3.6,1.64,2.87,1.12,6.66.79,9.79l.73-1.77-.4.33c-1.9,1.56.14,5.03,2.43,4.18,3.79-1.41,7.98,1.27,7.48,5.52-.29,2.51-2.67,4.72-4.14,6.63-.59.77-.35,2.09.2,2.78.68.85,1.59,1.05,2.63.9,2.17-.32,5.33-.84,7.1.82s1.69,5.11,1.7,7.36c.01,1.96-.36,4.98-2.72,5.06-.36.01-.29-.01-.71-.31-.25-.17-.49-.36-.74-.53l-1.83-1.29c-1.7-1.2-3.59.46-3.76,2.16-.4,4-2.81,7.83-5.09,11.03-1.04,1.46-2.3,2.83-3.88,3.7-1.2.66-2.48.52-3.82.2-.74-.17-1.46-.4-2.18-.65-.26-.09-.51-.2-.76-.29-.07-.02-.38-.15-.02,0,.43.18-.48-.21-.56-.24-2.07-.57-3.36,1.6-5,2.44-3.19,1.63-7.78,1.3-10.98-.1-3.66-1.6-6.26-4.85-6.97-8.77-.24-1.33-1.87-2.08-3.08-1.75l-1.75.48,1.93.25c.32.22-.48-.52-.16-.14-.09-.1-.18-.29-.24-.42.16.36,0-.01-.03-.08-.11-.32-.19-.64-.25-.97-.03-.17-.06-.33-.09-.5-.08-.44,0,.05-.03-.21-.2-1.5-.28-3.08-1.09-4.4-1-1.63-2.61-2.14-4.43-2.2-1.51-.05-2.95-.41-4.14-1.1-2.12-1.23-3.52-3.52-4.25-5.82-.2-.63-.37-1.28-.5-1.93-.07-.31-.12-.63-.17-.95-.02-.09-.07-.5,0-.03-.02-.19-.04-.38-.06-.56-.14-1.43-.13-2.83.25-4.22.96-3.55,3.92-6.86,7.81-6.81,1.13.02,2.08-.79,2.41-1.84.42-1.34,1.35-3.11,1.02-4.54-.27-1.15-.53-2.12-.34-3.32.2-1.26.71-2.43,1.39-3.5,3.31-5.19,10.26-5.56,15.75-4.84,1.34.18,2.5-1.27,2.5-2.5,0-1.5-1.15-2.32-2.5-2.5h0Z" fill="#231f20"/><path d="M865.27,98.36c-2.37,5.42-2.06,13.88-2.17,18.51.09,1.39,1.12,3.15,2.39,3.67,1.06.53,2.01.63,3.31.64,2.86.02,5.54-1.56,6.76-4.14.67-1.41,1.07-2.96,1.5-4.34.43-1.97,1.15-5.02,1.46-8.11-4.11-2.93-8.5-5.39-13.26-6.22Z" fill="#fff" stroke="#231f20" stroke-miterlimit="10" stroke-width="4.6"/><path d="M875.11,128c-.74.08-1.25.77-1.1,1.49.17.84.54,1.89,1.33,2.87,1.77,2.22,4.42,2.59,5.81,2.61.53,0,1.03-.21,1.36-.63,2.24-2.85,5.47-5.07,9.13-6.94.56-.28.3-1.13-.32-1.07-5.4.55-10.81,1.1-16.21,1.65Z" fill="#0a0203" stroke="#231f20" stroke-miterlimit="10"/><path d="M874.17,109.48c.32,2.96-3.55,4.39-4.31,1.12-.53-1.59.68-3.43,2.29-3.56.99.48,2.23,1.17,2.02,2.44Z" fill="#a1cf6d"/><path d="M897.59,99.52c2.37,5.42,2.06,13.88,2.17,18.51-.09,1.39-1.12,3.15-2.39,3.67-1.35.67-2.75.81-4.1.36-.61-.2-1.25-.29-1.88-.4-3.26-.58-4.73-5-5.6-7.81-.43-1.97-1.15-5.02-1.46-8.11,4.11-2.93,8.5-5.39,13.26-6.22Z" fill="#fff" stroke="#231f20" stroke-miterlimit="10" stroke-width="4.6"/><path d="M888.69,110.63c-.32,2.96,3.55,4.39,4.31,1.12.53-1.59-.68-3.43-2.29-3.56-.99.48-2.23,1.17-2.02,2.44Z" fill="#a1cf6d"/><path d="M1176.21,585.61h-49.09c-3.87,0-7.01-3.15-7.01-7.01l-2-28.1c0-3.87,3.15-7.01,7.01-7.01h51.1c3.87,0,7.01,3.15,7.01,7.01v28.1c0,3.87-3.15,7.01-7.01,7.01Z" fill="#fff" stroke="#101415" stroke-miterlimit="10" stroke-width="4.6"/><path d="M1116.69,597.58c18.91,1.12,37.88,1.23,56.81.32,5.43-.26,10.86-.61,16.28-1.04,1.35-.11,2.5-1.07,2.5-2.5,0-1.27-1.15-2.61-2.5-2.5-18.89,1.49-37.85,1.98-56.79,1.44-5.43-.16-10.87-.4-16.29-.72-3.21-.19-3.2,4.81,0,5h0Z" fill="#101415"/><path d="M1151.73,579.06c3.22,0,3.22-5,0-5s-3.22,5,0,5h0Z" fill="#231f20"/><path d="M1146.55,571.73c-.19.23-.19.24,0,.04-.24.18-.25.19,0,.04.25-.13.24-.13-.03-.01.13-.05.26-.1.4-.14.51-.16,1.03-.25,1.56-.35.3-.05.31-.05.04-.01.16-.02.31-.04.47-.05.23-.02.47-.04.71-.05.59-.03,1.18-.02,1.77.03.27.02.55.04.82.08-.54-.07.41.08.5.1.54.11,1.07.25,1.6.41.3.09.59.21.89.31.5.17-.25-.14.27.11.57.27,1.12.56,1.66.89,1.12.68,2.8.28,3.42-.9s.3-2.69-.9-3.42c-2.63-1.6-5.66-2.49-8.74-2.61s-6.89.32-8.75,3.01c-.74,1.08-.24,2.82.9,3.42,1.27.67,2.63.26,3.42-.9h0Z" fill="#231f20"/><path d="M1140.91,566.97c3.29-2.4,7.17-3.87,11.26-4.01,3.24-.11,7.67.34,9.55,3.39,1.69,2.73,6.01.22,4.32-2.52-2.73-4.42-8.16-5.87-13.08-5.88-5.18,0-10.39,1.65-14.57,4.71-1.09.8-1.63,2.17-.9,3.42.63,1.07,2.32,1.7,3.42.9h0Z" fill="#231f20"/><path d="M1135.57,561.14c1.98-1.96,4.5-3.18,7.08-4.15,2.85-1.07,5.67-1.98,8.74-1.96s5.97.78,8.79,1.83c1.47.55,2.89,1.2,4.29,1.91,1.01.51,2.25,1.03,2.89,2.02,1.75,2.69,6.08.19,4.32-2.52-1.96-3.02-5.72-4.43-8.92-5.73-3.47-1.41-7.17-2.38-10.93-2.49s-7.24.89-10.7,2.2-6.54,2.82-9.1,5.36c-2.29,2.27,1.25,5.81,3.54,3.54h0Z" fill="#231f20"/><path d="M1403.97,364.83c-1.82,4.48.08,8.98,3.75,11.57,1.22.86,2.33,1.09,2.56,1.13,1.58.29,3.49.38,4.99-.16,2.63-.95,4.74-2.91,5.7-5.34.8-2.03.71-4.28-.19-6.28-.74-1.64-1.95-3.8-3.8-5.08-3.4-2.37-7.63-2.28-10.31.09-1.09.96-2.38,3.3-2.7,4.07Z" fill="#414042"/><path d="M1422.27,382.11c.21,1.55,1.46,2.51,2.91,2.65.48.05.83-.07.9-.09.49-.17,1.04-.45,1.38-.85.59-.69.87-1.58.74-2.41-.1-.7-.49-1.32-1.06-1.74-.47-.34-1.16-.75-1.88-.82-1.34-.12-2.51.58-2.88,1.68-.15.45-.14,1.31-.11,1.58Z" fill="#414042"/><path d="M1427.8,363.71c-.51,1.48.18,2.9,1.42,3.67.41.26.77.31.85.32.52.07,1.13.06,1.61-.14.83-.36,1.48-1.03,1.75-1.83.22-.67.15-1.4-.17-2.03-.27-.52-.7-1.19-1.32-1.57-1.14-.7-2.51-.6-3.33.21-.33.33-.71,1.11-.8,1.36Z" fill="#414042"/><path d="M1415.77,349.72c-.51,1.48.18,2.9,1.42,3.67.41.26.77.31.85.32.52.07,1.13.06,1.61-.14.83-.36,1.48-1.03,1.75-1.83.22-.67.15-1.4-.17-2.03-.27-.52-.7-1.19-1.32-1.57-1.14-.7-2.51-.6-3.33.21-.33.33-.71,1.11-.8,1.36Z" fill="#414042"/><path d="M1395.86,353.02c-.51,1.48.18,2.9,1.42,3.67.41.26.77.31.85.32.52.07,1.13.06,1.61-.14.83-.36,1.48-1.03,1.75-1.83.22-.67.15-1.4-.17-2.03-.27-.52-.7-1.19-1.32-1.57-1.14-.7-2.51-.6-3.33.21-.33.33-.71,1.11-.8,1.36Z" fill="#414042"/><path d="M1391.09,367.36c-.51,1.48.18,2.9,1.42,3.67.41.26.77.31.85.32.52.07,1.13.06,1.61-.14.83-.36,1.48-1.03,1.75-1.83.22-.67.15-1.4-.17-2.03-.27-.52-.7-1.19-1.32-1.57-1.14-.7-2.51-.6-3.33.21-.33.33-.71,1.11-.8,1.36Z" fill="#414042"/><path d="M1400.12,382.54c-.51,1.48.18,2.9,1.42,3.67.41.26.77.31.85.32.52.07,1.13.06,1.61-.14.83-.36,1.48-1.03,1.75-1.83.22-.67.15-1.4-.17-2.03-.27-.52-.7-1.19-1.32-1.57-1.14-.7-2.51-.6-3.33.21-.33.33-.71,1.11-.8,1.36Z" fill="#414042"/><path d="M1397.44,374.35c-.39,1.12.14,2.2,1.08,2.79.31.19.59.24.64.24.39.05.86.05,1.22-.11.63-.27,1.13-.78,1.33-1.39.17-.51.12-1.06-.13-1.54-.2-.39-.53-.91-1-1.2-.87-.53-1.9-.46-2.53.16-.25.25-.54.84-.61,1.04Z" fill="#414042"/><path d="M1412.43,381.24c-1.05.55-1.41,1.7-1.13,2.77.09.36.27.58.3.62.25.31.59.63.96.76.65.24,1.35.21,1.92-.1.47-.25.81-.69.96-1.21.12-.43.24-1.02.09-1.56-.26-.98-1.07-1.64-1.95-1.62-.36,0-.97.24-1.15.34Z" fill="#414042"/><path d="M1424.99,370.81c-1.05.55-1.41,1.7-1.13,2.77.09.36.27.58.3.62.25.31.59.63.96.76.65.24,1.35.21,1.92-.1.47-.25.81-.69.96-1.21.12-.43.24-1.02.09-1.56-.26-.98-1.07-1.64-1.95-1.62-.36,0-.97.24-1.15.34Z" fill="#414042"/><path d="M1423.38,357.18c-1.17.22-1.85,1.21-1.9,2.31-.02.37.08.63.11.68.15.37.38.77.7,1.01.55.42,1.23.59,1.86.47.53-.1.98-.42,1.28-.87.24-.37.53-.91.55-1.46.04-1.02-.54-1.88-1.39-2.12-.34-.1-1-.06-1.2-.02Z" fill="#414042"/><path d="M1408.83,350.79c-1.03.6-1.33,1.76-1,2.82.11.35.29.56.33.6.27.29.62.6,1,.72.66.21,1.36.14,1.91-.19.46-.28.78-.73.9-1.25.1-.43.19-1.03.02-1.56-.31-.97-1.15-1.59-2.03-1.53-.36.02-.96.29-1.14.39Z" fill="#414042"/><path d="M1397.95,360.95c-.76.92-.64,2.11.03,2.99.22.29.47.43.52.45.35.18.79.35,1.18.33.69-.03,1.33-.34,1.73-.83.34-.42.48-.95.42-1.49-.05-.44-.18-1.03-.52-1.47-.62-.8-1.62-1.1-2.43-.74-.33.15-.8.6-.93.76Z" fill="#414042"/><path d="M1413.4,375.35c-.04.91.2,6.7.24,7.61" fill="none" stroke="#414042" stroke-miterlimit="10" stroke-width="2"/><path d="M1417.17,373.58c.84.94,3.46,3.6,4.4,4.44.55.49,2.65,2.72,3.37,2.89" fill="none" stroke="#414042" stroke-miterlimit="10" stroke-width="2"/><path d="M1418.96,370.63c.63.13,5.07,1.14,5.62,1.47" fill="none" stroke="#414042" stroke-miterlimit="10" stroke-width="2"/><path d="M1419.46,366.56c1.14.11,3.8-.77,4.89-1.13s3.52-.39,4.64-.61" fill="none" stroke="#414042" stroke-miterlimit="10" stroke-width="2"/><path d="M1418.17,363.15c.44-.45,1.71-1.51,2.19-1.91.35-.3,1.76-1.12,2.2-1.29" fill="none" stroke="#414042" stroke-miterlimit="10" stroke-width="2"/><path d="M1418.17,352.61c-.4,2.05-1.9,6.06-2.4,8.1" fill="none" stroke="#414042" stroke-miterlimit="10" stroke-width="2"/><path d="M1409.9,354.25c-.1.92.09,2.66.32,3.55.09.35.18,1.39.27,1.74" fill="none" stroke="#414042" stroke-miterlimit="10" stroke-width="2"/><path d="M1399.76,355.23c1.68,1.77,5.41,4.6,7.33,6.1" fill="none" stroke="#414042" stroke-miterlimit="10" stroke-width="2"/><path d="M1400.42,362.83c.21-.01,1.73.69,1.93.76.6.19,2.49,1.04,3.08,1.23" fill="none" stroke="#414042" stroke-miterlimit="10" stroke-width="2"/><path d="M1395.7,368.57c1.36.1,3.96-.1,5.32-.09.69,0,2.8.28,3.49.36" fill="none" stroke="#414042" stroke-miterlimit="10" stroke-width="2"/><path d="M1400.6,374.76c.11-.17,1.34-.74,1.53-.82.79-.36,2.39-1.03,3.18-1.38" fill="none" stroke="#414042" stroke-miterlimit="10" stroke-width="2"/><path d="M1404.33,382.66c0-.24.58-1.86.69-2.07.39-.81.86-1.59,1.38-2.32.45-.63,1.35-2.06,1.69-2.75" fill="none" stroke="#414042" stroke-miterlimit="10" stroke-width="2"/></svg>