<?xml version="1.0" encoding="UTF-8"?><svg id="Layer_1" xmlns="http://www.w3.org/2000/svg" viewBox="0 0 71.81 156.51"><path d="M48.24,153.26l-23.67-29.58c-.64-.8-.65-1.9-.04-2.8l13.83-20.18c.77-1.12.54-2.51-.53-3.26l-21.23-14.84c-1.03-.72-1.29-2.05-.6-3.15l9.76-15.77c.71-1.15.41-2.53-.71-3.22l-20.23-12.68c-1.1-.69-1.41-2.06-.72-3.2l9.12-15.06c1.25-2.07-.82-4.27-3.24-3.44l-4.04,1.39c-2.33.8-4.39-1.22-3.33-3.28L12.98,3.92c.74-1.44,2.66-2.05,4.08-1.3l20.64,10.96c2.17,1.15,1.36,4.25-1.23,4.7l-6.12,1.06c-.95.17-1.78.76-2.2,1.56l-9.65,18.64c-.6,1.17-.21,2.49.94,3.12l19.43,10.64c1.08.59,1.51,1.82,1.01,2.96l-8.87,20.44c-.49,1.14-.07,2.38,1.03,2.97l22.6,12.19c1.15.62,1.56,1.95.95,3.12l-12.64,24.53c-.53,1.02-.29,2.19.59,6.88l25.12,19.9c1.45-2.85,1.01-.64-.83.2l-16.15,7.4c-1.23.56-2.66.29-3.42-.65Z" fill="#f4eb42" stroke="#231f20" stroke-miterlimit="10" stroke-width="4.6"/></svg>